<svg width="504" height="280" viewBox="0 0 504 280" fill="none" xmlns="http://www.w3.org/2000/svg">
<path d="M364.69 276.252C364.69 276.835 364.495 277.417 364.495 278C371.894 278 379.097 278 386.496 278C386.496 277.417 386.496 276.835 386.496 276.252C379.292 276.252 371.894 276.252 364.69 276.252Z" fill="white"/>
<path d="M16.5762 273.145C14.4345 273.145 13.2664 274.31 13.461 277.029C17.939 276.446 22.8064 278.389 26.311 274.504C26.1163 274.116 26.1163 273.533 25.9216 273.145C22.8064 273.145 19.6913 272.95 16.5762 273.145Z" fill="white"/>
<path d="M413.753 260.326C415.895 258.578 416.868 257.996 416.868 257.607C416.674 256.248 416.089 255.082 415.7 253.917C415.311 255.471 414.727 257.024 413.753 260.326Z" fill="white"/>
<path d="M474.304 253.917C474.693 253.917 474.888 253.917 475.277 253.917C475.277 252.946 475.277 252.169 475.277 251.198C474.888 251.198 474.693 251.198 474.304 251.198C474.304 251.975 474.304 252.946 474.304 253.917Z" fill="white"/>
<path d="M424.849 246.925C425.043 249.45 425.043 251.198 425.043 252.946C425.627 253.334 426.212 253.723 426.99 254.111C428.937 250.421 431.079 246.731 432.831 243.041C433.026 242.458 432.247 241.487 432.247 241.487C429.911 243.235 427.185 245.371 424.849 246.925Z" fill="white"/>
<path d="M461 109C461 109.75 461 110.25 461 111C461 110.5 461.195 109.25 461 109Z" fill="white"/>
<path d="M335.429 90.9517C334.068 88.2201 332.706 85.0981 331.151 82.1713C329.4 81.3909 327.65 80.6104 325.899 79.8299C325.316 80.4153 324.927 80.8055 324.343 81.0006C323.954 81.3909 323.371 81.3909 322.787 81.7811C312.48 87.0493 306.839 94.8541 308.201 106.756C308.395 108.903 308.201 111.049 308.201 113.195C308.59 119.244 310.729 124.903 315.591 128.024C320.454 131.146 325.51 135.049 331.929 134.659C332.901 134.659 333.679 135.634 334.846 136.22C335.429 133.878 339.903 135.439 339.125 131.732C339.125 131.732 339.903 131.537 340.292 131.342C340.681 133.098 340.875 134.854 341.07 136.22C347.488 134.854 353.517 133.488 361.102 131.732C364.019 129.781 368.298 126.854 372.966 123.732C374.522 126.464 376.078 129.585 377.05 131.537C379.773 133.488 381.523 134.854 384.052 137C388.914 136.22 394.554 135.244 400 134.463C400 129 400 123.927 400 119.244C396.694 118.268 393.776 117.293 391.248 116.512C391.248 99.7321 391.248 84.1225 391.248 68.3178C391.248 62.6594 390.859 57.3911 389.692 51.7327C387.942 42.9523 382.496 37.684 374.911 34.9524C368.298 32.6109 361.102 30.6597 353.906 31.05C347.877 31.4402 341.847 32.6109 335.818 33.3914C324.732 37.684 315.786 44.5132 311.702 56.2204C311.702 59.1472 311.702 62.074 311.702 64.8057C312.48 65.5862 313.257 66.3666 314.035 67.1471C317.731 67.1471 321.426 67.1471 326.094 67.1471C327.455 64.8057 329.011 62.074 330.567 59.3423C330.373 59.1472 329.984 58.9521 329.789 58.757C333.484 55.4399 337.18 52.1229 340.681 49.1961C347.488 49.1961 353.517 49.3912 359.352 49.1961C363.825 49.001 367.131 51.1473 369.854 54.2692C371.215 55.6351 371.993 57.5863 372.966 59.3423C369.271 61.6838 372.771 66.1715 370.632 69.0983C367.909 73.5861 360.908 71.0495 358.379 76.708C362.463 79.0494 358.185 85.6835 364.214 87.4396C366.937 86.8542 369.854 86.0737 372.771 85.2933C374.911 99.537 370.243 110.269 359.157 118.073C354.1 118.073 349.238 120.61 343.792 120.22C338.152 119.634 333.484 117.293 329.011 115.147C325.899 109.488 326.094 104.025 329.4 96.6102C330.567 95.6346 332.901 93.4883 335.429 90.9517Z" fill="white"/>
<path d="M300.376 94.1068C298.427 89.4432 298.622 85.3625 298.232 81.8648C294.333 76.6182 291.019 72.1489 288.485 68.6511C290.239 62.6273 290.239 56.4091 293.358 52.9114C297.257 48.2477 292.968 41.6409 298.232 38.9204C296.088 32.5079 294.138 26.8727 291.994 20.2659C291.604 19.8773 290.239 18.517 289.07 17.3511C279.127 7.05227 267.04 2 252.809 2C231.365 2.19432 209.726 2 189.061 2C184.578 5.49773 180.874 8.60682 176.39 12.1045C177.17 13.2705 178.144 15.0193 178.729 15.7966C177.949 20.6545 176.78 24.5409 176.78 28.6216C177.17 37.3659 178.339 45.9159 179.314 54.6602C179.899 59.1295 180.679 63.4045 181.459 68.2625C180.289 68.8455 178.339 69.6227 176 70.7886C182.043 79.7273 177.949 89.6375 179.314 99.1591C180.874 108.681 184.383 118.202 180.289 126.752C182.238 129.473 183.993 131.805 185.357 133.748C192.765 133.748 199.199 133.748 205.632 133.748C212.065 133.748 218.499 133.748 224.932 133.748C231.755 133.748 238.773 133.165 245.596 133.942C251.445 134.525 257.098 130.444 262.947 133.553C263.921 134.136 265.871 132.776 267.43 132.193C273.474 129.278 279.712 126.558 285.755 123.255C294.333 118.397 303.496 101.88 300.376 94.1068ZM226.491 46.4989C232.145 46.4989 237.993 46.4989 244.816 46.4989C243.062 49.4136 241.697 51.3568 240.723 53.1057C233.899 54.8545 229.026 52.5227 224.737 49.2193C225.322 48.2477 225.907 47.4704 226.491 46.4989ZM248.52 100.131C241.697 100.131 235.654 100.131 228.831 100.131C226.686 96.4386 224.932 93.3295 222.592 89.4432C224.542 87.3057 226.881 84.9739 229.221 82.4477C238.773 81.2818 247.936 82.0591 256.903 88.083C253.784 92.358 251.055 96.4386 248.52 100.131Z" fill="white"/>
<path d="M502.73 9.98146C502.925 8.03859 505.069 3.95857 503.314 2.0157C502.535 1.23855 496.101 2.0157 494.736 2.0157C492.201 2.0157 489.667 2.0157 487.327 2.0157C484.208 2.0157 479.138 -0.510029 476.994 2.40428C476.019 3.76428 476.994 9.39861 476.994 11.1472C476.994 13.6729 476.994 16.1986 476.994 18.9187C476.994 24.3587 476.994 29.993 476.994 35.4331C476.994 37.9588 478.359 47.8674 476.409 49.4217C472.899 43.2045 468.22 39.9017 461.591 37.1816C458.277 35.8216 453.597 34.2673 449.893 34.2673C447.553 34.2673 445.409 35.2388 442.874 35.2388C429.421 35.4331 418.893 46.896 413.044 58.1646C413.239 55.6389 412.069 53.5017 410.899 51.3646C409.34 52.336 408.365 53.696 409.145 55.8332C410.314 55.6389 410.704 56.0275 410.899 56.9989C411.094 57.9703 411.484 58.7475 411.679 59.7189C411.484 61.2732 409.535 63.4104 408.95 64.9647C409.925 65.3532 409.925 65.9361 409.34 66.519C408.95 67.1018 408.56 67.6847 408.365 68.2676C408.17 69.8219 408.17 71.3761 407.975 72.9304C407.585 76.6219 407 80.1191 407 84.0048C407 91.7763 407.78 99.742 409.145 107.514C409.925 111.205 409.925 114.896 409.925 118.782C409.925 120.725 409.925 122.862 409.925 124.805C409.925 127.719 410.12 127.719 412.264 129.468C411.679 123.834 411.484 117.616 412.459 112.176C416.164 120.142 422.208 129.274 430.591 133.159C434.686 135.102 438.78 136.268 443.069 137.434C445.409 138.017 446.774 139.182 449.113 138.988C451.843 138.599 454.182 136.074 456.912 137.628C455.352 140.348 456.717 139.765 456.912 142.485C457.887 142.097 459.057 141.902 460.226 141.902C460.421 140.542 460.616 138.988 460.616 137.628C461.786 134.325 461.786 135.685 464.321 134.714C467.83 133.548 472.119 129.857 475.044 126.554C476.409 127.914 476.604 130.439 476.799 132.188C477.189 135.297 477.774 135.491 479.918 135.297C477.774 139.377 476.019 143.845 473.289 147.537C469.39 152.977 465.686 158.417 462.176 164.051C459.447 168.52 455.157 172.211 452.233 176.485C451.063 179.205 449.503 181.731 447.359 185.034C445.019 178.817 448.723 177.651 452.233 176.485C452.233 174.154 453.013 172.211 453.597 170.268C453.987 168.714 454.182 166.965 454.572 165.411C449.893 169.491 445.409 173.377 442.484 175.708C439.755 184.063 437.61 190.28 435.075 198.44C439.17 196.886 441.704 195.914 445.019 194.554C446.384 196.303 447.748 198.246 449.308 200.188C443.654 201.937 443.654 207.571 441.12 211.457C438.78 214.954 438.585 220.394 433.126 221.56C433.126 223.309 433.126 225.057 433.126 227C434.88 227 436.635 227 438.585 227C439.17 225.057 439.755 223.114 440.34 221.171C442.484 213.788 448.918 208.154 449.308 200.188C455.937 198.051 455.352 191.057 459.252 186.394C461.006 186.394 462.956 186.394 463.736 186.394C466.465 182.508 468.61 179.4 470.755 176.291C471.145 178.04 471.34 179.594 471.73 181.343C472.315 181.343 472.899 181.148 473.484 181.148C473.289 179.4 473.094 177.651 473.094 176.097C472.314 176.097 471.73 176.097 470.95 176.291C470.95 174.543 470.95 172.988 470.95 170.851C473.094 172.017 474.264 172.6 475.239 173.183C476.409 170.074 477.384 167.354 478.553 164.634C481.283 158.222 483.428 151.228 487.327 145.594C490.252 141.708 489.667 138.599 488.107 135.102C489.667 135.102 491.421 135.102 492.981 135.102C492.981 135.297 492.981 135.491 493.176 135.879C493.761 135.879 494.346 135.685 494.931 135.685C494.931 135.491 494.931 135.297 494.931 135.297C497.465 135.297 500.195 135.297 502.73 135.297C502.73 121.114 502.73 107.125 502.73 92.942C502.73 84.5877 502.73 76.4276 502.73 68.0733C502.73 66.7133 503.314 63.6047 502.73 62.4389C502.145 61.2732 500 61.6618 499.22 60.4961C498.635 59.5246 499.22 56.2218 499.22 55.056C500.585 55.6389 501.755 56.2218 503.12 56.8046C502.34 54.6675 503.509 51.3646 503.12 49.2274C502.925 47.0903 503.704 44.7588 503.704 42.2331C503.704 36.4045 503.704 30.7702 503.704 24.9416C503.704 22.0273 503.704 19.1129 503.704 16.3929C503.509 14.2558 502.535 11.73 502.73 9.98146ZM467.245 42.4274C467.245 42.6217 467.635 45.536 466.855 45.7303C465.491 45.9245 467.05 42.816 467.245 42.4274ZM465.881 46.7017C465.881 47.8674 464.906 48.256 463.931 48.6446C464.711 47.8674 465.296 47.2846 465.881 46.7017ZM463.736 51.5589C464.321 51.5589 464.711 51.5589 465.296 51.5589C464.906 52.9189 464.906 56.0275 463.736 56.2218C463.736 54.4732 463.736 52.9189 463.736 51.5589ZM462.176 120.725C462.566 119.948 462.956 119.171 463.346 118.394C464.321 118.976 464.906 119.948 465.491 120.919C464.321 120.725 463.346 120.725 462.176 120.725ZM468.22 131.022C467.44 131.217 467.05 130.828 467.44 129.468C467.635 129.468 468.025 129.468 468.22 129.468C468.22 130.051 468.025 130.634 468.22 131.022ZM476.409 93.3306C475.044 96.8277 474.654 100.713 472.899 104.016C470.95 108.096 467.44 108.291 469.585 112.759C468.22 112.954 466.855 113.148 465.686 113.148C465.686 113.731 465.686 114.119 465.686 114.702C465.296 115.091 464.516 116.062 463.541 116.451C462.956 113.925 464.126 108.874 461.396 112.954C460.226 112.371 460.616 110.234 460.811 108.874C460.811 108.096 460.811 107.125 460.811 106.348C459.642 106.348 458.277 106.154 457.107 106.154C457.107 107.902 458.082 112.759 457.107 114.314C455.352 117.034 446.384 113.148 443.849 111.399C438.975 108.096 435.66 102.268 434.881 96.4392C434.686 94.1077 435.27 90.9991 434.296 89.6391C434.296 90.0277 431.566 89.2505 431.761 89.2505C429.616 88.862 430.591 87.8905 428.252 89.0563C428.642 87.1134 428.836 84.1991 430.201 83.4219C430.981 83.0334 432.931 83.4219 433.906 83.4219C432.931 69.0447 444.434 52.1417 459.642 56.9989C463.541 58.3589 465.491 59.1361 468.415 62.0504C471.34 64.7704 473.094 67.6847 474.459 71.5704C475.629 75.0676 475.824 78.1762 476.019 81.6733C476.409 85.5591 477.774 89.8334 476.409 93.3306ZM445.604 189.503C445.214 189.503 445.019 189.503 444.629 189.503C444.629 188.531 444.629 187.754 444.629 186.783C445.019 186.783 445.214 186.783 445.604 186.783C445.604 187.754 445.604 188.531 445.604 189.503ZM499.415 52.9189C499.025 52.5303 498.44 52.336 497.465 51.7532C499.805 51.5589 499.805 51.5589 499.415 52.9189ZM501.365 11.3415C495.126 12.1186 488.887 12.8958 482.648 11.73C485.767 11.3415 488.887 10.7586 492.006 10.5643C495.126 10.37 498.635 11.1472 501.56 9.78718C501.95 10.37 501.95 10.9529 501.365 11.3415Z" fill="white"/>
<path d="M433.809 237.602C436.73 235.66 438.872 233.912 441.208 232.359C440.818 230.416 442.571 227.309 438.482 226.92C436.73 228.668 434.978 230.416 433.031 232.359C433.42 234.107 433.615 235.854 433.809 237.602Z" fill="white"/>
<path d="M477.03 224.201C477.419 224.201 477.614 224.201 478.004 224.201C478.004 223.23 478.004 222.453 478.004 221.482C477.614 221.482 477.419 221.482 477.03 221.482C477.03 222.453 477.03 223.424 477.03 224.201Z" fill="white"/>
<path d="M433.029 221.677C433.029 220.123 433.029 218.569 433.029 216.238C426.604 221.871 426.604 221.871 430.303 226.92C430.887 224.978 429.135 221.871 433.029 221.677Z" fill="white"/>
<path d="M486.572 221.288C486.572 218.763 486.572 216.239 486.572 211.383C484.431 216.044 483.263 218.569 481.9 221.288C483.652 221.288 484.82 221.288 486.572 221.288Z" fill="white"/>
<path d="M469.827 189.436C469.827 188.465 469.827 187.688 469.827 186.717C469.438 186.717 469.243 186.717 468.854 186.717C468.854 187.688 468.854 188.465 468.854 189.436C469.243 189.436 469.633 189.436 469.827 189.436Z" fill="white"/>
<path d="M435.95 253.334C435.561 254.111 436.535 255.471 436.924 256.636C439.455 254.305 441.597 252.363 443.349 250.615C446.075 252.169 447.827 253.14 450.358 254.694C451.526 252.752 452.694 251.004 454.641 248.09C454.641 247.508 454.641 245.371 454.447 243.041C457.172 241.293 459.703 239.739 463.013 237.408C461.65 242.652 460.677 246.342 459.703 250.227C460.482 250.421 461.066 250.809 461.845 251.004C464.571 245.954 467.296 240.904 470.217 235.66C469.633 235.078 468.854 233.912 467.296 231.97C474.111 226.726 472.748 216.627 481.509 211.771C485.598 209.441 486.961 202.643 490.855 195.846C486.766 197.788 484.43 198.953 481.315 202.255C481.509 202.837 481.704 203.42 481.704 204.003C481.704 204.391 480.73 204.974 480.146 203.42C479.562 203.42 479.952 201.866 480.536 200.118C480.536 200.118 480.536 200.313 480.73 200.313C481.509 193.515 481.899 188.854 484.819 185.358C488.129 181.279 487.35 177.589 486.377 170.014C480.73 183.61 478.589 195.846 467.881 203.808C466.907 202.061 466.323 201.089 465.934 200.118L466.128 200.313C466.907 199.73 467.686 199.147 468.27 198.37C468.075 198.176 467.686 197.788 467.491 197.593C466.907 198.37 466.323 199.147 465.544 199.73L465.739 199.924C463.597 198.953 461.456 197.788 458.535 196.428C455.615 209.829 443.544 218.375 442.959 232.164C442.959 232.164 442.181 232.164 441.597 232.164C441.597 234.883 441.597 237.603 441.791 240.127C436.924 243.623 437.508 248.867 435.95 253.334ZM471.774 205.556C472.164 205.556 472.359 205.556 472.748 205.556C472.748 206.528 472.748 207.304 472.748 208.275C472.359 208.275 472.164 208.275 471.774 208.275C471.774 207.304 471.774 206.333 471.774 205.556ZM455.615 221.677C456.004 221.677 456.199 221.677 456.588 221.677C456.588 222.648 456.588 223.425 456.588 224.396C456.199 224.396 456.004 224.396 455.615 224.396C455.615 223.425 455.615 222.453 455.615 221.677ZM457.367 232.941C456.394 236.243 455.225 239.545 454.447 243.041C452.5 243.041 451.526 243.041 449.19 243.041C451.526 238.962 453.473 235.466 455.42 232.164C456.004 232.553 456.783 232.747 457.367 232.941ZM451.721 230.805C450.942 231.388 450.163 231.97 449.579 232.747L449.384 232.553C450.163 230.805 450.553 230.416 450.942 230.028C451.137 230.222 451.331 230.416 451.721 230.805ZM448.022 232.359C448.216 232.747 448.216 232.941 448.411 233.33C447.243 235.078 447.632 233.718 448.022 232.359ZM448.606 233.912C448.8 234.689 449.19 235.466 449.19 236.243C449.19 236.631 448.216 237.214 446.075 239.156C447.048 236.631 447.827 235.078 448.606 233.912ZM443.544 242.07C443.349 242.264 442.96 242.652 442.765 242.846C442.181 242.07 441.597 241.293 440.818 240.71C441.013 240.516 441.207 240.322 441.207 240.322C442.181 240.71 442.96 241.293 443.544 242.07Z" fill="white"/>
<path d="M487.935 255.276C489.687 252.557 490.66 251.004 491.439 249.644C487.545 248.673 487.545 248.673 487.935 255.276Z" fill="white"/>
<path d="M419.791 247.313C419.986 248.673 420.57 249.838 420.959 251.004C421.348 249.45 421.933 247.702 422.906 244.594C420.764 246.537 419.596 246.925 419.791 247.313Z" fill="white"/>
<path d="M50.4517 241.293C50.257 240.516 49.8676 239.739 49.6729 239.156C48.1154 240.127 46.9472 240.904 45.5843 241.875C45.779 242.07 46.1684 242.458 46.3631 242.652C45.3896 243.235 44.6108 243.818 43.6373 244.4C45.1949 245.566 46.1684 244.4 47.726 243.818C48.5047 245.177 49.6729 245.177 51.0358 244.594C50.6464 244.012 50.4517 243.623 50.0623 243.235C50.4517 242.458 50.8411 241.681 51.2305 240.904C51.0358 240.904 50.8411 241.098 50.4517 241.293Z" fill="white"/>
<path d="M71.0891 238.768C71.4785 240.71 71.8679 242.652 72.4519 244.789C73.036 244.789 73.8148 244.789 74.5936 244.789C74.983 244.012 75.3724 243.235 75.7618 242.458C74.3989 241.293 75.1777 237.214 71.0891 238.768Z" fill="white"/>
<path d="M92.5067 237.797C92.1174 238.768 91.9227 239.351 91.5333 240.127C94.0643 239.933 98.1529 238.185 99.3211 236.826C96.7901 236.243 94.4537 236.437 92.5067 237.797Z" fill="white"/>
<path d="M423.88 230.222C422.127 234.301 417.26 237.602 420.57 242.846C426.8 239.933 425.048 234.883 423.88 230.222Z" fill="white"/>
<path d="M430.497 226.92C430.886 228.863 429.134 231.97 433.222 232.359C433.222 230.611 433.222 228.863 433.222 226.92C432.249 226.92 431.275 226.92 430.497 226.92Z" fill="white"/>
<path d="M481.118 202.255C480.924 201.672 480.729 201.089 480.534 200.507C480.34 201.478 480.34 202.449 480.145 203.42C480.34 203.032 480.729 202.643 481.118 202.255Z" fill="white"/>
<path d="M454.642 165.159C458.731 164.965 456.978 161.857 457.368 159.721C453.279 160.109 455.031 163.217 454.642 165.159Z" fill="white"/>
<path d="M462.428 155.642C462.234 155.448 461.844 155.06 461.65 154.865C461.066 155.642 460.481 156.419 459.703 157.002C459.897 157.196 460.092 157.39 460.287 157.584C461.066 156.808 461.65 156.225 462.428 155.642Z" fill="white"/>
<path d="M452.108 153.312C452.303 154.671 452.887 155.836 453.277 157.002C453.666 155.448 454.25 153.7 455.224 150.593C453.082 152.535 451.914 152.923 452.108 153.312Z" fill="white"/>
<path d="M463.597 149.039C463.597 150.01 463.597 150.787 463.597 151.758C463.987 151.758 464.181 151.758 464.571 151.758C464.571 150.787 464.571 150.01 464.571 149.039C464.181 149.039 463.987 149.039 463.597 149.039Z" fill="white"/>
<path d="M466.321 143.795C466.321 144.766 466.321 145.543 466.321 146.514C466.711 146.514 466.905 146.514 467.295 146.514C467.295 145.543 467.295 144.766 467.295 143.795C466.905 143.795 466.516 143.795 466.321 143.795Z" fill="white"/>
<path d="M458.147 143.795C458.147 144.766 458.147 145.543 458.147 146.514C458.537 146.514 458.731 146.514 459.121 146.514C459.121 145.543 459.121 144.766 459.121 143.795C458.731 143.795 458.537 143.795 458.147 143.795Z" fill="white"/>
<path d="M416.868 136.609C415.894 136.609 415.115 136.609 414.142 136.609C414.142 136.997 414.142 137.192 414.142 137.581C415.115 137.581 415.894 137.581 416.868 137.581C416.868 137.192 416.868 136.803 416.868 136.609Z" fill="white"/>
<path d="M475.863 134.084C475.668 133.89 475.279 133.501 475.084 133.307C474.5 134.084 473.916 134.667 473.137 135.444C472.358 136.026 471.774 136.609 470.996 137.386C471.19 137.58 471.58 137.968 471.774 138.163C472.359 137.386 472.943 136.803 473.721 136.026C474.5 135.249 475.279 134.667 475.863 134.084Z" fill="white"/>
<path d="M48.7005 113.498C48.8953 113.304 48.8953 113.304 49.0901 113.109C49.0901 112.915 48.8953 112.721 48.8953 112.332C48.8953 112.526 48.8953 112.526 48.7005 112.721C48.7005 113.109 48.7005 113.304 48.7005 113.498Z" fill="white"/>
<path d="M20.8603 157.779C20.6656 159.915 21.055 161.857 22.2232 163.605C23.5861 163.605 24.9489 163.605 26.3118 163.605C26.5065 163.411 26.7012 163.023 26.8959 162.828L27.0906 163.023C26.8959 163.217 26.5065 163.411 26.3118 163.605L26.1171 163.411C25.533 164.188 24.9489 165.159 24.3648 165.936C23.7808 167.878 24.5595 169.82 25.7277 170.791C27.2853 171.957 28.4534 173.51 30.011 174.481C35.0731 177.977 43.8344 181.279 49.4806 182.833C52.401 183.61 55.7108 183.804 58.6313 185.163C60.5782 186.135 63.1093 185.94 65.4456 186.329C67.3926 186.717 69.3395 187.494 71.2865 187.883C74.9857 188.659 78.2955 190.019 81.8 191.184C85.4992 192.155 89.7825 193.321 92.1189 197.011C93.0924 198.565 94.0658 200.118 95.0393 202.06C98.7385 200.895 100.88 204.78 104.19 204.78C104.969 204.197 105.553 203.614 105.942 203.032C106.916 204.197 107.889 205.556 108.863 206.528C110.226 205.945 111.394 205.556 112.173 205.362C113.73 207.304 115.288 208.858 116.651 210.606C116.651 211.966 116.651 213.131 116.651 214.879C117.819 215.073 118.792 215.462 119.766 215.656C120.35 214.296 120.739 213.519 120.934 212.548C121.323 210.995 122.102 209.441 121.907 207.887C121.713 203.226 122.881 198.565 121.129 194.098C121.713 190.796 119.182 188.465 118.208 185.746C118.013 184.969 116.651 184.581 115.677 183.804C115.677 183.027 115.482 182.056 115.482 180.891C113.925 179.531 112.173 178.366 110.81 177.2C109.252 177.395 109.057 179.92 107.305 178.56C107.889 177.977 108.473 177.201 109.057 176.618C109.057 175.841 109.057 175.258 109.057 175.064C107.5 174.093 106.137 172.928 104.579 172.345C102.243 171.18 99.9067 169.626 97.3757 169.043C94.4552 168.266 91.9242 166.907 89.0038 165.936C87.0568 165.353 84.9152 164.77 82.7735 164.576C81.8 164.576 80.6318 165.353 79.6584 165.547C78.8796 164.382 78.2955 163.411 77.7114 162.634C76.9326 162.634 76.1539 162.828 75.5698 162.634C71.4812 161.275 67.1979 161.08 62.9146 159.915C60.1888 159.138 57.4631 158.361 54.7373 157.39C51.2328 156.225 48.1177 154.283 45.5866 150.981C45.5866 148.456 45.5866 145.737 45.5866 142.824C44.8079 142.63 44.4185 142.435 43.8344 142.241C42.8609 140.299 46.3654 141.076 45.5866 139.328C48.7018 136.415 51.2328 132.919 56.1002 132.53C57.2684 130.976 58.826 131.948 60.3835 131.559C61.9411 131.365 63.4986 130.976 65.0562 130.588C67.7819 130.2 70.313 131.365 72.844 131.365C74.791 131.365 76.7379 131.753 78.2955 132.336C83.5523 134.667 88.6144 136.997 90.5613 143.018C91.3401 145.154 91.9242 147.291 92.5083 149.621C94.4552 149.621 96.4022 149.621 98.1544 149.621C99.1279 149.039 99.5173 147.291 101.27 148.262C100.686 149.039 100.101 149.621 99.1279 150.593C100.491 150.593 101.075 150.787 101.854 150.593C102.632 150.398 103.801 149.621 104.19 149.816C106.721 151.369 109.057 150.398 111.394 149.816C113.925 150.787 115.677 150.593 117.429 150.398C117.429 149.039 117.429 148.068 117.429 146.902C115.872 148.068 114.509 149.233 112.173 149.621C112.562 149.039 112.951 148.262 113.535 147.873C114.704 147.097 115.872 146.32 117.04 145.543C116.456 142.824 116.066 140.493 115.482 137.774C114.704 137.386 113.925 136.803 112.951 136.22C113.535 135.832 114.119 135.638 114.509 135.443C112.757 131.171 110.615 127.286 107.889 123.985C105.163 120.683 101.27 118.352 97.5704 116.216C92.5083 113.303 87.8356 111.166 85.8886 111.943C85.3045 111.36 84.7205 110.778 84.5258 110.584C80.8265 110.195 77.322 109.418 73.8175 109.418C67.9766 109.418 62.1358 108.641 56.2949 110.195C54.3479 110.778 52.2063 110.195 50.6487 110.195C49.6753 110.972 48.8965 111.36 47.923 112.72C47.923 112.914 48.1177 113.108 48.1177 113.303C48.1177 113.497 47.7283 113.691 47.5336 113.108C47.3389 113.108 47.3389 112.72 47.5336 112.331C47.3389 110.389 46.3654 110.972 45.5866 111.166C41.8874 112.526 38.1882 114.079 34.6837 115.633C33.3208 116.216 32.3474 117.381 31.1792 118.158C30.9845 118.352 30.9845 118.546 30.9845 118.546C31.3739 119.323 31.7633 120.1 32.3474 121.071C33.9049 120.489 35.4625 119.712 37.0201 119.129C37.0201 120.294 37.0201 121.266 37.0201 122.237C36.0466 122.625 35.0731 123.208 34.0996 123.596C33.1261 122.819 32.542 122.042 30.9845 120.683C30.2057 121.848 29.8163 122.819 29.0375 123.596C27.8694 124.956 26.3118 126.121 25.1436 127.481C24.1701 128.84 23.1967 130.394 22.6126 131.948C21.6391 133.89 20.8603 136.026 20.0815 138.163C19.1081 140.105 20.2762 142.435 18.9134 144.572C18.3293 145.349 18.9134 146.708 18.7187 147.679C19.4975 151.758 21.055 154.671 20.8603 157.779ZM86.8621 117.381C86.0833 118.158 85.6939 119.518 84.1364 118.546C84.9152 117.77 85.1099 116.41 86.8621 117.381ZM54.7373 125.344C55.3214 124.179 55.7108 123.402 56.1002 122.431C56.6843 123.208 57.2684 123.79 58.0472 124.956C56.6843 124.956 55.9055 125.15 54.7373 125.344ZM57.4631 116.604C58.4366 118.546 62.3305 116.799 61.9411 121.071C59.7994 119.712 58.4366 118.935 56.879 117.964C56.6843 118.546 56.4896 118.935 56.1002 120.1C55.5161 118.546 54.932 117.575 54.1533 115.633C55.9055 116.216 57.2684 116.216 57.4631 116.604ZM39.9405 135.638C41.1087 136.415 42.8609 136.415 42.6662 139.134C40.3299 137.58 38.3829 136.22 36.6307 134.861C38.3829 134.472 38.3829 134.472 39.9405 135.638Z" fill="white"/>
<path d="M35.8519 235.66C36.6307 234.689 37.4095 233.718 37.9936 232.747C39.5511 233.33 40.5246 234.495 41.8875 233.524C41.8875 232.747 41.8875 231.97 41.8875 231.388C38.7723 230.805 38.7723 230.805 38.3829 227.697C39.7458 226.532 41.3034 225.367 42.6662 224.007C42.2769 222.648 41.6928 221.094 40.914 219.346C41.8875 219.152 42.8609 218.958 43.6397 218.958C44.6132 217.598 45.392 216.238 46.3655 215.073C44.4185 211.189 42.2769 207.499 43.0556 203.226C42.4716 202.643 42.0822 202.061 41.8875 201.866C33.905 201.866 26.3118 201.866 18.3293 201.866C18.3293 204.585 18.3293 207.304 18.524 210.023C19.6922 210.023 20.471 210.023 21.4444 210.023C20.6657 210.8 20.0816 211.189 19.1081 211.577C19.8869 215.267 21.2497 218.763 23.1967 221.871C25.533 221.677 26.8959 219.346 29.2323 220.317C29.2323 221.482 29.427 222.648 29.2323 223.813C28.8429 224.978 30.5951 225.755 29.427 227.309C28.8429 227.892 29.2323 229.64 29.2323 229.834C31.5686 232.164 33.1262 233.718 35.0731 235.66C35.0731 235.66 35.4625 235.66 35.8519 235.66ZM21.055 210.023C20.8603 209.829 21.055 209.441 21.2497 209.247L21.4444 209.441C21.4444 209.829 21.2497 209.829 21.055 210.023ZM23.9755 212.354C24.7543 210.412 24.7543 210.412 26.7012 210.412C25.7277 211.189 24.949 211.771 23.9755 212.354Z" fill="white"/>
<path d="M126.192 184.969C130.67 184.387 127.944 182.056 126.387 183.416C127.36 183.804 127.36 184.387 126.192 184.969Z" fill="white"/>
<path d="M135.147 169.043C142.156 169.238 141.961 170.986 141.182 177.977C140.988 176.812 140.209 176.812 139.235 177.783C139.82 177.783 140.014 177.977 140.014 178.172C132.421 175.258 138.262 182.25 136.899 182.444C136.899 182.444 135.731 184.581 136.12 185.164C136.704 186.135 137.873 188.077 137.873 184.775C138.067 184.969 138.067 186.135 138.651 186.135C138.651 185.358 138.651 184.387 138.651 183.416C139.625 183.998 139.82 184.387 140.793 184.192C140.598 183.804 140.404 183.416 140.209 182.833C139.625 183.027 139.041 183.027 138.457 183.221C138.262 181.473 138.067 179.725 137.873 178.366C140.598 178.56 140.404 178.172 141.377 179.92C141.961 181.279 141.377 186.912 141.377 188.465C141.377 194.486 140.988 200.313 140.793 206.333C140.598 212.743 138.846 226.726 142.74 230.028C140.598 230.805 143.519 235.466 144.298 236.437C149.749 242.458 143.129 235.466 147.218 235.66C147.023 239.933 146.634 240.127 151.307 242.458C155.59 244.594 160.263 245.177 164.935 245.177C169.219 245.177 173.502 244.983 177.59 244.789C178.953 244.789 183.042 245.566 184.21 244.594C185.378 243.623 184.405 237.02 184.6 235.66C184.21 235.855 183.821 236.049 183.237 236.243C183.042 236.437 181.484 238.185 181.484 238.185C184.21 235.078 184.405 234.495 184.405 230.028C184.405 224.784 184.989 224.784 179.537 224.784C176.617 224.784 172.334 225.367 169.608 223.619C164.156 220.123 166.103 210.024 166.103 204.585C166.298 197.788 166.298 191.184 166.298 184.387C169.024 185.552 167.077 183.027 166.298 182.25C167.272 181.473 168.05 180.308 168.05 179.531C165.13 179.725 167.856 179.725 166.493 180.502C167.077 178.366 167.661 172.734 169.219 171.568C167.661 170.403 167.466 169.238 168.44 167.684C170.776 168.849 176.617 168.267 179.343 168.072C184.794 167.878 183.821 165.742 183.626 160.692C183.626 159.332 183.821 158.167 183.821 156.808C183.626 152.535 184.794 151.369 181.29 150.01C179.148 149.233 167.077 150.981 166.882 149.622C168.245 149.622 168.44 149.039 167.272 147.874C167.661 148.068 168.05 148.068 168.44 147.874C168.05 147.097 167.661 138.939 166.687 143.601C166.298 137.386 166.687 131.171 166.298 124.956C166.103 119.129 164.546 120.489 159.094 120.683C155.395 120.877 148.776 118.935 149.165 123.402C148.191 123.596 147.997 122.819 148.386 120.877C146.829 120.877 145.271 120.877 143.713 120.877C139.82 122.431 141.182 126.315 141.377 130.588C141.377 134.084 139.625 149.622 142.545 151.175C142.545 151.369 135.342 150.593 134.173 150.593C129.695 150.593 130.669 150.204 129.695 153.894C129.111 155.837 129.695 158.944 129.695 161.08C129.89 167.684 128.917 168.655 135.147 169.043Z" fill="white"/>
<path d="M132.809 187.3C133.004 185.164 134.172 178.56 131.446 179.337C131.252 178.56 131.836 178.366 133.199 178.366C132.225 178.172 131.446 177.783 130.473 177.589C130.278 179.337 130.862 183.027 130.667 183.61C129.694 183.221 128.915 183.61 128.721 184.775C130.667 184.775 130.667 187.3 132.809 187.3Z" fill="white"/>
<path d="M323.026 162.246C322.053 157.584 321.079 154.089 320.301 150.01C313.097 150.01 305.893 148.845 298.884 150.981C296.742 168.849 296.158 237.991 298.3 244.789C305.698 244.789 313.097 244.789 320.69 244.789C320.885 243.818 321.274 243.235 321.274 242.652C321.663 230.805 321.663 218.958 322.442 207.304C322.832 202.837 322.247 198.953 319.132 195.651C318.743 195.263 318.938 194.486 318.938 193.321C320.495 192.738 322.053 192.35 323.416 191.961C326.141 176.618 335.681 169.626 350.868 169.432C350.868 162.828 350.868 156.225 350.868 149.427C338.018 145.349 330.035 151.564 323.026 162.246Z" fill="white"/>
<path d="M227.24 148.262C208.549 153.117 197.646 166.713 193.752 184.775C189.663 203.032 196.088 218.763 208.549 232.553C209.522 233.718 210.691 234.495 211.859 235.466C210.885 236.049 210.106 237.02 209.328 238.185C209.328 241.293 209.328 244.206 209.328 247.313C214.195 250.809 215.558 256.636 218.284 261.686C218.673 262.462 218.089 263.628 218.089 264.405C214.974 264.599 214.974 262.074 213.611 260.326C213.416 261.88 213.222 263.045 213.027 264.599C208.549 264.21 204.266 263.239 199.982 263.239C147.22 263.239 94.4573 263.239 41.6948 263.239C39.7478 263.239 37.9956 263.239 36.0486 263.239C36.2433 263.628 36.438 263.822 36.6327 264.21C35.6592 265.181 34.6858 266.153 33.7123 267.124C35.0751 267.124 36.8274 267.124 38.385 267.124C67.3946 267.124 96.4042 266.929 125.219 267.124C154.034 267.318 182.849 265.958 211.664 268.289C212.248 268.289 212.832 268.677 213.416 268.677C213.416 269.454 213.416 270.037 213.416 270.814C213.416 270.814 213.416 270.814 213.222 270.62C212.832 271.008 212.443 271.202 212.248 271.591C212.443 271.785 212.443 271.785 212.637 271.979C213.027 271.591 213.222 271.202 213.611 271.008C213.611 271.008 213.611 271.008 213.416 270.814C213.611 270.814 213.806 270.814 214 270.814C214.39 270.814 214.974 270.814 215.363 270.814C215.947 269.066 216.921 267.512 218.284 266.541C218.868 266.153 219.452 265.764 220.036 265.376C220.425 265.182 220.62 264.987 221.009 264.987C219.647 257.024 217.31 249.644 210.885 244.789C211.859 241.681 212.637 239.156 213.416 236.631C214.584 237.214 215.753 237.797 216.921 238.379L216.726 238.574C217.115 238.574 217.505 238.574 217.7 238.574C219.062 239.156 220.62 239.739 221.983 240.516C230.549 244.789 239.311 247.896 248.267 241.875C251.382 239.739 254.302 237.02 257.028 234.301C260.338 230.999 263.453 229.834 267.347 233.524C266.763 234.689 266.373 235.66 265.984 236.631C266.568 237.02 266.958 237.408 267.542 237.991C271.436 234.689 275.914 231.776 278.834 227.892C289.348 213.714 292.073 197.593 287.595 180.502C280.976 157.196 256.639 140.493 227.24 148.262ZM247.488 233.912C247.293 233.718 247.099 233.33 247.099 233.135C247.683 232.747 248.461 232.359 249.046 231.97C249.24 232.164 249.24 232.553 249.435 232.747C248.656 233.135 248.072 233.524 247.488 233.912ZM254.886 219.152C247.099 225.949 235.612 226.144 227.824 219.346C216.921 209.635 215.558 185.552 224.514 174.481C233.081 163.994 252.745 163.605 259.559 177.977C262.09 183.221 263.258 189.048 264.232 192.35C262.869 203.614 262.48 212.548 254.886 219.152Z" fill="white"/>
<path d="M214.777 270.62C215.361 268.872 216.334 267.318 217.697 266.347C216.529 267.318 215.361 268.678 214.777 270.62Z" fill="white"/>
<path d="M219.644 265.182C219.06 265.57 218.281 265.959 217.892 266.348C218.476 265.765 219.06 265.376 219.644 265.182Z" fill="white"/>
<path d="M23.9741 262.462C22.2218 264.016 20.4696 260.715 18.912 262.657C17.9385 263.822 16.381 260.326 14.0446 262.268C12.8764 263.434 9.956 262.657 8.00904 262.657C5.86739 262.657 3.92043 262.657 1 262.657C1.97348 264.405 2.75226 265.376 3.33635 266.347C9.17722 266.347 14.8234 266.347 20.6643 266.347C21.8324 265.182 22.8059 263.822 23.9741 262.462Z" fill="white"/>
<path d="M58.8263 245.956C59.2159 245.567 59.4107 245.178 59.8003 244.983L59.6055 244.789C59.2159 245.178 58.8263 245.372 58.6314 245.761L58.8263 245.956Z" fill="white"/>
<path d="M62.1325 244.594C61.3537 243.235 60.7696 242.07 59.7961 239.933C59.7961 242.458 59.7961 243.623 59.7961 244.789C60.3802 244.789 61.159 244.789 62.1325 244.594Z" fill="white"/>
<path d="M62.7181 238.187C63.1075 238.187 63.3022 237.992 63.4969 237.798C63.3022 237.603 63.3022 237.603 63.1075 237.408C62.9128 237.603 62.5234 237.798 62.3287 237.798C62.3287 237.992 62.5234 238.187 62.7181 238.187Z" fill="white"/>
<path d="M66.418 227.893C67.1967 227.893 67.7808 227.893 68.5596 227.893C68.5596 227.504 68.5596 227.115 68.3649 226.726C67.5861 226.921 67.0021 227.115 66.2233 227.309C66.2233 227.504 66.2233 227.698 66.418 227.893Z" fill="white"/>
<path d="M135.538 223.425C135.733 223.813 136.122 224.007 136.317 224.202L136.512 224.007L136.706 223.813C136.706 223.23 136.901 222.454 136.512 222.259C136.122 221.871 135.538 221.871 134.954 221.871C135.149 222.259 135.344 222.842 135.538 223.425Z" fill="white"/>
<path d="M441.4 174.093C443.153 169.238 444.71 164.382 446.462 159.332C446.462 160.498 446.462 161.469 446.462 162.634C448.215 160.886 449.967 159.138 451.914 157.196C450.551 157.196 449.188 157.196 447.241 157.196C448.993 151.952 450.746 146.514 452.693 140.882C442.179 140.882 433.613 140.882 424.851 140.882C422.71 145.543 420.763 149.621 419.01 153.506C419.01 151.369 419.01 149.039 419.01 146.902C418.232 146.902 417.453 146.902 416.674 146.902C416.869 149.039 417.063 151.175 417.063 153.312C410.249 157.779 403.435 162.051 396.231 166.713C392.532 157.584 389.027 149.039 385.912 140.882C376.372 140.882 367.611 140.882 358.265 140.882C359.434 144.378 360.018 146.708 360.796 149.039C369.168 172.539 377.735 195.845 386.107 219.346C389.611 229.251 388.638 231.388 378.708 238.768C375.009 236.243 371.31 233.33 366.248 229.834C364.69 230.999 362.743 232.359 360.796 233.912C365.274 239.156 368.195 242.846 371.699 247.119C367.416 246.537 364.496 246.148 361.186 245.76C357.292 255.859 367.027 260.715 367.805 268.289C392.726 274.892 406.939 268.677 415.506 246.342C424.851 222.648 433.028 198.176 441.4 174.093ZM411.612 176.812C410.833 180.308 410.444 183.221 409.665 186.135C408.886 188.854 407.913 191.378 406.355 196.04C404.213 189.63 402.461 184.775 400.32 178.366C404.603 177.783 407.523 177.395 411.612 176.812Z" fill="white"/>
<path d="M434 90L434.194 90.1944C434.194 90.1944 434 90.1944 434 90Z" fill="white"/>
</svg>
