<svg width="400" height="215" viewBox="0 0 400 215" fill="none" xmlns="http://www.w3.org/2000/svg">
<path d="M289.436 212.122C289.436 212.569 289.282 213.017 289.282 213.464C295.154 213.464 300.871 213.464 306.743 213.464C306.743 213.017 306.743 212.569 306.743 212.122C301.025 212.122 295.154 212.122 289.436 212.122Z" fill="white"/>
<path d="M13.1557 209.736C11.456 209.736 10.5289 210.631 10.6834 212.719C14.2373 212.271 18.1004 213.763 20.8817 210.78C20.7272 210.482 20.7272 210.034 20.5727 209.736C18.1003 209.736 15.628 209.587 13.1557 209.736Z" fill="white"/>
<path d="M328.375 199.893C330.075 198.551 330.848 198.104 330.848 197.805C330.693 196.762 330.23 195.867 329.921 194.972C329.612 196.165 329.148 197.358 328.375 199.893Z" fill="white"/>
<path d="M376.432 194.972C376.741 194.972 376.895 194.972 377.204 194.972C377.204 194.226 377.204 193.63 377.204 192.884C376.895 192.884 376.741 192.884 376.432 192.884C376.432 193.481 376.432 194.226 376.432 194.972Z" fill="white"/>
<path d="M337.181 189.603C337.336 191.542 337.336 192.884 337.336 194.226C337.8 194.524 338.263 194.823 338.881 195.121C340.426 192.287 342.126 189.454 343.517 186.62C343.671 186.173 343.053 185.427 343.053 185.427C341.199 186.77 339.036 188.41 337.181 189.603Z" fill="white"/>
<path d="M365.873 83.6964C365.873 84.2723 365.873 84.6562 365.873 85.2321C365.873 84.8482 366.028 83.8884 365.873 83.6964Z" fill="white"/>
<path d="M266.214 69.8379C265.133 67.7404 264.053 65.3432 262.818 63.0958C261.429 62.4965 260.039 61.8973 258.65 61.298C258.187 61.7474 257.878 62.0471 257.415 62.1969C257.107 62.4965 256.644 62.4965 256.181 62.7962C248 66.8414 243.523 72.8344 244.604 81.9737C244.758 83.6217 244.604 85.2698 244.604 86.9179C244.912 91.5624 246.61 95.9073 250.469 98.3045C254.328 100.702 258.342 103.698 263.435 103.399C264.207 103.399 264.825 104.148 265.751 104.597C266.214 102.799 269.764 103.998 269.147 101.151C269.147 101.151 269.764 101.001 270.073 100.852C270.381 102.2 270.536 103.548 270.69 104.597C275.784 103.548 280.569 102.5 286.589 101.151C288.904 99.6529 292.3 97.4056 296.005 95.0084C297.24 97.1059 298.474 99.5031 299.246 101.001C301.407 102.5 302.796 103.548 304.803 105.196C308.662 104.597 313.138 103.848 317.46 103.249C317.46 99.0536 317.46 95.1582 317.46 91.5624C314.836 90.8133 312.521 90.0642 310.514 89.4649C310.514 76.58 310.514 64.5941 310.514 52.4583C310.514 48.1134 310.206 44.0682 309.279 39.7233C307.89 32.9812 303.568 28.9359 297.548 26.8384C292.3 25.0405 286.589 23.5423 280.878 23.8419C276.093 24.1416 271.308 25.0405 266.522 25.6398C257.724 28.936 250.624 34.1798 247.382 43.1692C247.382 45.4166 247.382 47.664 247.382 49.7615C248 50.3608 248.617 50.9601 249.234 51.5594C252.167 51.5594 255.1 51.5594 258.805 51.5594C259.885 49.7615 261.12 47.664 262.355 45.5664C262.2 45.4166 261.892 45.2668 261.737 45.1169C264.67 42.5699 267.603 40.0229 270.381 37.7756C275.784 37.7756 280.569 37.9254 285.2 37.7756C288.75 37.6258 291.374 39.2738 293.535 41.671C294.615 42.7198 295.233 44.218 296.005 45.5664C293.072 47.3643 295.85 50.8103 294.152 53.0576C291.991 56.5036 286.435 54.5559 284.428 58.9008C287.669 60.6987 284.274 65.7927 289.059 67.1411C291.22 66.6916 293.535 66.0923 295.85 65.493C297.548 76.4302 293.844 84.6705 285.045 90.6635C281.032 90.6635 277.173 92.6112 272.851 92.3115C268.375 91.8621 264.67 90.0642 261.12 88.4161C258.65 84.0712 258.805 79.8761 261.429 74.1828C262.355 73.4337 264.207 71.7856 266.214 69.8379Z" fill="white"/>
<path d="M238.394 72.2606C236.847 68.6796 237.002 65.5462 236.692 62.8604C233.598 58.8318 230.967 55.4 228.956 52.7143C230.349 48.0888 230.349 43.3141 232.824 40.6284C235.919 37.0474 232.515 31.9743 236.692 29.8853C234.99 24.9614 233.443 20.6344 231.741 15.5613C231.432 15.2629 230.349 14.2184 229.42 13.3232C221.53 5.41513 211.937 1.53571 200.642 1.53571C183.623 1.68491 166.449 1.53571 150.049 1.53571C146.49 4.22146 143.551 6.6088 139.992 9.29455C140.611 10.1898 141.384 11.5327 141.849 12.1295C141.23 15.8597 140.301 18.8439 140.301 21.9773C140.611 28.6917 141.539 35.2569 142.313 41.9712C142.777 45.403 143.396 48.6856 144.015 52.4158C143.086 52.8635 141.539 53.4603 139.683 54.3555C144.479 61.2191 141.23 68.8288 142.313 76.14C143.551 83.4512 146.336 90.7624 143.086 97.3276C144.634 99.4165 146.026 101.207 147.109 102.699C152.988 102.699 158.094 102.699 163.2 102.699C168.306 102.699 173.412 102.699 178.517 102.699C183.933 102.699 189.502 102.251 194.918 102.848C199.559 103.296 204.046 100.163 208.688 102.55C209.461 102.998 211.009 101.953 212.246 101.505C217.043 99.2673 221.994 97.1784 226.79 94.6419C233.598 90.9116 240.87 78.2289 238.394 72.2606ZM179.755 35.7045C184.242 35.7045 188.884 35.7045 194.299 35.7045C192.906 37.9426 191.823 39.4347 191.05 40.7776C185.634 42.1204 181.766 40.3299 178.363 37.7934C178.827 37.0473 179.291 36.4505 179.755 35.7045ZM197.238 76.886C191.823 76.886 187.027 76.886 181.612 76.886C179.91 74.0511 178.517 71.6637 176.661 68.6796C178.208 67.0383 180.065 65.2478 181.921 63.3081C189.502 62.4128 196.774 63.0096 203.891 67.6351C201.416 70.9177 199.25 74.0511 197.238 76.886Z" fill="white"/>
<path d="M398.992 7.66433C399.146 6.17249 400.849 3.03961 399.456 1.54777C398.837 0.951027 393.731 1.54777 392.648 1.54777C390.636 1.54777 388.624 1.54777 386.768 1.54777C384.292 1.54777 380.269 -0.391634 378.566 1.84614C377.793 2.89043 378.566 7.21678 378.566 8.55944C378.566 10.4988 378.566 12.4382 378.566 14.5268C378.566 18.704 378.566 23.0304 378.566 27.2075C378.566 29.1469 379.65 36.7553 378.102 37.9488C375.317 33.1749 371.603 30.6388 366.342 28.5502C363.712 27.5059 359.998 26.3124 357.058 26.3124C355.201 26.3124 353.499 27.0583 351.487 27.0583C340.811 27.2075 332.455 36.0094 327.813 44.6621C327.967 42.7227 327.039 41.0817 326.111 39.4407C324.873 40.1866 324.099 41.2309 324.718 42.8719C325.646 42.7227 325.956 43.0211 326.111 43.767C326.265 44.5129 326.575 45.1097 326.73 45.8556C326.575 47.0491 325.027 48.6901 324.563 49.8836C325.337 50.182 325.337 50.6295 324.873 51.0771C324.563 51.5246 324.254 51.9722 324.099 52.4197C323.944 53.6132 323.944 54.8067 323.79 56.0002C323.48 58.8347 323.016 61.52 323.016 64.5037C323.016 70.4711 323.635 76.5876 324.718 82.555C325.337 85.3895 325.337 88.224 325.337 91.2077C325.337 92.6996 325.337 94.3406 325.337 95.8325C325.337 98.0702 325.492 98.0702 327.194 99.4129C326.73 95.0865 326.575 90.3126 327.349 86.1355C330.289 92.252 335.085 99.2637 341.739 102.247C344.989 103.739 348.238 104.634 351.642 105.529C353.499 105.977 354.582 106.872 356.439 106.723C358.605 106.425 360.462 104.485 362.629 105.679C361.391 107.767 362.474 107.32 362.629 109.408C363.402 109.11 364.331 108.961 365.259 108.961C365.414 107.916 365.569 106.723 365.569 105.679C366.497 103.143 366.497 104.187 368.509 103.441C371.294 102.546 374.698 99.7113 377.019 97.1751C378.102 98.2194 378.257 100.159 378.412 101.501C378.721 103.888 379.185 104.038 380.887 103.888C379.185 107.021 377.793 110.453 375.626 113.287C372.532 117.464 369.592 121.641 366.806 125.968C364.64 129.399 361.236 132.234 358.915 135.516C357.986 137.604 356.749 139.544 355.046 142.08C353.19 137.306 356.13 136.411 358.915 135.516C358.915 133.725 359.534 132.234 359.998 130.742C360.307 129.548 360.462 128.206 360.772 127.012C357.058 130.145 353.499 133.129 351.178 134.919C349.012 141.334 347.31 146.108 345.298 152.373C348.547 151.18 350.559 150.434 353.19 149.39C354.273 150.732 355.356 152.224 356.594 153.716C352.106 155.059 352.106 159.385 350.095 162.369C348.238 165.054 348.083 169.231 343.751 170.126C343.751 171.469 343.751 172.812 343.751 174.304C345.143 174.304 346.536 174.304 348.083 174.304C348.547 172.812 349.012 171.32 349.476 169.828C351.178 164.159 356.284 159.833 356.594 153.716C361.855 152.075 361.391 146.704 364.485 143.124C365.878 143.124 367.425 143.124 368.044 143.124C370.211 140.14 371.913 137.753 373.615 135.366C373.924 136.709 374.079 137.903 374.389 139.245C374.853 139.245 375.317 139.096 375.781 139.096C375.626 137.753 375.472 136.411 375.472 135.217C374.853 135.217 374.389 135.217 373.77 135.366C373.77 134.024 373.77 132.83 373.77 131.189C375.472 132.084 376.4 132.532 377.174 132.979C378.102 130.592 378.876 128.504 379.804 126.415C381.971 121.492 383.673 116.122 386.768 111.795C389.089 108.812 388.624 106.425 387.386 103.739C388.624 103.739 390.017 103.739 391.255 103.739C391.255 103.888 391.255 104.038 391.41 104.336C391.874 104.336 392.338 104.187 392.802 104.187C392.802 104.038 392.802 103.888 392.802 103.888C394.814 103.888 396.98 103.888 398.992 103.888C398.992 92.998 398.992 82.2567 398.992 71.3662C398.992 64.9512 398.992 58.6855 398.992 52.2705C398.992 51.2262 399.456 48.8393 398.992 47.9442C398.528 47.0491 396.825 47.3475 396.206 46.4523C395.742 45.7064 396.206 43.1703 396.206 42.2752C397.29 42.7227 398.218 43.1703 399.301 43.6178C398.682 41.9768 399.611 39.4407 399.301 37.7996C399.146 36.1586 399.765 34.3684 399.765 32.429C399.765 27.9534 399.765 23.6271 399.765 19.1516C399.765 16.9138 399.765 14.676 399.765 12.5874C399.611 10.9464 398.837 9.007 398.992 7.66433ZM370.83 32.5782C370.83 32.7274 371.139 34.9651 370.52 35.1143C369.437 35.2635 370.675 32.8765 370.83 32.5782ZM369.746 35.8602C369.746 36.7553 368.973 37.0537 368.199 37.3521C368.818 36.7553 369.282 36.3078 369.746 35.8602ZM368.044 39.5898C368.509 39.5898 368.818 39.5898 369.282 39.5898C368.973 40.6341 368.973 43.0211 368.044 43.1703C368.044 41.8276 368.044 40.6341 368.044 39.5898ZM366.806 92.6996C367.116 92.1028 367.425 91.5061 367.735 90.9094C368.509 91.3569 368.973 92.1028 369.437 92.8488C368.509 92.6996 367.735 92.6996 366.806 92.6996ZM371.603 100.606C370.984 100.756 370.675 100.457 370.984 99.4129C371.139 99.4129 371.449 99.4129 371.603 99.4129C371.603 99.8604 371.449 100.308 371.603 100.606ZM378.102 71.6645C377.019 74.3499 376.71 77.3336 375.317 79.8697C373.77 83.0026 370.984 83.1518 372.686 86.583C371.603 86.7322 370.52 86.8814 369.592 86.8814C369.592 87.3289 369.592 87.6273 369.592 88.0748C369.282 88.3732 368.663 89.1191 367.89 89.4175C367.425 87.4781 368.354 83.5993 366.187 86.7322C365.259 86.2846 365.569 84.6436 365.723 83.5993C365.723 83.0026 365.723 82.2567 365.723 81.6599C364.795 81.6599 363.712 81.5107 362.783 81.5107C362.783 82.8534 363.557 86.583 362.783 87.7765C361.391 89.8651 354.273 86.8814 352.261 85.5387C348.393 83.0026 345.762 78.527 345.143 74.0515C344.989 72.2613 345.453 69.8743 344.679 68.83C344.679 69.1284 342.513 68.5317 342.667 68.5317C340.965 68.2333 341.739 67.4874 339.882 68.3825C340.192 66.8906 340.346 64.6529 341.43 64.0561C342.049 63.7578 343.596 64.0561 344.37 64.0561C343.596 53.0165 352.725 40.0374 364.795 43.767C367.89 44.8113 369.437 45.408 371.758 47.6458C374.079 49.7344 375.472 51.9722 376.555 54.9559C377.483 57.6412 377.638 60.0281 377.793 62.7135C378.102 65.6972 379.185 68.9792 378.102 71.6645ZM353.654 145.511C353.344 145.511 353.19 145.511 352.88 145.511C352.88 144.765 352.88 144.168 352.88 143.422C353.19 143.422 353.344 143.422 353.654 143.422C353.654 144.168 353.654 144.765 353.654 145.511ZM396.361 40.6341C396.052 40.3358 395.587 40.1866 394.814 39.739C396.671 39.5898 396.671 39.5898 396.361 40.6341ZM397.909 8.70863C392.957 9.30537 388.005 9.90211 383.054 9.007C385.53 8.70863 388.005 8.26107 390.481 8.11189C392.957 7.9627 395.742 8.55944 398.063 7.51515C398.373 7.96271 398.373 8.41026 397.909 8.70863Z" fill="white"/>
<path d="M344.293 182.445C346.611 180.953 348.311 179.611 350.165 178.418C349.856 176.927 351.247 174.541 348.002 174.242C346.611 175.585 345.22 176.927 343.675 178.418C343.984 179.76 344.139 181.103 344.293 182.445Z" fill="white"/>
<path d="M378.595 172.155C378.904 172.155 379.059 172.155 379.368 172.155C379.368 171.409 379.368 170.812 379.368 170.067C379.059 170.067 378.904 170.067 378.595 170.067C378.595 170.812 378.595 171.558 378.595 172.155Z" fill="white"/>
<path d="M343.673 170.216C343.673 169.023 343.673 167.83 343.673 166.04C338.574 170.365 338.574 170.365 341.51 174.242C341.974 172.751 340.583 170.365 343.673 170.216Z" fill="white"/>
<path d="M386.169 169.918C386.169 167.979 386.169 166.04 386.169 162.312C384.469 165.891 383.542 167.83 382.46 169.918C383.851 169.918 384.778 169.918 386.169 169.918Z" fill="white"/>
<path d="M372.879 145.46C372.879 144.714 372.879 144.118 372.879 143.372C372.57 143.372 372.415 143.372 372.106 143.372C372.106 144.118 372.106 144.714 372.106 145.46C372.415 145.46 372.724 145.46 372.879 145.46Z" fill="white"/>
<path d="M345.992 194.524C345.683 195.121 346.456 196.165 346.765 197.06C348.774 195.27 350.474 193.779 351.864 192.437C354.027 193.63 355.418 194.375 357.427 195.568C358.354 194.077 359.281 192.735 360.826 190.498C360.826 190.051 360.826 188.41 360.672 186.62C362.835 185.278 364.844 184.085 367.471 182.296C366.389 186.322 365.616 189.156 364.844 192.138C365.462 192.288 365.926 192.586 366.544 192.735C368.707 188.857 370.87 184.98 373.188 180.953C372.724 180.506 372.106 179.611 370.87 178.12C376.278 174.093 375.197 166.339 382.15 162.61C385.395 160.821 386.477 155.601 389.567 150.381C386.322 151.873 384.468 152.767 381.996 155.303C382.15 155.75 382.305 156.198 382.305 156.645C382.305 156.943 381.532 157.391 381.069 156.198C380.605 156.198 380.914 155.004 381.378 153.662C381.378 153.662 381.378 153.811 381.532 153.811C382.15 148.592 382.459 145.013 384.777 142.328C387.404 139.196 386.786 136.363 386.013 130.547C381.532 140.986 379.832 150.381 371.334 156.496C370.561 155.154 370.098 154.408 369.789 153.662L369.943 153.811C370.561 153.364 371.179 152.917 371.643 152.32C371.488 152.171 371.179 151.873 371.025 151.724C370.561 152.32 370.098 152.917 369.479 153.364L369.634 153.513C367.934 152.767 366.235 151.873 363.917 150.829C361.599 161.119 352.019 167.681 351.555 178.269C351.555 178.269 350.937 178.269 350.474 178.269C350.474 180.357 350.474 182.445 350.628 184.384C346.765 187.068 347.229 191.094 345.992 194.524ZM374.424 157.838C374.733 157.838 374.888 157.838 375.197 157.838C375.197 158.584 375.197 159.18 375.197 159.926C374.888 159.926 374.733 159.926 374.424 159.926C374.424 159.18 374.424 158.435 374.424 157.838ZM361.599 170.216C361.908 170.216 362.063 170.216 362.372 170.216C362.372 170.962 362.372 171.558 362.372 172.304C362.063 172.304 361.908 172.304 361.599 172.304C361.599 171.558 361.599 170.812 361.599 170.216ZM362.99 178.866C362.217 181.401 361.29 183.936 360.672 186.62C359.127 186.62 358.354 186.62 356.5 186.62C358.354 183.489 359.899 180.804 361.444 178.269C361.908 178.567 362.526 178.716 362.99 178.866ZM358.509 177.225C357.89 177.673 357.272 178.12 356.809 178.716L356.654 178.567C357.272 177.225 357.581 176.927 357.89 176.629C358.045 176.778 358.2 176.927 358.509 177.225ZM355.573 178.418C355.727 178.716 355.727 178.866 355.882 179.164C354.955 180.506 355.264 179.462 355.573 178.418ZM356.036 179.611C356.191 180.208 356.5 180.804 356.5 181.401C356.5 181.699 355.727 182.147 354.027 183.638C354.8 181.699 355.418 180.506 356.036 179.611ZM352.019 185.875C351.864 186.024 351.555 186.322 351.401 186.471C350.937 185.875 350.474 185.278 349.855 184.831C350.01 184.682 350.164 184.533 350.164 184.533C350.937 184.831 351.555 185.278 352.019 185.875Z" fill="white"/>
<path d="M387.25 196.016C388.64 193.928 389.413 192.735 390.031 191.691C386.941 190.945 386.941 190.945 387.25 196.016Z" fill="white"/>
<path d="M333.167 189.901C333.322 190.945 333.785 191.84 334.095 192.735C334.404 191.542 334.867 190.2 335.64 187.814C333.94 189.305 333.013 189.603 333.167 189.901Z" fill="white"/>
<path d="M40.041 185.278C39.8865 184.682 39.5775 184.085 39.423 183.638C38.1868 184.384 37.2597 184.98 36.178 185.726C36.3325 185.875 36.6416 186.173 36.7961 186.322C36.0235 186.77 35.4054 187.217 34.6328 187.664C35.869 188.559 36.6416 187.664 37.8777 187.217C38.4958 188.261 39.4229 188.261 40.5046 187.814C40.1955 187.366 40.041 187.068 39.732 186.77C40.041 186.173 40.3501 185.577 40.6591 184.98C40.5046 184.98 40.3501 185.129 40.041 185.278Z" fill="white"/>
<path d="M56.4199 183.34C56.7289 184.831 57.038 186.322 57.5015 187.963C57.9651 187.963 58.5832 187.963 59.2013 187.963C59.5103 187.366 59.8193 186.77 60.1284 186.173C59.0467 185.278 59.6648 182.147 56.4199 183.34Z" fill="white"/>
<path d="M73.4181 182.594C73.109 183.34 72.9545 183.787 72.6455 184.384C74.6542 184.234 77.8991 182.892 78.8263 181.848C76.8175 181.401 74.9633 181.55 73.4181 182.594Z" fill="white"/>
<path d="M336.412 176.778C335.022 179.909 331.159 182.445 333.786 186.471C338.73 184.234 337.34 180.357 336.412 176.778Z" fill="white"/>
<path d="M341.664 174.242C341.973 175.734 340.582 178.12 343.827 178.418C343.827 177.076 343.827 175.734 343.827 174.242C343.055 174.242 342.282 174.242 341.664 174.242Z" fill="white"/>
<path d="M381.84 155.303C381.685 154.855 381.531 154.408 381.376 153.961C381.222 154.706 381.222 155.452 381.067 156.198C381.222 155.899 381.531 155.601 381.84 155.303Z" fill="white"/>
<path d="M360.827 126.819C364.072 126.669 362.681 124.283 362.99 122.643C359.745 122.941 361.136 125.327 360.827 126.819Z" fill="white"/>
<path d="M367.007 119.511C366.852 119.362 366.543 119.064 366.389 118.914C365.925 119.511 365.461 120.108 364.843 120.555C364.998 120.704 365.152 120.853 365.307 121.002C365.925 120.406 366.389 119.958 367.007 119.511Z" fill="white"/>
<path d="M358.816 117.721C358.971 118.765 359.434 119.66 359.743 120.555C360.052 119.362 360.516 118.02 361.289 115.634C359.589 117.125 358.662 117.423 358.816 117.721Z" fill="white"/>
<path d="M367.934 114.441C367.934 115.186 367.934 115.783 367.934 116.528C368.243 116.528 368.398 116.528 368.707 116.528C368.707 115.783 368.707 115.186 368.707 114.441C368.398 114.441 368.243 114.441 367.934 114.441Z" fill="white"/>
<path d="M370.096 110.414C370.096 111.16 370.096 111.756 370.096 112.502C370.405 112.502 370.56 112.502 370.869 112.502C370.869 111.756 370.869 111.16 370.869 110.414C370.56 110.414 370.251 110.414 370.096 110.414Z" fill="white"/>
<path d="M363.609 110.414C363.609 111.16 363.609 111.756 363.609 112.502C363.918 112.502 364.072 112.502 364.382 112.502C364.382 111.756 364.382 111.16 364.382 110.414C364.072 110.414 363.918 110.414 363.609 110.414Z" fill="white"/>
<path d="M330.847 104.896C330.075 104.896 329.457 104.896 328.684 104.896C328.684 105.194 328.684 105.344 328.684 105.642C329.457 105.642 330.075 105.642 330.847 105.642C330.847 105.344 330.847 105.045 330.847 104.896Z" fill="white"/>
<path d="M377.669 102.957C377.515 102.808 377.205 102.51 377.051 102.361C376.587 102.957 376.124 103.405 375.506 104.001C374.888 104.449 374.424 104.896 373.806 105.493C373.961 105.642 374.27 105.94 374.424 106.089C374.888 105.493 375.351 105.045 375.969 104.449C376.587 103.852 377.206 103.405 377.669 102.957Z" fill="white"/>
<path d="M38.6512 87.1506C38.8058 87.0013 38.8058 87.0013 38.9604 86.8519C38.9604 86.7026 38.8058 86.5533 38.8058 86.2546C38.8058 86.4039 38.8058 86.4039 38.6512 86.5532C38.6512 86.8519 38.6512 87.0013 38.6512 87.1506Z" fill="white"/>
<path d="M16.5558 121.151C16.4013 122.792 16.7103 124.283 17.6375 125.625C18.7191 125.625 19.8007 125.625 20.8824 125.625C21.0369 125.476 21.1914 125.178 21.3459 125.029L21.5005 125.178C21.3459 125.327 21.0369 125.476 20.8824 125.625L20.7279 125.476C20.2643 126.073 19.8007 126.818 19.3372 127.415C18.8736 128.906 19.4917 130.398 20.4188 131.143C21.655 132.038 22.5821 133.231 23.8183 133.977C27.8358 136.661 34.7892 139.196 39.2703 140.389C41.5881 140.986 44.2149 141.135 46.5327 142.179C48.078 142.925 50.0867 142.776 51.941 143.074C53.4862 143.372 55.0314 143.969 56.5766 144.267C59.5125 144.863 62.1393 145.907 64.9207 146.802C67.8565 147.548 71.256 148.443 73.1102 151.276C73.8828 152.469 74.6554 153.662 75.428 155.154C78.3639 154.259 80.0637 157.241 82.6905 157.241C83.3086 156.794 83.7721 156.347 84.0812 155.899C84.8538 156.794 85.6264 157.838 86.399 158.584C87.4806 158.136 88.4077 157.838 89.0258 157.689C90.262 159.18 91.4981 160.373 92.5798 161.715C92.5798 162.759 92.5798 163.654 92.5798 164.996C93.5069 165.145 94.2795 165.444 95.0521 165.593C95.5157 164.549 95.8247 163.952 95.9792 163.207C96.2883 162.014 96.9064 160.821 96.7518 159.628C96.5973 156.048 97.5244 152.469 96.1338 149.039C96.5973 146.504 94.5886 144.714 93.816 142.626C93.6614 142.03 92.5798 141.732 91.8072 141.135C91.8072 140.539 91.6527 139.793 91.6527 138.898C90.4165 137.854 89.0258 136.959 87.9442 136.065C86.708 136.214 86.5535 138.153 85.1628 137.109C85.6264 136.661 86.0899 136.065 86.5535 135.617C86.5535 135.021 86.5535 134.573 86.5535 134.424C85.3173 133.679 84.2357 132.784 82.9995 132.336C81.1453 131.442 79.291 130.248 77.2823 129.801C74.9645 129.205 72.9557 128.161 70.6379 127.415C69.0927 126.968 67.393 126.52 65.6933 126.371C64.9207 126.371 63.9935 126.968 63.2209 127.117C62.6029 126.222 62.1393 125.476 61.6757 124.88C61.0576 124.88 60.4396 125.029 59.976 124.88C56.7311 123.836 53.3316 123.687 49.9322 122.792C47.7689 122.195 45.6056 121.599 43.4423 120.853C40.661 119.958 38.1886 118.467 36.1799 115.932C36.1799 113.993 36.1799 111.905 36.1799 109.668C35.5618 109.519 35.2528 109.37 34.7892 109.221C34.0166 107.73 36.798 108.326 36.1799 106.984C38.6522 104.747 40.661 102.063 44.524 101.764C45.4511 100.571 46.6873 101.317 47.9234 101.019C49.1596 100.869 50.3957 100.571 51.6319 100.273C53.7952 99.9747 55.804 100.869 57.8127 100.869C59.3579 100.869 60.9031 101.168 62.1393 101.615C66.3113 103.405 70.3289 105.194 71.8741 109.817C72.4922 111.458 72.9557 113.098 73.4193 114.888C74.9645 114.888 76.5097 114.888 77.9004 114.888C78.673 114.44 78.982 113.098 80.3727 113.844C79.9091 114.44 79.4456 114.888 78.673 115.634C79.7546 115.634 80.2182 115.783 80.8362 115.634C81.4543 115.484 82.3815 114.888 82.6905 115.037C84.6993 116.23 86.5535 115.484 88.4077 115.037C90.4165 115.783 91.8072 115.634 93.1979 115.484C93.1979 114.44 93.1979 113.695 93.1979 112.8C91.9617 113.695 90.8801 114.59 89.0258 114.888C89.3349 114.44 89.6439 113.844 90.1075 113.546C91.0346 112.949 91.9617 112.353 92.8888 111.756C92.4253 109.668 92.1162 107.879 91.6527 105.791C91.0346 105.493 90.4165 105.045 89.6439 104.598C90.1075 104.3 90.571 104.15 90.8801 104.001C89.4894 100.72 87.7897 97.7377 85.6264 95.2025C83.4631 92.6672 80.3727 90.8776 77.4368 89.2372C73.4193 87.0002 69.7108 85.3597 68.1656 85.9563C67.702 85.5089 67.2385 85.0615 67.0839 84.9123C64.1481 84.6141 61.3667 84.0175 58.5853 84.0175C53.9497 84.0175 49.3141 83.421 44.6785 84.6141C43.1333 85.0615 41.4336 84.6141 40.1974 84.6141C39.4248 85.2106 38.8067 85.5089 38.0341 86.5528C38.0341 86.7019 38.1887 86.851 38.1887 87.0002C38.1887 87.1493 37.8796 87.2984 37.7251 86.8511C37.5706 86.8511 37.5706 86.5528 37.7251 86.2545C37.5706 84.7632 36.798 85.2106 36.1799 85.3597C33.244 86.4037 30.3081 87.5967 27.5267 88.7898C26.4451 89.2372 25.6725 90.132 24.7454 90.7285C24.5909 90.8776 24.5909 91.0267 24.5909 91.0267C24.8999 91.6233 25.209 92.2198 25.6725 92.9655C26.9087 92.5181 28.1448 91.9215 29.381 91.4741C29.381 92.3689 29.381 93.1146 29.381 93.8603C28.6084 94.1585 27.8358 94.6059 27.0632 94.9042C26.2906 94.3077 25.827 93.7111 24.5909 92.6672C23.9728 93.562 23.6637 94.3077 23.0457 94.9042C22.1185 95.9481 20.8824 96.8429 19.9553 97.8868C19.1827 98.9308 18.4101 100.124 17.9465 101.317C17.1739 102.808 16.5558 104.449 15.9377 106.089C15.1651 107.58 16.0923 109.37 15.0106 111.01C14.547 111.607 15.0106 112.651 14.8561 113.397C15.4742 116.528 16.7103 118.765 16.5558 121.151ZM68.9382 90.132C68.3201 90.7285 68.0111 91.7724 66.7749 91.0267C67.393 90.4302 67.5475 89.3863 68.9382 90.132ZM43.4423 96.2464C43.9059 95.3516 44.2149 94.755 44.524 94.0094C44.9875 94.6059 45.4511 95.0533 46.0692 95.9481C44.9875 95.9481 44.3695 96.0972 43.4423 96.2464ZM45.6056 89.5354C46.3782 91.0267 49.4686 89.6846 49.1596 92.9655C47.4599 91.9215 46.3782 91.325 45.1421 90.5794C44.9875 91.0268 44.833 91.325 44.524 92.2198C44.0604 91.0268 43.5969 90.2811 42.9788 88.7898C44.3695 89.2372 45.4511 89.2372 45.6056 89.5354ZM31.6988 104.15C32.6259 104.747 34.0166 104.747 33.8621 106.835C32.0078 105.642 30.4626 104.598 29.072 103.554C30.4626 103.256 30.4626 103.256 31.6988 104.15Z" fill="white"/>
<path d="M28.4539 180.953C29.072 180.208 29.6901 179.462 30.1536 178.716C31.3898 179.164 32.1624 180.059 33.244 179.313C33.244 178.716 33.244 178.12 33.244 177.673C30.7717 177.225 30.7717 177.225 30.4627 174.839C31.5443 173.944 32.7805 173.049 33.8621 172.006C33.5531 170.962 33.0895 169.769 32.4714 168.426C33.244 168.277 34.0166 168.128 34.6347 168.128C35.4073 167.084 36.0254 166.04 36.798 165.145C35.2528 162.163 33.5531 159.329 34.1711 156.048C33.7076 155.601 33.3985 155.154 33.244 155.004C26.9087 155.004 20.8824 155.004 14.5471 155.004C14.5471 157.092 14.5471 159.18 14.7016 161.268C15.6287 161.268 16.2468 161.268 17.0194 161.268C16.4013 161.865 15.9377 162.163 15.1651 162.461C15.7832 165.295 16.8649 167.979 18.4101 170.365C20.2643 170.216 21.346 168.426 23.2002 169.172C23.2002 170.067 23.3547 170.962 23.2002 171.856C22.8912 172.751 24.2818 173.348 23.3547 174.541C22.8912 174.988 23.2002 176.33 23.2002 176.48C25.0545 178.269 26.2906 179.462 27.8358 180.953C27.8358 180.953 28.1448 180.953 28.4539 180.953ZM16.7103 161.268C16.5558 161.119 16.7103 160.821 16.8649 160.671L17.0194 160.821C17.0194 161.119 16.8649 161.119 16.7103 161.268ZM19.0282 163.058C19.6462 161.566 19.6462 161.566 21.1914 161.566C20.4188 162.163 19.8008 162.61 19.0282 163.058Z" fill="white"/>
<path d="M100.152 142.03C103.706 141.583 101.543 139.793 100.307 140.837C101.079 141.135 101.079 141.583 100.152 142.03Z" fill="white"/>
<path d="M107.259 129.801C112.822 129.95 112.668 131.292 112.05 136.661C111.895 135.766 111.277 135.766 110.504 136.512C110.968 136.512 111.122 136.661 111.122 136.81C105.096 134.573 109.732 139.942 108.65 140.091C108.65 140.091 107.723 141.732 108.032 142.179C108.496 142.925 109.423 144.416 109.423 141.881C109.577 142.03 109.577 142.925 110.041 142.925C110.041 142.328 110.041 141.583 110.041 140.837C110.813 141.284 110.968 141.583 111.74 141.433C111.586 141.135 111.431 140.837 111.277 140.39C110.813 140.539 110.35 140.539 109.886 140.688C109.732 139.346 109.577 138.003 109.423 136.96C111.586 137.109 111.431 136.81 112.204 138.153C112.668 139.196 112.204 143.521 112.204 144.714C112.204 149.337 111.895 153.811 111.74 158.435C111.586 163.356 110.195 174.093 113.286 176.629C111.586 177.225 113.904 180.804 114.522 181.55C118.848 186.173 113.595 180.804 116.84 180.954C116.685 184.234 116.376 184.384 120.085 186.173C123.484 187.814 127.193 188.261 130.901 188.261C134.3 188.261 137.7 188.112 140.945 187.963C142.026 187.963 145.271 188.559 146.198 187.814C147.126 187.068 146.353 181.997 146.508 180.954C146.199 181.103 145.889 181.252 145.426 181.401C145.271 181.55 144.035 182.892 144.035 182.892C146.198 180.506 146.353 180.059 146.353 176.629C146.353 172.602 146.817 172.602 142.49 172.602C140.172 172.602 136.773 173.05 134.609 171.707C130.283 169.023 131.828 161.268 131.828 157.092C131.983 151.873 131.983 146.802 131.983 141.583C134.146 142.477 132.601 140.539 131.983 139.942C132.755 139.346 133.373 138.451 133.373 137.854C131.056 138.003 133.219 138.003 132.137 138.6C132.601 136.96 133.064 132.635 134.3 131.74C133.064 130.845 132.91 129.95 133.682 128.757C135.537 129.652 140.172 129.205 142.335 129.056C146.662 128.906 145.889 127.266 145.735 123.388C145.735 122.345 145.889 121.45 145.889 120.406C145.735 117.125 146.662 116.23 143.881 115.186C142.181 114.59 132.601 115.932 132.446 114.888C133.528 114.888 133.682 114.441 132.755 113.546C133.064 113.695 133.373 113.695 133.682 113.546C133.373 112.949 133.064 106.686 132.292 110.265C131.983 105.493 132.292 100.72 131.983 95.9482C131.828 91.4742 130.592 92.5181 126.265 92.6673C123.329 92.8164 118.076 91.3251 118.385 94.7551C117.612 94.9042 117.458 94.3077 117.767 92.8164C116.531 92.8164 115.294 92.8164 114.058 92.8164C110.968 94.0095 112.05 96.9921 112.204 100.273C112.204 102.957 110.813 114.888 113.131 116.081C113.131 116.23 107.414 115.634 106.487 115.634C102.933 115.634 103.705 115.335 102.933 118.169C102.469 119.66 102.933 122.046 102.933 123.687C103.087 128.757 102.315 129.503 107.259 129.801Z" fill="white"/>
<path d="M105.404 143.82C105.559 142.179 106.486 137.109 104.322 137.705C104.168 137.109 104.631 136.959 105.713 136.959C104.941 136.81 104.322 136.512 103.55 136.363C103.395 137.705 103.859 140.539 103.704 140.986C102.932 140.688 102.314 140.986 102.159 141.881C103.704 141.881 103.704 143.82 105.404 143.82Z" fill="white"/>
<path d="M256.37 124.582C255.597 121.002 254.825 118.318 254.207 115.186C248.49 115.186 242.772 114.291 237.21 115.932C235.51 129.652 235.046 182.743 236.746 187.963C242.618 187.963 248.49 187.963 254.516 187.963C254.67 187.217 254.979 186.77 254.979 186.322C255.288 177.225 255.288 168.128 255.906 159.18C256.216 155.75 255.752 152.767 253.28 150.232C252.971 149.934 253.125 149.337 253.125 148.443C254.361 147.995 255.597 147.697 256.679 147.399C258.842 135.617 266.414 130.249 278.466 130.099C278.466 125.029 278.466 119.958 278.466 114.739C268.268 111.607 261.933 116.379 256.37 124.582Z" fill="white"/>
<path d="M180.349 113.844C165.515 117.572 156.862 128.012 153.771 141.881C150.527 155.899 155.626 167.979 165.515 178.567C166.288 179.462 167.215 180.059 168.142 180.804C167.369 181.252 166.751 181.997 166.133 182.892C166.133 185.278 166.133 187.515 166.133 189.901C169.996 192.586 171.078 197.06 173.241 200.937C173.55 201.534 173.086 202.428 173.086 203.025C170.614 203.174 170.614 201.235 169.532 199.893C169.378 201.086 169.223 201.981 169.069 203.174C165.515 202.876 162.116 202.13 158.716 202.13C116.841 202.13 74.9661 202.13 33.0911 202.13C31.5459 202.13 30.1552 202.13 28.61 202.13C28.7645 202.428 28.9191 202.578 29.0736 202.876C28.301 203.622 27.5284 204.367 26.7558 205.113C27.8374 205.113 29.2281 205.113 30.4643 205.113C53.4878 205.113 76.5113 204.964 99.3803 205.113C122.249 205.262 145.118 204.218 167.987 206.008C168.451 206.008 168.914 206.306 169.378 206.306C169.378 206.902 169.378 207.35 169.378 207.946C169.378 207.946 169.378 207.946 169.223 207.797C168.914 208.095 168.605 208.245 168.451 208.543C168.605 208.692 168.605 208.692 168.76 208.841C169.069 208.543 169.223 208.245 169.532 208.095C169.532 208.095 169.532 208.095 169.378 207.946C169.532 207.946 169.687 207.946 169.842 207.946C170.151 207.946 170.614 207.946 170.923 207.946C171.387 206.604 172.159 205.411 173.241 204.665C173.705 204.367 174.168 204.069 174.632 203.771C174.941 203.622 175.095 203.472 175.404 203.472C174.323 197.358 172.468 191.691 167.369 187.963C168.142 185.577 168.76 183.638 169.378 181.699C170.305 182.146 171.232 182.594 172.159 183.041L172.005 183.19C172.314 183.19 172.623 183.19 172.777 183.19C173.859 183.638 175.095 184.085 176.177 184.682C182.976 187.963 189.929 190.349 197.037 185.726C199.509 184.085 201.827 181.997 203.991 179.91C206.617 177.374 209.09 176.479 212.18 179.313C211.717 180.208 211.407 180.953 211.098 181.699C211.562 181.997 211.871 182.296 212.335 182.743C215.425 180.208 218.979 177.971 221.297 174.988C229.641 164.101 231.804 151.724 228.25 138.6C222.996 120.704 203.681 107.879 180.349 113.844ZM196.419 179.611C196.264 179.462 196.11 179.164 196.11 179.015C196.574 178.716 197.192 178.418 197.655 178.12C197.81 178.269 197.81 178.567 197.964 178.716C197.346 179.015 196.883 179.313 196.419 179.611ZM202.291 168.277C196.11 173.497 186.993 173.646 180.812 168.426C172.159 160.97 171.078 142.477 178.186 133.977C184.985 125.924 200.591 125.625 205.999 136.661C208.008 140.688 208.935 145.162 209.708 147.697C208.626 156.347 208.317 163.207 202.291 168.277Z" fill="white"/>
<path d="M170.458 207.797C170.921 206.455 171.694 205.262 172.776 204.516C171.849 205.262 170.921 206.306 170.458 207.797Z" fill="white"/>
<path d="M174.321 203.622C173.857 203.92 173.239 204.219 172.93 204.517C173.394 204.069 173.857 203.771 174.321 203.622Z" fill="white"/>
<path d="M19.027 201.534C17.6364 202.727 16.2457 200.192 15.0095 201.683C14.2369 202.578 13.0008 199.893 11.1465 201.385C10.2194 202.279 7.90159 201.683 6.35639 201.683C4.65666 201.683 3.11146 201.683 0.793652 201.683C1.56625 203.025 2.18434 203.771 2.6479 204.516C7.2835 204.516 11.7646 204.516 16.4002 204.516C17.3273 203.622 18.0999 202.578 19.027 201.534Z" fill="white"/>
<path d="M49.3115 187.814C48.6934 186.77 48.2298 185.875 47.4572 184.234C47.4572 186.173 47.4572 187.068 47.4572 187.963C47.9208 187.963 48.5389 187.963 49.3115 187.814Z" fill="white"/>
<path d="M46.6875 188.859C46.9967 188.56 47.1514 188.261 47.4606 188.112L47.306 187.963C46.9967 188.261 46.6875 188.411 46.5329 188.709L46.6875 188.859Z" fill="white"/>
<path d="M49.7763 182.894C50.0853 182.894 50.2399 182.744 50.3944 182.595C50.2399 182.445 50.2399 182.445 50.0853 182.296C49.9308 182.445 49.6217 182.595 49.4672 182.595C49.4672 182.744 49.6217 182.894 49.7763 182.894Z" fill="white"/>
<path d="M52.7127 174.989C53.3308 174.989 53.7943 174.989 54.4124 174.989C54.4124 174.69 54.4124 174.392 54.2579 174.093C53.6398 174.243 53.1762 174.392 52.5582 174.541C52.5582 174.69 52.5581 174.84 52.7127 174.989Z" fill="white"/>
<path d="M107.57 171.558C107.725 171.856 108.034 172.006 108.188 172.155L108.343 172.006L108.497 171.856C108.497 171.409 108.652 170.813 108.343 170.663C108.034 170.365 107.57 170.365 107.107 170.365C107.261 170.663 107.416 171.111 107.57 171.558Z" fill="white"/>
<path d="M350.318 133.679C351.708 129.95 352.945 126.222 354.335 122.344C354.335 123.239 354.335 123.985 354.335 124.88C355.726 123.538 357.117 122.195 358.662 120.704C357.58 120.704 356.499 120.704 354.953 120.704C356.344 116.677 357.735 112.502 359.28 108.177C350.936 108.177 344.137 108.177 337.184 108.177C335.484 111.756 333.939 114.888 332.548 117.871C332.548 116.23 332.548 114.441 332.548 112.8C331.93 112.8 331.312 112.8 330.694 112.8C330.848 114.441 331.003 116.081 331.003 117.721C325.594 121.151 320.186 124.432 314.469 128.012C311.533 121.002 308.752 114.44 306.279 108.177C298.708 108.177 291.755 108.177 284.338 108.177C285.265 110.861 285.728 112.651 286.346 114.44C292.991 132.485 299.79 150.381 306.434 168.426C309.215 176.032 308.443 177.673 300.562 183.34C297.626 181.401 294.69 179.164 290.673 176.479C289.437 177.374 287.892 178.418 286.346 179.611C289.9 183.638 292.218 186.471 294.999 189.752C291.6 189.305 289.282 189.007 286.655 188.708C283.565 196.463 291.291 200.191 291.909 206.008C311.688 211.078 322.968 206.306 329.767 189.156C337.184 170.962 343.673 152.171 350.318 133.679ZM326.676 135.766C326.058 138.451 325.749 140.688 325.131 142.925C324.513 145.013 323.74 146.951 322.504 150.53C320.804 145.609 319.414 141.881 317.714 136.959C321.113 136.512 323.431 136.214 326.676 135.766Z" fill="white"/>
<path d="M344.444 69.1071L344.599 69.2565C344.599 69.2565 344.444 69.2565 344.444 69.1071Z" fill="white"/>
</svg>
