<svg width="242" height="135" viewBox="0 0 242 135" fill="none" xmlns="http://www.w3.org/2000/svg">
<g clip-path="url(#clip0_65_5750)">
<path d="M175.109 133.193C175.109 133.474 175.016 133.755 175.016 134.036C178.568 134.036 182.027 134.036 185.579 134.036C185.579 133.755 185.579 133.474 185.579 133.193C182.12 133.193 178.568 133.193 175.109 133.193Z" fill="white"/>
<path d="M7.9592 131.695C6.93087 131.695 6.36995 132.257 6.46344 133.568C8.61359 133.287 10.9507 134.223 12.6334 132.35C12.54 132.163 12.54 131.882 12.4465 131.695C10.9507 131.695 9.45496 131.601 7.9592 131.695Z" fill="white"/>
<path d="M198.667 125.514C199.696 124.672 200.163 124.391 200.163 124.203C200.069 123.548 199.789 122.986 199.602 122.424C199.415 123.173 199.135 123.922 198.667 125.514Z" fill="white"/>
<path d="M227.741 122.424C227.928 122.424 228.022 122.424 228.209 122.424C228.209 121.956 228.209 121.581 228.209 121.113C228.022 121.113 227.928 121.113 227.741 121.113C227.741 121.488 227.741 121.956 227.741 122.424Z" fill="white"/>
<path d="M203.995 119.053C204.088 120.27 204.088 121.113 204.088 121.956C204.369 122.143 204.649 122.331 205.023 122.518C205.958 120.739 206.986 118.959 207.828 117.18C207.921 116.899 207.547 116.431 207.547 116.431C206.425 117.274 205.117 118.304 203.995 119.053Z" fill="white"/>
<path d="M221.353 52.5536C221.353 52.9152 221.353 53.1563 221.353 53.5179C221.353 53.2768 221.447 52.6741 221.353 52.5536Z" fill="white"/>
<path d="M161.059 43.8517C160.406 42.5347 159.752 41.0294 159.005 39.6183C158.164 39.242 157.324 38.8657 156.483 38.4894C156.203 38.7716 156.016 38.9598 155.736 39.0539C155.55 39.242 155.269 39.242 154.989 39.4302C150.04 41.9702 147.332 45.7332 147.985 51.4718C148.079 52.5067 147.985 53.5415 147.985 54.5763C148.172 57.4927 149.199 60.2209 151.534 61.7261C153.869 63.2313 156.297 65.1128 159.378 64.9246C159.845 64.9246 160.219 65.395 160.779 65.6773C161.059 64.5483 163.207 65.3009 162.834 63.5135C162.834 63.5135 163.207 63.4194 163.394 63.3254C163.581 64.172 163.674 65.0187 163.768 65.6773C166.849 65.0187 169.744 64.3602 173.386 63.5135C174.787 62.5728 176.842 61.1616 179.083 59.6564C179.83 60.9735 180.577 62.4787 181.044 63.4194C182.351 64.3602 183.192 65.0187 184.406 66.0536C186.74 65.6773 189.449 65.2069 192.063 64.8306C192.063 62.1965 192.063 59.7505 192.063 57.4927C190.476 57.0223 189.075 56.5519 187.861 56.1756C187.861 48.0851 187.861 40.5591 187.861 32.9389C187.861 30.2107 187.674 27.6707 187.114 24.9425C186.274 20.7091 183.659 18.1691 180.017 16.852C176.842 15.7231 173.386 14.7824 169.931 14.9705C167.036 15.1587 164.141 15.7231 161.246 16.0994C155.923 18.1691 151.627 21.4617 149.666 27.1063C149.666 28.5174 149.666 29.9285 149.666 31.2456C150.04 31.6219 150.413 31.9982 150.787 32.3745C152.561 32.3745 154.336 32.3745 156.577 32.3745C157.23 31.2456 157.978 29.9285 158.725 28.6115C158.631 28.5174 158.445 28.4233 158.351 28.3292C160.125 26.73 161.9 25.1307 163.581 23.7195C166.849 23.7195 169.744 23.8136 172.546 23.7195C174.694 23.6255 176.281 24.6603 177.589 26.1655C178.242 26.824 178.616 27.7648 179.083 28.6115C177.308 29.7404 178.989 31.9041 177.962 33.3152C176.655 35.479 173.293 34.256 172.079 36.9842C174.04 38.1131 171.985 41.3117 174.88 42.1584C176.188 41.8761 177.589 41.4998 178.989 41.1235C180.017 47.991 177.775 53.1652 172.452 56.9282C170.024 56.9282 167.69 58.1512 165.075 57.963C162.367 57.6808 160.125 56.5519 157.978 55.5171C156.483 52.7889 156.577 50.1548 158.164 46.5799C158.725 46.1095 159.845 45.0747 161.059 43.8517Z" fill="white"/>
<path d="M144.228 45.3729C143.292 43.1244 143.386 41.1569 143.199 39.4705C141.327 36.9409 139.735 34.7861 138.518 33.0997C139.361 30.1953 139.361 27.1972 140.859 25.5108C142.731 23.2623 140.671 20.0769 143.199 18.7652C142.169 15.6735 141.233 12.9565 140.203 9.77107C140.016 9.58369 139.361 8.92787 138.799 8.36573C134.025 3.40021 128.222 0.964294 121.389 0.964294C111.092 1.05798 100.702 0.964294 90.7795 0.964294C88.6266 2.6507 86.8481 4.14973 84.6951 5.83613C85.0696 6.39826 85.5376 7.24146 85.8184 7.61622C85.444 9.95845 84.8824 11.8322 84.8824 13.7997C85.0696 18.0157 85.6312 22.138 86.0992 26.354C86.38 28.5089 86.7545 30.5701 87.1289 32.9123C86.5672 33.1934 85.6312 33.5681 84.5079 34.1302C87.4097 38.4399 85.444 43.2181 86.0992 47.8089C86.8481 52.3996 88.533 56.9904 86.5673 61.1127C87.5033 62.4244 88.3458 63.5486 89.001 64.4855C92.558 64.4855 95.647 64.4855 98.736 64.4855C101.825 64.4855 104.914 64.4855 108.003 64.4855C111.279 64.4855 114.649 64.2044 117.925 64.5792C120.733 64.8603 123.448 62.8928 126.256 64.3918C126.724 64.6729 127.66 64.0171 128.409 63.736C131.311 62.3307 134.306 61.019 137.208 59.4263C141.327 57.0841 145.726 49.1205 144.228 45.3729ZM108.752 22.4191C111.466 22.4191 114.275 22.4191 117.551 22.4191C116.708 23.8244 116.053 24.7613 115.585 25.6045C112.309 26.4477 109.969 25.3235 107.909 23.7307C108.19 23.2623 108.471 22.8875 108.752 22.4191ZM119.329 48.2773C116.053 48.2773 113.151 48.2773 109.875 48.2773C108.845 46.4972 108.003 44.9982 106.88 43.1244C107.816 42.0938 108.939 40.9695 110.062 39.7516C114.649 39.1895 119.048 39.5642 123.354 42.4686C121.857 44.5297 120.546 46.4972 119.329 48.2773Z" fill="white"/>
<path d="M241.39 4.81246C241.484 3.87572 242.513 1.90857 241.671 0.971829C241.296 0.597133 238.207 0.971829 237.552 0.971829C236.335 0.971829 235.118 0.971829 233.994 0.971829C232.497 0.971829 230.062 -0.245933 229.033 1.15918C228.565 1.8149 229.033 4.53144 229.033 5.37451C229.033 6.59227 229.033 7.81004 229.033 9.12147C229.033 11.7443 229.033 14.4609 229.033 17.0838C229.033 18.3015 229.688 23.0789 228.752 23.8283C227.067 20.8307 224.82 19.2383 221.637 17.9268C220.046 17.2711 217.799 16.5217 216.02 16.5217C214.897 16.5217 213.867 16.9901 212.65 16.9901C206.19 17.0838 201.135 22.6105 198.327 28.0436C198.42 26.8259 197.859 25.7955 197.297 24.765C196.548 25.2334 196.08 25.8891 196.454 26.9195C197.016 26.8259 197.203 27.0132 197.297 27.4816C197.391 27.95 197.578 28.3247 197.671 28.793C197.578 29.5424 196.642 30.5728 196.361 31.3222C196.829 31.5096 196.829 31.7906 196.548 32.0716C196.361 32.3526 196.174 32.6337 196.08 32.9147C195.986 33.6641 195.986 34.4135 195.893 35.1629C195.705 36.9427 195.425 38.6288 195.425 40.5023C195.425 44.2493 195.799 48.0899 196.454 51.8368C196.829 53.6167 196.829 55.3965 196.829 57.2699C196.829 58.2067 196.829 59.2371 196.829 60.1738C196.829 61.579 196.922 61.579 197.952 62.422C197.671 59.7055 197.578 56.7079 198.046 54.085C199.825 57.9257 202.727 62.3283 206.752 64.2018C208.718 65.1386 210.684 65.7006 212.744 66.2627C213.867 66.5437 214.522 67.1057 215.646 67.012C216.956 66.8247 218.08 65.6069 219.39 66.3563C218.641 67.6678 219.297 67.3867 219.39 68.6982C219.858 68.5108 220.42 68.4172 220.982 68.4172C221.075 67.7614 221.169 67.012 221.169 66.3563C221.731 64.7639 221.731 65.4196 222.948 64.9512C224.633 64.3892 226.692 62.6094 228.097 61.0169C228.752 61.6726 228.845 62.8904 228.939 63.7335C229.126 65.2322 229.407 65.3259 230.437 65.2322C229.407 67.1994 228.565 69.3539 227.254 71.1337C225.382 73.7566 223.603 76.3795 221.918 79.096C220.607 81.2505 218.548 83.0303 217.143 85.0911C216.582 86.4026 215.833 87.6203 214.803 89.2128C213.68 86.2152 215.458 85.6532 217.143 85.0911C217.143 83.9671 217.518 83.0303 217.799 82.0936C217.986 81.3442 218.08 80.5011 218.267 79.7517C216.02 81.7189 213.867 83.5924 212.463 84.7165C211.152 88.7444 210.122 91.742 208.905 95.6763C210.871 94.9269 212.088 94.4586 213.68 93.8028C214.335 94.6459 214.99 95.5826 215.739 96.5194C213.024 97.3624 213.024 100.079 211.807 101.952C210.684 103.639 210.59 106.261 207.969 106.824C207.969 107.667 207.969 108.51 207.969 109.446C208.812 109.446 209.654 109.446 210.59 109.446C210.871 108.51 211.152 107.573 211.433 106.636C212.463 103.077 215.552 100.36 215.739 96.5194C218.922 95.489 218.641 92.1167 220.514 89.8685C221.356 89.8685 222.292 89.8685 222.667 89.8685C223.977 87.995 225.007 86.4963 226.037 84.9975C226.224 85.8405 226.318 86.5899 226.505 87.433C226.786 87.433 227.067 87.3393 227.348 87.3393C227.254 86.4963 227.16 85.6532 227.16 84.9038C226.786 84.9038 226.505 84.9038 226.131 84.9975C226.131 84.1544 226.131 83.405 226.131 82.3746C227.16 82.9366 227.722 83.2177 228.19 83.4987C228.752 81.9999 229.22 80.6885 229.782 79.377C231.092 76.2858 232.122 72.9135 233.994 70.197C235.399 68.3235 235.118 66.8247 234.369 65.1386C235.118 65.1386 235.96 65.1386 236.709 65.1386C236.709 65.2322 236.709 65.3259 236.803 65.5133C237.084 65.5133 237.365 65.4196 237.645 65.4196C237.645 65.3259 237.645 65.2322 237.645 65.2322C238.862 65.2322 240.173 65.2322 241.39 65.2322C241.39 58.394 241.39 51.6495 241.39 44.8113C241.39 40.7833 241.39 36.849 241.39 32.821C241.39 32.1653 241.671 30.6665 241.39 30.1045C241.109 29.5424 240.079 29.7298 239.705 29.1677C239.424 28.6994 239.705 27.1069 239.705 26.5448C240.36 26.8259 240.922 27.1069 241.577 27.3879C241.203 26.3575 241.764 24.765 241.577 23.7346C241.484 22.7042 241.858 21.5801 241.858 20.3624C241.858 17.5521 241.858 14.8356 241.858 12.0254C241.858 10.6203 241.858 9.21515 241.858 7.90371C241.764 6.87329 241.296 5.65553 241.39 4.81246ZM224.352 20.456C224.352 20.5497 224.539 21.9548 224.165 22.0485C223.509 22.1422 224.258 20.6434 224.352 20.456ZM223.697 22.5169C223.697 23.0789 223.229 23.2663 222.76 23.4536C223.135 23.0789 223.416 22.7979 223.697 22.5169ZM222.667 24.8587C222.948 24.8587 223.135 24.8587 223.416 24.8587C223.229 25.5144 223.229 27.0132 222.667 27.1069C222.667 26.2638 222.667 25.5144 222.667 24.8587ZM221.918 58.2067C222.105 57.832 222.292 57.4573 222.48 57.0826C222.948 57.3636 223.229 57.832 223.509 58.3004C222.948 58.2067 222.48 58.2067 221.918 58.2067ZM224.82 63.1714C224.446 63.2651 224.258 63.0777 224.446 62.422C224.539 62.422 224.726 62.422 224.82 62.422C224.82 62.703 224.726 62.9841 224.82 63.1714ZM228.752 44.9986C228.097 46.6848 227.909 48.5583 227.067 50.1507C226.131 52.1179 224.446 52.2115 225.475 54.366C224.82 54.4597 224.165 54.5534 223.603 54.5534C223.603 54.8344 223.603 55.0218 223.603 55.3028C223.416 55.4901 223.041 55.9585 222.573 56.1459C222.292 54.9281 222.854 52.4926 221.543 54.4597C220.982 54.1787 221.169 53.1483 221.263 52.4926C221.263 52.1179 221.263 51.6495 221.263 51.2748C220.701 51.2748 220.046 51.1811 219.484 51.1811C219.484 52.0242 219.952 54.366 219.484 55.1154C218.641 56.4269 214.335 54.5534 213.118 53.7103C210.778 52.1179 209.186 49.3077 208.812 46.4974C208.718 45.3733 208.999 43.8746 208.531 43.2188C208.531 43.4062 207.22 43.0315 207.314 43.0315C206.284 42.8441 206.752 42.3758 205.629 42.9378C205.816 42.0011 205.91 40.596 206.565 40.2213C206.939 40.0339 207.876 40.2213 208.344 40.2213C207.876 33.2894 213.399 25.1397 220.701 27.4816C222.573 28.1373 223.509 28.512 224.914 29.9171C226.318 31.2286 227.16 32.6337 227.816 34.5071C228.377 36.1933 228.471 37.6921 228.565 39.3782C228.752 41.2517 229.407 43.3125 228.752 44.9986ZM213.961 91.3673C213.773 91.3673 213.68 91.3673 213.492 91.3673C213.492 90.8989 213.492 90.5242 213.492 90.0559C213.68 90.0559 213.773 90.0559 213.961 90.0559C213.961 90.5242 213.961 90.8989 213.961 91.3673ZM239.799 25.5144C239.611 25.3271 239.33 25.2334 238.862 24.9524C239.986 24.8587 239.986 24.8587 239.799 25.5144ZM240.735 5.46818C237.739 5.84288 234.743 6.21758 231.748 5.65553C233.245 5.46818 234.743 5.18716 236.241 5.09349C237.739 4.99981 239.424 5.37451 240.828 4.71879C241.016 4.99981 241.016 5.28084 240.735 5.46818Z" fill="white"/>
<path d="M208.297 114.558C209.7 113.622 210.728 112.779 211.85 112.03C211.663 111.094 212.504 109.595 210.541 109.408C209.7 110.251 208.858 111.094 207.923 112.03C208.11 112.873 208.204 113.716 208.297 114.558Z" fill="white"/>
<path d="M229.05 108.097C229.237 108.097 229.331 108.097 229.518 108.097C229.518 107.629 229.518 107.254 229.518 106.786C229.331 106.786 229.237 106.786 229.05 106.786C229.05 107.254 229.05 107.723 229.05 108.097Z" fill="white"/>
<path d="M207.922 106.88C207.922 106.131 207.922 105.382 207.922 104.258C204.837 106.973 204.837 106.973 206.614 109.408C206.894 108.472 206.053 106.973 207.922 106.88Z" fill="white"/>
<path d="M233.632 106.693C233.632 105.475 233.632 104.258 233.632 101.917C232.604 104.164 232.043 105.382 231.388 106.693C232.23 106.693 232.791 106.693 233.632 106.693Z" fill="white"/>
<path d="M225.592 91.3354C225.592 90.8672 225.592 90.4926 225.592 90.0244C225.405 90.0244 225.311 90.0244 225.124 90.0244C225.124 90.4926 225.124 90.8672 225.124 91.3354C225.311 91.3354 225.498 91.3354 225.592 91.3354Z" fill="white"/>
<path d="M209.325 122.143C209.138 122.518 209.606 123.173 209.793 123.735C211.008 122.612 212.036 121.675 212.878 120.832C214.187 121.581 215.028 122.05 216.243 122.799C216.804 121.862 217.365 121.02 218.3 119.615C218.3 119.334 218.3 118.304 218.206 117.18C219.515 116.338 220.731 115.588 222.32 114.465C221.665 116.993 221.198 118.772 220.731 120.645C221.104 120.739 221.385 120.926 221.759 121.02C223.068 118.585 224.376 116.15 225.779 113.622C225.498 113.341 225.124 112.779 224.376 111.843C227.648 109.314 226.994 104.445 231.201 102.104C233.164 100.98 233.818 97.703 235.688 94.4255C233.725 95.3619 232.603 95.9238 231.107 97.5157C231.201 97.7966 231.294 98.0775 231.294 98.3584C231.294 98.5457 230.827 98.8267 230.546 98.0775C230.266 98.0775 230.453 97.3284 230.733 96.4856C230.733 96.4856 230.733 96.5793 230.827 96.5793C231.201 93.3018 231.388 91.0544 232.79 89.3689C234.379 87.4024 234.005 85.6233 233.538 81.9713C230.827 88.5261 229.799 94.4255 224.657 98.2648C224.189 97.422 223.909 96.9538 223.722 96.4856L223.816 96.5793C224.19 96.2983 224.563 96.0174 224.844 95.6429C224.75 95.5492 224.563 95.3619 224.47 95.2683C224.189 95.6429 223.909 96.0174 223.535 96.2983L223.629 96.392C222.6 95.9238 221.572 95.3619 220.17 94.7065C218.767 101.168 212.971 105.288 212.691 111.936C212.691 111.936 212.317 111.936 212.036 111.936C212.036 113.247 212.036 114.558 212.13 115.776C209.793 117.461 210.073 119.99 209.325 122.143ZM226.527 99.1076C226.714 99.1076 226.807 99.1076 226.994 99.1076C226.994 99.5758 226.994 99.9503 226.994 100.419C226.807 100.419 226.714 100.419 226.527 100.419C226.527 99.9503 226.527 99.4821 226.527 99.1076ZM218.767 106.88C218.954 106.88 219.048 106.88 219.235 106.88C219.235 107.348 219.235 107.723 219.235 108.191C219.048 108.191 218.954 108.191 218.767 108.191C218.767 107.723 218.767 107.254 218.767 106.88ZM219.609 112.311C219.141 113.903 218.58 115.495 218.206 117.18C217.272 117.18 216.804 117.18 215.682 117.18C216.804 115.214 217.739 113.528 218.674 111.936C218.954 112.124 219.328 112.217 219.609 112.311ZM216.898 111.281C216.524 111.562 216.15 111.843 215.869 112.217L215.776 112.124C216.15 111.281 216.337 111.094 216.524 110.906C216.617 111 216.711 111.094 216.898 111.281ZM215.121 112.03C215.215 112.217 215.215 112.311 215.308 112.498C214.748 113.341 214.934 112.686 215.121 112.03ZM215.402 112.779C215.495 113.154 215.682 113.528 215.682 113.903C215.682 114.09 215.215 114.371 214.187 115.307C214.654 114.09 215.028 113.341 215.402 112.779ZM212.971 116.712C212.878 116.806 212.691 116.993 212.597 117.087C212.317 116.712 212.036 116.338 211.663 116.057C211.756 115.963 211.849 115.869 211.849 115.869C212.317 116.057 212.691 116.338 212.971 116.712Z" fill="white"/>
<path d="M234.286 123.08C235.127 121.769 235.595 121.02 235.969 120.364C234.099 119.896 234.099 119.896 234.286 123.08Z" fill="white"/>
<path d="M201.566 119.24C201.66 119.896 201.94 120.458 202.127 121.02C202.314 120.27 202.595 119.428 203.062 117.929C202.034 118.866 201.473 119.053 201.566 119.24Z" fill="white"/>
<path d="M24.2248 116.338C24.1313 115.963 23.9444 115.588 23.8509 115.307C23.103 115.776 22.5421 116.15 21.8877 116.618C21.9812 116.712 22.1682 116.899 22.2616 116.993C21.7942 117.274 21.4203 117.555 20.9529 117.836C21.7007 118.398 22.1682 117.836 22.916 117.555C23.29 118.21 23.8509 118.21 24.5053 117.929C24.3183 117.649 24.2248 117.461 24.0379 117.274C24.2248 116.899 24.4118 116.525 24.5988 116.15C24.5053 116.15 24.4118 116.244 24.2248 116.338Z" fill="white"/>
<path d="M34.134 115.12C34.321 116.057 34.508 116.993 34.7884 118.023C35.0689 118.023 35.4428 118.023 35.8168 118.023C36.0037 117.648 36.1907 117.274 36.3777 116.899C35.7233 116.338 36.0972 114.371 34.134 115.12Z" fill="white"/>
<path d="M44.4179 114.652C44.231 115.12 44.1375 115.401 43.9505 115.776C45.1658 115.682 47.129 114.839 47.6899 114.184C46.4746 113.903 45.3528 113.997 44.4179 114.652Z" fill="white"/>
<path d="M203.53 111C202.688 112.966 200.351 114.558 201.94 117.087C204.932 115.682 204.09 113.247 203.53 111Z" fill="white"/>
<path d="M206.707 109.408C206.894 110.344 206.052 111.843 208.016 112.03C208.016 111.187 208.016 110.344 208.016 109.408C207.548 109.408 207.081 109.408 206.707 109.408Z" fill="white"/>
<path d="M231.013 97.5157C230.92 97.2348 230.826 96.9538 230.733 96.6729C230.639 97.1411 230.639 97.6093 230.546 98.0775C230.639 97.8902 230.826 97.703 231.013 97.5157Z" fill="white"/>
<path d="M218.3 79.6302C220.263 79.5366 219.422 78.0384 219.609 77.0083C217.646 77.1956 218.487 78.6938 218.3 79.6302Z" fill="white"/>
<path d="M222.039 75.0418C221.946 74.9482 221.759 74.7609 221.665 74.6672C221.385 75.0418 221.104 75.4164 220.73 75.6973C220.824 75.7909 220.917 75.8846 221.011 75.9782C221.385 75.6036 221.665 75.3227 222.039 75.0418Z" fill="white"/>
<path d="M217.084 73.9181C217.177 74.5736 217.458 75.1354 217.645 75.6973C217.832 74.9481 218.112 74.1054 218.58 72.6071C217.551 73.5435 216.99 73.7308 217.084 73.9181Z" fill="white"/>
<path d="M222.6 71.858C222.6 72.3262 222.6 72.7008 222.6 73.169C222.787 73.169 222.881 73.169 223.068 73.169C223.068 72.7008 223.068 72.3262 223.068 71.858C222.881 71.858 222.787 71.858 222.6 71.858Z" fill="white"/>
<path d="M223.908 69.3297C223.908 69.7979 223.908 70.1725 223.908 70.6407C224.095 70.6407 224.189 70.6407 224.376 70.6407C224.376 70.1725 224.376 69.7979 224.376 69.3297C224.189 69.3297 224.002 69.3297 223.908 69.3297Z" fill="white"/>
<path d="M219.983 69.3297C219.983 69.7979 219.983 70.1725 219.983 70.6407C220.17 70.6407 220.264 70.6407 220.451 70.6407C220.451 70.1725 220.451 69.7979 220.451 69.3297C220.264 69.3297 220.17 69.3297 219.983 69.3297Z" fill="white"/>
<path d="M200.163 65.8649C199.695 65.8649 199.321 65.8649 198.854 65.8649C198.854 66.0524 198.854 66.1461 198.854 66.3335C199.321 66.3335 199.695 66.3335 200.163 66.3335C200.163 66.1461 200.163 65.9586 200.163 65.8649Z" fill="white"/>
<path d="M228.49 64.6476C228.396 64.554 228.209 64.3667 228.116 64.2731C227.835 64.6476 227.555 64.9286 227.181 65.3031C226.807 65.584 226.527 65.865 226.153 66.2395C226.246 66.3332 226.433 66.5205 226.527 66.6141C226.807 66.2395 227.088 65.9586 227.461 65.584C227.835 65.2095 228.209 64.9286 228.49 64.6476Z" fill="white"/>
<path d="M23.384 54.7225C23.4775 54.6287 23.4775 54.6287 23.5711 54.5349C23.5711 54.4412 23.4775 54.3474 23.4775 54.1599C23.4775 54.2536 23.4775 54.2536 23.384 54.3474C23.384 54.5349 23.384 54.6287 23.384 54.7225Z" fill="white"/>
<path d="M10.0163 76.0718C9.92278 77.1019 10.1097 78.0383 10.6707 78.8811C11.325 78.8811 11.9794 78.8811 12.6338 78.8811C12.7273 78.7874 12.8208 78.6001 12.9143 78.5065L13.0078 78.6002C12.9143 78.6938 12.7273 78.7874 12.6338 78.8811L12.5404 78.7874C12.2599 79.162 11.9794 79.6302 11.699 80.0048C11.4185 80.9412 11.7925 81.8776 12.3534 82.3458C13.1013 82.9076 13.6622 83.6568 14.41 84.125C16.8407 85.8105 21.0475 87.4024 23.7585 88.1515C25.1608 88.5261 26.75 88.6197 28.1523 89.2752C29.0872 89.7434 30.3025 89.6498 31.4243 89.8371C32.3591 90.0244 33.294 90.3989 34.2288 90.5862C36.005 90.9608 37.5943 91.6163 39.277 92.1781C41.0532 92.6463 43.1099 93.2082 44.2317 94.9874C44.6991 95.7365 45.1665 96.4856 45.634 97.422C47.4102 96.8602 48.4385 98.733 50.0277 98.733C50.4017 98.4521 50.6821 98.1711 50.8691 97.8902C51.3365 98.4521 51.804 99.1076 52.2714 99.5758C52.9258 99.2948 53.4867 99.1075 53.8606 99.0139C54.6085 99.9503 55.3564 100.699 56.0108 101.542C56.0108 102.198 56.0108 102.76 56.0108 103.602C56.5717 103.696 57.0391 103.883 57.5065 103.977C57.787 103.321 57.974 102.947 58.0674 102.479C58.2544 101.73 58.6283 100.98 58.5349 100.231C58.4414 97.9839 59.0023 95.7365 58.1609 93.5827C58.4414 91.9908 57.2261 90.8671 56.7586 89.5562C56.6652 89.1816 56.0108 88.9943 55.5433 88.6198C55.5433 88.2452 55.4499 87.777 55.4499 87.2151C54.702 86.5596 53.8606 85.9978 53.2062 85.4359C52.4583 85.5296 52.3649 86.7469 51.5235 86.0914C51.804 85.8105 52.0844 85.436 52.3649 85.155C52.3649 84.7805 52.3649 84.4995 52.3649 84.4059C51.617 83.9377 50.9626 83.3758 50.2147 83.0949C49.0929 82.5331 47.9711 81.7839 46.7558 81.503C45.3535 81.1285 44.1382 80.473 42.7359 80.0048C41.8011 79.7238 40.7728 79.4429 39.7444 79.3493C39.277 79.3493 38.7161 79.7238 38.2487 79.8175C37.8747 79.2556 37.5943 78.7874 37.3138 78.4129C36.9399 78.4129 36.5659 78.5065 36.2855 78.4129C34.3223 77.7574 32.2656 77.6637 30.209 77.1019C28.9002 76.7273 27.5914 76.3528 26.2826 75.8846C24.5999 75.3227 23.1041 74.3863 21.8888 72.7944C21.8888 71.5771 21.8888 70.2661 21.8888 68.8615C21.5149 68.7678 21.3279 68.6742 21.0475 68.5806C20.58 67.6441 22.2628 68.0187 21.8888 67.1759C23.3846 65.7713 24.5999 64.0858 26.937 63.8985C27.4979 63.1494 28.2458 63.6176 28.9937 63.4303C29.7416 63.3366 30.4894 63.1494 31.2373 62.9621C32.5461 62.7748 33.7614 63.3367 34.9767 63.3367C35.9115 63.3367 36.8464 63.5239 37.5943 63.8049C40.1184 64.9285 42.549 66.0522 43.4838 68.9551C43.8578 69.9852 44.1382 71.0152 44.4187 72.1389C45.3535 72.1389 46.2884 72.1389 47.1297 72.1389C47.5971 71.858 47.7841 71.0152 48.6255 71.4834C48.345 71.858 48.0646 72.1389 47.5971 72.6071C48.2515 72.6071 48.532 72.7008 48.9059 72.6071C49.2799 72.5135 49.8408 72.1389 50.0277 72.2326C51.2431 72.9817 52.3649 72.5135 53.4867 72.2326C54.702 72.7008 55.5433 72.6071 56.3847 72.5135C56.3847 71.858 56.3847 71.3898 56.3847 70.8279C55.6368 71.3898 54.9824 71.9516 53.8606 72.1389C54.0476 71.858 54.2346 71.4834 54.515 71.2961C55.0759 70.9216 55.6368 70.547 56.1977 70.1724C55.9173 68.8615 55.7303 67.7378 55.4499 66.4268C55.0759 66.2395 54.702 65.9586 54.2346 65.6777C54.515 65.4904 54.7955 65.3968 54.9824 65.3031C54.1411 63.243 53.1127 61.3702 51.804 59.7783C50.4952 58.1864 48.6255 57.0627 46.8493 56.0326C44.4187 54.628 42.175 53.598 41.2402 53.9725C40.9597 53.6916 40.6793 53.4107 40.5858 53.317C38.8096 53.1298 37.1268 52.7552 35.4441 52.7552C32.6396 52.7552 29.835 52.3806 27.0305 53.1298C26.0956 53.4107 25.0673 53.1298 24.3194 53.1298C23.852 53.5043 23.4781 53.6916 23.0106 54.3471C23.0106 54.4407 23.1041 54.5344 23.1041 54.628C23.1041 54.7217 22.9172 54.8153 22.8237 54.5344C22.7302 54.5344 22.7302 54.3471 22.8237 54.1598C22.7302 53.2234 22.2628 53.5043 21.8888 53.598C20.1126 54.2535 18.3364 55.0026 16.6537 55.7517C15.9993 56.0326 15.5319 56.5945 14.971 56.9691C14.8775 57.0627 14.8775 57.1563 14.8775 57.1563C15.0644 57.5309 15.2514 57.9055 15.5319 58.3737C16.2797 58.0927 17.0276 57.7182 17.7755 57.4373C17.7755 57.9991 17.7755 58.4673 17.7755 58.9355C17.3081 59.1228 16.8407 59.4037 16.3732 59.591C15.9058 59.2164 15.6253 58.8419 14.8775 58.1864C14.5035 58.7482 14.3166 59.2164 13.9426 59.591C13.3817 60.2465 12.6338 60.8083 12.0729 61.4638C11.6055 62.1193 11.1381 62.8684 10.8576 63.6176C10.3902 64.554 10.0163 65.584 9.64233 66.6141C9.1749 67.5505 9.73581 68.6742 9.08142 69.7042C8.80096 70.0788 9.08142 70.7343 8.98793 71.2025C9.36187 73.169 10.1098 74.5736 10.0163 76.0718ZM41.7076 56.5945C41.3337 56.969 41.1467 57.6245 40.3988 57.1563C40.7728 56.7818 40.8662 56.1263 41.7076 56.5945ZM26.2826 60.4338C26.5631 59.8719 26.75 59.4974 26.937 59.0292C27.2175 59.4037 27.4979 59.6846 27.8719 60.2465C27.2175 60.2465 26.8435 60.3401 26.2826 60.4338ZM27.5914 56.2199C28.0588 57.1563 29.9285 56.3136 29.7416 58.3737C28.7132 57.7182 28.0588 57.3436 27.3109 56.8754C27.2175 57.1563 27.124 57.3436 26.937 57.9055C26.6566 57.1563 26.3761 56.6881 26.0022 55.7517C26.8435 56.0326 27.4979 56.0326 27.5914 56.2199ZM19.1778 65.3968C19.7387 65.7713 20.58 65.7713 20.4866 67.0823C19.3647 66.3332 18.4299 65.6777 17.5885 65.0222C18.4299 64.8349 18.4299 64.8349 19.1778 65.3968Z" fill="white"/>
<path d="M17.2146 113.622C17.5885 113.154 17.9625 112.686 18.2429 112.217C18.9908 112.498 19.4582 113.06 20.1126 112.592C20.1126 112.217 20.1126 111.843 20.1126 111.562C18.6169 111.281 18.6169 111.281 18.4299 109.783C19.0843 109.221 19.8322 108.659 20.4866 108.003C20.2996 107.348 20.0192 106.599 19.6452 105.756C20.1126 105.662 20.5801 105.569 20.954 105.569C21.4214 104.913 21.7954 104.258 22.2628 103.696C21.3279 101.823 20.2996 100.044 20.6735 97.9839C20.3931 97.7029 20.2061 97.422 20.1126 97.3284C16.2798 97.3284 12.6338 97.3284 8.80097 97.3284C8.80097 98.6393 8.80098 99.9503 8.89446 101.261C9.45537 101.261 9.82931 101.261 10.2967 101.261C9.92279 101.636 9.64234 101.823 9.17491 102.01C9.54885 103.79 10.2032 105.475 11.1381 106.973C12.2599 106.88 12.9143 105.756 14.0361 106.224C14.0361 106.786 14.1296 107.348 14.0361 107.91C13.8492 108.472 14.6905 108.846 14.1296 109.595C13.8492 109.876 14.0361 110.719 14.0361 110.813C15.1579 111.936 15.9058 112.686 16.8407 113.622C16.8407 113.622 17.0276 113.622 17.2146 113.622ZM10.1098 101.261C10.0163 101.168 10.1098 100.98 10.2032 100.887L10.2967 100.98C10.2967 101.168 10.2032 101.168 10.1098 101.261ZM11.512 102.385C11.886 101.449 11.886 101.449 12.8208 101.449C12.3534 101.823 11.9795 102.104 11.512 102.385Z" fill="white"/>
<path d="M60.5921 89.1816C62.7423 88.9007 61.4335 87.777 60.6856 88.4325C61.153 88.6198 61.153 88.9007 60.5921 89.1816Z" fill="white"/>
<path d="M64.8919 81.503C68.2574 81.5967 68.1639 82.4394 67.79 85.8105C67.6965 85.2487 67.3225 85.2487 66.8551 85.7169C67.1356 85.7169 67.229 85.8105 67.229 85.9042C63.5831 84.4995 66.3877 87.8706 65.7333 87.9643C65.7333 87.9643 65.1724 88.9943 65.3594 89.2753C65.6398 89.7435 66.2007 90.6799 66.2007 89.088C66.2942 89.1816 66.2942 89.7435 66.5747 89.7435C66.5747 89.3689 66.5747 88.9007 66.5747 88.4325C67.0421 88.7134 67.1356 88.9007 67.603 88.807C67.5095 88.6198 67.416 88.4325 67.3225 88.1516C67.0421 88.2452 66.7616 88.2452 66.4812 88.3388C66.3877 87.4961 66.2942 86.6533 66.2007 85.9978C67.5095 86.0915 67.416 85.9042 67.8834 86.7469C68.1639 87.4024 67.8834 90.118 67.8834 90.8671C67.8834 93.77 67.6965 96.5793 67.603 99.4821C67.5095 102.572 66.6681 109.314 68.5378 110.906C67.5095 111.281 68.9118 113.528 69.2857 113.997C71.9033 116.899 68.7248 113.528 70.688 113.622C70.5945 115.682 70.4075 115.776 72.6512 116.899C74.7078 117.929 76.9515 118.21 79.1951 118.21C81.2518 118.21 83.3084 118.117 85.2716 118.023C85.926 118.023 87.8892 118.398 88.4501 117.929C89.011 117.461 88.5436 114.277 88.6371 113.622C88.4501 113.716 88.2631 113.809 87.9827 113.903C87.8892 113.997 87.1413 114.839 87.1413 114.839C88.4501 113.341 88.5436 113.06 88.5436 110.906C88.5436 108.378 88.824 108.378 86.2065 108.378C84.8042 108.378 82.7475 108.659 81.4387 107.816C78.8212 106.131 79.756 101.261 79.756 98.6394C79.8495 95.3619 79.8495 92.1781 79.8495 88.9007C81.1583 89.4625 80.2234 88.2452 79.8495 87.8706C80.3169 87.4961 80.6909 86.9342 80.6909 86.5597C79.2886 86.6533 80.5974 86.6533 79.943 87.0279C80.2234 85.9978 80.5039 83.2822 81.2518 82.7204C80.5039 82.1585 80.4104 81.5967 80.8778 80.8475C81.9996 81.4094 84.8042 81.1285 86.113 81.0348C88.7305 80.9412 88.2631 79.9111 88.1696 77.4765C88.1696 76.821 88.2631 76.2591 88.2631 75.6036C88.1696 73.5435 88.7305 72.9817 87.0478 72.3262C86.0195 71.9516 80.2234 72.7944 80.1299 72.1389C80.7843 72.1389 80.8778 71.858 80.3169 71.2962C80.5039 71.3898 80.6909 71.3898 80.8778 71.2962C80.6909 70.9216 80.5039 66.9887 80.0365 69.236C79.8495 66.2395 80.0365 63.243 79.8495 60.2465C79.756 57.4373 79.0081 58.0928 76.3906 58.1864C74.6143 58.28 71.4359 57.3436 71.6228 59.4974C71.1554 59.591 71.0619 59.2164 71.2489 58.28C70.501 58.28 69.7531 58.28 69.0053 58.28C67.1356 59.0292 67.79 60.902 67.8834 62.9621C67.8834 64.6476 67.0421 72.1389 68.4444 72.8881C68.4444 72.9817 64.9854 72.6071 64.4245 72.6071C62.2744 72.6071 62.7418 72.4198 62.2744 74.199C61.9939 75.1354 62.2744 76.6337 62.2744 77.6638C62.3678 80.8476 61.9004 81.3158 64.8919 81.503Z" fill="white"/>
<path d="M63.7695 90.3053C63.863 89.2753 64.4239 86.0915 63.1151 86.4661C63.0216 86.0915 63.302 85.9978 63.9564 85.9978C63.489 85.9042 63.1151 85.7169 62.6477 85.6233C62.5542 86.4661 62.8346 88.2452 62.7411 88.5262C62.2737 88.3389 61.8998 88.5262 61.8063 89.088C62.7411 89.088 62.7411 90.3053 63.7695 90.3053Z" fill="white"/>
<path d="M155.104 78.2256C154.636 75.9782 154.169 74.2927 153.795 72.3262C150.336 72.3262 146.877 71.7644 143.512 72.7944C142.483 81.4094 142.203 114.746 143.231 118.023C146.784 118.023 150.336 118.023 153.982 118.023C154.076 117.555 154.263 117.274 154.263 116.993C154.449 111.281 154.449 105.569 154.823 99.9504C155.01 97.7966 154.73 95.9238 153.234 94.3319C153.047 94.1446 153.141 93.77 153.141 93.2082C153.889 92.9273 154.636 92.74 155.291 92.5527C156.6 85.1551 161.18 81.784 168.472 81.6903C168.472 78.5065 168.472 75.3227 168.472 72.0453C162.302 70.0788 158.469 73.0754 155.104 78.2256Z" fill="white"/>
<path d="M109.111 71.4834C100.137 73.8245 94.9014 80.3794 93.0317 89.088C91.0685 97.8902 94.1535 105.475 100.137 112.124C100.604 112.686 101.165 113.06 101.726 113.528C101.258 113.809 100.884 114.277 100.511 114.839C100.511 116.338 100.511 117.742 100.511 119.24C102.848 120.926 103.502 123.735 104.811 126.17C104.998 126.544 104.717 127.106 104.717 127.481C103.222 127.574 103.222 126.357 102.567 125.514C102.474 126.263 102.38 126.825 102.287 127.574C100.137 127.387 98.0799 126.919 96.0232 126.919C70.6889 126.919 45.3545 126.919 20.0201 126.919C19.0853 126.919 18.2439 126.919 17.3091 126.919C17.4026 127.106 17.496 127.2 17.5895 127.387C17.1221 127.855 16.6547 128.324 16.1872 128.792C16.8416 128.792 17.683 128.792 18.4309 128.792C32.3601 128.792 46.2893 128.698 60.1251 128.792C73.9608 128.885 87.7966 128.23 101.632 129.354C101.913 129.354 102.193 129.541 102.474 129.541C102.474 129.915 102.474 130.196 102.474 130.571C102.474 130.571 102.474 130.571 102.38 130.477C102.193 130.665 102.006 130.758 101.913 130.946C102.006 131.039 102.006 131.039 102.1 131.133C102.287 130.946 102.38 130.758 102.567 130.665C102.567 130.665 102.567 130.665 102.474 130.571C102.567 130.571 102.661 130.571 102.754 130.571C102.941 130.571 103.222 130.571 103.409 130.571C103.689 129.728 104.156 128.979 104.811 128.511C105.091 128.324 105.372 128.136 105.652 127.949C105.839 127.855 105.933 127.762 106.12 127.762C105.465 123.922 104.343 120.364 101.258 118.023C101.726 116.525 102.1 115.307 102.474 114.09C103.035 114.371 103.595 114.652 104.156 114.933L104.063 115.027C104.25 115.027 104.437 115.027 104.53 115.027C105.185 115.307 105.933 115.588 106.587 115.963C110.7 118.023 114.907 119.521 119.207 116.618C120.703 115.588 122.105 114.277 123.414 112.966C125.004 111.375 126.499 110.813 128.369 112.592C128.089 113.154 127.902 113.622 127.715 114.09C127.995 114.277 128.182 114.465 128.462 114.746C130.332 113.154 132.482 111.749 133.885 109.876C138.933 103.04 140.242 95.2683 138.091 87.0279C134.913 75.7909 123.227 67.7378 109.111 71.4834ZM118.834 112.779C118.74 112.686 118.647 112.498 118.647 112.405C118.927 112.217 119.301 112.03 119.581 111.843C119.675 111.936 119.675 112.124 119.768 112.217C119.394 112.405 119.114 112.592 118.834 112.779ZM122.386 105.662C118.647 108.94 113.131 109.034 109.392 105.756C104.156 101.074 103.502 89.4625 107.802 84.125C111.916 79.0684 121.358 78.8811 124.63 85.8105C125.845 88.3388 126.406 91.1481 126.873 92.74C126.219 98.1712 126.032 102.479 122.386 105.662Z" fill="white"/>
<path d="M103.127 130.477C103.407 129.635 103.875 128.886 104.529 128.417C103.968 128.886 103.407 129.541 103.127 130.477Z" fill="white"/>
<path d="M105.464 127.855C105.184 128.043 104.81 128.23 104.623 128.418C104.903 128.136 105.184 127.949 105.464 127.855Z" fill="white"/>
<path d="M11.5114 126.544C10.67 127.294 9.82864 125.702 9.08076 126.638C8.61333 127.2 7.86546 125.514 6.74364 126.451C6.18273 127.013 4.78046 126.638 3.84561 126.638C2.81728 126.638 1.88243 126.638 0.480158 126.638C0.947582 127.481 1.32152 127.949 1.60198 128.417C4.40652 128.417 7.11758 128.417 9.92212 128.417C10.483 127.855 10.9505 127.2 11.5114 126.544Z" fill="white"/>
<path d="M28.2459 118.586C28.433 118.398 28.5266 118.211 28.7136 118.117L28.6201 118.023C28.433 118.211 28.2459 118.304 28.1524 118.492L28.2459 118.586Z" fill="white"/>
<path d="M29.8334 117.929C29.4595 117.274 29.1791 116.712 28.7116 115.682C28.7116 116.899 28.7116 117.461 28.7116 118.023C28.9921 118.023 29.366 118.023 29.8334 117.929Z" fill="white"/>
<path d="M30.1146 114.84C30.3016 114.84 30.3951 114.746 30.4886 114.652C30.3951 114.559 30.3951 114.559 30.3016 114.465C30.2081 114.559 30.0212 114.652 29.9277 114.652C29.9277 114.746 30.0211 114.84 30.1146 114.84Z" fill="white"/>
<path d="M31.8912 109.877C32.2651 109.877 32.5456 109.877 32.9195 109.877C32.9195 109.689 32.9195 109.502 32.826 109.314C32.4521 109.408 32.1716 109.502 31.7977 109.596C31.7977 109.689 31.7977 109.783 31.8912 109.877Z" fill="white"/>
<path d="M65.0799 107.723C65.1734 107.91 65.3604 108.004 65.4538 108.097L65.5473 108.004L65.6408 107.91C65.6408 107.629 65.7343 107.254 65.5473 107.161C65.3603 106.973 65.0799 106.973 64.7994 106.973C64.8929 107.161 64.9864 107.442 65.0799 107.723Z" fill="white"/>
<path d="M211.942 83.9377C212.784 81.5967 213.531 79.2556 214.373 76.821C214.373 77.3828 214.373 77.851 214.373 78.4129C215.214 77.5701 216.056 76.7273 216.99 75.7909C216.336 75.7909 215.682 75.7909 214.747 75.7909C215.588 73.2626 216.429 70.6406 217.364 67.925C212.316 67.925 208.203 67.925 203.996 67.925C202.968 70.1724 202.033 72.1389 201.191 74.0117C201.191 72.9817 201.191 71.858 201.191 70.8279C200.818 70.8279 200.444 70.8279 200.07 70.8279C200.163 71.858 200.257 72.888 200.257 73.9181C196.985 76.0718 193.713 78.1319 190.254 80.3793C188.478 75.9782 186.795 71.858 185.299 67.925C180.718 67.925 176.511 67.925 172.024 67.925C172.585 69.6106 172.866 70.7343 173.24 71.858C177.259 83.1886 181.373 94.4255 185.393 105.756C187.075 110.532 186.608 111.562 181.84 115.12C180.064 113.903 178.288 112.498 175.857 110.813C175.109 111.375 174.174 112.03 173.24 112.779C175.39 115.307 176.792 117.087 178.475 119.147C176.418 118.866 175.016 118.679 173.427 118.491C171.557 123.361 176.231 125.702 176.605 129.354C188.571 132.537 195.395 129.541 199.509 118.772C203.996 107.348 207.922 95.5492 211.942 83.9377ZM197.639 85.2487C197.265 86.9342 197.078 88.3388 196.704 89.7434C196.33 91.0544 195.863 92.2717 195.115 94.5191C194.087 91.429 193.245 89.0879 192.217 85.9978C194.274 85.7169 195.676 85.5296 197.639 85.2487Z" fill="white"/>
<path d="M208.389 43.3929L208.482 43.4866C208.482 43.4866 208.389 43.4866 208.389 43.3929Z" fill="white"/>
</g>
<defs>
<clipPath id="clip0_65_5750">
<rect width="242" height="135" fill="white"/>
</clipPath>
</defs>
</svg>
