<svg width="180" height="100" viewBox="0 0 180 100" fill="none" xmlns="http://www.w3.org/2000/svg">
<g clip-path="url(#clip0_65_8126)">
<path d="M130.246 98.6614C130.246 98.8695 130.177 99.0776 130.177 99.2857C132.819 99.2857 135.392 99.2857 138.034 99.2857C138.034 99.0776 138.034 98.8695 138.034 98.6614C135.461 98.6614 132.819 98.6614 130.246 98.6614Z" fill="white"/>
<path d="M5.92007 97.5517C5.15519 97.5517 4.73798 97.9679 4.80752 98.939C6.4068 98.7309 8.14516 99.4245 9.39677 98.0372C9.32724 97.8985 9.32724 97.6904 9.2577 97.5517C8.14516 97.5517 7.03261 97.4823 5.92007 97.5517Z" fill="white"/>
<path d="M147.769 92.9736C148.534 92.3494 148.882 92.1413 148.882 92.0025C148.812 91.517 148.603 91.1008 148.464 90.6846C148.325 91.2395 148.117 91.7945 147.769 92.9736Z" fill="white"/>
<path d="M169.394 90.6846C169.533 90.6846 169.603 90.6846 169.742 90.6846C169.742 90.3378 169.742 90.0603 169.742 89.7135C169.603 89.7135 169.533 89.7135 169.394 89.7135C169.394 89.991 169.394 90.3378 169.394 90.6846Z" fill="white"/>
<path d="M151.732 88.1875C151.801 89.0892 151.801 89.7135 151.801 90.3378C152.01 90.4765 152.218 90.6152 152.497 90.7539C153.192 89.436 153.957 88.1181 154.583 86.8002C154.652 86.5921 154.374 86.2453 154.374 86.2453C153.54 86.8696 152.566 87.6326 151.732 88.1875Z" fill="white"/>
<path d="M164.643 38.9286C164.643 39.1964 164.643 39.375 164.643 39.6429C164.643 39.4643 164.712 39.0179 164.643 38.9286Z" fill="white"/>
<path d="M119.796 32.4827C119.31 31.5071 118.824 30.3922 118.268 29.3469C117.643 29.0681 117.018 28.7894 116.393 28.5107C116.184 28.7197 116.045 28.8591 115.837 28.9288C115.698 29.0681 115.49 29.0682 115.281 29.2075C111.6 31.089 109.585 33.8765 110.072 38.1273C110.141 38.8938 110.072 39.6604 110.072 40.4269C110.211 42.5872 110.975 44.608 112.711 45.723C114.448 46.838 116.254 48.2317 118.546 48.0923C118.893 48.0923 119.171 48.4408 119.588 48.6498C119.796 47.8136 121.394 48.3711 121.116 47.047C121.116 47.047 121.394 46.9774 121.533 46.9077C121.672 47.5348 121.741 48.162 121.811 48.6498C124.103 48.162 126.256 47.6742 128.965 47.047C130.007 46.3502 131.535 45.3049 133.202 44.1899C133.758 45.1655 134.313 46.2805 134.661 46.9774C135.633 47.6742 136.258 48.162 137.161 48.9286C138.898 48.6498 140.912 48.3014 142.857 48.0226C142.857 46.0714 142.857 44.2596 142.857 42.5872C141.676 42.2387 140.634 41.8903 139.731 41.6116C139.731 35.6186 139.731 30.0437 139.731 24.3992C139.731 22.3783 139.592 20.4968 139.176 18.4759C138.551 15.3401 136.606 13.4586 133.897 12.483C131.535 11.6467 128.965 10.9499 126.395 11.0893C124.242 11.2286 122.088 11.6467 119.935 11.9255C115.976 13.4586 112.781 15.8976 111.322 20.0787C111.322 21.124 111.322 22.1693 111.322 23.1449C111.6 23.4236 111.878 23.7024 112.156 23.9811C113.475 23.9811 114.795 23.9811 116.462 23.9811C116.948 23.1449 117.504 22.1693 118.06 21.1937C117.99 21.124 117.851 21.0543 117.782 20.9846C119.102 19.8 120.421 18.6153 121.672 17.57C124.103 17.57 126.256 17.6397 128.34 17.57C129.937 17.5003 131.118 18.2669 132.091 19.3818C132.577 19.8696 132.855 20.5665 133.202 21.1937C131.882 22.0299 133.133 23.6327 132.369 24.678C131.396 26.2807 128.896 25.3748 127.993 27.3957C129.451 28.2319 127.923 30.6012 130.076 31.2284C131.049 31.0193 132.091 30.7406 133.133 30.4619C133.897 35.5489 132.23 39.3816 128.27 42.169C126.464 42.169 124.728 43.075 122.783 42.9356C120.769 42.7265 119.102 41.8903 117.504 41.1238C116.393 39.1029 116.462 37.1517 117.643 34.5036C118.06 34.1552 118.893 33.3887 119.796 32.4827Z" fill="white"/>
<path d="M107.277 33.6096C106.581 31.944 106.651 30.4866 106.511 29.2374C105.119 27.3636 103.935 25.7675 103.03 24.5183C103.657 22.3669 103.657 20.1461 104.771 18.8969C106.163 17.2313 104.632 14.8718 106.511 13.9002C105.746 11.61 105.049 9.59741 104.283 7.23783C104.144 7.09903 103.657 6.61324 103.239 6.19684C99.6883 2.51868 95.3716 0.714294 90.289 0.714294C82.6304 0.783694 74.9021 0.714294 67.522 0.714294C65.9206 1.96348 64.5977 3.07387 62.9964 4.32306C63.2749 4.73946 63.623 5.36405 63.8319 5.64165C63.5534 7.37663 63.1356 8.76462 63.1356 10.222C63.2749 13.345 63.6926 16.3985 64.0407 19.5215C64.2496 21.1177 64.5281 22.6445 64.8066 24.3795C64.3889 24.5877 63.6926 24.8653 62.8571 25.2817C65.0155 28.474 63.5534 32.0134 64.0407 35.414C64.5977 38.8145 65.851 42.2151 64.3889 45.2687C65.0851 46.2403 65.7117 47.0731 66.1991 47.7671C68.8448 47.7671 71.1424 47.7671 73.44 47.7671C75.7376 47.7671 78.0352 47.7671 80.3328 47.7671C82.7696 47.7671 85.2761 47.5589 87.7129 47.8364C89.8017 48.0446 91.8208 46.5873 93.9095 47.6977C94.2576 47.9059 94.9538 47.4201 95.5108 47.2119C97.6692 46.1709 99.8972 45.1993 102.056 44.0195C105.119 42.2845 108.391 36.3856 107.277 33.6096ZM80.8898 16.6067C82.9089 16.6067 84.9976 16.6067 87.4344 16.6067C86.8078 17.6477 86.3205 18.3417 85.9723 18.9663C83.5355 19.5909 81.7949 18.7581 80.2632 17.5783C80.472 17.2313 80.6809 16.9537 80.8898 16.6067ZM88.7573 35.761C86.3205 35.761 84.1621 35.761 81.7253 35.761C80.9594 34.4424 80.3328 33.332 79.4973 31.944C80.1935 31.1806 81.029 30.3478 81.8645 29.4456C85.2761 29.0292 88.5484 29.3068 91.7511 31.4582C90.6372 32.985 89.6624 34.4424 88.7573 35.761Z" fill="white"/>
<path d="M179.546 3.56478C179.616 2.8709 180.382 1.41375 179.755 0.719867C179.477 0.442314 177.179 0.719867 176.691 0.719867C175.786 0.719867 174.881 0.719867 174.045 0.719867C172.931 0.719867 171.121 -0.182179 170.355 0.858644C170.007 1.34436 170.355 3.35662 170.355 3.98111C170.355 4.88316 170.355 5.78521 170.355 6.75664C170.355 8.69951 170.355 10.7118 170.355 12.6546C170.355 13.5567 170.842 17.0955 170.146 17.6506C168.893 15.4302 167.221 14.2506 164.854 13.2791C163.67 12.7934 161.999 12.2383 160.676 12.2383C159.841 12.2383 159.075 12.5852 158.169 12.5852C153.365 12.6546 149.605 16.7485 147.516 20.7731C147.585 19.871 147.168 19.1077 146.75 18.3445C146.193 18.6914 145.845 19.1771 146.123 19.9404C146.541 19.871 146.68 20.0098 146.75 20.3567C146.819 20.7037 146.959 20.9812 147.028 21.3282C146.959 21.8833 146.262 22.6465 146.053 23.2016C146.402 23.3404 146.402 23.5486 146.193 23.7568C146.053 23.9649 145.914 24.1731 145.845 24.3812C145.775 24.9364 145.775 25.4915 145.705 26.0466C145.566 27.3649 145.357 28.6139 145.357 30.0017C145.357 32.7772 145.636 35.6221 146.123 38.3977C146.402 39.716 146.402 41.0344 146.402 42.4222C146.402 43.1161 146.402 43.8793 146.402 44.5732C146.402 45.614 146.471 45.614 147.237 46.2385C147.028 44.2263 146.959 42.0058 147.307 40.063C148.63 42.9079 150.788 46.1691 153.783 47.5569C155.245 48.2508 156.707 48.6671 158.239 49.0834C159.075 49.2916 159.562 49.7079 160.398 49.6385C161.372 49.4998 162.208 48.5977 163.183 49.1528C162.626 50.1243 163.113 49.9161 163.183 50.8875C163.531 50.7488 163.949 50.6794 164.367 50.6794C164.436 50.1937 164.506 49.6385 164.506 49.1528C164.924 47.9732 164.924 48.4589 165.829 48.112C167.082 47.6957 168.614 46.3773 169.659 45.1977C170.146 45.6834 170.216 46.5855 170.285 47.21C170.425 48.3202 170.633 48.3896 171.399 48.3202C170.633 49.7773 170.007 51.3733 169.032 52.6916C167.639 54.6345 166.316 56.5774 165.063 58.5896C164.088 60.1856 162.556 61.5039 161.512 63.0305C161.094 64.0019 160.537 64.9039 159.771 66.0835C158.935 63.8631 160.258 63.4468 161.512 63.0305C161.512 62.1978 161.79 61.5039 161.999 60.81C162.138 60.2549 162.208 59.6305 162.347 59.0753C160.676 60.5325 159.075 61.9203 158.03 62.7529C157.055 65.7366 156.289 67.957 155.384 70.8713C156.846 70.3162 157.752 69.9693 158.935 69.4836C159.423 70.1081 159.91 70.8019 160.467 71.4958C158.448 72.1203 158.448 74.1326 157.543 75.5203C156.707 76.7693 156.637 78.7122 154.688 79.1285C154.688 79.753 154.688 80.3775 154.688 81.0714C155.314 81.0714 155.941 81.0714 156.637 81.0714C156.846 80.3775 157.055 79.6836 157.264 78.9898C158.03 76.353 160.328 74.3407 160.467 71.4958C162.835 70.7326 162.626 68.2346 164.018 66.5693C164.645 66.5693 165.341 66.5693 165.62 66.5693C166.595 65.1815 167.361 64.0713 168.127 62.9611C168.266 63.5856 168.336 64.1407 168.475 64.7652C168.684 64.7652 168.893 64.6958 169.102 64.6958C169.032 64.0713 168.962 63.4468 168.962 62.8917C168.684 62.8917 168.475 62.8917 168.196 62.9611C168.196 62.3366 168.196 61.7815 168.196 61.0182C168.962 61.4345 169.38 61.6427 169.728 61.8509C170.146 60.7407 170.494 59.7692 170.912 58.7978C171.887 56.508 172.653 54.01 174.045 51.9977C175.09 50.61 174.881 49.4998 174.324 48.2508C174.881 48.2508 175.508 48.2508 176.065 48.2508C176.065 48.3202 176.065 48.3896 176.134 48.5283C176.343 48.5283 176.552 48.4589 176.761 48.4589C176.761 48.3896 176.761 48.3202 176.761 48.3202C177.666 48.3202 178.641 48.3202 179.546 48.3202C179.546 43.2548 179.546 38.2589 179.546 33.1935C179.546 30.2099 179.546 27.2955 179.546 24.3119C179.546 23.8261 179.755 22.7159 179.546 22.2996C179.337 21.8833 178.571 22.022 178.293 21.6057C178.084 21.2588 178.293 20.0792 178.293 19.6628C178.78 19.871 179.198 20.0792 179.686 20.2873C179.407 19.5241 179.825 18.3445 179.686 17.5812C179.616 16.8179 179.894 15.9853 179.894 15.0832C179.894 13.0016 179.894 10.9893 179.894 8.90767C179.894 7.86685 179.894 6.82603 179.894 5.85459C179.825 5.09132 179.477 4.18928 179.546 3.56478ZM166.873 15.1526C166.873 15.222 167.013 16.2628 166.734 16.3322C166.247 16.4016 166.804 15.2914 166.873 15.1526ZM166.386 16.6791C166.386 17.0955 166.038 17.2343 165.69 17.373C165.968 17.0955 166.177 16.8873 166.386 16.6791ZM165.62 18.4139C165.829 18.4139 165.968 18.4139 166.177 18.4139C166.038 18.8996 166.038 20.0098 165.62 20.0792C165.62 19.4547 165.62 18.8996 165.62 18.4139ZM165.063 43.1161C165.202 42.8385 165.341 42.561 165.481 42.2834C165.829 42.4916 166.038 42.8385 166.247 43.1854C165.829 43.1161 165.481 43.1161 165.063 43.1161ZM167.221 46.7936C166.943 46.863 166.804 46.7242 166.943 46.2385C167.013 46.2385 167.152 46.2385 167.221 46.2385C167.221 46.4467 167.152 46.6549 167.221 46.7936ZM170.146 33.3323C169.659 34.5813 169.519 35.9691 168.893 37.1487C168.196 38.6058 166.943 38.6752 167.709 40.2711C167.221 40.3405 166.734 40.4099 166.316 40.4099C166.316 40.6181 166.316 40.7569 166.316 40.965C166.177 41.1038 165.898 41.4507 165.55 41.5895C165.341 40.6875 165.759 38.8834 164.784 40.3405C164.367 40.1324 164.506 39.3691 164.575 38.8834C164.575 38.6058 164.575 38.2589 164.575 37.9813C164.158 37.9813 163.67 37.9119 163.252 37.9119C163.252 38.5364 163.601 40.2711 163.252 40.8262C162.626 41.7977 159.423 40.4099 158.518 39.7854C156.777 38.6058 155.593 36.5242 155.314 34.4425C155.245 33.6099 155.454 32.4997 155.106 32.0139C155.106 32.1527 154.131 31.8752 154.2 31.8752C153.434 31.7364 153.783 31.3895 152.947 31.8058C153.086 31.1119 153.156 30.0711 153.643 29.7935C153.922 29.6547 154.618 29.7935 154.966 29.7935C154.618 24.6588 158.726 18.622 164.158 20.3567C165.55 20.8424 166.247 21.12 167.291 22.1608C168.336 23.1323 168.962 24.1731 169.45 25.5608C169.867 26.8098 169.937 27.92 170.007 29.169C170.146 30.5568 170.633 32.0833 170.146 33.3323ZM159.144 67.6795C159.005 67.6795 158.935 67.6795 158.796 67.6795C158.796 67.3325 158.796 67.055 158.796 66.708C158.935 66.708 159.005 66.708 159.144 66.708C159.144 67.055 159.144 67.3325 159.144 67.6795ZM178.363 18.8996C178.223 18.7608 178.014 18.6914 177.666 18.4832C178.502 18.4139 178.502 18.4139 178.363 18.8996ZM179.059 4.0505C176.831 4.32805 174.602 4.60561 172.374 4.18928C173.488 4.0505 174.602 3.84233 175.717 3.77295C176.831 3.70356 178.084 3.98111 179.128 3.49539C179.268 3.70356 179.268 3.91172 179.059 4.0505Z" fill="white"/>
<path d="M154.932 84.858C155.975 84.1644 156.74 83.5401 157.574 82.9852C157.435 82.2916 158.061 81.1818 156.601 81.043C155.975 81.6673 155.349 82.2916 154.654 82.9852C154.793 83.6095 154.862 84.2338 154.932 84.858Z" fill="white"/>
<path d="M170.368 80.0719C170.507 80.0719 170.576 80.0719 170.716 80.0719C170.716 79.7251 170.716 79.4476 170.716 79.1008C170.576 79.1008 170.507 79.1008 170.368 79.1008C170.368 79.4476 170.368 79.7945 170.368 80.0719Z" fill="white"/>
<path d="M154.653 79.1702C154.653 78.6152 154.653 78.0603 154.653 77.228C152.358 79.2395 152.358 79.2395 153.68 81.043C153.888 80.3493 153.262 79.2395 154.653 79.1702Z" fill="white"/>
<path d="M173.776 79.0315C173.776 78.1298 173.776 77.2281 173.776 75.494C173.011 77.1587 172.594 78.0604 172.107 79.0315C172.733 79.0315 173.15 79.0315 173.776 79.0315Z" fill="white"/>
<path d="M167.796 67.6558C167.796 67.309 167.796 67.0316 167.796 66.6848C167.656 66.6848 167.587 66.6848 167.448 66.6848C167.448 67.0316 167.448 67.309 167.448 67.6558C167.587 67.6558 167.726 67.6558 167.796 67.6558Z" fill="white"/>
<path d="M155.697 90.4765C155.558 90.754 155.905 91.2395 156.044 91.6557C156.948 90.8233 157.713 90.1297 158.339 89.5054C159.312 90.0603 159.938 90.4071 160.842 90.962C161.259 90.2684 161.677 89.6441 162.372 88.6037C162.372 88.3956 162.372 87.6326 162.302 86.8002C163.276 86.1759 164.18 85.621 165.362 84.7887C164.875 86.6615 164.527 87.9794 164.18 89.3667C164.458 89.436 164.666 89.5748 164.945 89.6441C165.918 87.8407 166.892 86.0372 167.935 84.1644C167.726 83.9563 167.448 83.5401 166.892 82.8465C169.325 80.9737 168.839 77.3667 171.968 75.6326C173.428 74.8003 173.915 72.3725 175.305 69.9448C173.845 70.6384 173.011 71.0546 171.898 72.2338C171.968 72.4419 172.037 72.65 172.037 72.8581C172.037 72.9968 171.689 73.2049 171.481 72.65C171.272 72.65 171.411 72.0951 171.62 71.4708C171.62 71.4708 171.62 71.5402 171.689 71.5402C171.968 69.1124 172.107 67.4477 173.15 66.1992C174.332 64.7425 174.054 63.4246 173.706 60.7194C171.689 65.5749 170.925 69.9448 167.1 72.7887C166.753 72.1645 166.544 71.8176 166.405 71.4708L166.474 71.5402C166.753 71.3321 167.031 71.124 167.239 70.8465C167.17 70.7772 167.031 70.6384 166.961 70.5691C166.753 70.8465 166.544 71.124 166.266 71.3321L166.335 71.4015C165.57 71.0546 164.806 70.6384 163.763 70.1529C162.72 74.939 158.408 77.991 158.2 82.9158C158.2 82.9158 157.922 82.9158 157.713 82.9158C157.713 83.8869 157.713 84.858 157.783 85.7598C156.044 87.0083 156.253 88.8811 155.697 90.4765ZM168.491 73.413C168.63 73.413 168.699 73.413 168.839 73.413C168.839 73.7598 168.839 74.0373 168.839 74.3841C168.699 74.3841 168.63 74.3841 168.491 74.3841C168.491 74.0373 168.491 73.6905 168.491 73.413ZM162.72 79.1702C162.859 79.1702 162.928 79.1702 163.067 79.1702C163.067 79.517 163.067 79.7945 163.067 80.1413C162.928 80.1413 162.859 80.1413 162.72 80.1413C162.72 79.7945 162.72 79.4477 162.72 79.1702ZM163.345 83.1933C162.998 84.3725 162.58 85.5517 162.302 86.8002C161.607 86.8002 161.259 86.8002 160.425 86.8002C161.259 85.3436 161.955 84.095 162.65 82.9158C162.859 83.0546 163.137 83.1239 163.345 83.1933ZM161.329 82.4303C161.051 82.6384 160.773 82.8465 160.564 83.1239L160.494 83.0546C160.773 82.4303 160.912 82.2916 161.051 82.1528C161.12 82.2222 161.19 82.2916 161.329 82.4303ZM160.008 82.9852C160.077 83.1239 160.077 83.1933 160.147 83.332C159.73 83.9563 159.869 83.4708 160.008 82.9852ZM160.216 83.5401C160.286 83.8176 160.425 84.095 160.425 84.3725C160.425 84.5112 160.077 84.7193 159.312 85.4129C159.66 84.5112 159.938 83.9563 160.216 83.5401ZM158.408 86.4534C158.339 86.5228 158.2 86.6615 158.13 86.7308C157.922 86.4534 157.713 86.1759 157.435 85.9678C157.504 85.8985 157.574 85.8291 157.574 85.8291C157.922 85.9678 158.2 86.1759 158.408 86.4534Z" fill="white"/>
<path d="M174.262 91.1702C174.888 90.1991 175.236 89.6441 175.514 89.1586C174.123 88.8118 174.123 88.8118 174.262 91.1702Z" fill="white"/>
<path d="M149.925 88.3263C149.995 88.8118 150.203 89.228 150.343 89.6442C150.482 89.0892 150.69 88.465 151.038 87.3552C150.273 88.0488 149.856 88.1875 149.925 88.3263Z" fill="white"/>
<path d="M18.0185 86.176C17.9489 85.8985 17.8099 85.6211 17.7403 85.413C17.1841 85.7598 16.7668 86.0372 16.2801 86.3841C16.3496 86.4534 16.4887 86.5922 16.5582 86.6615C16.2106 86.8696 15.9324 87.0777 15.5848 87.2858C16.141 87.702 16.4887 87.2858 17.045 87.0777C17.3231 87.5632 17.7403 87.5632 18.2271 87.3552C18.088 87.1471 18.0185 87.0083 17.8794 86.8696C18.0185 86.5921 18.1575 86.3147 18.2966 86.0372C18.2271 86.0372 18.1575 86.1066 18.0185 86.176Z" fill="white"/>
<path d="M25.389 85.2742C25.528 85.9678 25.6671 86.6615 25.8757 87.4245C26.0843 87.4245 26.3624 87.4245 26.6406 87.4245C26.7796 87.147 26.9187 86.8696 27.0578 86.5921C26.571 86.1759 26.8492 84.7193 25.389 85.2742Z" fill="white"/>
<path d="M33.0381 84.9274C32.8991 85.2742 32.8295 85.4823 32.6905 85.7598C33.5944 85.6904 35.0546 85.0661 35.4718 84.5806C34.5679 84.3725 33.7335 84.4418 33.0381 84.9274Z" fill="white"/>
<path d="M151.386 82.2222C150.76 83.6788 149.021 84.858 150.204 86.7308C152.429 85.6904 151.803 83.8869 151.386 82.2222Z" fill="white"/>
<path d="M153.749 81.043C153.888 81.7367 153.262 82.8465 154.722 82.9852C154.722 82.3609 154.722 81.7367 154.722 81.043C154.375 81.043 154.027 81.043 153.749 81.043Z" fill="white"/>
<path d="M171.828 72.2338C171.758 72.0257 171.689 71.8176 171.619 71.6096C171.55 71.9564 171.55 72.3032 171.48 72.65C171.55 72.5113 171.689 72.3726 171.828 72.2338Z" fill="white"/>
<path d="M162.372 58.9853C163.832 58.916 163.207 57.8062 163.346 57.0432C161.885 57.1819 162.511 58.2917 162.372 58.9853Z" fill="white"/>
<path d="M165.153 55.5865C165.083 55.5172 164.944 55.3784 164.875 55.3091C164.666 55.5865 164.458 55.864 164.18 56.0721C164.249 56.1414 164.319 56.2108 164.388 56.2802C164.666 56.0027 164.875 55.7946 165.153 55.5865Z" fill="white"/>
<path d="M161.467 54.7542C161.537 55.2397 161.745 55.6559 161.885 56.0721C162.024 55.5172 162.232 54.8929 162.58 53.7831C161.815 54.4767 161.398 54.6154 161.467 54.7542Z" fill="white"/>
<path d="M165.57 53.2281C165.57 53.575 165.57 53.8524 165.57 54.1992C165.71 54.1992 165.779 54.1992 165.918 54.1992C165.918 53.8524 165.918 53.575 165.918 53.2281C165.779 53.2281 165.71 53.2281 165.57 53.2281Z" fill="white"/>
<path d="M166.543 51.3553C166.543 51.7022 166.543 51.9796 166.543 52.3264C166.682 52.3264 166.752 52.3264 166.891 52.3264C166.891 51.9796 166.891 51.7022 166.891 51.3553C166.752 51.3553 166.613 51.3553 166.543 51.3553Z" fill="white"/>
<path d="M163.624 51.3553C163.624 51.7022 163.624 51.9796 163.624 52.3264C163.763 52.3264 163.833 52.3264 163.972 52.3264C163.972 51.9796 163.972 51.7022 163.972 51.3553C163.833 51.3553 163.763 51.3553 163.624 51.3553Z" fill="white"/>
<path d="M148.881 48.7888C148.534 48.7888 148.256 48.7888 147.908 48.7888C147.908 48.9277 147.908 48.9971 147.908 49.1359C148.256 49.1359 148.534 49.1359 148.881 49.1359C148.881 48.9971 148.881 48.8582 148.881 48.7888Z" fill="white"/>
<path d="M169.951 47.8871C169.882 47.8178 169.742 47.679 169.673 47.6097C169.464 47.8871 169.256 48.0952 168.978 48.3727C168.699 48.5808 168.491 48.7889 168.213 49.0663C168.282 49.1357 168.421 49.2744 168.491 49.3438C168.699 49.0663 168.908 48.8582 169.186 48.5808C169.464 48.3033 169.742 48.0952 169.951 47.8871Z" fill="white"/>
<path d="M17.393 40.5352C17.4626 40.4657 17.4626 40.4657 17.5322 40.3962C17.5322 40.3268 17.4626 40.2573 17.4626 40.1184C17.4626 40.1879 17.4626 40.1879 17.393 40.2573C17.393 40.3962 17.393 40.4657 17.393 40.5352Z" fill="white"/>
<path d="M7.45012 56.3495C7.38058 57.1125 7.51965 57.8061 7.93685 58.4304C8.42359 58.4304 8.91033 58.4304 9.39707 58.4304C9.46661 58.361 9.53614 58.2223 9.60567 58.153L9.6752 58.2223C9.60567 58.2917 9.46661 58.361 9.39707 58.4304L9.32753 58.361C9.11893 58.6385 8.91033 58.9853 8.70173 59.2628C8.49313 59.9564 8.77126 60.6501 9.18847 60.9969C9.74474 61.4131 10.1619 61.968 10.7182 62.3148C12.5261 63.5633 15.6551 64.7425 17.6716 65.2974C18.7146 65.5749 19.8967 65.6442 20.9397 66.1298C21.6351 66.4766 22.539 66.4072 23.3734 66.546C24.0688 66.6847 24.7641 66.9621 25.4595 67.1009C26.7806 67.3783 27.9627 67.8639 29.2143 68.2801C30.5354 68.6269 32.0652 69.0431 32.8996 70.361C33.2473 70.9159 33.5949 71.4708 33.9426 72.1644C35.2638 71.7483 36.0286 73.1355 37.2107 73.1355C37.4889 72.9274 37.6975 72.7193 37.8365 72.5113C38.1842 72.9274 38.5319 73.413 38.8795 73.7598C39.3663 73.5517 39.7835 73.413 40.0616 73.3436C40.6179 74.0373 41.1742 74.5922 41.6609 75.2164C41.6609 75.702 41.6609 76.1182 41.6609 76.7425C42.0781 76.8118 42.4258 76.9505 42.7734 77.0199C42.9821 76.5344 43.1211 76.2569 43.1907 75.9101C43.3297 75.3552 43.6079 74.8003 43.5383 74.2454C43.4688 72.5806 43.886 70.9159 43.2602 69.3205C43.4688 68.1413 42.5648 67.309 42.2172 66.3379C42.1476 66.0604 41.6609 65.9217 41.3132 65.6442C41.3132 65.3668 41.2437 65.02 41.2437 64.6038C40.6874 64.1182 40.0616 63.7021 39.5749 63.2859C39.0186 63.3552 38.9491 64.257 38.3233 63.7714C38.5319 63.5633 38.7405 63.2859 38.9491 63.0778C38.9491 62.8003 38.9491 62.5922 38.9491 62.5229C38.3928 62.1761 37.9061 61.7599 37.3498 61.5518C36.5154 61.1356 35.681 60.5807 34.777 60.3726C33.734 60.0951 32.8301 59.6096 31.7871 59.2628C31.0917 59.0547 30.3268 58.8466 29.562 58.7772C29.2143 58.7772 28.7971 59.0547 28.4494 59.124C28.1713 58.7079 27.9627 58.361 27.7541 58.0836C27.4759 58.0836 27.1978 58.1529 26.9892 58.0836C25.529 57.598 23.9992 57.5287 22.4695 57.1125C21.496 56.835 20.5225 56.5576 19.5491 56.2108C18.2974 55.7946 17.1849 55.1009 16.2809 53.9218C16.2809 53.02 16.2809 52.0489 16.2809 51.0085C16.0028 50.9391 15.8637 50.8698 15.6551 50.8004C15.3075 50.1068 16.5591 50.3842 16.2809 49.7599C17.3935 48.7195 18.2974 47.4709 20.0358 47.3322C20.453 46.7773 21.0093 47.1241 21.5655 46.9854C22.1218 46.916 22.6781 46.7773 23.2344 46.6386C24.2078 46.4998 25.1118 46.916 26.0157 46.916C26.7111 46.916 27.4064 47.0547 27.9627 47.2628C29.8401 48.0952 31.648 48.9276 32.3433 51.0778C32.6215 51.8408 32.8301 52.6038 33.0387 53.4362C33.734 53.4362 34.4294 53.4362 35.0552 53.4362C35.4028 53.2281 35.5419 52.6038 36.1677 52.9507C35.9591 53.2281 35.7505 53.4362 35.4028 53.783C35.8896 53.783 36.0982 53.8524 36.3763 53.783C36.6544 53.7137 37.0717 53.4362 37.2107 53.5056C38.1147 54.0605 38.9491 53.7137 39.7835 53.5056C40.6874 53.8524 41.3132 53.783 41.939 53.7137C41.939 53.2281 41.939 52.8813 41.939 52.4651C41.3828 52.8813 40.896 53.2975 40.0616 53.4362C40.2007 53.2281 40.3398 52.9507 40.5484 52.8119C40.9656 52.5345 41.3828 52.257 41.8 51.9796C41.5914 51.0085 41.4523 50.1761 41.2437 49.205C40.9656 49.0663 40.6874 48.8582 40.3398 48.6501C40.5484 48.5114 40.757 48.442 40.896 48.3727C40.2702 46.8467 39.5053 45.4594 38.5319 44.2802C37.5584 43.101 36.1677 42.2686 34.8466 41.5056C33.0387 40.4652 31.3699 39.7022 30.6745 39.9796C30.4659 39.7715 30.2573 39.5635 30.1878 39.4941C28.8666 39.3554 27.615 39.0779 26.3634 39.0779C24.2774 39.0779 22.1913 38.8005 20.1053 39.3554C19.41 39.5635 18.6451 39.3554 18.0888 39.3554C17.7412 39.6328 17.463 39.7715 17.1154 40.2571C17.1154 40.3265 17.1849 40.3958 17.1849 40.4652C17.1849 40.5345 17.0458 40.6039 16.9763 40.3958C16.9068 40.3958 16.9068 40.2571 16.9763 40.1184C16.9068 39.4247 16.5591 39.6328 16.2809 39.7022C14.9598 40.1877 13.6387 40.7426 12.387 41.2975C11.9003 41.5056 11.5526 41.9218 11.1354 42.1993C11.0659 42.2686 11.0659 42.338 11.0659 42.338C11.205 42.6155 11.344 42.8929 11.5526 43.2397C12.1089 43.0316 12.6652 42.7542 13.2214 42.5461C13.2214 42.9623 13.2214 43.3091 13.2214 43.6559C12.8738 43.7946 12.5261 44.0027 12.1784 44.1415C11.8308 43.864 11.6222 43.5866 11.0659 43.101C10.7878 43.5172 10.6487 43.864 10.3705 44.1415C9.95334 44.627 9.39707 45.0432 8.97986 45.5287C8.63219 46.0143 8.28453 46.5692 8.07592 47.1241C7.72825 47.8177 7.45011 48.5808 7.17198 49.3438C6.82431 50.0374 7.24151 50.8698 6.75477 51.6328C6.54617 51.9102 6.75478 52.3958 6.68524 52.7426C6.96338 54.1992 7.51965 55.2397 7.45012 56.3495ZM31.0222 41.9218C30.744 42.1993 30.605 42.6848 30.0487 42.338C30.3268 42.0605 30.3964 41.575 31.0222 41.9218ZM19.5491 44.7657C19.7577 44.3496 19.8967 44.0721 20.0358 43.7253C20.2444 44.0027 20.453 44.2108 20.7311 44.627C20.2444 44.627 19.9663 44.6964 19.5491 44.7657ZM20.5225 41.6444C20.8702 42.338 22.2609 41.7137 22.1218 43.2397C21.3569 42.7542 20.8702 42.4767 20.3139 42.1299C20.2444 42.338 20.1749 42.4767 20.0358 42.8929C19.8272 42.338 19.6186 41.9912 19.3404 41.2975C19.9663 41.5056 20.453 41.5056 20.5225 41.6444ZM14.2645 48.442C14.6817 48.7195 15.3075 48.7195 15.2379 49.6906C14.4035 49.1357 13.7082 48.6501 13.0824 48.1646C13.7082 48.0258 13.7082 48.0258 14.2645 48.442Z" fill="white"/>
<path d="M12.8042 84.1644C13.0824 83.8176 13.3605 83.4708 13.5691 83.1239C14.1254 83.332 14.4731 83.7482 14.9598 83.4014C14.9598 83.1239 14.9598 82.8465 14.9598 82.6384C13.8473 82.4303 13.8473 82.4303 13.7082 81.3205C14.1949 80.9043 14.7512 80.4881 15.2379 80.0026C15.0989 79.517 14.8903 78.9621 14.6121 78.3378C14.9598 78.2685 15.3075 78.1991 15.5856 78.1991C15.9333 77.7136 16.2114 77.228 16.5591 76.8118C15.8638 75.4245 15.0989 74.1066 15.377 72.5806C15.1684 72.3725 15.0293 72.1645 14.9598 72.0951C12.1089 72.0951 9.39708 72.0951 6.54618 72.0951C6.54618 73.0662 6.54618 74.0373 6.61572 75.0084C7.03292 75.0084 7.31106 75.0084 7.65873 75.0084C7.38059 75.2858 7.17199 75.4246 6.82431 75.5633C7.10245 76.8812 7.58919 78.1297 8.28453 79.2396C9.11894 79.1702 9.60568 78.3378 10.4401 78.6847C10.4401 79.1008 10.5096 79.517 10.4401 79.9332C10.301 80.3494 10.9268 80.6268 10.5096 81.1817C10.301 81.3898 10.4401 82.0141 10.4401 82.0835C11.2745 82.9158 11.8308 83.4708 12.5261 84.1644C12.5261 84.1644 12.6652 84.1644 12.8042 84.1644ZM7.51966 75.0084C7.45012 74.939 7.51965 74.8003 7.58919 74.7309L7.65873 74.8003C7.65873 74.939 7.58919 74.939 7.51966 75.0084ZM8.56267 75.8407C8.8408 75.1471 8.84081 75.1471 9.53615 75.1471C9.18848 75.4246 8.91034 75.6326 8.56267 75.8407Z" fill="white"/>
<path d="M45.0685 66.0605C46.6678 65.8524 45.6943 65.02 45.1381 65.5056C45.4857 65.6443 45.4857 65.8524 45.0685 66.0605Z" fill="white"/>
<path d="M48.2667 60.3726C50.7699 60.442 50.7004 61.0663 50.4223 63.5634C50.3527 63.1472 50.0746 63.1472 49.7269 63.494C49.9355 63.494 50.0051 63.5634 50.0051 63.6327C47.2932 62.5923 49.3793 65.0894 48.8925 65.1587C48.8925 65.1587 48.4753 65.9217 48.6144 66.1298C48.823 66.4766 49.2402 67.1703 49.2402 65.9911C49.3097 66.0605 49.3097 66.4766 49.5183 66.4766C49.5183 66.1992 49.5183 65.8524 49.5183 65.5055C49.866 65.7136 49.9355 65.8524 50.2832 65.783C50.2137 65.6443 50.1441 65.5055 50.0746 65.2975C49.866 65.3668 49.6574 65.3668 49.4488 65.4362C49.3793 64.8119 49.3097 64.1876 49.2402 63.7021C50.2137 63.7714 50.1441 63.6327 50.4918 64.257C50.7004 64.7425 50.4918 66.7541 50.4918 67.309C50.4918 69.4593 50.3528 71.5402 50.2832 73.6905C50.2137 75.9795 49.5879 80.9737 50.9786 82.1529C50.2137 82.4303 51.2567 84.095 51.5348 84.4419C53.4818 86.5921 51.1176 84.095 52.5778 84.1644C52.5083 85.6904 52.3692 85.7598 54.0381 86.5921C55.5678 87.3551 57.2366 87.5632 58.9054 87.5632C60.4352 87.5632 61.9649 87.4939 63.4252 87.4245C63.9119 87.4245 65.3721 87.702 65.7893 87.3551C66.2065 87.0083 65.8589 84.65 65.9284 84.1644C65.7893 84.2338 65.6502 84.3031 65.4416 84.3725C65.3721 84.4419 64.8158 85.0661 64.8158 85.0661C65.7893 83.9563 65.8589 83.7482 65.8589 82.1529C65.8589 80.28 66.0675 80.28 64.1205 80.28C63.0775 80.28 61.5477 80.4881 60.5743 79.8639C58.6273 78.6153 59.3227 75.0084 59.3227 73.0662C59.3922 70.6385 59.3922 68.2801 59.3922 65.8524C60.3657 66.2685 59.6703 65.3668 59.3922 65.0894C59.7398 64.8119 60.018 64.3957 60.018 64.1183C58.975 64.1876 59.9485 64.1876 59.4617 64.4651C59.6703 63.7021 59.8789 61.6905 60.4352 61.2744C59.8789 60.8582 59.8094 60.442 60.1571 59.8871C60.9915 60.3033 63.0775 60.0952 64.051 60.0258C65.9979 59.9564 65.6503 59.1934 65.5807 57.39C65.5807 56.9044 65.6502 56.4882 65.6502 56.0027C65.5807 54.4767 65.9979 54.0605 64.7463 53.575C63.9814 53.2975 59.6703 53.9218 59.6008 53.4362C60.0875 53.4362 60.1571 53.2282 59.7398 52.812C59.8789 52.8813 60.018 52.8813 60.1571 52.812C60.018 52.5345 59.8789 49.6212 59.5312 51.286C59.3922 49.0663 59.5312 46.8467 59.3922 44.627C59.3226 42.5461 58.7664 43.0317 56.8194 43.101C55.4983 43.1704 53.1341 42.4768 53.2732 44.0721C52.9255 44.1415 52.856 43.864 52.995 43.1704C52.4388 43.1704 51.8825 43.1704 51.3262 43.1704C49.9355 43.7253 50.4223 45.1126 50.4918 46.6386C50.4918 47.8871 49.866 53.4362 50.909 53.9912C50.909 54.0605 48.3363 53.7831 47.919 53.7831C46.3198 53.7831 46.6674 53.6443 46.3198 54.9622C46.1112 55.6559 46.3198 56.7657 46.3198 57.5287C46.3893 59.8871 46.0416 60.2339 48.2667 60.3726Z" fill="white"/>
<path d="M47.4318 66.8928C47.5014 66.1298 47.9186 63.7714 46.9451 64.0489C46.8756 63.7714 47.0842 63.7021 47.5709 63.7021C47.2232 63.6327 46.9451 63.494 46.5974 63.4246C46.5279 64.0489 46.7365 65.3668 46.667 65.5749C46.3193 65.4362 46.0412 65.5749 45.9716 65.9911C46.667 65.9911 46.667 66.8928 47.4318 66.8928Z" fill="white"/>
<path d="M115.367 57.9449C115.019 56.2802 114.671 55.0316 114.393 53.575C111.82 53.575 109.248 53.1588 106.744 53.9218C105.979 60.3033 105.771 84.9968 106.536 87.4245C109.178 87.4245 111.82 87.4245 114.532 87.4245C114.602 87.0777 114.741 86.8696 114.741 86.6615C114.88 82.4303 114.88 78.1991 115.158 74.0373C115.297 72.4419 115.088 71.0547 113.976 69.8755C113.837 69.7368 113.906 69.4593 113.906 69.0431C114.463 68.835 115.019 68.6963 115.506 68.5576C116.479 63.0778 119.886 60.5807 125.31 60.5114C125.31 58.153 125.31 55.7946 125.31 53.3669C120.721 51.9103 117.87 54.1299 115.367 57.9449Z" fill="white"/>
<path d="M81.157 52.9507C74.4817 54.6848 70.5878 59.5402 69.1971 65.9911C67.7369 72.5113 70.0316 78.1297 74.4817 83.0545C74.8294 83.4707 75.2466 83.7482 75.6638 84.095C75.3162 84.3031 75.038 84.6499 74.7599 85.0661C74.7599 86.1759 74.7599 87.2164 74.7599 88.3262C76.4982 89.5748 76.985 91.6557 77.9584 93.4591C78.0975 93.7366 77.8889 94.1528 77.8889 94.4302C76.7764 94.4996 76.7764 93.5978 76.2896 92.9736C76.2201 93.5285 76.1506 93.9447 76.081 94.4996C74.4817 94.3608 72.952 94.014 71.4222 94.014C52.5785 94.014 33.7347 94.014 14.891 94.014C14.1957 94.014 13.5699 94.014 12.8745 94.014C12.944 94.1528 13.0136 94.2221 13.0831 94.3608C12.7354 94.7077 12.3878 95.0545 12.0401 95.4013C12.5268 95.4013 13.1526 95.4013 13.7089 95.4013C24.0695 95.4013 34.4301 95.3319 44.7211 95.4013C55.0122 95.4707 65.3032 94.9851 75.5943 95.8175C75.8029 95.8175 76.0115 95.9562 76.2201 95.9562C76.2201 96.2337 76.2201 96.4418 76.2201 96.7192C76.2201 96.7192 76.2201 96.7192 76.1506 96.6499C76.0115 96.7886 75.8724 96.8579 75.8029 96.9967C75.8724 97.066 75.8724 97.066 75.942 97.1354C76.081 96.9967 76.1506 96.8579 76.2896 96.7886C76.2896 96.7886 76.2896 96.7886 76.2201 96.7192C76.2896 96.7192 76.3592 96.7192 76.4287 96.7192C76.5678 96.7192 76.7764 96.7192 76.9154 96.7192C77.124 96.0949 77.4717 95.54 77.9584 95.1932C78.167 95.0545 78.3757 94.9158 78.5843 94.777C78.7233 94.7077 78.7929 94.6383 78.9319 94.6383C78.4452 91.7944 77.6108 89.1586 75.3162 87.4245C75.6638 86.3147 75.942 85.4129 76.2201 84.5112C76.6373 84.7193 77.0545 84.9274 77.4717 85.1355L77.4022 85.2048C77.5412 85.2048 77.6803 85.2048 77.7498 85.2048C78.2366 85.4129 78.7929 85.621 79.2796 85.8985C82.3391 87.4245 85.4681 88.5343 88.6667 86.384C89.7792 85.621 90.8223 84.6499 91.7957 83.6788C92.9778 82.4996 94.0904 82.0835 95.481 83.4014C95.2724 83.8176 95.1334 84.1644 94.9943 84.5112C95.2029 84.6499 95.342 84.7886 95.5506 84.9967C96.9413 83.8176 98.5405 82.7771 99.5836 81.3898C103.338 76.3263 104.312 70.5691 102.713 64.4651C100.348 56.1414 91.6567 50.1761 81.157 52.9507ZM88.3886 83.5401C88.319 83.4707 88.2495 83.332 88.2495 83.2626C88.4581 83.1239 88.7362 82.9852 88.9448 82.8465C89.0144 82.9158 89.0144 83.0546 89.0839 83.1239C88.8058 83.2626 88.5972 83.4014 88.3886 83.5401ZM91.0309 78.2685C88.2495 80.6962 84.147 80.7656 81.3656 78.3378C77.4717 74.8696 76.985 66.2685 80.1835 62.3148C83.243 58.5691 90.266 58.4304 92.6997 63.5633C93.6036 65.4362 94.0208 67.5171 94.3685 68.6962C93.8818 72.7193 93.7427 75.9101 91.0309 78.2685Z" fill="white"/>
<path d="M76.706 96.6499C76.9146 96.0256 77.2623 95.4707 77.749 95.1239C77.3318 95.4707 76.9146 95.9563 76.706 96.6499Z" fill="white"/>
<path d="M78.4443 94.7077C78.2357 94.8465 77.9576 94.9854 77.8185 95.1242C78.0271 94.916 78.2357 94.7771 78.4443 94.7077Z" fill="white"/>
<path d="M8.56217 93.7366C7.93636 94.2915 7.31056 93.1123 6.75428 93.8059C6.40661 94.2221 5.85034 92.9736 5.01593 93.6672C4.59873 94.0834 3.55571 93.8059 2.86037 93.8059C2.0955 93.8059 1.40016 93.8059 0.357143 93.8059C0.704814 94.4302 0.982951 94.777 1.19155 95.1238C3.27758 95.1238 5.29407 95.1238 7.38009 95.1238C7.7973 94.7077 8.14497 94.2221 8.56217 93.7366Z" fill="white"/>
<path d="M22.1902 87.3552C21.912 86.8696 21.7034 86.4534 21.3558 85.6904C21.3558 86.5922 21.3558 87.0083 21.3558 87.4245C21.5644 87.4245 21.8425 87.4245 22.1902 87.3552Z" fill="white"/>
<path d="M21.0094 87.8413C21.1485 87.7023 21.2181 87.5634 21.3573 87.494L21.2877 87.4245C21.1485 87.5634 21.0094 87.6329 20.9398 87.7718L21.0094 87.8413Z" fill="white"/>
<path d="M22.3993 85.0669C22.5384 85.0669 22.6079 84.9973 22.6775 84.9278C22.6079 84.8582 22.6079 84.8582 22.5384 84.7887C22.4689 84.8582 22.3298 84.9278 22.2602 84.9278C22.2602 84.9973 22.3298 85.0669 22.3993 85.0669Z" fill="white"/>
<path d="M23.7207 81.3902C23.9988 81.3902 24.2074 81.3902 24.4856 81.3902C24.4856 81.2514 24.4856 81.1125 24.416 80.9737C24.1379 81.0431 23.9293 81.1125 23.6512 81.1819C23.6512 81.2514 23.6512 81.3208 23.7207 81.3902Z" fill="white"/>
<path d="M48.4065 79.7945C48.4761 79.9333 48.6151 80.0026 48.6847 80.072L48.7542 80.0026L48.8237 79.9333C48.8237 79.7252 48.8933 79.4477 48.7542 79.3784C48.6151 79.2396 48.4065 79.2396 48.1979 79.2396C48.2675 79.3784 48.337 79.5864 48.4065 79.7945Z" fill="white"/>
<path d="M157.643 62.1761C158.269 60.442 158.825 58.7079 159.451 56.9044C159.451 57.3206 159.451 57.6674 159.451 58.0836C160.077 57.4593 160.702 56.8351 161.398 56.1414C160.911 56.1414 160.424 56.1414 159.729 56.1414C160.355 54.2686 160.981 52.3264 161.676 50.3149C157.921 50.3149 154.862 50.3149 151.733 50.3149C150.968 51.9796 150.272 53.4363 149.647 54.8235C149.647 54.0605 149.647 53.2282 149.647 52.4652C149.368 52.4652 149.09 52.4652 148.812 52.4652C148.882 53.2282 148.951 53.9912 148.951 54.7542C146.518 56.3495 144.084 57.8755 141.511 59.5403C140.19 56.2802 138.938 53.2282 137.826 50.3149C134.419 50.3149 131.29 50.3149 127.952 50.3149C128.369 51.5634 128.578 52.3958 128.856 53.2282C131.846 61.6212 134.905 69.9448 137.895 78.3379C139.147 81.8754 138.799 82.6384 135.253 85.2742C133.932 84.3725 132.611 83.332 130.803 82.0835C130.247 82.4997 129.551 82.9852 128.856 83.5401C130.455 85.413 131.498 86.7309 132.75 88.2569C131.22 88.0488 130.177 87.9101 128.995 87.7713C127.604 91.3782 131.081 93.1123 131.359 95.8175C140.259 98.1759 145.335 95.9563 148.395 87.9794C151.733 79.517 154.653 70.7772 157.643 62.1761ZM147.004 63.1472C146.726 64.3957 146.587 65.4362 146.309 66.4766C146.031 67.4477 145.683 68.3495 145.127 70.0142C144.362 67.7252 143.736 65.9911 142.971 63.7021C144.501 63.494 145.544 63.3553 147.004 63.1472Z" fill="white"/>
<path d="M155 32.1429L155.069 32.2123C155.069 32.2123 155 32.2123 155 32.1429Z" fill="white"/>
</g>
<defs>
<clipPath id="clip0_65_8126">
<rect width="180" height="100" fill="white"/>
</clipPath>
</defs>
</svg>
