<svg width="93" height="56" viewBox="0 0 93 56" fill="none" xmlns="http://www.w3.org/2000/svg">
<path d="M4.97821 26.9519C3.78344 24.8556 2.88736 22.7594 0.497821 21.6613C-0.298692 14.4742 0.298692 7.28699 0 0C15.2333 0 30.1679 0 45.2021 0C46.2973 3.1943 45.6999 6.08913 45.8991 8.98396C43.2108 9.78253 40.9209 10.4813 38.5313 11.18C35.2457 12.1783 32.8562 14.1747 31.8605 17.5686C34.8475 13.975 38.5313 11.6791 43.0117 10.4813C43.41 10.3815 43.9078 10.2816 44.3061 10.2816C44.6048 10.2816 45.003 10.3815 45.7 10.4813C45.7995 15.7718 46.6956 20.9626 46.2973 26.2531C46.2973 26.852 45.7995 27.3512 45.5008 27.9501C46.6956 30.4456 46.8947 42.7237 45.7995 45.5187C43.8082 46.3173 41.9165 45.8182 40.1244 44.7201C37.8344 43.3226 35.4448 41.9251 33.5531 39.9287C30.8649 37.0339 29.1723 32.8414 29.3714 28.6488C30.3671 28.549 31.3627 28.4492 32.7566 28.3494C31.4623 27.8503 30.4666 27.451 29.1723 26.9519C29.2719 25.754 29.2719 24.4563 29.3714 23.2585C29.0727 23.8574 28.5749 24.3565 28.3758 24.9554C28.0771 25.754 27.9775 26.6524 27.7784 27.5508C22.1033 28.549 16.6272 28.0499 10.9521 26.7522C11.3503 25.2549 11.7486 23.9572 12.2464 22.1604C10.7529 23.7576 10.1556 25.3547 9.55817 26.9519C7.96514 26.9519 6.57123 26.9519 4.97821 26.9519ZM46.4965 55.0018C43.41 55.9002 20.3111 55.7005 16.0298 54.7023C15.7311 53.9037 15.2333 53.0053 15.0342 52.0071C14.5364 50.0107 13.939 48.0143 12.5451 46.5169C10.7529 44.4207 9.95642 41.9251 8.96077 39.4296C7.766 36.2353 6.47167 33.041 5.17733 29.8467C5.07777 29.5472 4.97821 29.2478 4.77908 28.6488C6.37211 28.6488 7.86557 28.6488 9.4586 28.6488C11.8481 36.5348 18.2202 40.1283 25.1897 42.9234C26.4841 43.4225 27.7784 43.9216 29.0727 44.4207C28.0771 42.9234 26.4841 42.7237 24.9906 42.1248C20.6098 40.2282 16.5276 37.7326 13.5407 33.9394C12.4455 32.5419 11.8481 30.7451 10.9521 29.0481C11.5494 28.8485 12.6446 28.6488 14.0385 28.549C14.5364 28.549 15.1338 28.4492 15.7311 28.4492C16.1294 28.4492 16.5277 28.4492 16.9259 28.3494C16.9259 28.3494 16.9259 28.3494 17.0255 28.3494C17.4237 28.3494 17.822 28.3494 18.2202 28.3494C21.8046 28.2496 25.6875 28.3494 27.4797 28.6488C28.0771 30.6453 28.7741 32.6417 29.2719 34.6381C29.7697 36.8342 31.064 38.4314 32.4579 40.0285C33.7522 41.5258 35.3453 42.8235 36.6396 44.6203C34.5488 44.4207 32.5575 44.221 30.4666 44.0214C30.4666 44.221 30.4666 44.5205 30.5662 44.5205C34.5488 45.7184 38.5313 46.5169 42.713 46.5169C43.7087 46.5169 44.8039 46.5169 45.9986 46.5169C46.6956 49.6114 46.2973 52.3066 46.4965 55.0018ZM14.0385 19.9644C14.1381 20.0642 14.2377 20.164 14.3372 20.2638C14.7355 19.9643 15.0342 19.7647 15.4325 19.4652C15.2333 19.2656 15.1338 19.1658 14.9346 18.9661C14.6359 19.2656 14.3372 19.5651 14.0385 19.9644ZM20.6098 14.9733C20.6098 15.0731 20.6098 15.1729 20.7093 15.2727C21.008 15.1729 21.3067 14.9733 21.6054 14.8734C21.6054 14.7736 21.5058 14.6738 21.5058 14.6738C21.2072 14.6738 20.9085 14.8734 20.6098 14.9733ZM29.3714 23.2585C29.9688 21.9608 30.5662 20.6631 31.064 19.4652C30.6658 19.7647 30.3671 19.9643 30.1679 20.2638C29.3714 21.0624 29.1723 21.9608 29.3714 23.2585ZM42.713 28.1497C42.713 28.2496 42.713 28.2496 42.713 28.3494C43.3104 28.3494 43.9078 28.2496 44.5052 28.2496C44.5052 28.1497 44.5052 28.0499 44.5052 27.9501C43.9078 27.9501 43.3104 28.0499 42.713 28.1497ZM54.362 55.8004C52.2712 55.8004 50.1803 55.5009 47.9899 55.3013C47.0938 52.5062 47.1934 49.8111 47.4921 46.8164C48.9856 46.6168 50.3795 46.5169 52.3707 46.3173C50.479 45.918 49.0851 45.7184 47.3925 45.3191C47.0938 39.8289 47.293 34.3387 47.293 28.7487C47.8904 28.549 48.5873 28.3494 49.4834 28.0499C48.5873 27.6506 48.0895 27.451 47.1934 27.0517C47.1934 21.5615 47.1934 16.1711 47.1934 10.2816C48.886 10.5811 50.2799 10.5811 51.4747 11.0802C57.4485 13.3761 61.9289 17.2692 63.7211 23.6578C64.1193 24.9554 65.0154 26.4528 63.6215 27.8503C64.3185 28.9483 64.1193 30.1462 63.9202 31.344C63.6215 33.041 63.3228 34.738 63.1237 36.5348C63.6215 35.3369 64.3185 34.139 64.7167 32.8414C65.115 31.5437 65.2145 30.0463 65.5132 28.549C66.2102 28.4492 66.9071 28.3494 67.7036 28.2496C67.7036 28.1497 67.7036 28.0499 67.7036 27.9501C67.0067 27.8503 66.4093 27.6506 65.7124 27.5508C65.6128 27.3512 65.4136 27.1515 65.4136 26.9519C65.2145 26.1533 65.0154 25.3547 64.9158 24.656C63.5219 19.1658 60.9333 14.4742 55.6564 11.779C54.362 11.0802 52.8686 10.8806 51.5742 10.082C50.479 9.38324 48.7864 9.28342 47.4921 8.98396C46.1978 6.18895 47.7908 3.39394 47.1934 0.798573C48.7864 0.299464 88.3134 0.199642 91.9973 0.598929C92.5947 9.48306 92.6942 18.3672 92.5947 27.5508C89.7073 27.8503 86.9195 28.3494 84.0322 27.6506C83.4348 26.5526 82.8374 25.3547 82.24 24.2567C82.1404 24.2567 81.9413 24.3565 81.8417 24.3565C82.1404 25.3547 82.4391 26.2531 82.7378 27.451C82.0409 27.7504 81.3439 27.9501 80.3483 28.2496C81.2444 28.549 81.8417 28.7487 82.7378 29.0481C82.24 30.5455 81.7422 31.8431 81.2443 33.2406C82.8374 32.2424 83.3352 30.6453 83.833 28.9483C86.6208 28.2496 89.4086 28.6488 92.296 29.0481C92.7938 31.2442 93.2916 53.5045 92.7938 55.8004C92.1964 55.9002 91.4995 56 90.8025 56C78.6557 55.8004 66.5088 55.8004 54.362 55.8004ZM61.8293 44.1212C59.2407 44.6203 56.652 45.0196 54.0633 45.5187C57.349 46.1176 59.6389 45.7184 61.8293 44.1212ZM56.5524 10.2816C56.0546 10.1818 55.4572 10.1818 54.9594 10.082V10.1818C55.4572 10.3815 55.9551 10.4813 56.5524 10.6809C56.5524 10.5811 56.5524 10.3815 56.5524 10.2816ZM60.1368 11.18C60.1368 11.0802 60.1368 10.9804 60.1368 10.8806C59.6389 10.8806 59.1411 10.8806 58.5437 10.8806C58.5437 10.9804 58.5437 11.0802 58.5437 11.18C59.1411 11.18 59.6389 11.18 60.1368 11.18Z" fill="white"/>
</svg>
