<svg width="172" height="32" viewBox="0 0 172 32" fill="none" xmlns="http://www.w3.org/2000/svg">
<path d="M10.9585 20.2939C12.2687 20.5327 13.2216 20.6521 14.1745 20.8908C14.1745 22.6815 14.1745 24.3527 14.1745 26.5015C11.9114 26.6208 9.88642 26.8596 7.74238 26.7402C4.76454 26.5015 3.09695 24.4721 2.97784 21.3683C2.97784 18.3839 2.97784 15.2801 2.97784 12.1763C2.02493 11.9376 1.31026 11.8182 0.238242 11.5795C0.119128 10.2663 0.119114 8.95319 0 7.52068C0.952908 7.28193 1.66761 7.16256 2.73963 7.04318C2.73963 5.13316 2.73963 3.22315 2.73963 1.19376C5.36013 1.19376 7.62327 1.19376 10.2438 1.19376C10.3629 3.10378 10.482 4.8944 10.482 6.9238C11.554 7.04317 12.7452 7.28193 13.9363 7.52068C13.9363 8.95319 13.9363 10.3857 13.9363 11.6988C12.8643 11.8182 12.0305 11.9376 10.8393 12.1763C10.9585 14.6832 10.9585 17.3095 10.9585 20.2939ZM36.3296 26.3821C33.4709 26.3821 31.0886 26.3821 28.7064 26.3821C27.7535 21.9652 29.4211 17.5483 27.7535 13.4895C24.6565 12.7732 23.5845 13.6089 23.4654 16.3545C23.4654 19.5777 23.4654 22.8008 23.4654 26.1434C20.7258 26.8596 18.3435 26.6209 15.6039 26.3821C15.6039 23.7558 15.6039 21.4877 15.6039 18.3839C15.6039 18.3839 16.0803 18.2645 16.3186 17.9064C17.0333 17.1902 17.1524 16.3545 16.3186 15.6383C14.8892 14.5639 15.1274 13.3701 16.1995 12.1763C16.6759 11.5795 17.1524 10.8632 17.3906 10.147C17.6288 9.43071 17.7479 8.71446 17.867 7.87883C16.9141 7.5207 16.3186 7.28193 15.4848 6.9238C15.4848 4.77503 15.4848 2.5069 15.4848 0.119383C17.867 0.119383 20.2493 0.119383 23.1081 0.119383C23.1081 2.74566 23.1081 5.49131 23.1081 7.87883C25.4903 7.40132 27.3961 6.80444 29.4211 6.68507C32.6371 6.56569 35.2576 8.59506 35.7341 11.6988C36.8061 16.4739 36.2105 21.3683 36.3296 26.3821ZM48.8366 24.8302C44.9058 28.1727 37.8781 26.024 36.9252 21.3683C36.4487 18.5033 38.2355 15.877 40.9751 15.2801C43.7147 14.6832 46.5734 14.0864 49.7895 13.3701C49.6704 14.8026 49.5512 16.1157 49.4321 17.5483C47.6454 18.2645 46.097 18.9808 44.4294 19.6971C45.6205 21.6071 45.6205 21.6071 48.8366 21.2489C48.8366 22.4427 48.8366 23.6364 48.8366 24.8302ZM52.6482 10.147C51.6953 10.147 50.9806 10.147 50.0277 10.147C49.9086 10.3857 49.5513 10.8632 49.313 11.3407C47.4072 11.2214 45.144 10.8632 44.7867 13.6089C42.2853 13.6089 40.0222 13.8476 37.8781 13.2508C37.5208 10.147 38.5928 8.23694 41.0942 7.04318C44.072 5.73004 49.7895 5.73006 53.2438 7.28195C53.0055 8.11758 52.8864 9.19196 52.6482 10.147ZM58.0083 6.80441C62.892 5.96878 64.2022 6.20753 65.6316 7.99818C67.7757 6.08816 70.277 5.3719 73.1358 6.20753C75.6371 6.92379 77.5429 8.71445 77.6621 11.2213C77.9003 15.877 77.7811 20.6521 77.7811 25.5465C75.3989 25.5465 73.1357 25.5465 70.6343 25.5465C70.6343 23.159 70.6343 20.7714 70.6343 18.3839C70.6343 17.1901 70.7534 15.9964 70.6343 14.8026C70.5152 13.4895 69.9197 12.4151 68.4903 12.4151C67.0609 12.4151 65.8698 13.1313 65.7507 14.5639C65.5125 17.3095 65.5125 19.9358 65.3934 22.6815C65.3934 23.5171 65.2742 24.3527 65.2742 25.3077C62.7728 25.3077 60.3906 25.3077 58.1274 25.3077C58.0083 18.9808 58.0083 13.012 58.0083 6.80441ZM87.3102 19.8164C85.6426 21.7265 86.8338 23.7558 86 25.7852C83.856 26.3821 81.4737 26.024 78.9723 26.024C78.9723 17.3095 78.9723 8.71445 78.9723 0C81.3545 0 83.6177 0 86.2382 0C86.2382 3.82003 86.2382 7.52069 86.2382 11.2213C86.3574 11.3407 86.5955 11.3407 86.7147 11.4601C87.6676 10.3857 88.6205 9.19195 89.6925 8.23694C90.4072 7.64006 91.4792 7.04318 92.313 7.04318C94.457 6.92381 96.6011 7.04318 98.7452 7.04318C98.8643 7.16256 98.9834 7.4013 99.1025 7.52068C96.9584 9.9082 94.8144 12.2957 92.5512 14.6832C94.9335 18.2645 97.3158 21.8458 99.9363 25.9046C98.6261 26.024 97.554 26.024 96.6011 26.1434C92.6704 26.8596 89.9308 25.5465 88.6205 21.7264C88.3823 21.1295 87.9058 20.6521 87.3102 19.8164ZM115.897 6.56568C118.518 6.56568 120.9 6.56568 123.521 6.56568C123.283 7.40132 123.283 7.99818 123.044 8.59506C121.377 13.967 119.709 19.2196 117.922 24.5915C115.778 30.799 113.873 32.1121 107.321 31.9928C106.488 31.9928 105.773 31.8734 104.701 31.8734C104.701 29.844 104.701 28.0534 104.701 26.2627C106.011 25.9046 107.202 25.6659 108.87 25.1884C106.488 18.9808 104.224 13.1314 101.842 6.9238C104.582 6.9238 107.083 6.9238 109.704 6.9238C110.657 10.0276 111.729 13.1314 112.801 16.7127C113.873 13.012 114.825 9.78884 115.897 6.56568ZM126.26 7.99818C126.975 8.47568 127.571 8.83383 127.69 8.95321C129.476 8.4757 131.025 8.11756 132.812 7.52068C132.812 7.52068 132.931 7.04319 133.169 6.56568C138.767 6.32693 142.46 10.8632 142.817 16.1158C143.175 21.1296 139.363 25.9046 134.36 26.024C134.956 25.5465 135.67 25.1884 136.385 24.5915C135.909 22.4427 135.313 20.1746 134.837 17.9064C134.36 15.6383 134.122 13.2508 133.765 10.8632C129 13.012 128.285 14.922 129.953 20.8908C129.119 21.0102 128.285 21.2489 127.452 21.3683C127.332 21.2489 127.332 21.1296 127.213 20.8908C126.379 21.8458 125.427 22.6814 124.593 23.6364C119.828 19.8164 120.543 12.1763 126.26 7.99818ZM130.668 25.9046C130.072 25.9046 129.476 25.9046 128.881 25.9046C128.881 25.7852 128.881 25.7852 128.881 25.6659C129.476 25.6659 130.072 25.5465 130.668 25.5465C130.668 25.6658 130.668 25.7852 130.668 25.9046ZM156.158 24.3527C154.133 26.3821 151.751 26.7402 149.13 26.3821C146.271 25.9046 143.889 24.1139 143.77 21.1295C143.532 16.4739 143.651 11.8182 143.651 7.04318C146.152 7.04318 148.415 7.04318 151.036 7.04318C151.036 8.23694 151.036 9.31131 151.036 10.3857C151.036 12.7732 151.036 15.1607 151.036 17.5483C151.036 18.8614 151.512 19.697 152.823 19.9358C154.252 20.1745 155.205 19.697 155.681 18.3839C155.92 17.5483 156.039 16.7126 156.039 15.7576C156.039 12.8926 156.039 10.0276 156.039 6.9238C158.659 6.9238 161.042 6.9238 163.424 6.9238C163.424 13.1314 163.424 19.3389 163.424 25.4271C160.565 26.6209 157.23 26.2627 156.158 24.3527ZM164.496 17.787C167.116 17.787 169.38 17.787 172 17.787C172 20.4133 172 22.9202 172 25.6659C169.499 25.6659 167.116 25.6659 164.496 25.6659C164.496 23.0396 164.496 20.6521 164.496 17.787Z" fill="white"/>
</svg>
