<svg width="180" height="48" viewBox="0 0 180 48" fill="none" xmlns="http://www.w3.org/2000/svg">
<path d="M15.884 39.3051C11.0381 39.3051 6.46149 39.3051 1.88486 39.3051C1.34644 38.4975 0.808007 37.6899 0.000366211 36.3438C2.15407 36.3438 4.03857 36.3438 5.65386 36.3438C7.26914 36.3438 9.69206 36.8822 10.4997 36.0746C12.3842 34.4593 13.7303 37.1515 14.2687 36.3438C15.6147 34.7285 16.9608 37.4207 18.3069 36.0746C17.7685 37.1514 16.6916 38.2283 15.884 39.3051ZM20.4606 45.7663C17.4993 48.7276 13.7303 47.3816 9.96127 47.6508C9.69205 45.4971 10.7689 44.6894 12.6534 44.4202C15.0763 44.4202 17.7685 44.4202 20.1914 44.4202C20.1914 44.9587 20.1914 45.2279 20.4606 45.7663ZM25.8449 39.3051C26.6525 38.4975 27.4602 37.6899 28.2678 36.8822C27.9986 36.613 27.9986 36.3438 27.7294 36.0746C29.3446 36.0746 30.6907 36.0746 32.306 36.0746C74.8417 36.0746 117.108 36.0746 159.644 36.0746C163.144 36.0746 166.644 36.8823 170.143 37.1515C170.413 36.0746 170.413 34.9978 170.682 33.6517C171.759 34.9978 171.759 37.1515 174.451 36.8822C174.451 36.0746 174.989 35.267 174.72 34.7285C172.566 30.6903 171.489 26.1137 167.72 23.1523C167.72 20.7294 167.72 18.3065 167.72 15.8836C170.413 11.8454 174.451 11.8454 179.027 12.3838C178.22 13.7299 177.143 15.0759 176.335 16.422C175.528 16.422 174.72 16.422 173.643 16.1528C174.182 15.3452 174.72 15.076 175.258 14.2683C173.912 14.2683 172.566 13.9991 171.22 13.9991C170.413 16.1528 169.874 18.5757 169.066 20.9987C174.182 25.0369 176.066 30.9596 177.143 37.1515C176.874 37.1515 176.604 37.4207 176.335 37.4207C175.797 37.6899 175.258 37.9591 174.989 38.2283C173.912 39.0359 173.105 40.1128 172.566 41.7281C172.297 41.7281 171.759 41.7281 171.489 41.7281C171.22 41.7281 171.22 41.7281 170.951 41.7281C170.682 41.9973 170.413 42.2665 170.143 42.5357L169.874 42.2665C170.143 41.9973 170.413 41.7281 170.682 41.4589C170.682 40.9204 170.682 40.382 170.682 39.8436C170.143 39.8436 169.874 39.5744 169.336 39.5744C146.183 37.6899 123.031 38.7668 99.8786 38.4975C76.457 38.2283 53.3046 38.4975 29.8831 38.4975C28.537 39.3052 27.1909 39.3051 25.8449 39.3051ZM46.5743 22.6139L46.3051 22.3447C46.5743 22.0755 46.8435 21.8063 47.1127 21.5371C47.1127 21.5371 47.1127 21.8063 47.382 21.8063C47.1127 22.0755 46.8435 22.3447 46.5743 22.6139ZM49.2664 21.5371C48.4588 21.5371 47.9204 21.5371 47.382 21.8063C47.382 20.7294 47.382 19.9218 47.382 17.7681C48.1896 19.6526 48.728 20.4602 49.2664 21.5371ZM49.2664 16.1528C49.5356 16.1528 49.8049 15.8836 49.8049 15.8836C50.0741 16.1528 50.0741 16.1528 50.0741 16.1528C49.8049 16.1528 49.5356 16.422 49.2664 16.422C49.5356 16.422 49.5356 16.1528 49.2664 16.1528ZM52.497 8.0764C52.497 7.80719 52.497 7.8072 52.497 7.53799C53.0354 7.53799 53.5739 7.26876 54.1123 7.26876C54.1123 7.53797 54.1123 7.80719 54.1123 8.0764C53.8431 8.0764 53.0354 8.0764 52.497 8.0764ZM108.224 4.57662C107.955 4.03819 107.955 3.76898 107.955 3.23055C108.493 3.23055 109.032 3.23057 109.301 3.49978C109.57 3.769 109.301 4.30742 109.301 4.84585C109.301 4.84585 109.301 4.84583 109.301 5.11504C109.301 5.11504 109.032 5.11506 109.032 5.38427C108.763 4.84584 108.224 4.84583 108.224 4.57662ZM113.339 5.65346C113.608 4.30739 113.878 3.76898 114.147 3.23055V3.49978V3.76897C114.147 4.03819 114.416 4.30742 114.416 4.84585C114.416 4.84585 114.147 4.84582 113.339 5.65346ZM114.147 3.49978C114.685 1.61529 114.685 0.80764 114.685 0C114.685 1.07685 114.685 2.15368 114.685 2.96132C114.416 3.23054 114.416 3.49978 114.147 3.49978ZM114.685 2.96132C114.685 2.15368 114.685 1.34607 114.685 0C115.493 1.88449 115.493 1.88447 114.685 2.96132Z" fill="white"/>
</svg>
