<svg width="83" height="86" viewBox="0 0 83 86" fill="none" xmlns="http://www.w3.org/2000/svg">
<path d="M2.79197 57.1198C1.1056 54.1661 0.0516233 52.0564 0.0516233 50.5795C0.0516233 42.9844 -0.580764 35.3893 2.58118 28.0052C4.05676 24.6296 6.16472 20.832 9.53746 17.6673C9.11587 18.7222 9.11587 19.7771 8.48348 20.621C6.58631 23.9966 5.11074 27.3722 3.63516 30.7478C1.3164 37.2881 0.26242 43.6173 2.15959 50.3685C2.79198 52.6893 2.58118 55.01 2.79197 57.1198ZM8.27269 68.0905C4.89994 65.1369 3.21357 61.5503 2.79197 57.1198C5.53233 60.2844 7.2187 64.082 8.27269 68.0905ZM7.4295 42.3515C8.90507 42.3515 10.3806 42.3515 12.4886 42.3515C12.9102 44.0393 13.5426 45.938 14.175 48.2588C12.4886 49.1027 11.013 49.9466 9.32667 50.7905C9.53746 51.0015 9.95905 51.2124 10.1698 51.4234C9.11587 51.4234 8.06189 51.4234 6.58632 51.4234C7.21871 50.5795 7.64029 50.1576 7.85109 49.7356C7.00791 48.2588 6.37552 46.993 5.53233 45.5161C6.37552 44.6722 6.79711 43.6173 7.4295 42.3515ZM8.06188 29.271C9.32666 28.4271 10.1699 27.5832 11.8562 26.3173C11.8562 29.6929 11.8562 32.2247 11.8562 34.9673C11.8562 34.9673 11.2238 35.1783 10.3806 35.6002C9.74826 33.7015 8.90507 31.8027 8.06188 29.271ZM8.27269 68.0905C11.4346 71.2552 14.5966 74.4198 17.7585 77.5844C16.9153 77.3735 15.8614 77.5844 15.229 77.1625C12.9102 75.0527 10.8022 72.9429 8.69428 70.6222C8.27269 69.9893 8.48348 68.9344 8.27269 68.0905ZM10.8022 46.149C10.8022 45.7271 10.8022 45.3052 10.5914 44.8832C9.95905 45.0942 9.11587 45.3051 8.48348 45.3051C8.48348 45.5161 8.48348 45.7271 8.69428 45.9381C9.32667 46.1491 9.95906 46.149 10.8022 46.149ZM9.53746 17.8783C9.53746 17.0344 9.53746 16.1905 9.53746 15.1357C10.5914 15.1357 11.4346 15.1357 12.2778 15.1357C11.4346 15.9796 10.5914 16.8234 9.53746 17.8783ZM72.144 13.6588C70.6684 13.8698 69.6144 13.4479 68.7712 12.182C64.5553 7.11861 58.0206 5.64173 52.3291 2.89904C49.7996 1.63319 46.216 2.8991 43.0541 2.68812C32.3035 2.05519 23.2392 5.85271 15.8614 13.6588C14.8074 14.7137 13.7534 15.3466 12.2778 15.1357C16.9153 8.17347 23.8716 3.95395 31.4603 2.26614C36.3086 1.21127 41.3677 -1.74238 47.0592 1.42225C49.378 2.68811 52.9615 1.63319 55.9127 2.89904C62.2366 5.43075 68.3497 7.75149 72.144 13.6588ZM13.7534 33.4905C13.7534 32.2246 13.7534 30.9588 13.7534 29.693C15.229 28.6381 16.7045 27.5832 18.8125 26.1064C19.2341 26.9503 20.0773 28.4271 20.9205 29.904C21.1313 29.693 21.5529 29.271 21.7636 29.0601C21.7636 30.3259 21.7636 31.5917 21.7636 33.4905C20.7097 34.3344 19.2341 35.1783 17.5477 36.6551C16.4937 36.0222 15.0182 34.7563 13.7534 33.4905ZM20.2881 67.6686C17.9693 70.4112 15.8614 69.9893 13.7534 67.6686C13.7534 65.3478 13.7534 63.0271 13.7534 60.7064C15.8614 58.3857 17.7585 57.7527 20.2881 60.7064C20.2881 62.6052 20.2881 64.9259 20.2881 67.6686ZM16.4937 65.7698C16.4937 65.9808 16.4937 65.9807 16.4937 66.1917C16.9153 66.1917 17.3369 66.1917 17.7585 66.1917C17.7585 65.9807 17.7585 65.9808 17.7585 65.7698C17.3369 65.7698 16.9153 65.7698 16.4937 65.7698ZM16.7045 34.9673C18.3909 33.7015 19.4449 33.0685 20.2881 32.4356C19.4449 30.9588 19.0233 29.904 18.3909 28.8491C17.9693 28.8491 17.5477 28.8491 16.7045 28.8491C16.7045 30.3259 16.7045 32.0137 16.7045 34.9673ZM17.7585 77.5844C19.8665 77.3735 21.3421 78.2173 21.7636 80.3271C19.6557 80.5381 18.3909 79.6942 17.7585 77.5844ZM24.7148 21.6759C23.6608 21.6759 23.0284 21.6759 22.396 21.6759C21.9745 19.5662 21.5529 17.6674 21.1313 15.1357C21.5529 14.7137 22.6068 14.0808 23.8716 13.0259C25.1364 16.1905 24.2932 18.9332 24.7148 21.6759ZM21.7636 80.3271C23.2392 80.3271 24.9256 80.3271 26.8228 80.3271C27.4552 81.171 28.2983 82.2259 28.7199 82.6478C32.0927 83.2808 34.833 84.1246 37.5734 84.3356C40.3137 84.5466 42.8433 84.5466 45.5836 84.3356C48.9564 84.1246 52.3291 83.4917 55.7019 83.0697C53.5939 85.1795 50.8536 85.8125 47.9024 85.8125C44.1081 85.8125 40.3137 86.2344 36.5194 85.8125C32.3035 85.1795 26.1904 84.5466 21.7636 80.3271ZM29.9847 13.4478C29.9847 15.9795 29.9847 18.0893 29.9847 19.9881C29.7739 19.9881 29.5631 20.1991 29.3523 20.1991C28.5091 18.3003 27.8767 16.1905 27.0336 14.0808C28.0875 13.8698 28.7199 13.6588 29.9847 13.4478ZM33.5682 68.9344C32.5143 71.6771 32.0927 73.1539 31.4603 74.6307C30.8279 75.8966 30.1955 77.3735 29.7739 78.6393C27.2444 76.5296 29.9847 75.0527 30.1955 73.3649C29.7739 72.521 29.1415 71.4661 28.2983 69.9893C29.5631 69.7783 30.8279 69.5674 33.5682 68.9344ZM30.1955 46.571C34.4114 44.0393 35.4654 44.2503 36.7302 47.8369C36.941 48.6808 37.1518 49.5247 37.3626 50.1576C37.5734 50.7905 37.7842 51.2125 38.2058 51.8454C37.5734 52.6893 36.941 53.3222 36.0978 53.9551C34.2006 53.9551 32.3035 53.9551 29.9847 53.9551C30.1955 51.8454 30.1955 49.5247 30.1955 46.571ZM32.7251 50.5795C32.5143 53.5332 33.779 53.5332 35.4654 52.4783C35.2546 51.8454 35.2546 51.2125 35.0438 50.5795C34.4114 50.5795 33.7791 50.5795 32.7251 50.5795ZM35.6762 7.11855C36.5194 7.11855 37.1518 7.11855 37.7842 7.11855C37.7842 9.86124 37.7842 12.393 37.7842 14.9247C37.1518 12.182 34.6222 10.0722 35.6762 7.11855ZM45.5836 36.8661C43.6865 34.7564 42.0001 34.9673 39.049 37.71C39.8921 33.9124 40.5245 31.3808 41.1569 28.8491C45.3729 30.3259 46.216 32.2247 45.5836 36.8661ZM44.5297 71.0442C47.4808 71.6771 45.3728 76.1076 48.324 78.0063C46.216 79.4832 44.5297 80.5381 42.6325 81.8039C41.7893 80.7491 40.9461 79.4832 39.4705 77.3734C39.4705 77.5844 39.4705 76.3186 39.4705 74.4198C40.9461 73.3649 42.4217 72.31 44.5297 71.0442ZM43.2649 7.96251C42.4217 8.80641 42.0001 9.22834 41.3677 9.65029C39.6813 7.32956 41.7893 6.69662 43.4757 5.21979C44.7405 6.27467 46.0052 7.32956 47.4808 8.59541C46.6376 10.0722 46.0052 11.5491 45.162 13.0259C45.5836 13.6588 46.0052 14.5027 46.4268 15.3467C44.1081 17.2454 42.6325 16.4015 40.9461 14.5027C42.0001 13.8698 43.0541 13.2369 43.4757 13.0259C43.4757 10.7052 43.4757 9.43934 43.2649 7.96251ZM42.4217 78.8502C45.3729 79.0612 45.3729 77.7954 44.3189 76.1076C43.6865 76.3186 43.0541 76.3186 42.4217 76.5296C42.4217 77.3735 42.4217 77.7954 42.4217 78.8502ZM51.6967 51.8454C49.7996 50.5795 49.7996 49.1027 51.6967 47.8369C51.6967 49.1027 51.6967 50.3686 51.6967 51.8454ZM51.6967 51.8454C53.3831 53.1112 55.0695 53.3222 57.1774 53.1113C56.3343 55.643 54.2263 53.9552 52.7507 54.3771C52.5399 54.3771 52.3291 54.1661 51.6967 53.9551C51.6967 53.5332 51.6967 52.6893 51.6967 51.8454ZM52.9615 45.3051C54.2263 45.3051 55.7019 45.0941 56.9667 45.0941C56.9667 45.3051 56.9667 45.7271 56.9667 45.9381C55.7019 46.1491 54.2263 46.36 52.9615 46.36C53.1723 46.149 52.9615 45.7271 52.9615 45.3051ZM59.2854 68.3015C60.3394 69.7783 61.3934 71.6771 62.8689 73.7868C61.3934 74.8417 59.9178 76.1076 58.0206 77.5844C57.3882 77.1625 56.5451 76.3186 55.2803 75.2637C56.9666 75.0527 58.2314 74.8418 60.3394 74.4198C58.653 73.1539 57.3882 72.31 55.9127 71.2552C55.9127 70.6222 55.9127 69.5673 55.9127 68.3015C57.1775 68.3015 58.2314 68.3015 59.2854 68.3015ZM57.599 18.9332C56.9666 16.6125 56.3343 14.0808 55.4911 11.5491C56.3343 11.3381 56.9666 11.1271 57.8098 10.7052C59.0746 13.6588 58.2314 16.1905 57.599 18.9332ZM59.9178 81.593C59.2854 84.1247 57.1775 82.4369 55.9127 82.8588C56.3343 80.3271 58.4422 82.2259 59.9178 81.593ZM56.9667 52.9003C57.1775 52.4783 57.599 52.0564 57.8098 51.8454C58.0206 52.0564 58.0206 52.0564 58.2314 52.2674C57.8098 52.4783 57.3882 52.9003 57.1774 53.1113C57.1774 53.1113 57.1775 53.1112 56.9667 52.9003ZM59.9178 81.593C60.1286 79.4832 61.6042 80.5381 62.6582 80.3271C62.4474 82.4368 60.9718 81.382 59.9178 81.593ZM70.6684 74.8417C68.982 78.0063 66.2417 79.9051 62.4474 80.3271C64.5553 78.0064 68.5605 75.4746 70.6684 74.8417ZM72.9872 64.0819C70.8792 63.449 68.7712 62.6052 66.0309 61.7613C67.9281 59.6515 69.6144 57.7527 71.5116 55.6429C72.5656 58.3856 74.4628 60.7063 72.9872 64.0819ZM66.4525 22.3088C73.8304 22.0978 74.4627 22.9417 72.144 29.271C72.5656 29.6929 72.9872 30.3259 73.6196 30.9588C71.5116 30.9588 69.8252 30.9588 67.2957 30.9588C68.7712 28.8491 70.036 27.3722 71.09 25.6844C69.8252 24.8405 68.7713 23.9966 66.4525 22.3088ZM72.144 73.5758C71.7224 73.9978 71.3008 74.4198 70.8792 74.8417C71.09 74.4198 71.7224 73.9978 72.144 73.5758ZM72.144 13.6588C77.6247 16.8234 79.7327 22.5198 82.473 27.5832C83.3162 28.8491 82.8946 30.9588 82.8946 32.6466C82.2622 31.8027 81.2082 30.9588 80.9974 29.904C79.5219 24.4186 76.5707 19.9881 72.5656 15.9796C72.144 15.5576 72.144 14.5027 72.144 13.6588ZM73.4088 72.0991C72.9872 72.521 72.5656 72.943 72.144 73.3649C72.5656 73.1539 72.9872 72.521 73.4088 72.0991ZM73.4088 72.0991C73.198 69.1454 75.3059 67.8795 77.4139 66.6137C77.6247 69.7783 75.7275 71.0442 73.4088 72.0991ZM74.8843 46.993C74.8843 46.571 74.8843 46.1491 74.8843 45.5161C75.5167 45.3051 76.3599 44.8832 77.4139 44.6722C77.4139 43.1954 77.4139 41.7186 77.4139 40.0307C76.7815 39.8198 75.9383 39.3978 74.252 38.9759C75.5167 38.5539 76.3599 38.3429 77.8355 37.71C77.6247 37.71 78.6787 38.132 80.1543 38.7649C80.1543 40.8746 80.1543 43.4064 80.1543 45.9381C77.8355 47.6259 77.8355 47.6259 74.8843 46.993ZM81.6298 58.5966C81.6298 61.9722 80.9974 65.1369 77.6247 66.8247C77.6247 63.4491 79.5219 60.9174 81.6298 58.5966Z" fill="white"/>
</svg>
