<svg width="50" height="63" viewBox="0 0 50 63" fill="none" xmlns="http://www.w3.org/2000/svg">
<path d="M1.40479 28.0111C0.80272 27.413 0.401378 27.0142 0 26.6155C0.903101 24.9209 2.00689 23.4256 3.01034 21.8307C3.61241 20.8339 4.01377 19.837 4.31481 18.7405C5.11756 15.5506 8.12791 14.1551 10.0345 11.8623C11.0379 10.6661 12.3424 9.96835 13.6468 9.46993C13.5465 8.97152 14.0482 8.27373 13.9479 7.67563C13.8475 7.17721 13.7472 6.67879 13.7472 6.18038C13.7472 5.58227 13.4462 4.7848 13.7472 4.38607C14.3493 3.5886 13.3458 2.9905 13.6468 2.19303C13.9479 1.59493 14.0482 0.897152 14.3493 0C18.8648 0 23.4806 0 28.0965 0C27.9961 0.697785 27.7954 1.39557 27.9961 1.99367C28.3975 3.18987 28.3975 4.28639 27.9961 5.3829C27.8958 5.78164 27.6951 6.37974 27.8958 6.67879C28.0965 6.97784 28.0965 7.17721 28.0965 7.47626C29.9027 7.57595 31.7089 7.97469 33.8161 8.57279C34.9199 8.87184 35.9234 9.37025 36.9268 9.86866C36.9268 9.27056 36.9268 8.67247 36.9268 8.07437C37.3282 8.07437 37.7295 8.07437 38.0306 7.97468C38.2313 7.875 38.432 7.67563 38.8334 7.47626C38.8334 8.67247 38.8334 9.86867 38.8334 11.0649C39.5358 11.5633 40.1378 12.1614 40.7399 12.7595C42.6464 14.6535 44.6534 16.4478 46.3592 18.1424C45.8575 19.9367 45.5565 21.3323 45.1551 22.6282C44.7537 23.7247 44.2519 24.8212 43.7502 26.1171C42.8471 25.2199 42.2451 24.6218 41.7433 24.1234C41.7433 23.4256 41.7433 22.6282 41.7433 21.8307C40.7399 20.5348 39.7365 19.4383 38.8334 18.4415C38.8334 19.3386 38.8334 20.3354 38.8334 21.2326C38.8334 21.731 39.0341 22.3291 38.8334 22.5285C38.131 23.2263 38.5323 23.7247 38.8334 24.5222C39.0341 25.0206 38.8334 25.7183 38.8334 25.818C39.4354 27.3133 39.8368 28.3101 40.2382 29.4066C39.6361 29.8054 39.0341 30.2041 38.3317 30.6028C38.3317 33.5933 38.3317 36.4842 38.3317 39.5744C39.0341 39.5744 39.7364 39.5744 40.5392 39.5744C39.9371 41.568 39.3351 43.2626 38.8334 45.2563C38.9337 45.356 39.034 45.5554 39.2347 45.8544C38.8333 45.8544 38.432 45.8544 38.131 45.8544C36.7261 48.0475 35.1206 49.8418 32.2106 50.9383C32.0099 50.9383 31.3075 50.9383 30.6051 50.9383C30.5048 51.2373 30.5047 51.4367 30.4044 51.8354C30.003 51.8354 29.401 51.7357 28.8992 51.8354C28.3975 51.9351 27.9961 52.2342 27.1934 52.6329C27.5947 51.4367 27.8958 50.6392 28.0965 49.8418C27.4944 49.144 27.1934 49.8418 26.792 50.2405C26.792 50.8386 26.792 51.5364 26.792 52.2342C25.8889 52.2342 25.0862 52.2342 24.0827 52.2342C23.6813 51.5364 23.0793 50.5395 22.5775 49.6424C22.1762 49.8418 21.7748 49.9414 21.3734 50.1408C21.3734 50.6392 21.3734 51.1376 21.3734 51.5364C21.0724 51.8354 20.8717 52.0348 20.671 52.2342C20.1692 51.9351 19.7679 51.5364 19.1658 51.337C15.5534 50.5395 13.2455 48.0475 11.3389 45.1566C10.2351 43.5617 9.73343 41.568 9.03101 39.7737C8.83033 39.375 9.03098 38.8766 8.93063 38.4778C8.83029 37.7801 8.72999 37.0823 8.72999 36.2848C8.72999 35.587 9.03098 34.8892 8.93063 34.2911C8.72994 31.9984 9.63307 30.1044 10.3355 28.0111C11.0379 25.9177 12.3424 24.3228 13.5465 22.4288C13.5465 19.7373 13.5465 17.2452 13.5465 14.6535C11.941 16.1487 10.2351 17.5443 9.13134 19.3386C7.72651 21.731 7.32516 24.7215 6.5224 27.6123C5.01723 28.0111 3.31134 28.0111 1.40479 28.0111ZM49.8713 36.1851C49.2692 42.4652 48.3661 48.9446 43.9509 53.8291C41.944 56.1218 39.3351 58.2152 36.0237 59.5111C32.8127 60.807 29.5013 61.4051 25.9892 63C25.6882 62.2025 25.2869 61.5047 24.7851 60.2088C23.581 61.0063 22.3768 61.8038 21.1727 62.6012C19.2661 60.5079 16.5568 62.2025 13.8475 61.4051C1.10378 54.5269 2.70929 52.1345 0.802745 45.5554C2.80964 47.0506 4.31483 45.0569 6.22138 45.5554C7.22482 47.549 8.3286 49.6424 9.53274 51.9351C11.7403 53.4304 14.2489 55.125 17.0586 57.019C20.1693 57.5174 23.6813 58.0158 25.9892 58.3149C30.9061 56.2215 34.6189 54.6266 38.3317 53.0316C41.9441 46.9509 44.3523 40.8702 44.0512 33.7927C43.9509 30.3038 44.9544 26.9145 48.1654 24.6218C50.072 28.4098 50.1723 32.2975 49.8713 36.1851ZM12.6434 3.88765C12.6434 3.88765 12.543 3.88765 12.4427 3.88765C12.4427 3.68828 12.4427 3.5886 12.4427 3.38923C12.543 3.38923 12.5431 3.38923 12.6434 3.38923C12.6434 3.5886 12.6434 3.68828 12.6434 3.88765ZM18.4634 44.1598C18.9651 43.8608 19.4668 43.5617 19.9685 43.3623C20.1692 43.2626 20.37 43.462 20.5706 43.462C20.5706 43.8608 20.671 44.1598 20.5706 44.4589C20.4703 44.6582 20.2696 44.8576 20.1692 44.9573C20.4703 45.2563 20.671 45.4557 20.671 45.4557C21.273 45.356 21.7748 45.2563 22.2765 45.1566C22.8786 45.1566 23.7817 44.8576 24.0827 45.1566C24.6848 45.8544 24.9858 44.9573 25.3872 45.1566C25.8889 45.356 26.491 45.4557 27.1934 45.6551C28.1968 44.9573 29.5013 44.3592 30.4044 43.3623C31.3075 42.3655 31.7089 40.8702 32.311 39.5744C33.8161 39.5744 35.2209 39.5744 36.7261 39.5744C36.7261 38.7769 36.7261 38.1788 36.7261 37.481C36.8264 36.7832 36.4251 35.9858 37.1275 35.3877C36.2244 34.8892 37.2278 34.1914 36.9268 33.8924C36.2244 33.0949 37.0272 32.4968 37.1275 32.0981C36.8265 31.3006 36.6257 30.8022 36.5254 30.2041C34.7192 30.0047 33.0134 31.2009 31.3075 30.5032C31.2072 28.4098 29.9027 27.2136 28.2972 26.2168C28.1968 26.3165 28.0965 26.5158 28.0965 26.6155C28.0965 27.712 28.0965 28.7088 28.0965 29.8054C28.0965 30.9019 28.0965 31.8987 28.0965 32.9953C28.0965 34.0918 28.0965 35.0886 28.0965 36.1851C28.0965 37.182 28.2972 38.4778 27.8958 39.2753C27.1934 40.4715 28.6986 41.1693 28.0965 42.1661C28.0965 42.2658 28.0965 42.2658 27.9961 42.3655C27.5947 42.5649 27.1934 42.7642 26.9927 42.8639C26.1899 42.3655 25.3872 42.3655 24.5844 42.8639C23.7817 42.0664 22.6779 42.5649 21.7748 42.4652C20.8717 42.3655 19.9686 42.4652 19.1658 42.4652C18.363 43.0633 17.9616 43.5617 18.4634 44.1598ZM19.6675 45.4557C19.6675 45.356 19.6675 45.356 19.6675 45.2563C19.4668 45.2563 19.3665 45.2563 19.1658 45.2563C19.1658 45.356 19.1658 45.356 19.1658 45.4557C19.3665 45.4557 19.4668 45.4557 19.6675 45.4557ZM20.4703 46.4525C20.4703 46.3528 20.4703 46.1535 20.4703 46.0538C20.0689 46.1535 19.6676 46.1535 19.2662 46.2531C19.2662 46.3528 19.2662 46.4525 19.2662 46.4525C19.6676 46.4525 20.0689 46.4525 20.4703 46.4525ZM27.8958 17.644C27.8958 17.7437 27.9961 17.7437 28.0965 17.943C28.2972 17.8434 28.3975 17.7437 28.6985 17.5443C28.9996 18.3418 29.3006 19.1392 30.4044 18.9399C32.2106 19.837 34.1171 20.5348 35.522 22.1297C35.9233 22.5285 36.124 23.2263 37.0271 23.0269C37.0271 20.9335 37.0271 18.8402 37.0271 16.7468C34.4182 14.3544 32.2106 13.0585 29.8024 12.4604C29.702 12.7595 29.5013 13.1582 29.0999 13.6566C28.8992 13.1582 28.8992 12.7595 28.8992 12.2611C28.5982 12.2611 28.3975 12.1614 28.0965 12.1614C27.5948 13.856 28.0965 15.75 27.8958 17.644ZM29.0999 51.1377C28.9996 51.1377 28.9996 51.1377 28.8992 51.1377C28.8992 51.337 28.8992 51.4367 28.8992 51.6361C28.8992 51.6361 28.9996 51.6361 29.0999 51.6361C29.0999 51.4367 29.0999 51.2373 29.0999 51.1377ZM29.6017 15.4509C29.6017 15.3513 29.702 15.3513 29.9027 15.3513C30.1034 15.3513 30.2037 15.3513 30.2037 15.4509C30.2037 15.5506 30.1034 15.5506 29.9027 15.5506C29.8023 15.5506 29.6017 15.5506 29.6017 15.4509ZM41.0409 45.356C40.4388 45.5554 40.0375 45.655 39.9371 45.7547C39.8368 45.2563 39.8368 45.2563 41.0409 45.356ZM40.1378 21.8307C40.1378 21.731 40.2382 21.731 40.4389 21.731C40.6396 21.731 40.7399 21.731 40.7399 21.8307C40.7399 21.9304 40.6396 21.9304 40.4389 21.9304C40.2382 21.9304 40.1378 21.8307 40.1378 21.8307ZM41.0409 34.6899C40.5392 33.9921 40.7399 33.2943 41.0409 32.5965C41.0409 33.2943 41.0409 33.9921 41.0409 34.6899ZM41.2416 24.4225C41.342 24.4225 41.4423 24.4225 41.5426 24.4225C41.5426 25.0206 41.643 25.519 41.643 26.1171C41.5427 26.1171 41.342 26.1171 41.2416 26.1171C41.2416 25.519 41.2416 24.9209 41.2416 24.4225ZM42.9475 13.3576C42.5461 13.3576 42.3454 13.3576 42.1447 13.3576C42.2451 12.4604 42.4458 11.663 42.6465 10.4668C43.1482 11.5633 42.8471 12.4604 42.9475 13.3576ZM42.5461 8.37341C42.5461 7.97468 42.6464 7.77532 42.7468 7.77532C42.8471 7.77532 42.9475 8.07436 42.9475 8.37341C42.9475 8.77214 42.8471 8.97152 42.7468 8.97152C42.6464 9.0712 42.5461 8.77214 42.5461 8.37341ZM43.5495 5.18354C43.4492 4.78481 43.4492 4.38608 43.3489 3.98734C43.4492 3.98734 43.6499 3.98734 43.7502 3.98734C43.7502 4.38608 43.7502 4.78481 43.7502 5.18354C43.7502 5.18354 43.6499 5.18354 43.5495 5.18354Z" fill="white"/>
</svg>
