<svg width="124" height="84" viewBox="0 0 124 84" fill="none" xmlns="http://www.w3.org/2000/svg">
<path d="M14.5444 57.4835C13.985 56.3709 13.4256 55.6291 12.4932 54.5166C9.50977 55.4437 5.22106 54.5165 3.54286 60.6357C3.35639 58.0397 3.16992 56.5563 2.98346 55.0728C3.91579 54.1457 4.66165 53.404 5.59399 52.4768C5.59399 50.8079 5.59399 49.139 5.59399 47.4702C7.08571 45.9867 8.39098 44.5033 10.4421 42.4636C8.95037 41.9073 8.01805 41.351 7.27218 40.9801C7.45865 43.2053 5.78044 45.0596 2.42405 47.4702C3.35638 45.4304 4.10225 44.5033 4.28871 43.3907C4.47518 42.0927 4.28871 40.7947 4.28871 39.3112C3.16992 39.1258 1.86466 38.9404 0.745868 38.755C0.559401 36.5298 0.186466 34.3046 0 32.0795C0.932331 31.1523 2.23759 29.8543 2.98346 29.1126C2.98346 26.8874 2.98346 25.5894 2.98346 24.4768C5.40752 21.5099 8.39098 18.9139 10.0692 15.7616C11.3744 13.1656 13.0526 12.2384 15.4767 11.8675C15.8496 11.8675 16.0361 11.3113 16.409 10.9404C17.5278 11.8675 18.4601 12.7947 19.7654 14.0927C20.5113 12.6092 21.0707 11.6821 21.8165 10.3841C22.7489 11.1258 23.4947 11.6821 24.2406 12.2384C24.6135 15.0198 24.8 17.8013 25.1729 20.7682C20.3248 23.7351 17.3414 28.9271 17.9008 34.8609C16.409 38.755 15.1038 41.7219 13.7985 45.245C14.5444 46.1722 15.2902 46.9139 16.5955 48.2119C16.5955 45.6159 16.5955 43.7616 16.5955 42.649C18.0872 40.4239 19.3925 38.755 20.5113 36.9007C20.5113 35.0464 20.5113 32.8212 20.5113 30.4106C21.2571 29.8543 22.003 29.298 22.7489 28.9271C23.6812 26.5165 21.8165 23.1788 26.2917 22.2517C27.597 23.3642 29.0887 25.0331 30.7669 26.5165C30.9534 28.1854 31.1398 29.6689 31.3263 31.1523C31.5128 31.1523 31.6993 31.1523 32.0722 31.1523C32.0722 28.9271 32.0722 26.5165 32.0722 25.4039C33.9369 23.5496 35.2421 22.4371 36.5474 21.1391C37.1068 21.8808 37.6662 22.9933 38.5985 24.4768C37.8526 24.8477 36.9203 25.404 36.9203 25.5894C36.3609 26.702 35.988 27.0728 36.1744 27.4437C36.5474 30.2252 35.4286 32.8212 33.3774 34.49C31.6993 35.9735 31.1399 37.6424 30.5805 39.8676C29.6481 44.5033 25.9188 48.0265 24.2406 52.4768C20.1383 54.1457 19.3925 59.3377 15.4767 61.3775C14.1714 62.1192 13.612 63.9735 12.6797 65.2715C12.3068 65.6424 11.5609 65.6424 10.6286 65.8278C11.0015 63.4172 11.3744 61.3775 11.7474 59.3378C12.4932 59.3378 13.2391 59.3378 14.3579 59.3378C14.5444 58.596 14.5444 57.8543 14.5444 57.4835C16.9684 54.8874 18.8331 52.2914 20.8842 49.8808C19.206 49.8808 17.1549 50.8079 17.3413 51.3642C17.7143 53.7748 15.1038 52.6622 14.5444 53.9602C14.5444 54.8874 14.5444 56 14.5444 57.4835ZM3.35638 38.0133C3.54285 38.0133 3.72932 38.0133 3.91579 38.0133C3.91579 36.7152 3.91579 35.4172 3.91579 34.1192C3.72932 34.1192 3.54285 34.1192 3.35638 34.1192C3.35638 35.4172 3.35638 36.7152 3.35638 38.0133ZM5.96691 24.106C5.22105 26.5166 4.66165 28.1854 4.28871 29.6689C5.03458 30.4106 5.59398 30.9669 6.15338 31.5232C10.0692 28.1854 13.612 24.4768 14.3579 18.7284C10.6286 19.2847 9.88271 22.0662 8.39098 24.106C7.64511 24.106 6.71278 24.106 5.96691 24.106ZM11.7474 59.7086C11.3744 59.3377 11.0015 59.1523 10.6286 58.7814C10.815 58.596 10.815 58.596 11.0015 58.4106C11.3744 58.7815 11.5609 59.1523 11.9338 59.5231C11.9338 59.5231 11.9338 59.7086 11.7474 59.7086ZM102.929 25.0331C104.048 25.2186 102.929 26.5166 101.624 27.6291C100.319 28.9271 98.8271 30.2252 97.5218 31.5232C95.4707 31.7086 96.5895 33.3775 96.403 34.1192C89.8767 39.8675 83.5368 45.6159 77.0105 51.3642C79.4346 53.2185 81.1128 50.8079 82.2316 49.8808C91.182 43.0199 100.319 36.3444 109.829 30.2252C112.626 28.3708 115.982 27.8145 120.457 28C118.22 30.2251 116.541 31.894 114.49 33.9338C113.744 34.1192 111.88 33.9338 110.574 34.6755C107.964 36.3443 105.726 38.3841 103.302 40.4238C102.743 40.7947 102.743 41.7219 102.183 42.649C104.048 42.0927 105.54 41.7218 107.405 41.351C108.71 40.053 110.388 38.3841 112.253 36.5298C112.999 36.9006 113.931 37.2715 115.236 38.0133C116.541 37.2715 118.22 36.5298 120.271 35.6026C120.271 37.4569 120.271 39.3112 120.271 41.351C119.711 41.9073 118.779 42.8344 117.847 43.947C118.592 44.1324 119.525 44.5033 119.711 44.3179C121.017 43.0199 122.508 42.649 124 43.3907C121.203 45.9868 118.22 48.7682 114.863 51.9205C116.168 52.8477 117.101 53.404 118.22 54.1457C117.847 54.8874 117.474 56 116.728 56.3709C112.812 58.7815 108.337 60.4503 105.167 63.6026C101.438 67.4967 96.0301 67.4967 92.3007 71.0199C91.1819 72.1324 89.1308 72.3179 87.4526 73.0596C87.2662 73.6159 87.2662 74.1722 87.0797 74.9139C85.9609 74.9139 85.0286 74.9139 83.5368 74.9139C83.5368 73.9868 83.5368 73.245 83.5368 71.947C83.5368 71.7616 83.5368 72.1324 83.5368 72.5033C84.2827 72.3179 85.215 72.1324 85.9609 71.947C85.9609 71.7616 85.9609 71.3907 85.7744 71.2053C85.0286 71.2053 84.0963 71.3907 83.3504 71.947C80.5534 72.5033 77.7564 72.5033 74.9594 72.5033C73.8406 71.3907 72.5353 70.0927 70.8571 68.4238C68.9925 68.7947 66.009 68.7947 65.0767 70.0927C63.212 72.6887 60.6015 72.5033 58.3639 74.1722C56.6857 71.7616 58.3639 70.649 59.6692 70.0927C62.4662 68.9801 64.8902 67.8675 66.7549 65.0861C66.382 64.3443 65.8225 63.6026 65.2631 62.6755C66.009 60.6358 66.7549 58.596 67.6872 56.1854C65.0767 56.1854 62.2797 56.1854 59.2962 56.1854C59.1098 55.2583 58.9233 54.702 58.7368 53.7748C56.1263 53.7748 53.1429 53.7748 50.1594 53.7748C50.1594 54.1457 49.9729 54.8874 49.7865 56C51.0917 55.6291 52.2105 55.2583 53.5158 55.0728C54.2617 55.8146 55.194 56.9271 56.1263 58.0397C55.3805 59.1523 54.6346 60.6357 53.7023 62.3046C52.2105 62.49 50.5323 62.4901 49.0406 62.6755C44.7519 68.053 40.8361 73.4304 36.5474 78.9934C34.1233 78.9934 31.3263 78.9934 29.0887 78.9934C27.9699 80.4768 27.2241 81.7748 25.5459 84C26.2917 77.5099 30.5805 75.2848 33.9369 71.2053C32.2587 71.7616 31.3263 71.947 30.5805 72.3179C28.9023 73.2451 27.2241 74.543 25.9188 75.4702C24.0541 73.6159 22.3759 71.947 20.5113 70.0927C22.003 67.4967 25.9188 65.4569 25.7323 61.3775C26.1053 61.0066 26.6647 60.4503 27.0376 60.0795C28.9023 59.894 28.1564 58.4106 29.0887 56C28.9023 55.2583 28.3429 55.6291 28.3429 55.8145C28.3429 56.3708 28.7158 56.9271 28.9023 57.6688C29.0887 56.9271 29.2752 56.1854 29.0887 56.1854C26.4782 57.8543 27.2241 59.3378 27.0376 60.2649C26.6647 60.6358 26.1053 61.192 25.7323 61.5629C24.2406 61.9338 23.4947 62.8609 23.1218 64.5298C22.9353 65.2715 21.4436 65.8278 20.6977 66.5695C17.7143 69.5364 14.9173 72.5033 12.1203 75.4702C11.9338 75.6556 11.3744 75.4702 11.0015 75.2847C11.0015 74.9139 10.815 74.543 11.0015 74.3576C16.782 70.0927 19.3925 63.4172 23.3083 57.8543C25.3594 54.8874 27.4105 51.9205 29.8346 48.3973C29.8346 48.2119 29.8346 47.4702 29.8346 47.2848C33.7504 42.2782 37.4797 37.8278 40.6496 33.1921C41.7684 31.5232 41.5819 28.7417 43.8195 27.6291C44.3789 27.2583 44.9383 27.0728 46.6165 26.3311C44.7519 29.298 45.1248 31.5231 43.2602 33.5629C41.7684 35.2318 41.7684 38.1987 41.5819 40.7947C46.6165 35.7881 50.3459 30.2251 53.5158 23.3642C54.4481 23.3642 55.9399 23.3642 57.6181 23.3642C57.8045 24.1059 58.1775 24.8477 58.5504 25.7748C60.6015 25.2185 62.4662 24.8476 64.3308 24.2914C62.6526 26.3311 60.9744 28.1854 59.2962 30.2252C60.0421 30.7814 60.6015 31.3377 60.415 31.3377C66.382 31.1523 65.6361 26.1457 68.2466 23.1788C66.7549 23.1788 66.1955 23.1788 65.4496 23.1788C70.8571 18.9139 76.2647 14.8344 81.2993 10.9404C83.5368 10.3841 85.4015 9.45696 87.2662 9.27153C89.1308 9.27153 91.182 9.82778 93.0466 10.5695C94.7248 11.3112 96.403 11.1258 97.8947 11.8675C100.505 10.9404 102.929 9.82778 105.913 8.7152C105.913 10.3841 105.913 11.3113 105.913 12.7947C107.032 12.9801 107.964 12.9801 109.642 13.351C110.202 14.0927 110.947 15.3907 111.88 16.8741C111.88 16.6887 111.507 17.4304 111.134 17.9867C111.32 21.3245 114.49 20.3973 116.728 21.5099C115.423 23.1788 114.304 24.4768 113.185 25.7748C110.947 25.0331 107.964 25.9603 102.929 25.0331C100.878 23.7351 105.726 25.0331 105.167 20.9536C103.302 22.9934 100.132 22.6225 102.929 25.0331ZM16.9684 9.08608C17.3414 9.08608 17.9007 9.08608 18.2737 9.08608C18.2737 9.27151 18.2737 9.45691 18.2737 9.45691C17.9007 9.45691 17.3414 9.45691 16.9684 9.45691C16.9684 9.45691 16.9684 9.27151 16.9684 9.08608ZM26.1053 69.9073L25.9188 69.7218C25.5459 70.0927 25.1729 70.2781 24.8 70.649C24.9865 70.8344 24.9865 70.8344 25.1729 71.0199C25.5459 70.649 25.9188 70.2781 26.1053 69.9073C26.4782 69.351 26.8511 68.9801 27.0376 68.4238L27.2241 68.6093C27.597 68.2384 27.9699 68.053 28.3429 67.6821C28.1564 67.4967 28.1564 67.4967 27.9699 67.3113C27.597 67.6821 27.4105 68.053 27.2241 68.4238C26.8511 68.9801 26.4782 69.351 26.1053 69.9073ZM28.1564 35.0464C24.6135 37.6424 24.6135 37.6424 25.7323 40.6093C28.3429 39.8675 29.0887 38.0132 28.1564 35.0464ZM25.3594 28.7417C25.5459 28.7417 26.4782 28.7417 27.4105 28.7417C27.2241 27.8146 27.2241 27.2583 26.8511 25.4039C26.1053 27.2583 25.5459 28 25.3594 28.7417ZM30.0211 0C32.6316 2.03974 34.4962 3.15228 35.0556 5.93374C33.191 5.93374 31.6992 5.93374 30.0211 5.93374C30.0211 4.26487 30.0211 2.78146 30.0211 0ZM31.6993 54.3311C33.3774 49.8808 39.7173 47.8411 38.412 41.351C36.7338 43.2053 35.2421 44.8742 33.7504 46.7285C35.615 49.5099 28.9023 50.8079 31.6993 54.3311ZM35.4286 20.3974C34.6827 19.8411 33.9368 19.2848 32.6316 18.1722C34.3098 17.8013 34.8692 17.8013 35.8015 17.6159C35.988 18.5431 35.988 19.0993 36.1744 19.6556C35.988 19.841 35.8015 20.0265 35.4286 20.3974ZM33.191 67.1258C33.0045 67.1258 32.818 67.1258 32.818 67.1258C32.818 67.4967 32.818 68.053 32.818 68.4238C33.0045 68.4238 33.191 68.4238 33.191 68.4238C33.191 68.053 33.191 67.6821 33.191 67.1258ZM35.0556 61.0066L34.8692 60.8212C34.4963 61.192 34.1233 61.3775 33.7504 61.7483C33.9368 61.9338 33.9368 61.9338 34.1233 62.1192C34.4962 61.7484 34.6827 61.3775 36.3609 57.8543C35.4286 58.7814 34.8692 58.9669 34.8692 59.1523C34.8692 59.7086 35.2421 60.2649 35.4286 61.0066C35.8015 60.0795 35.988 59.3378 35.0556 61.0066ZM38.785 21.8808C39.1579 21.8808 39.7173 21.8808 40.0902 21.8808C40.0902 22.0662 40.0902 22.2517 40.0902 22.2517C39.7173 22.2517 39.1579 22.2517 38.785 22.2517C38.785 22.0662 38.785 21.8808 38.785 21.8808ZM40.0902 40.0529C40.0902 39.8675 40.0902 39.6821 40.0902 39.6821C39.7173 39.6821 39.1579 39.6821 38.785 39.6821C38.785 39.8675 38.785 40.0529 38.785 40.0529C39.1579 40.0529 39.7173 40.0529 40.0902 40.0529ZM42.5143 20.2119C41.5819 20.2119 41.209 20.2119 40.0902 20.2119C40.4631 19.4702 40.8361 18.9139 41.209 18.1722C41.0226 17.9867 40.6496 17.4304 40.2767 17.0596C41.3955 16.5033 42.5143 15.947 44.1925 14.8344C43.4466 16.8742 43.0737 18.3576 42.5143 20.2119ZM41.0225 48.2119C40.8361 48.2119 40.6496 48.2119 40.6496 48.2119C40.6496 48.5828 40.6496 49.1391 40.6496 49.5099C40.8361 49.5099 41.0225 49.5099 41.0225 49.5099C41.0225 48.9536 41.0225 48.5828 41.0225 48.2119ZM42.8872 19.4702C44.7519 22.0662 42.8872 22.8079 41.209 23.5496C41.7684 22.4371 42.3278 21.1391 42.8872 19.4702ZM41.3955 54.8874C41.3955 55.0728 41.3955 55.2583 41.3955 55.2583C41.7684 55.2583 42.3278 55.2583 42.7008 55.2583C42.7008 55.0728 42.7008 54.8874 42.7008 54.8874C42.1414 54.8874 41.7684 54.8874 41.3955 54.8874ZM46.4301 13.351C46.0571 13.351 45.4978 13.351 45.1248 13.351C45.1248 13.1655 45.1248 12.9801 45.1248 12.9801C45.4978 12.9801 46.0571 12.9801 46.4301 12.9801C46.4301 12.9801 46.4301 13.1655 46.4301 13.351ZM46.803 17.9867C46.6165 16.6887 46.6165 16.3179 46.4301 15.5762C50.1594 15.0199 53.5158 13.5364 56.1263 9.64235C56.4993 10.5695 56.8722 11.3112 57.4316 12.4238C55.0075 15.5761 51.0917 16.6887 46.803 17.9867ZM50.3459 19.2848C50.7188 19.2848 51.2782 19.2848 51.6511 19.2848C51.6511 19.4702 51.6511 19.6556 51.6511 19.6556C51.2782 19.6556 50.7188 19.6556 50.3459 19.6556C50.3459 19.6556 50.3459 19.4702 50.3459 19.2848ZM60.415 44.5033C60.415 43.0199 60.415 41.9073 60.415 39.8676C59.2962 41.5364 58.5504 42.4635 57.4316 43.7616C58.7368 44.1324 59.2962 44.3179 60.415 44.5033ZM58.3639 21.3245C58.3639 20.9536 58.3639 20.3973 58.3639 20.0265C58.5504 20.0265 58.7368 20.0265 58.7368 20.0265C58.7368 20.3973 58.7368 20.9536 58.7368 21.3245C58.7368 21.3245 58.5504 21.3245 58.3639 21.3245ZM64.7038 48.2119C65.2632 48.2119 66.009 48.0265 67.1278 48.0265C66.9413 46.543 66.9414 45.4305 66.7549 43.5762C65.2632 44.6888 64.3308 45.4305 63.3985 46.1722C63.9579 47.0993 64.3308 47.6556 65.4496 48.2119C62.4662 48.2119 60.415 47.841 59.4827 50.4371C60.2286 50.9934 60.9744 51.7351 62.0932 52.6623C63.212 51.1788 63.9579 50.0662 64.7038 48.2119ZM64.3308 23.9205C64.7038 23.5497 65.2632 22.9933 65.6361 22.6225C65.2632 23.1788 64.8902 23.5497 64.3308 23.9205ZM64.7038 51.9205C65.2632 53.0331 65.8225 53.9603 66.1955 54.5166C67.1278 53.5894 67.8737 53.2185 68.9925 52.2914C67.1278 52.1059 66.009 51.9205 64.7038 51.9205ZM69.3654 46.3576C70.6707 45.245 71.9759 44.3179 73.2812 43.2053C73.2812 42.4636 73.0948 41.5364 73.0948 40.2384C70.8572 42.0927 69.9248 44.1325 69.3654 46.3576ZM69.9248 24.6622C72.7218 23.5497 74.4 23.3642 75.5188 22.437C79.2481 19.4702 82.6045 16.1325 86.1474 12.9801C85.9609 12.6093 85.7744 12.4238 85.588 12.053C82.0451 14.0927 78.6887 16.1324 76.0782 17.4305C73.8406 20.0265 72.3489 21.6953 69.9248 24.6622ZM71.0436 64.3444C74.2135 61.7483 76.8241 59.7086 79.2481 57.6688C75.1459 57.1126 75.1459 57.1126 70.6707 60.2649C70.8572 61.1921 70.8571 62.3046 71.0436 64.3444ZM96.403 50.6225C96.0301 50.9934 95.4707 51.5497 95.0977 51.9205C91.1819 51.9205 88.9444 55.0728 86.1474 56.9271C83.7233 56.3708 82.791 58.2251 81.4857 59.7086C79.994 61.5629 78.6887 63.6027 77.3835 65.6424C78.6887 65.6424 80.1805 65.6424 81.8587 65.6424C84.0963 62.4901 89.1308 62.1192 91.3684 58.4106C90.809 57.4835 90.4361 56.7417 90.0632 56.1854C91.3684 54.1457 94.5384 54.5166 94.9113 51.9205C95.4707 51.5497 96.0301 51.1788 96.403 50.6225C98.4542 50.8079 99.7594 50.0662 100.132 48.0265L100.319 48.2119C100.692 47.8411 101.065 47.6556 101.438 47.2848C101.251 47.0994 101.251 47.0993 101.065 46.9139C100.692 47.2848 100.505 47.6556 100.319 48.0265C98.2677 47.8411 96.9624 48.5828 96.403 50.6225ZM82.2316 21.6953C82.2316 21.8808 82.2316 22.0662 82.2316 22.2517C83.5368 22.2517 84.8421 22.2517 86.1474 22.2517C86.1474 22.0662 86.1474 21.8808 86.1474 21.6953C84.8421 21.6953 83.5368 21.6953 82.2316 21.6953ZM86.1474 68.2384C86.1474 67.8675 86.1474 67.4967 86.1474 67.1258C85.4015 67.3112 84.4692 67.4967 83.7233 67.6821C83.7233 67.8676 83.7233 68.2384 83.9098 68.4238C84.6556 68.4238 85.588 68.2384 86.3338 66.1987C86.3338 66.5695 86.3338 66.9404 86.3338 67.3113C87.0797 67.1258 88.012 66.9404 88.7579 66.755C88.7579 66.5696 88.7579 66.1986 88.5714 66.0132C87.8256 66.0132 86.8932 66.1987 86.1474 68.2384ZM84.4692 59.5231C84.4692 59.894 84.4692 60.4503 84.4692 60.8212C84.2827 60.8212 84.0962 60.8212 84.0962 60.8212C84.0962 60.4503 84.0962 59.894 84.0962 59.5231C84.0962 59.5231 84.2827 59.5231 84.4692 59.5231ZM89.3173 58.596C87.6391 58.2251 86.8932 57.8543 86.1474 57.6688C86.7068 57.4834 87.2662 57.1126 88.012 57.1126C88.1985 57.1126 88.385 57.4834 89.3173 58.596ZM90.0632 69.9073L89.8767 69.7218C89.5038 70.0927 89.1308 70.2781 88.7579 70.649C88.9444 70.8344 88.9444 70.8344 89.1308 71.0199C89.5038 70.649 89.6902 70.2781 89.6902 69.7218C89.8767 69.7218 90.0632 69.7218 90.0632 69.9073C90.4361 69.7218 90.809 69.351 91.182 68.9801C90.9955 68.7947 90.9955 68.7947 90.809 68.6093C90.4361 68.9802 90.0632 69.351 90.0632 69.9073ZM105.353 58.2252C107.777 57.298 106.286 55.8146 106.286 53.404C102.556 56.9271 99.3865 59.7086 96.403 62.6755C97.5218 63.2318 98.4541 63.2318 99.0135 62.6755C100.878 61.192 102.556 59.7086 104.235 58.2252C104.421 58.596 104.608 58.9669 104.608 59.3378C104.794 58.9669 104.98 58.596 105.353 58.2252ZM97.7083 31.5232C98.0812 31.894 98.4541 32.0795 98.8271 32.4503C98.6406 32.6358 98.6406 32.6357 98.4541 32.8212C98.0812 32.4503 97.8947 32.0794 97.5218 31.7086C97.5218 31.7086 97.7083 31.5232 97.7083 31.5232ZM101.438 17.9867C101.438 18.1722 101.438 18.3576 101.438 18.3576C101.811 18.3576 102.37 18.3576 102.743 18.3576C102.743 18.1722 102.743 17.9867 102.743 17.9867C102.37 17.9867 101.997 17.9867 101.438 17.9867ZM105.353 58.2252C104.98 58.2252 104.421 58.2252 104.048 58.2252C104.421 57.8543 104.608 57.4834 104.98 57.1126C104.98 57.6689 105.167 58.0397 105.353 58.2252ZM109.083 13.7218C107.405 14.649 106.286 15.2053 105.353 15.7616C105.54 16.5033 105.54 16.8742 105.726 17.4305C106.845 17.4305 107.964 17.4305 109.269 17.4305C109.083 16.1324 109.083 15.2053 109.083 13.7218ZM109.269 55.8145L109.083 55.6292C108.71 56 108.337 56.1854 107.964 56.5563C108.15 56.7417 108.15 56.7417 108.337 56.9271C108.71 56.5563 109.083 56.1854 109.269 55.8145C109.642 55.2582 110.015 54.8874 110.202 54.3311L110.388 54.5166C110.761 54.1457 111.134 53.9603 111.507 53.5894C111.32 53.404 111.32 53.404 111.134 53.2185C110.761 53.5894 110.574 53.9603 110.388 54.3311C110.015 54.8874 109.642 55.2582 109.269 55.8145ZM110.947 23.9205C111.134 23.9205 111.32 23.9205 111.32 23.9205C111.32 23.5497 111.32 22.9933 111.32 22.6225C111.134 22.6225 110.947 22.6225 110.947 22.6225C110.947 23.1788 110.947 23.5497 110.947 23.9205ZM113.931 21.3245C113.744 21.3245 113.558 21.3245 113.558 21.3245C113.558 21.6954 113.558 22.2516 113.558 22.6225C113.744 22.6225 113.931 22.6225 113.931 22.6225C113.931 22.2516 113.931 21.8808 113.931 21.3245Z" fill="white"/>
</svg>
