<svg width="46" height="62" viewBox="0 0 46 62" fill="none" xmlns="http://www.w3.org/2000/svg">
<path d="M17.8589 1.25436C19.2838 0.716785 20.5305 0.358381 21.9554 0C22.1335 2.68786 21.0649 5.01736 20.3524 7.52603C21.243 7.88441 22.3116 8.42195 23.2022 8.78033C23.3803 8.95953 23.7365 8.78033 24.0927 8.78033C24.627 8.06357 24.9832 7.34683 25.5176 6.45088C27.1205 6.0925 28.5454 5.73409 29.9703 7.88438C29.614 9.85548 29.2578 12.3641 28.9016 15.052C30.3265 14.6936 31.217 14.5144 32.6419 14.1561C32.9981 14.3352 33.8886 14.6936 34.7792 15.052C35.4916 17.9191 34.0667 20.2485 33.1762 23.1156C33.5324 24.0115 34.0667 24.9075 34.6011 26.1619C35.1354 24.0116 35.4916 22.2196 35.8478 20.6069C37.2727 19.3526 38.5195 18.4567 39.9443 17.2023C41.7254 16.8439 43.6846 16.4855 46 16.1272C46 17.3815 44.9313 17.7399 44.5751 18.2775C44.2189 18.9942 43.8627 19.711 43.3284 20.7861C43.8627 21.3237 44.397 22.0404 45.1095 22.9364C45.4657 25.2659 43.5065 27.237 43.5065 29.3873C43.5065 32.0751 41.3692 33.6878 41.5473 36.3757C41.5473 38.526 40.3005 40.6763 39.0538 42.6474C39.0538 44.0809 39.0538 45.5145 39.0538 46.948C37.6289 48.3815 36.5603 49.815 36.3822 51.9653C36.3822 53.0405 35.4916 53.9364 34.7792 55.5491C34.7792 55.7283 34.7792 56.8035 34.6011 58.237C33.5324 57.6994 32.82 57.1619 31.9295 56.6243C32.2857 55.3699 32.6419 54.474 32.9981 53.3988C32.82 53.0404 32.4638 52.5029 32.2857 51.9653C32.6419 51.9653 33.1762 51.7861 33.7105 51.6069C33.7105 49.9942 33.7105 48.3815 33.7105 46.7688C33.3543 46.4104 33.1762 46.2312 32.4638 45.5144C32.2857 46.052 32.1076 46.5896 31.9295 47.1271C31.7513 46.9479 31.5732 46.7688 31.3951 46.5896C31.3951 48.2023 31.3951 49.6358 31.3951 51.0694C30.6827 51.7861 30.1484 52.3237 29.614 52.8613C29.614 53.9364 29.614 55.1907 29.614 56.2659C28.9016 56.9826 28.3673 57.5202 28.0111 57.8786C28.1892 58.0578 28.3673 58.237 28.5454 58.5954C28.1892 59.6705 28.0111 60.7457 27.6549 62C26.9424 61.6416 26.23 61.104 25.6957 60.7456C25.5176 59.4913 25.5176 58.4162 25.3394 57.341C24.8051 57.341 24.4489 57.341 24.0927 57.341C23.9146 58.0578 23.7365 58.9537 23.5584 59.8497C22.3116 59.8497 21.0648 59.8497 19.8181 59.8497C19.64 59.6705 19.2838 59.3121 18.9276 58.9537C19.2838 56.8034 19.8181 54.6531 20.3524 52.5029C18.3932 52.5029 18.9276 54.8324 17.5027 55.5491C16.7903 55.5491 15.7216 55.5491 14.8311 55.5491C14.2967 55.0116 14.653 53.2197 12.8719 54.1156C12.8719 54.6532 12.8719 55.3699 12.8719 56.0867C11.6251 56.6242 10.5565 56.9827 9.30971 57.5202C8.59727 56.8035 7.88485 56.2659 6.99431 55.3699C6.8162 56.2659 6.63809 57.1618 6.63809 58.0578C5.56944 58.0578 4.6789 58.0578 3.61025 58.0578C3.43214 57.5202 3.25403 57.1618 2.89782 56.2659C2.5416 56.9826 2.36349 57.5202 1.82917 58.7745C1.47295 58.0578 1.11674 57.6994 0.938628 57.1618C0.76052 56.2659 0.938631 55.5491 0.760523 54.6532C0.582415 53.9364 0.0480849 52.682 0.226193 52.5029C1.47295 51.6069 -0.308129 51.0694 0.0480877 50.5318C0.582412 48.7399 1.11674 46.948 1.82917 45.1561C2.18539 44.2601 2.5416 43.3642 2.71971 42.4682C2.89782 41.2139 2.71971 39.9595 2.71971 38.526C2.18539 38.3468 1.82917 38.3468 1.29485 38.1676C2.18539 34.763 3.25403 31.1792 4.14457 27.7746C4.32268 27.0578 4.50079 26.341 4.32269 25.8035C4.32269 24.9075 3.96647 23.8323 3.96647 22.9364C3.96647 21.8612 4.32269 20.7861 4.32269 19.711C4.50079 17.5607 4.32269 17.5607 5.74755 15.2312C6.28188 12.185 6.63809 9.67628 7.17241 6.80923C7.70674 6.27165 8.41917 5.55489 8.9535 5.01732C10.0221 5.01732 11.0908 5.01732 12.1594 5.01732C11.447 9.1387 10.9127 12.9017 10.2002 16.8439C9.66592 17.0231 9.1316 17.2023 8.59728 17.3815C9.1316 17.9191 9.66593 18.4566 10.0221 18.815C9.84403 20.6069 9.66593 22.2197 9.48783 24.5492C10.7346 22.9364 11.447 21.8613 12.3376 20.7861C12.1594 18.2775 12.6938 15.7688 14.4748 13.6185C15.0092 12.9017 14.653 11.4682 15.1873 10.393C16.0778 7.70518 16.9684 4.47979 17.8589 1.25436ZM3.96647 37.8093C3.96647 37.6301 3.96647 37.2717 3.96647 37.0925C3.43214 37.2717 3.07593 37.2717 2.5416 37.4508C2.5416 37.63 2.5416 37.8093 2.5416 37.8093C2.89782 37.8093 3.43214 37.8093 3.96647 37.8093ZM8.24106 51.9653C8.06295 51.9653 7.70674 51.9653 7.52863 51.9653C7.52863 53.0405 7.70674 54.1156 7.70674 55.1907C7.88485 55.1907 8.06295 55.1907 8.24106 55.1907C8.24106 54.1156 8.24106 53.0405 8.24106 51.9653ZM9.1316 26.1619C8.95349 26.1619 8.59728 26.1619 8.41917 26.1619C8.59728 26.8786 8.59728 27.7746 8.77539 28.4913C8.9535 28.4913 9.1316 28.4913 9.30971 28.4913C9.1316 27.5954 9.1316 26.8786 9.1316 26.1619ZM27.4767 3.04626C26.7643 4.3006 25.5176 4.83814 23.9146 5.19652C23.9146 3.40461 23.9146 1.79191 23.9146 0C24.627 0 25.3394 0 26.0519 0C25.8738 1.79191 28.1892 2.15031 27.4767 3.04626C26.5862 1.97112 26.5862 1.79191 26.4081 1.79191C25.8738 1.79191 25.3395 1.79192 24.627 1.97111C24.627 2.50868 24.627 3.04624 24.8051 3.58381C25.6957 2.86705 26.23 2.50869 27.4767 3.04626ZM28.1892 16.4856C28.1892 17.3815 28.1892 18.0983 28.1892 19.711C28.9016 18.0983 29.2578 17.3815 29.614 16.4856C29.0797 16.4856 28.7235 16.4856 28.1892 16.4856ZM30.5046 37.0925C30.3265 37.0925 30.3265 37.0925 30.1484 37.0925C30.1484 37.4509 30.1484 37.6301 30.1484 37.9885C30.3265 37.9885 30.3265 37.9885 30.5046 37.9885C30.5046 37.8093 30.5046 37.4509 30.5046 37.0925ZM34.7792 43.3642C34.6011 43.3642 34.2449 43.3642 34.0667 43.3642C34.2449 43.9017 34.2449 44.2601 34.423 44.7977C34.6011 44.7977 34.7792 44.7977 34.7792 44.7977C34.7792 44.2601 34.7792 43.9017 34.7792 43.3642ZM39.2319 25.4451C37.9851 30.4624 38.6976 35.4797 34.6011 39.0636C35.4916 39.7803 36.0259 40.3179 36.5603 40.8555C38.8757 38.526 39.0538 38.1676 38.3413 36.5549C41.5473 34.2254 38.6976 30.104 41.013 27.5954C40.6567 27.0578 40.3005 26.6994 39.9443 26.1619C40.4786 25.2659 40.8349 24.3699 41.3692 23.474C41.9035 23.8324 42.0816 24.0115 42.9722 24.7283C42.4378 23.1156 42.0816 22.0404 41.5473 21.1445C41.3692 20.9653 40.8349 20.7861 40.1224 20.6069C39.9443 21.8613 39.9443 23.1156 39.7662 24.1907C39.0538 24.3699 38.6976 24.5492 38.1632 24.5492C38.6976 24.9075 39.0538 25.0867 39.2319 25.4451Z" fill="white"/>
</svg>
