<svg width="295" height="27" viewBox="0 0 295 27" fill="none" xmlns="http://www.w3.org/2000/svg">
<path d="M4.98515 0.0129354C5.48005 0.258272 5.97495 0.380933 6.46986 0.503602C0.902168 14.6105 1.5208 13.2611 5.35632 25.16C4.98514 25.4053 4.49024 25.528 3.87161 25.7733C-1.69609 16.9412 -1.20118 8.47706 4.98515 0.0129354ZM15.1307 2.4663C15.007 3.44765 14.8833 4.30632 14.8833 5.28766C13.8935 5.28766 12.9036 5.28766 11.5426 5.28766C12.1613 3.93831 12.5325 2.95696 13.1511 1.60761C15.007 0.135589 17.4815 -0.355092 20.0798 0.25825C20.8221 0.994261 21.5645 1.7303 22.4306 2.58898C22.4306 4.18367 22.4306 5.90102 22.4306 7.98639C20.451 11.0531 18.3476 14.3651 16.1205 17.6772C16.4917 18.0452 16.8629 18.4132 17.6052 19.1492C18.9662 19.1492 20.5747 19.1492 22.4306 19.1492C21.8119 21.3573 20.3272 21.3572 18.7188 21.3572C17.6052 21.3572 16.4917 19.3945 15.2544 21.3572C14.1409 20.7439 12.9036 20.2532 11.5426 19.5172C14.5121 14.9785 17.3578 10.5624 20.2035 6.14636C19.8323 4.79701 19.4611 3.5703 18.9662 2.09828C17.9764 2.46628 16.7392 2.4663 15.1307 2.4663ZM169.665 0.135611C170.16 0.626285 170.655 1.11694 171.274 1.73029C170.779 2.22096 170.407 2.71163 169.541 3.57031C169.046 2.95697 168.675 2.34363 168.18 1.73029C168.552 1.11694 169.046 0.626285 169.665 0.135611ZM61.0332 5.90101C60.0434 9.8264 59.4248 12.6478 58.9299 14.7332C60.0434 17.0639 60.7858 18.5359 61.6519 20.3759C60.2909 20.3759 59.5485 20.3759 58.435 20.3759C58.0638 20.0079 57.5689 19.5172 56.9503 18.9039C56.9503 16.5732 56.9503 13.9971 56.9503 11.5438C56.9503 10.6851 56.8265 9.8264 56.7028 8.96772C56.4554 7.98637 55.713 6.88237 55.9605 6.14636C56.4554 4.429 57.4452 2.8343 58.5587 0.503602C59.796 2.8343 60.5383 4.67432 61.0332 5.90101ZM118.195 16.9412C118.566 18.0452 119.061 19.1492 119.556 20.4985C121.535 20.4985 123.02 20.4985 124.752 20.4985C124.876 21.1119 124.876 21.6026 125 22.3386C121.907 22.3386 118.937 22.3386 115.473 22.3386C115.102 21.7252 114.483 20.7439 113.617 19.5172C115.597 18.2905 115.72 16.0825 117.947 14.8558C119.556 13.8745 120.051 11.2984 121.535 8.47705C121.535 7.61837 121.535 5.77834 121.535 3.44764C119.556 3.44764 117.453 3.44764 115.349 3.44764C115.225 3.2023 115.102 2.95696 114.978 2.71162C115.72 2.58895 116.463 2.4663 117.205 2.34363C116.958 2.09829 116.71 1.73027 116.463 1.48493C118.814 0.871592 121.164 1.23961 123.763 2.95697C126.856 8.84506 122.402 12.6478 118.195 16.9412ZM152.591 1.23962C153.457 2.22097 154.447 3.44763 155.437 4.55165C154.076 6.14634 153.457 5.28766 152.591 4.55165C150.487 2.71162 150.364 2.8343 147.766 4.797C147.766 6.39169 146.899 8.23171 149.621 9.58106C150.611 9.58106 152.096 9.58106 153.828 9.58106C154.694 10.9304 155.437 12.2798 156.179 13.3838C155.808 15.5918 155.313 17.7999 154.942 20.2532C154.447 20.7439 153.704 21.4799 152.715 22.4613C150.487 22.9519 148.137 22.7066 145.662 20.9893C143.064 15.5918 144.672 9.70374 145.786 3.69299C147.271 1.97563 149.498 0.871615 152.591 1.23962ZM102.11 19.0265C101.121 20.0079 100.378 20.7439 99.6359 21.4799C97.9037 21.4799 96.0478 21.4799 94.1919 21.4799C93.4496 20.6212 92.5835 19.7625 91.5937 18.6585C91.5937 13.9971 91.5937 8.96773 91.5937 3.69299C92.336 3.20232 93.4496 2.4663 95.1817 1.23962C96.2953 1.23962 98.5224 1.23962 100.749 1.23962C101.244 1.73029 101.616 2.09831 102.11 2.58898C102.11 7.98639 102.11 13.3838 102.11 19.0265ZM136.63 19.5172C136.63 17.5545 136.63 15.9598 136.63 14.3651C135.269 13.3838 133.784 12.5251 132.423 11.5438C133.908 10.5624 135.269 9.58107 136.63 8.47705C136.63 6.75969 136.63 5.28766 136.63 3.44764C135.517 3.44764 134.279 3.44764 132.918 3.44764C132.3 4.30632 131.681 5.41033 130.939 6.51435C130.444 6.02368 130.073 5.65569 129.33 4.91967C130.073 3.69299 130.815 2.34363 131.434 1.11694C133.661 1.11694 135.64 1.11694 137.744 1.11694C138.486 2.8343 139.105 4.429 139.847 6.14636C138.362 9.33574 138.115 12.5251 139.847 15.8372C139.352 17.0638 138.981 18.2905 138.239 20.2532C137.867 20.6212 137.001 21.4799 136.135 22.3386C133.661 22.7066 131.434 21.9706 129.578 20.2532C128.34 19.0265 127.474 17.9225 128.464 16.0825C129.083 16.0825 129.701 15.9598 130.691 15.9598C131.929 17.0639 130.691 20.0079 133.29 20.2532C134.403 20.3759 135.517 19.7626 136.63 19.5172ZM93.8208 5.41034C93.8208 9.33573 93.8208 13.7518 93.8208 17.9225C95.3055 19.8852 97.0376 19.3946 99.141 19.1492C99.5122 14.3652 100.007 9.70374 100.378 4.91967C100.007 5.16501 99.6359 5.41035 99.2647 5.53302C98.6461 4.30633 97.9037 3.07962 97.4088 2.09828C96.0478 3.44763 94.9343 4.30632 93.8208 5.41034ZM234.374 5.90101C235.24 7.61837 235.735 8.47705 236.23 9.58106C237.591 9.58106 239.076 9.58106 240.437 9.58106C241.55 10.6851 242.416 11.5438 243.282 12.4025C243.282 14.4878 243.282 16.6959 243.282 18.5359C242.54 19.8852 241.798 20.9892 241.055 22.3386C239.076 22.3386 237.22 22.3386 234.993 22.3386C234.374 21.7252 233.508 20.7439 232.518 19.7626C232.518 16.2052 232.518 12.4025 232.518 8.7224C232.518 5.65569 232.518 5.65567 235.116 2.22095C237.22 2.22095 239.323 2.22095 241.55 2.22095C242.416 3.07963 244.025 3.693 242.664 5.65569C241.179 4.67434 239.818 3.81564 238.21 2.8343C237.343 3.44764 236.725 4.06097 236.106 4.55165C235.611 5.04232 234.993 5.41033 234.374 5.90101ZM69.3229 5.65569C71.9212 15.7145 72.1686 17.4319 66.106 27C65.6111 26.8773 65.1162 26.7547 64.3739 26.5093C66.106 22.7066 68.3331 19.1492 68.9517 14.9785C69.4466 10.6851 67.467 6.75969 66.7247 2.95697C67.467 3.81565 68.3331 4.67434 69.3229 5.65569ZM33.1948 2.95697C34.432 3.57031 35.4219 4.06097 36.4117 4.55165C36.4117 7.37302 36.4117 9.82641 36.4117 12.1571C37.2778 13.1385 38.0201 13.9971 38.6387 14.7332C37.5252 16.6958 36.6591 18.5359 35.6693 20.3759C35.1744 20.3759 34.432 20.3759 33.4422 20.3759C33.3185 19.1492 33.1948 17.7998 32.9473 16.3278C31.0914 16.3278 29.1118 16.3278 27.0085 16.3278C26.2661 13.5065 27.3796 11.5438 28.6169 9.09039C29.9779 7.00503 30.9677 4.91967 33.1948 2.95697ZM204.432 4.67432C204.432 5.65567 204.432 6.51437 204.432 7.49572C203.814 7.49572 203.319 7.49572 202.205 7.49572C202.824 6.26904 203.195 5.28769 203.69 4.42901C203.937 4.55168 204.185 4.55165 204.432 4.67432ZM43.5878 26.7546C43.2166 26.7546 42.9692 26.8773 42.598 26.8773C42.4743 26.7547 42.2268 26.7546 42.2268 26.632C42.2268 20.1305 42.2268 13.6291 42.2268 6.88238C42.3505 6.75971 42.7217 6.39167 43.3404 5.77833C45.5674 7.37302 47.7945 6.75971 50.3928 5.04235C50.5165 6.51437 50.5165 7.25036 50.5165 8.35438C48.7843 8.72238 47.0521 9.09039 45.32 9.58106C45.32 12.6478 45.32 15.3465 45.32 18.0452C46.8047 19.1492 48.042 18.4132 49.403 16.8185C49.403 15.4691 49.403 13.9971 49.403 12.1571C50.3928 12.1571 51.2588 12.1571 52.3724 12.1571C53.1147 14.7331 52.991 17.5545 51.3826 20.1306C50.6402 20.3759 49.8979 20.7439 48.908 21.1119C48.042 20.8666 46.8047 20.6212 45.32 20.2532C44.7013 22.5839 44.2064 24.6693 43.5878 26.7546ZM193.544 8.47705C192.802 9.21306 192.307 9.70374 191.688 10.3171C191.688 11.6664 191.688 13.0158 191.688 14.2425C190.451 15.2238 189.461 16.0825 188.595 16.8185C188.595 14.8558 188.595 12.6478 188.595 10.4398C189.833 9.21307 190.946 7.98639 192.183 6.7597C193.421 6.7597 194.41 6.7597 195.276 6.7597C196.761 8.10905 197.998 9.33574 199.359 10.4398C196.514 12.4025 195.4 8.59972 193.544 8.47705ZM174.614 21.4799C174.614 16.6958 174.614 12.4025 174.614 7.98639C174.614 7.61838 175.356 7.25038 175.728 6.88238C177.336 7.86373 179.068 7.98638 180.8 7.25037C182.656 6.39169 182.78 6.51436 185.007 7.98639C185.007 11.9118 185.007 15.9598 185.007 20.2532C184.389 20.7439 183.646 21.2346 182.038 22.3386C181.914 19.7625 181.914 17.9225 181.914 16.0825C181.914 14.1198 181.914 12.1571 181.914 10.3171C180.058 9.09039 178.945 9.94907 177.584 11.4211C177.584 14.4878 177.584 17.9225 177.584 21.3572C176.965 21.4799 176.47 21.4799 175.975 21.6026C175.728 21.4799 175.357 21.4799 174.614 21.4799ZM280.029 23.6879C278.297 22.3386 277.678 21.8479 276.565 20.9893C277.06 16.8185 277.555 12.4024 278.049 7.61836C279.287 7.8637 280.524 7.98636 282.009 8.2317C282.875 7.00502 284.854 7.25037 285.968 7.86371C287.576 8.84506 288.566 8.96773 290.175 7.98639C291.288 7.25038 293.268 7.25038 294.505 8.59973C294.629 8.7224 294.753 8.84506 295 9.09039C295 13.0158 295 17.0638 295 21.1119C294.505 21.6026 294.01 22.0933 293.515 22.5839C293.02 22.0933 292.525 21.6026 291.907 20.8666C292.402 18.2905 291.041 15.2238 292.773 12.5251C292.402 11.6664 291.907 10.8077 291.288 9.58106C290.175 9.94907 288.937 10.3171 287.453 10.8077C287.453 13.1384 287.453 15.2238 287.453 17.7999C286.092 16.9412 285.226 16.4505 284.36 15.8372C284.36 14.2425 284.36 12.6478 284.36 11.2984C283.617 10.6851 283.122 10.1944 282.38 9.45839C281.638 9.94906 281.019 10.4398 280.029 11.0531C280.029 14.7332 280.029 18.6585 280.029 23.6879ZM171.274 11.7891C171.274 13.5065 171.274 16.6958 171.274 20.0079C170.531 20.6212 169.789 21.1119 169.046 21.7252C167.809 20.9892 167.685 16.4505 168.428 7.37304C169.17 8.7224 169.913 9.82642 171.274 11.7891ZM272.111 7.86371C272.729 8.47705 273.1 8.84507 273.472 9.21307C273.472 13.0158 273.472 16.9412 273.472 21.1119C272.853 21.6026 272.111 22.2159 271.368 22.8293C270.75 22.4613 270.255 22.2159 270.255 22.0933C270.255 18.1679 270.255 14.2425 270.255 10.3171C267.904 9.94907 267.904 9.94906 265.924 11.2984C265.924 14.8558 265.924 18.5359 265.924 22.3386C265.306 22.4612 264.811 22.5839 264.192 22.7066C263.697 18.4132 263.079 14.2425 262.584 9.58106C261.099 9.94907 259.862 10.3171 258.501 10.6851C258.501 14.4878 258.501 17.7999 258.501 20.9893C257.758 21.7253 257.263 22.2159 256.274 23.1973C256.026 17.9225 256.274 13.0158 256.15 7.98639C261.594 7.86372 266.79 7.86371 272.111 7.86371ZM33.3185 12.8931C33.1948 11.4211 33.0711 10.0717 32.9473 8.2317C30.4728 9.45839 29.3593 10.6851 30.3491 12.8931C31.3389 12.8931 32.0812 12.8931 33.3185 12.8931ZM150.735 20.4985C153.333 18.1678 152.962 15.7145 152.838 13.5065C151.106 11.2984 149.374 11.7891 147.642 12.1571C147.642 14.7331 147.642 16.9412 147.642 19.6399C148.879 19.8852 150.116 20.2532 150.735 20.4985ZM241.55 15.5918C240.808 14.1198 240.189 13.0158 239.694 11.7891C238.581 11.7891 237.467 11.7891 236.477 11.7891C235.982 12.2798 235.488 12.7704 234.869 13.3838C234.869 15.1011 234.869 16.8185 234.869 18.9039C235.859 19.7626 236.972 20.7439 238.581 22.0933C239.694 19.7626 240.56 17.9225 241.55 15.5918ZM211.856 21.3572C211.485 21.4799 210.99 21.4799 210.247 21.7252C209.876 19.3945 209.629 17.4318 211.856 16.2052C211.856 17.7998 211.856 19.5172 211.856 21.3572ZM109.41 20.2532C109.287 20.3759 108.915 20.7439 108.049 21.6026C107.926 20.3759 107.802 19.3946 107.678 18.5359C107.926 18.4132 108.173 18.2905 108.42 18.1679C108.668 18.9039 109.039 19.6399 109.41 20.2532ZM204.432 21.3572C203.814 21.3572 203.319 21.3572 202.576 21.3572C202.576 20.3759 202.576 19.3945 202.576 18.2905C203.195 18.2905 203.69 18.2905 204.432 18.2905C204.432 19.3945 204.432 20.3759 204.432 21.3572Z" fill="white"/>
</svg>
