<svg width="146" height="48" viewBox="0 0 146 48" fill="none" xmlns="http://www.w3.org/2000/svg">
<path d="M46.9303 3.377C46.9303 9.00795 46.9303 14.7394 46.9303 20.3704C46.9303 27.4091 46.9303 34.4478 46.9303 41.4864C46.9303 43.0953 46.9303 44.7041 46.9303 46.4135C46.9303 46.7152 47.0302 47.0168 46.9303 47.2179C46.7303 48.2235 44.7307 47.6201 44.0308 47.6201C43.7309 47.6201 43.331 47.6201 43.031 47.6201C37.2322 47.6201 31.5333 47.6201 25.7344 47.6201C18.8358 47.6201 12.0371 47.6201 5.13849 47.6201C3.83875 47.6201 2.43902 47.6201 1.13928 47.6201C0.83934 47.6201 0.539399 47.7207 0.339439 47.6201C-0.0604824 47.5196 0.0394972 47.2179 0.139477 46.8157C0.139477 46.6146 0.139477 46.5141 0.139477 46.313C0.139477 45.7096 0.139477 45.2069 0.139477 44.6036C0.139477 38.5704 0.139477 32.4367 0.139477 26.4035C0.139477 19.4654 0.139477 12.4267 0.139477 5.48861C0.139477 4.38253 0.139477 3.377 0.139477 2.27092C0.139477 1.76816 0.0394972 1.06429 0.139477 0.561529C0.139477 0.360424 0.0394979 0.360427 0.339439 0.159321C0.63938 -0.142336 0.83934 0.0587688 1.13928 0.159321C1.33924 0.159321 1.5392 0.0587665 1.83914 0.0587665C2.0391 0.0587665 2.03911 0.259872 2.23907 0.259872C2.43903 0.259872 2.53901 0.259874 2.73897 0.159321C2.93893 0.159321 3.03891 0.0587665 3.23887 0.0587665C3.33885 0.0587665 3.53881 0.259872 3.63879 0.259872C3.83875 0.259872 3.83875 0.159319 4.03871 0.0587665C4.23867 -0.041786 4.23867 0.159321 4.43863 0.159321C4.73857 0.259874 5.03851 0.259872 5.33845 0.259872C5.63839 0.259872 5.93834 0.159321 6.23828 0.159321C6.43824 0.159321 6.6382 0.259872 6.83816 0.259872C7.638 0.460978 8.6378 0.360425 9.43765 0.259872C10.4374 0.259872 11.3373 0.259872 12.3371 0.259872C20.0356 0.259872 27.734 0.259872 35.4325 0.259872C37.7321 0.259872 40.0316 0.259872 42.3312 0.259872C43.031 0.259872 43.7309 0.259872 44.4307 0.259872C44.9306 0.259872 45.4306 0.159321 45.8305 0.159321C45.9305 0.159321 46.9303 0.259872 46.9303 0.259872C47.1302 0.863188 46.9303 1.76816 46.9303 2.37148C46.9303 2.77369 46.9303 3.07535 46.9303 3.377ZM46.8303 46.2124C46.8303 45.8102 46.7303 45.5085 46.7303 45.1063C46.7303 43.7991 46.9303 42.5925 46.3304 41.3859C46.4304 41.4864 46.6303 41.4864 46.7303 41.587C46.7303 40.4809 46.7303 39.2743 46.7303 38.1682C45.4306 38.3693 45.8305 39.8776 45.9305 40.7826C45.5305 39.9781 45.0306 39.2743 44.6307 38.4699C44.7307 39.1737 44.9307 39.777 45.3306 40.3803C45.5305 40.682 45.8305 40.8831 46.0304 41.1848C46.1304 41.4864 46.0304 41.4864 45.8305 41.587C46.1304 42.0897 46.4304 42.8942 46.5303 43.4975C45.8305 43.0953 45.6305 41.7881 45.3306 41.0842C44.9307 39.8776 44.3308 38.7715 43.7309 37.766C43.231 36.861 42.8311 35.5538 41.8313 35.0511C41.4313 34.85 40.0316 34.9505 40.1316 34.2466C40.6315 34.3472 41.4313 34.7494 41.9312 34.3472C42.3312 34.0455 42.4311 33.04 42.5311 32.5373C42.931 30.7273 42.931 28.9174 42.5311 27.1074C42.2312 25.4986 41.8313 23.7892 40.9314 22.3814C40.5315 21.6776 39.9316 21.0743 39.2318 20.672C38.5319 20.2698 37.7321 20.3704 36.8322 20.3704C37.7321 20.7726 38.5319 21.1748 38.5319 22.2809C38.5319 23.387 38.032 24.3925 37.6321 25.398C36.9322 27.208 35.6325 28.6157 33.6329 29.0179C33.4329 29.0179 33.133 28.9174 32.933 29.0179C32.6331 29.1185 32.5331 29.4201 32.4331 29.6212C32.0332 30.4256 31.4333 31.1295 30.9334 31.8334C29.8336 33.3417 28.8338 34.9505 29.4337 36.9616C29.9336 38.7715 31.2334 40.2798 31.6333 42.0897C30.8334 41.587 30.4335 40.2798 30.0336 39.4754C29.5337 38.2687 29.0338 37.1627 28.9338 35.8555C28.8338 33.2411 31.2334 31.5317 32.2332 29.4201C30.7335 29.4201 29.3337 29.4201 27.834 29.4201C26.3343 29.4201 24.8346 29.4201 23.3349 29.4201C22.835 29.4201 21.7352 29.7218 21.5353 29.0179C21.4353 28.5151 21.7352 27.8113 21.7352 27.3085C21.8352 26.5041 21.7352 25.6997 21.7352 24.8953C21.7352 23.387 21.8352 21.9792 21.8352 20.4709C21.8352 19.8676 21.9352 19.2643 21.7352 18.661C21.5353 18.0577 20.9354 17.8566 20.4355 17.6555C19.0358 16.851 17.936 15.5439 16.9362 14.3372C16.7362 14.1361 14.3367 11.3207 14.8366 11.1195C14.5366 11.019 14.6366 10.5162 14.8366 10.4157C15.1365 10.2146 15.4365 10.4157 15.6364 10.6168C16.2363 11.019 17.0361 11.5218 17.4361 12.1251C17.536 12.2256 17.736 12.5273 17.736 12.7284C17.836 12.9295 17.836 12.9295 17.636 13.0301C17.5361 13.0301 17.4361 13.0301 17.4361 13.0301C17.2361 12.9295 17.4361 12.7284 17.4361 12.6278C17.3361 12.4267 17.2361 12.6278 17.0361 12.5273C16.8362 12.4267 17.0361 12.3262 16.8362 12.1251C16.7362 11.924 16.4363 11.8234 16.2363 11.7229C15.8364 11.5218 15.6364 11.1195 15.1365 11.1195C15.7364 12.1251 16.2363 13.2312 16.9362 14.0356C17.2361 14.4378 17.636 14.84 18.0359 15.2422C18.1359 15.3428 18.4359 15.9461 18.4359 15.9461C18.6358 16.0466 18.6358 15.8455 18.7358 15.8455C18.9358 15.8455 18.8358 15.745 19.1357 15.8455C19.3357 15.9461 19.5357 16.2477 19.7356 16.3483C20.1355 16.6499 20.6354 16.9516 21.0354 17.2533C22.0352 17.8566 23.2349 18.2588 24.4347 18.1582C22.5351 15.9461 19.3357 15.4433 17.736 12.9295C18.6358 12.9295 19.4357 14.0356 20.1355 14.6389C20.4355 14.9405 20.8354 15.4433 21.2353 15.4433C21.8352 15.5439 21.6352 15.1417 21.7352 14.6389C21.7352 13.8345 21.7352 13.0301 21.6352 12.2256C21.5353 11.5218 21.4353 10.6168 21.5353 9.91292C21.6352 9.20905 22.4351 9.3096 23.035 9.3096C23.9348 9.3096 24.7346 9.41016 25.6345 9.41016C28.5339 9.41016 31.3333 9.41016 34.2328 9.41016C34.8326 9.41016 36.0324 9.1085 36.3323 9.91292C36.5323 10.4157 36.4323 11.019 36.4323 11.5218C36.4323 12.0245 36.4323 12.6278 36.4323 13.1306C34.6327 13.1306 32.833 13.1306 31.0334 13.1306C29.6337 13.1306 28.134 12.8289 26.7342 13.1306C26.2343 13.2312 25.9344 13.3317 25.8344 13.8345C25.7344 14.3372 25.8344 14.84 25.7344 15.4433C25.7344 15.8455 25.6345 16.7505 25.9344 17.0522C26.1344 17.1527 26.4343 17.1527 26.6343 17.1527C27.2341 17.1527 27.934 17.1527 28.5339 17.1527C28.7338 17.1527 29.1338 17.2533 29.3337 17.1527C29.7336 17.0522 29.8336 16.6499 30.0336 16.3483C30.3335 15.9461 30.9334 15.8455 31.4333 15.745C32.1332 15.5439 32.7331 15.5439 33.4329 15.4433C34.9326 15.2422 36.3323 14.84 37.6321 14.2367C39.0318 13.6334 40.4315 13.03 42.0312 12.8289C43.5309 12.6278 45.0306 13.0301 46.5303 13.2312C46.5303 13.1306 46.5303 12.9295 46.5303 12.8289C46.5303 10.5162 46.5303 8.30408 46.5303 5.99137C46.5303 4.98584 46.5303 3.87977 46.5303 2.87424C46.5303 2.47203 46.7303 1.36595 46.4304 1.16485C46.0304 0.863189 44.5307 1.06429 44.1308 1.06429C42.5311 1.06429 40.8315 1.06429 39.2318 1.06429C34.2328 1.06429 29.2337 1.06429 24.2347 1.06429C19.6356 1.06429 15.1365 1.06429 10.5374 1.06429C9.43764 1.06429 8.33787 1.06429 7.1381 1.06429C6.53822 1.06429 5.93834 1.06429 5.33845 0.963741C4.73857 0.963741 4.23867 0.863189 3.63879 0.963741C3.43883 0.963741 2.83895 0.963742 2.63898 1.16485C2.43902 1.36595 2.539 1.66761 2.43902 1.96927C2.33904 2.37148 2.33905 2.47203 2.53901 2.77369C2.43903 2.87424 1.93912 2.97479 2.0391 3.1759C1.5392 3.1759 0.83934 2.97479 0.339439 3.07534C-0.160463 3.27645 0.0394987 3.98032 0.0394987 4.48308C0.0394987 4.78474 0.0394987 5.0864 0.0394987 5.2875C0.0394987 6.19247 0.0394987 7.198 0.0394987 8.10297C0.0394987 15.9461 0.0394987 23.7892 0.0394987 31.6323C0.0394987 35.3527 0.0394987 38.9726 0.0394987 42.6931C0.0394987 43.6986 0.0394987 44.8047 0.0394987 45.8102C0.0394987 46.313 -0.160464 47.7207 0.439418 47.8212L0.83934 47.6201C1.13928 47.5196 1.23926 47.6201 1.5392 47.7207C2.33905 47.9218 3.23887 47.9218 4.03871 47.9218C5.73838 47.9218 7.43804 47.8212 9.13771 47.8212C11.6372 47.8212 14.0367 47.8212 16.5362 47.8212C22.3351 47.8212 28.134 48.2234 33.9328 47.8212C33.033 46.1118 31.5333 44.503 31.2334 42.492C32.0332 42.6931 32.3331 44.0002 32.6331 44.7041C33.033 45.6091 33.5329 46.8157 34.3327 47.5196C34.8326 48.0223 36.0324 47.8212 36.7323 47.8212C38.032 47.8212 39.3318 47.8212 40.5315 47.8212C41.6313 47.8212 42.8311 47.8212 43.9308 47.8212C44.1308 47.8212 44.3308 47.8212 44.5307 47.8212C44.9306 47.8212 46.1304 48.1229 46.4304 47.8212C46.9303 47.2179 46.8303 46.5141 46.8303 46.2124ZM1.23926 2.06982C2.33905 2.27092 1.73916 1.2654 1.63918 0.561529C1.0393 0.662082 0.13948 1.86871 1.23926 2.06982ZM3.63879 30.9284C3.03891 30.9284 2.539 31.029 1.93912 30.9284C1.73916 30.9284 1.23926 30.7273 1.63918 30.5262C1.93912 30.3251 2.53901 30.5262 2.73897 30.5262C3.13889 30.5262 3.63879 30.3251 3.63879 30.9284ZM16.1363 29.3196C14.7366 29.3196 13.4369 29.219 12.1371 29.1185C11.6372 29.1185 11.1373 29.1185 10.6374 29.1185C10.0375 29.1185 9.53763 29.3196 8.93774 29.219C8.43784 29.1185 7.93794 28.9174 7.33806 29.0179C7.1381 29.0179 6.83816 29.219 6.73818 29.219C6.53822 29.219 6.33825 29.1185 6.03831 29.1185C5.33845 29.3196 4.33865 29.6212 3.63879 29.3196C2.93893 29.0179 3.23887 27.8113 3.23887 27.208C3.23887 26.2024 3.23887 25.1969 3.23887 24.1914C3.23887 19.6665 3.23887 15.1417 3.13889 10.7173C3.13889 10.0135 3.03891 8.70629 4.13869 9.00795C4.73857 9.20905 5.23847 8.90739 5.93833 9.00795C6.6382 9.00795 7.33806 9.1085 8.03792 9.1085C9.6376 9.20905 11.1373 9.1085 12.737 9.1085C13.4369 9.1085 14.2367 9.1085 14.9366 9.1085C15.3365 9.1085 15.9364 9.00795 15.9364 9.51071C15.1365 9.30961 14.8366 9.81237 14.1367 10.114C14.9366 10.8179 13.7368 10.5162 13.5368 10.7173C13.4369 10.8179 13.2369 11.3207 13.1369 11.5218C13.1369 11.6223 13.0369 11.6223 13.0369 11.7229C13.0369 11.8234 13.2369 11.8234 13.2369 11.924C13.2369 12.1251 13.0369 12.1251 12.837 12.1251C13.0369 12.4267 13.8368 12.3262 14.1367 12.3262C14.6366 12.3262 15.1365 12.2256 15.5364 12.3262C15.5364 12.7284 12.1371 12.7284 11.7372 12.7284C11.1373 12.7284 10.5374 12.6278 9.93755 12.6278C9.53763 12.6278 9.13771 12.8289 8.73779 12.7284C8.33786 12.6278 8.03793 12.4267 7.638 12.7284C7.33806 13.0301 7.33806 13.4323 7.43804 13.7339C7.43804 14.5383 7.33806 15.5439 7.43804 16.3483C7.43804 16.851 7.73798 16.7505 8.13791 16.7505C8.73779 16.7505 9.33766 16.7505 10.0375 16.7505C10.6374 16.7505 11.2373 16.7505 11.8372 16.851C12.1371 16.9516 12.2371 16.9516 12.4371 16.9516C12.737 16.9516 12.937 16.851 13.2369 16.851C14.5366 16.851 15.7364 16.851 17.0361 16.851C16.8362 17.4544 16.9362 17.8566 16.8362 18.4599C16.8362 18.7615 16.7362 19.0632 16.7362 19.3649C16.7362 19.566 16.9362 19.8676 16.8362 20.0687C16.7362 20.9737 14.3367 20.5715 13.8368 20.5715C12.537 20.5715 11.3373 20.5715 10.0375 20.5715C9.53762 20.5715 9.03772 20.4709 8.43784 20.4709C8.23788 20.4709 7.638 20.3704 7.43804 20.5715C7.23808 20.7726 7.33806 21.3759 7.33806 21.577C7.33806 22.482 7.33806 23.2864 7.33806 24.1914C7.33806 24.5936 7.33806 25.0964 7.638 25.2975C8.03793 25.5991 8.83776 25.2975 9.33767 25.398C10.1375 25.398 10.9374 25.398 11.7372 25.398C12.1371 25.398 12.4371 25.4986 12.837 25.4986C13.1369 25.4986 13.4369 25.398 13.7368 25.398C14.0367 25.398 14.3367 25.4986 14.6366 25.4986C15.0365 25.4986 15.4365 25.398 15.7364 25.398C16.0363 25.398 16.3363 25.398 16.7362 25.4986C17.1361 25.5991 17.3361 25.4986 17.736 25.2975C17.736 26.1019 17.736 26.9063 17.736 27.6102C17.736 27.9118 18.036 29.0179 17.736 29.219C17.3361 29.6212 16.5363 29.3196 16.1363 29.3196ZM13.7368 11.019C13.6368 11.1196 13.5368 11.2201 13.5368 11.2201C13.6368 11.1196 13.7368 11.1196 13.7368 11.019ZM16.9362 31.2301C17.2361 32.2356 17.636 33.1406 17.936 34.1461C17.2361 34.2466 17.2361 34.4478 17.2361 35.0511C17.2361 35.6544 17.1361 35.7549 16.5362 35.8555C16.5362 35.4533 16.7362 34.7494 16.4363 34.4478C16.2363 34.1461 16.1363 34.2466 15.7364 34.2466C16.2363 33.1406 16.5362 32.135 16.9362 31.2301ZM18.4359 30.8279C18.036 31.4312 16.4363 30.9284 15.9364 30.8279C16.2363 30.5262 16.7362 30.7273 17.2361 30.6267C17.636 30.6267 17.936 30.4256 18.4359 30.8279ZM16.3363 11.4212C17.0361 12.1251 17.736 13.0301 18.4359 13.7339C19.0358 14.2367 19.7356 14.6389 20.1355 15.3428C18.4359 14.4378 17.3361 12.9295 15.9364 11.7229C16.1363 11.6223 16.2363 11.5218 16.3363 11.4212ZM20.0356 16.6499C20.0356 16.7505 20.2355 16.7505 20.2355 16.6499H20.0356ZM22.0352 30.9284C21.8352 31.1295 21.1353 30.9284 20.8354 30.9284C20.4355 30.9284 20.0356 31.1295 20.0356 30.5262C20.5355 30.5262 21.1353 30.4256 21.6352 30.5262C21.8352 30.5262 22.4351 30.6268 22.0352 30.9284ZM20.7354 17.1527C20.8354 17.2533 20.8354 17.2533 20.9354 17.3538C20.9354 17.1527 20.8354 17.0522 20.7354 17.1527ZM26.7342 19.8676C26.9342 19.2643 27.0342 19.0632 26.3343 18.7615C26.0344 18.5604 25.5345 18.3593 25.1346 18.1582C24.7346 18.0577 24.9346 18.1582 24.6347 18.3593C24.3347 18.5604 23.7348 18.3593 23.3349 18.2588C22.5351 18.0577 21.7352 17.756 20.9354 17.3538C22.635 18.661 24.8346 18.8621 26.7342 19.8676ZM26.9342 23.4875C27.0342 23.2864 27.3341 23.0853 27.5341 22.8842C27.934 22.482 28.3339 21.9792 28.7338 21.577C28.134 21.4765 26.8342 20.0687 26.2343 20.672C25.8344 21.0743 26.2343 21.8787 26.1344 22.3814C25.9344 23.387 26.1344 24.3925 26.0344 25.2975C26.5343 25.2975 26.8342 25.398 26.9342 24.8953C27.0342 24.493 26.8342 23.8897 26.9342 23.4875ZM31.9332 21.3759C31.8332 20.9737 31.4333 20.672 31.2334 20.3704C30.9334 20.0687 30.7335 19.7671 30.3335 19.566C29.8336 19.3649 29.3337 19.2643 28.8338 19.2643C28.4339 19.2643 27.834 19.0632 27.4341 19.4654C26.8342 19.9682 27.5341 20.4709 27.934 20.8732C29.0338 21.8787 30.4335 22.5825 31.8332 23.1859C31.4333 22.482 32.0332 21.9792 31.9332 21.3759ZM27.934 26.5041C28.9338 27.7107 30.4335 28.2135 31.9332 28.5151C32.2332 28.6157 32.4331 28.6157 32.6331 28.4146C32.833 28.2135 32.933 27.8113 33.033 27.5096C33.133 27.0069 33.233 26.6046 33.3329 26.1019C33.3329 25.8002 33.4329 25.5991 33.4329 25.2975C33.4329 25.1969 33.4329 25.0964 33.4329 24.9958C33.5329 24.7947 33.4329 24.6941 33.233 24.6941C32.833 24.3925 32.3331 24.1914 31.9332 23.9903C31.5333 23.6886 31.1334 23.387 30.6335 23.0853C30.2336 22.7836 29.7336 22.3814 29.3337 22.1803C29.0338 22.0798 28.9338 22.1803 28.6339 22.3814C27.1342 23.2864 26.8342 25.1969 27.934 26.5041ZM32.933 36.5594C32.7331 36.9616 31.9332 37.2632 31.5333 37.4643C31.0334 37.766 30.5335 37.9671 29.9336 38.1682C30.3335 37.1627 32.0332 36.7605 32.933 36.5594ZM46.6303 13.4323C46.4304 13.0301 45.9305 13.1306 45.5305 13.0301C44.6307 12.9295 43.8309 12.5273 42.931 12.5273C42.0312 12.5273 41.1314 12.8289 40.3316 13.1306C38.8319 13.6334 37.4321 14.5383 35.8324 14.9406C34.6327 15.2422 33.3329 15.2422 32.1332 15.5439C31.5333 15.6444 31.0334 15.9461 30.5335 16.3483C30.2335 16.6499 30.1336 16.7505 30.1336 17.0522C30.1336 17.3538 30.2336 17.756 30.2336 18.0577C30.5335 19.4654 31.3333 20.3704 32.5331 21.1748C33.133 21.577 33.5329 21.7781 34.2328 21.3759C34.8326 21.0743 35.2326 20.4709 35.9324 20.2698C37.3321 19.6665 38.9318 19.8676 40.1316 20.8732C40.6315 21.2754 40.9314 21.9792 41.5313 22.2809C41.7313 22.3814 42.0312 22.3814 42.3312 22.482C42.5311 22.482 43.131 22.5825 43.231 22.482C43.5309 22.1803 42.8311 21.0743 42.7311 20.8732C42.4311 20.3704 42.2312 19.7671 42.4311 19.1638C42.931 20.1693 43.131 21.3759 43.8309 22.3814C44.5307 23.2864 45.6305 23.7892 46.6303 24.2919C46.6303 21.577 46.6303 18.8621 46.6303 16.1472C46.7303 15.1417 46.9303 14.1361 46.6303 13.4323ZM33.133 28.6157C34.0328 28.7163 35.6325 28.1129 35.9324 27.1074C34.9326 27.208 33.4329 27.4091 33.133 28.6157ZM36.9322 26.1019C37.2322 25.2975 37.6321 24.5936 37.8321 23.7892C38.232 22.7836 38.4319 21.2754 36.9322 21.2754C36.3323 21.2754 35.7325 21.4765 35.2326 21.6776C34.8326 21.7781 34.1328 22.5825 33.9328 22.9848C33.6329 23.6886 33.7329 24.493 33.6329 25.1969C33.5329 26.0013 33.4329 26.8058 33.4329 27.6102C33.8328 27.4091 34.2328 27.1074 34.7327 26.9063C34.9326 26.9063 35.9324 26.8058 35.9324 27.0069C36.5323 27.0069 36.7323 26.6046 36.9322 26.1019ZM36.8322 20.8732C36.2324 20.8732 35.3325 20.7726 35.0326 21.4765C35.1326 21.4765 35.1326 21.3759 35.2326 21.3759C35.7325 21.0743 36.3323 20.9737 36.8322 20.8732ZM46.8303 35.4533C46.8303 35.3527 46.8303 35.0511 46.8303 34.9505C46.7303 34.85 46.4304 34.7494 46.3304 34.7494C46.0304 34.6489 45.7305 34.3472 45.4306 34.3472C45.0306 34.2466 44.5307 34.3472 44.0308 34.3472C43.4309 34.3472 42.6311 34.3472 42.1312 34.7494C42.6311 35.1516 43.131 35.6544 43.4309 36.2577C43.7309 36.7605 43.8309 37.5649 44.3308 37.9671C44.8307 38.3693 46.5303 38.0676 46.7303 37.3638C47.0302 36.7605 46.8303 36.0566 46.8303 35.4533ZM42.6311 34.2466C43.331 34.1461 44.0308 34.2466 44.7307 33.945C45.4306 33.7439 45.6305 33.1406 45.8305 32.4367C45.9305 32.0345 46.0304 31.6323 46.1304 31.3306C46.2304 31.1295 46.6303 30.9284 46.7303 30.6267C46.8303 30.4256 46.7303 29.9229 46.7303 29.6212C46.1304 29.7218 45.4306 30.0234 44.8307 30.124C44.3308 30.124 43.6309 29.7218 43.131 30.0234C43.8309 31.3306 42.5311 32.9395 42.6311 34.2466ZM44.3308 23.2864C44.1308 23.0853 43.231 22.0798 43.031 22.7836C43.5309 22.9848 43.9308 23.1859 44.3308 23.2864ZM43.131 28.2135C43.131 28.8168 43.031 29.219 43.5309 29.6212C44.1308 30.0234 45.4305 29.9229 46.0304 29.4201C45.0306 29.0179 44.0308 28.6157 43.131 28.2135ZM45.7305 24.6941V24.493C45.6305 24.493 45.6305 24.6941 45.7305 24.6941ZM45.7305 33.4422C45.7305 33.945 46.5303 34.85 46.7303 34.0455C46.8303 33.6433 46.7303 32.9395 46.7303 32.4367C46.7303 32.135 46.9303 31.1295 46.5303 31.1295C46.3304 31.9339 45.7305 32.6378 45.7305 33.4422ZM96.6205 3.47756C96.6205 6.89634 96.6205 10.3151 96.6205 13.7339C96.6205 19.3649 96.6205 25.0964 96.6205 30.7273C96.6205 34.5483 96.6205 38.3693 96.6205 42.0897C96.6205 42.3914 96.6205 42.6931 96.6205 42.8942C96.6205 43.6986 96.7204 44.4025 96.7204 45.2069C96.7204 45.9107 96.8204 46.6146 96.6205 47.3185C96.4205 48.0223 95.5207 47.8212 95.0208 47.7207C93.821 47.6201 92.7212 47.6201 91.5215 47.6201C88.722 47.6201 85.8226 47.6201 83.0231 47.6201C80.1237 47.6201 77.2243 47.6201 74.3249 47.6201C73.9249 47.6201 73.525 47.6201 73.2251 47.7207C73.1251 47.7207 73.0251 47.8212 72.9251 47.8212C72.8252 47.8212 72.6252 47.7207 72.5252 47.7207C71.9253 47.6201 71.3255 47.6201 70.8256 47.6201C69.4258 47.6201 68.0261 47.6201 66.6264 47.6201C65.9265 47.6201 65.2267 47.6201 64.5268 47.8212C63.8269 47.9218 63.227 47.8212 62.5272 47.8212C61.1275 47.7207 59.8277 47.7207 58.428 47.7207C55.6285 47.8212 52.9291 47.5196 50.1296 47.9218C50.1296 46.7152 50.1296 45.408 50.0296 44.2013C50.0296 43.6986 50.0296 43.1958 50.1296 42.6931C50.2296 42.0897 50.2296 41.587 50.1296 40.9837C50.0296 40.4809 50.1296 40.0787 50.0296 39.5759C49.9297 39.0732 49.8297 38.4699 49.9297 37.9671C49.9297 36.9616 49.7297 35.7549 50.3296 34.9505C50.3296 36.7605 50.3296 38.5704 50.3296 40.3803C50.3296 41.8886 50.3296 43.4975 50.3296 45.0058C50.3296 45.6091 50.2296 46.2124 50.3296 46.8157C50.4296 47.5196 51.2294 47.3185 51.8293 47.3185C54.1288 47.419 56.3284 47.419 58.628 47.419C63.327 47.419 67.9261 47.419 72.6252 47.419C77.2243 47.419 81.8234 47.5196 86.4225 47.3185C85.1227 44.6036 83.0231 41.3859 85.7226 38.7715C85.8226 39.6765 84.8228 40.5815 84.6228 41.3859C84.4229 42.1903 84.4229 43.598 85.5227 43.598C85.0228 44.503 86.1225 45.8102 86.5225 46.5141C86.7224 46.8157 86.7224 47.0168 87.1223 47.2179C87.7222 47.419 88.4221 47.3185 89.022 47.3185C91.0216 47.3185 92.9212 47.3185 94.9208 47.3185C95.3207 47.3185 96.0206 47.419 96.3205 47.1174C96.5205 46.9163 96.5205 46.5141 96.6205 46.2124C96.6205 45.6091 96.6205 45.0058 96.6205 44.4025C96.6205 43.3969 96.7204 42.2908 96.5205 41.3859C96.4205 41.1848 96.4205 41.1848 96.4205 40.9837C96.4205 40.8831 96.6205 40.8831 96.5205 40.7826C96.5205 40.682 96.2206 40.4809 96.1206 40.3803C95.7207 40.1792 95.3207 40.0787 94.9208 39.8776C95.4207 39.777 96.0206 40.0787 96.5205 39.8776C96.1206 39.3748 96.5205 38.3693 96.4205 37.766C96.3205 37.3638 96.3205 37.2632 96.4205 36.861C96.5205 36.4588 96.3205 36.1571 96.4205 35.7549C96.4205 35.5538 96.5205 35.4533 96.5205 35.2522C96.5205 35.0511 96.2205 34.7494 96.2205 34.5483C96.2205 34.4478 96.4205 34.3472 96.4205 34.2466C96.4205 34.1461 96.3205 33.8444 96.3205 33.6433C96.3205 33.1406 96.4205 32.6378 96.4205 32.2356C96.4205 31.8334 96.3205 31.4312 96.3205 30.9284C96.3205 30.124 96.6205 29.3196 96.5205 28.5151C96.4205 27.9118 96.0206 27.4091 95.6207 27.1074C94.8208 26.5041 93.2211 25.5991 92.3213 26.5041C93.0212 26.5041 93.5211 27.0069 93.821 27.6102C94.121 28.314 93.821 29.0179 93.6211 29.8223C93.2211 31.029 92.9212 32.4367 91.9214 33.4422C91.3215 34.0455 90.5217 34.4477 89.7218 34.7494C89.1219 34.9505 88.3221 34.85 87.9222 35.4533C87.1223 36.5594 86.8224 37.9671 85.7226 38.8721C85.7226 38.2687 86.2225 37.766 86.5225 37.2632C86.9224 36.5594 87.4223 35.7549 87.8222 35.0511C86.5225 34.6489 85.1227 34.5483 84.0229 33.6433C83.0231 32.8389 82.5233 31.7328 82.6232 30.5262C82.2233 30.6268 81.6234 31.029 81.4235 30.4256C81.9234 30.4256 82.4233 30.4256 82.8232 30.124C83.2231 29.8223 83.4231 29.219 83.623 28.7162C83.723 28.4146 84.0229 28.0124 83.723 27.7107C83.3231 27.3085 82.6232 27.208 82.4233 26.6046C82.4233 27.208 82.6232 28.0124 82.3233 28.6157C82.1233 29.0179 81.5234 29.0179 81.1235 29.0179C80.4237 29.1185 79.7238 29.0179 78.924 28.9174C78.4241 28.9174 78.4241 28.9174 78.4241 28.4146C78.524 27.7107 78.4241 27.0069 78.4241 26.303C78.4241 26.1019 78.4241 25.8002 78.4241 25.5991C78.4241 24.9958 78.2241 24.9958 77.7242 24.7947C76.5244 24.1914 75.3247 23.5881 74.3249 22.6831C74.1249 22.482 73.725 21.8787 73.425 22.0798C73.1251 22.2809 73.2251 23.5881 73.2251 23.9903C73.2251 24.7947 73.2251 25.6997 73.2251 26.5041C73.2251 26.9063 73.2251 27.3085 73.2251 27.8113C73.2251 28.1129 73.3251 28.5151 73.2251 28.8168C73.3251 29.0179 73.2251 29.1185 73.0251 29.0179C72.9251 29.0179 72.8252 29.0179 72.8252 29.0179C72.6252 29.0179 72.4252 29.0179 72.2253 29.0179C71.8254 29.0179 71.5254 29.0179 71.1255 29.0179C70.7256 29.0179 69.8257 29.1185 69.5258 28.8168C69.4258 28.7162 69.3259 28.314 69.4258 28.2135C69.4258 28.1129 69.6258 28.0124 69.6258 27.9118C69.6258 27.8113 69.5258 27.6102 69.4258 27.5096C69.3259 27.3085 69.3258 27.208 69.3258 27.0069C69.3258 26.9063 69.5258 26.8057 69.5258 26.8057C69.5258 26.7052 69.3258 26.6046 69.3258 26.4035C69.3258 26.2024 69.3258 26.0013 69.3258 25.8002C69.3258 25.398 69.4258 24.9958 69.3258 24.5936C69.3258 24.2919 69.2259 23.9903 69.2259 23.6886C69.2259 23.5881 69.4258 23.387 69.4258 23.2864L69.2259 22.9848C69.1259 22.6831 69.2259 22.482 69.4258 22.3814C68.9259 21.8787 69.2259 20.9737 69.2259 20.3704C69.2259 19.566 69.2259 18.7615 69.2259 17.9571C69.2259 17.0522 69.0259 16.1472 69.1259 15.3428C69.1259 14.9405 69.2259 14.84 69.6258 14.84C69.9257 14.84 70.3257 14.84 70.6256 14.84C71.3255 14.84 71.9253 14.84 72.6252 14.84C71.9253 15.2422 71.0255 15.0411 70.2257 15.0411C70.3256 15.4433 70.2257 15.9461 70.4256 16.3483C70.6256 16.6499 71.0255 16.851 71.3255 16.9516C71.6254 17.1527 72.0253 17.3538 72.2253 17.5549C72.3253 17.6555 72.3253 17.8566 72.5252 17.9571C72.7252 18.0577 72.9251 18.1582 73.1251 18.2588C73.3251 18.3593 73.425 18.4599 73.525 18.661C73.625 18.661 73.625 18.661 73.725 18.661C73.725 18.7615 73.725 18.8621 73.725 18.9627C73.9249 19.3649 74.5248 19.7671 74.9248 20.0687C75.9246 20.7726 77.0243 21.4765 78.0241 22.1803C78.2241 21.1748 78.0241 20.0687 78.1241 18.9627C79.0239 19.8676 80.4237 19.9682 81.5234 20.3704C81.5234 19.566 81.5234 18.8621 81.6234 18.0577C81.6234 18.3593 81.5235 18.7615 81.9234 18.4599C81.6234 20.5715 81.9234 22.6831 81.9234 24.8953C83.0232 24.6942 84.1229 25.2975 85.2227 25.398C84.5228 24.1914 84.4229 22.482 85.7226 21.6776C86.8224 20.9737 88.4221 20.9737 89.7218 20.672C91.0216 20.2698 92.3213 19.7671 93.6211 19.3649C94.4209 19.1638 95.7206 18.8621 96.0206 17.9571C96.2205 17.2533 96.0206 16.3483 96.0206 15.5439C96.0206 14.84 96.0206 14.1361 96.0206 13.3317C96.0206 11.8234 96.1206 10.2146 95.9206 8.60574C95.7207 7.198 95.7206 5.79027 95.7206 4.38253C95.7206 3.57811 95.7206 2.77369 95.7206 1.86872C95.7206 1.46651 95.9206 0.662085 95.5207 0.360427C94.9208 -0.041783 93.6211 0.360427 93.0212 0.360427C89.9218 0.46098 86.7224 0.360427 83.623 0.360427C80.3237 0.360427 77.1243 0.360427 73.825 0.360427C72.1253 0.360427 70.5256 0.360427 68.8259 0.360427C68.0261 0.360427 67.2263 0.360427 66.4264 0.360427C65.7266 0.360427 64.9267 0.259875 64.2269 0.360427C63.8269 0.46098 63.8269 0.561531 63.427 0.460978C63.1271 0.360426 62.8271 0.360425 62.5272 0.259872C61.8273 0.15932 61.1275 0.15932 60.4276 0.259872C58.9279 0.360425 57.5282 0.360427 56.0285 0.360427C55.1286 0.360427 54.3288 0.360427 53.429 0.360427C53.0291 0.360427 52.4292 0.360426 52.0292 0.460978C51.2294 0.762636 51.6293 2.06982 51.6293 2.67314C51.4294 2.67314 50.0296 2.77369 49.8297 2.57258C49.8297 2.67313 49.6297 2.97479 49.5297 3.07534C49.4298 3.377 49.5297 3.77921 49.5297 4.08087C49.5297 4.88529 49.5297 5.68971 49.5297 6.49413C49.5297 7.49966 49.5297 8.50518 49.5297 9.61126C49.5297 10.5162 49.7297 11.4212 49.8297 12.2256C49.8297 13.1306 49.5297 13.935 49.5297 14.7394C49.5297 15.5439 49.7297 16.4488 49.7297 17.2533C49.9297 21.4765 49.7297 25.6997 49.7297 29.8223C49.7297 30.3251 49.9297 34.2466 49.5297 34.1461C48.8299 33.945 49.2298 31.4312 49.3298 31.029C49.6297 27.9118 49.3298 24.7947 49.3298 21.7781C49.3298 15.5439 49.3298 9.41016 49.3298 3.1759C49.3298 2.87424 49.3298 2.57258 49.3298 2.37148C49.3298 1.76816 49.1298 1.06429 49.4298 0.561529C49.6297 0.159319 50.1296 0.159321 50.5295 0.159321C51.3294 0.159321 52.1292 0.259872 52.9291 0.259872C55.2286 0.259872 57.6281 0.259872 59.9277 0.259872C67.8261 0.259872 75.6246 0.259872 83.523 0.259872C86.3225 0.259872 89.1219 0.259872 92.0214 0.259872C92.5213 0.259872 93.1212 0.259872 93.6211 0.259872C94.3209 0.259872 95.0208 0.0587673 95.6207 0.259872C96.6205 0.662083 96.0206 2.37148 96.0206 3.1759C96.6205 3.377 96.6205 3.377 96.6205 3.47756ZM50.9295 1.06429C51.2294 0.96374 51.4294 0.963743 51.7293 0.86319C50.8295 0.360427 50.5296 0.762635 50.6295 1.76816C50.8295 1.66761 51.0295 1.56706 51.1294 1.4665C51.4294 2.06982 50.9295 1.86871 50.5295 1.96927C50.8295 2.37148 51.4294 2.57258 51.6293 1.96927C51.8293 1.56706 51.2294 1.36595 50.9295 1.06429ZM52.5292 30.2245C52.9291 30.3251 53.129 30.124 53.229 30.6267C52.9291 30.6267 52.6291 30.5262 52.3292 30.5262C52.2292 30.5262 52.0293 30.6267 51.9293 30.6267C51.8293 30.5262 51.8293 30.5262 51.7293 30.5262C51.4294 30.5262 51.2294 30.4256 50.9295 30.2245C51.5293 30.2245 52.0292 30.2245 52.5292 30.2245ZM56.7283 12.7284C56.4284 13.2312 56.6283 14.1361 56.6283 14.6389C56.6283 15.1417 56.5284 16.2477 56.8283 16.6499C57.2282 17.0522 58.328 16.7505 59.0279 16.7505C61.1275 16.7505 63.1271 16.7505 65.2267 16.7505C65.4266 16.7505 65.9265 16.6499 66.0265 16.7505C66.1265 16.851 66.1265 17.2533 66.1265 17.4544C66.2265 18.0577 66.6264 19.9682 65.7266 20.1693C64.8267 20.3704 63.7269 20.0687 62.8271 20.0687C62.0273 20.0687 61.1275 20.0687 60.3276 20.0687C59.7277 20.0687 59.0279 20.0687 58.428 20.0687C58.0281 20.0687 57.5282 19.9682 57.2282 20.0687C56.6283 20.2698 56.9283 21.1748 56.8283 21.577C56.8283 22.7836 56.7283 24.0908 56.7283 25.2975C58.7279 25.2975 60.8275 25.2975 62.9271 25.2975C63.227 25.2975 63.527 25.2975 63.8269 25.2975C64.8267 25.2975 66.2265 24.9958 67.1263 25.398C67.4262 25.4986 67.5262 25.5991 67.5262 25.9008C67.5262 26.2024 67.4262 26.2024 67.3262 26.5041C67.3262 26.7052 67.4262 26.7052 67.5262 26.9063C67.5262 27.1074 67.6262 27.208 67.6262 27.4091C67.7262 28.314 67.4262 28.8168 66.5264 28.9174C65.2267 29.0179 63.9269 28.9174 62.6272 28.9174C61.3274 28.9174 60.1277 28.9174 58.8279 28.9174C58.0281 28.9174 57.1282 28.9174 56.3284 28.9174C55.8285 28.9174 55.4286 29.0179 54.9287 29.0179C54.4288 29.0179 53.9289 28.9174 53.429 28.9174C53.129 28.9174 52.8291 29.1185 52.8291 28.6157C52.8291 28.5151 52.8291 28.4146 52.9291 28.314C53.0291 26.6046 52.9291 24.8953 52.9291 23.1859C52.9291 20.5715 52.9291 17.9571 52.9291 15.2422C52.9291 13.8345 52.9291 12.4267 52.8291 11.019C52.8291 10.5162 52.5292 9.51071 52.8291 9.1085C53.129 8.70629 54.1288 8.9074 54.5288 8.9074C55.4286 9.00795 56.2284 8.9074 57.1283 8.9074C58.228 8.9074 59.3278 9.20905 60.4276 9.1085C60.6276 9.1085 61.0275 9.00795 61.2274 9.00795C61.4274 9.00795 61.5274 9.1085 61.7273 9.1085C61.8273 9.1085 61.8273 9.00795 61.9273 9.00795C62.1273 9.00795 62.1273 9.20905 62.2272 9.20905C62.4272 9.20905 62.8271 9.00795 63.0271 9.00795C63.9269 9.00795 64.7268 9.1085 65.6266 9.1085C66.1265 9.1085 67.2263 8.60574 67.3262 9.20905C67.4262 9.71182 67.2263 10.2146 67.2263 10.7173C67.2263 11.019 67.2263 11.3207 67.2263 11.6223C67.2263 11.8234 67.3262 12.3262 67.2263 12.5273V12.6278C67.1263 12.7284 66.6264 12.6278 66.5264 12.7284C66.0265 12.8289 65.4266 12.7284 64.9267 12.7284C64.4268 12.7284 63.9269 12.6278 63.427 12.6278C62.9271 12.5273 62.4272 12.7284 61.9273 12.6278C61.4274 12.6278 61.0275 12.4267 60.5276 12.5273C60.3276 12.5273 60.1277 12.6278 59.9277 12.6278C59.7277 12.6278 59.6278 12.4267 59.4278 12.4267C58.9279 12.3262 58.328 12.5273 57.9281 12.5273C57.4282 12.4267 57.0283 12.3262 56.7283 12.7284ZM70.2257 30.5262H65.4266C66.9263 30.0234 68.726 30.2245 70.2257 30.5262ZM69.6258 34.5483C69.5258 35.1516 69.8257 35.5538 69.0259 35.5538C69.0259 35.1516 69.2259 34.5483 69.0259 34.1461C68.8259 33.7439 68.426 33.7439 68.426 33.1406C68.426 32.3361 69.1259 31.5317 69.3258 30.7273C69.7258 31.6323 70.0257 32.6378 70.4256 33.5428C69.8258 33.8444 69.6258 34.0455 69.6258 34.5483ZM77.0243 23.2864C77.7242 23.6886 79.0239 24.6941 79.8238 23.7892C78.2241 22.5825 76.5244 21.577 74.9248 20.2698C73.425 19.0632 72.0253 17.6555 70.4256 16.5494C70.7256 17.6555 71.4254 18.5604 72.0253 19.4654C72.3253 19.9682 73.3251 21.7781 74.1249 21.1748C74.8248 22.1803 75.9245 22.6831 77.0243 23.2864ZM76.0245 22.0798C75.9245 22.2809 75.7246 21.9792 75.8246 21.9792C74.9247 21.8787 73.9249 20.8732 73.3251 20.2698C72.6252 19.566 71.6254 18.661 71.3255 17.6555C72.2253 18.3593 72.9251 19.2643 73.725 20.0687C74.1249 20.4709 74.5248 20.7726 74.9248 21.0743C75.3247 21.2754 75.8246 21.577 76.0245 22.0798ZM73.725 17.3538C73.625 17.5549 73.425 17.2533 73.525 17.2533C73.3251 17.2533 73.1251 17.2533 73.0251 17.0522C72.9251 16.9516 72.9251 16.9516 72.8252 16.851C72.7252 16.7505 72.8252 16.6499 72.9251 16.6499C72.9251 16.4488 73.0251 16.5494 72.9251 16.3483C72.9251 16.3483 72.6252 16.1472 72.6252 16.0466C72.4252 16.1472 72.2253 15.745 72.4252 15.6444C72.7252 15.4433 72.7252 15.9461 72.6252 16.0466C73.0251 15.745 72.4252 14.9405 72.9251 14.6389C73.3251 14.4378 73.3251 15.0411 73.3251 15.3428C73.3251 15.5439 73.3251 15.745 73.3251 15.9461C73.3251 16.0466 73.3251 16.0466 73.3251 16.1472C73.3251 16.2477 73.525 16.2477 73.525 16.3483C73.525 16.4488 73.425 16.6499 73.525 16.851C73.525 16.9516 73.525 17.0522 73.525 17.1527C73.525 17.3538 73.625 17.1527 73.725 17.3538ZM75.6246 22.9848C75.5246 22.9848 75.3247 22.5825 75.2247 22.6831C75.2247 22.7836 75.5246 23.0853 75.6246 22.9848ZM76.3245 23.387C76.2245 23.387 76.0245 22.9848 75.9246 23.0853C75.9246 23.1859 76.2245 23.4875 76.3245 23.387ZM76.5244 23.5881C76.6244 23.6886 76.6244 23.6886 76.7244 23.6886C76.8244 23.6886 76.6244 23.4875 76.5244 23.5881ZM82.5232 25.4986C82.0233 25.0964 81.5235 24.7947 80.9236 24.493C80.5236 24.1914 80.3237 23.9903 79.9238 24.3925C79.6238 24.5936 79.6238 24.6941 79.2239 24.6941C78.924 24.5936 78.624 24.5936 78.3241 24.493C77.8242 24.2919 77.2243 23.9903 76.7244 23.8897C77.4242 24.3925 78.2241 24.5936 79.0239 24.8953C79.4239 24.9958 79.8238 24.9958 80.2237 25.1969C80.6236 25.2975 80.9236 25.6997 81.3235 25.8002C82.0233 25.9008 82.0233 25.9008 82.5232 25.4986ZM81.6234 17.9571C82.0233 17.3538 81.6234 16.5494 81.2235 16.0466C81.0235 15.745 80.7236 15.4433 80.4237 15.1417C80.1237 14.84 79.6238 14.7394 79.2239 14.5383C79.8238 14.2367 80.0237 14.7394 80.5236 14.9406C80.9236 15.1417 81.2235 15.5439 81.5234 15.8455C81.8234 16.3483 82.6232 17.8566 81.6234 17.9571ZM83.723 27.3085C84.8228 27.9118 85.7226 28.6157 86.8224 29.3196C86.9224 28.9174 87.1223 28.5151 87.2223 28.1129C87.2223 28.0124 87.4223 27.7107 87.4223 27.5096C87.4223 27.3085 87.3223 27.3085 87.1223 27.1074C86.6224 26.7052 86.1225 26.303 85.5227 26.0013C84.8228 25.6997 83.2231 24.9958 82.6232 25.8002C82.2233 26.6046 83.2231 27.0069 83.723 27.3085ZM88.4221 32.0345C88.4221 31.6323 88.6221 31.1295 88.4221 30.8279C88.2221 30.5262 87.8222 30.3251 87.5223 30.124C86.7224 29.7218 85.9226 29.1185 85.2227 28.6157C85.0227 28.5151 84.8228 28.314 84.6228 28.2135C84.3229 28.1129 84.4229 28.1129 84.1229 28.4146C83.823 28.8168 83.623 29.219 83.4231 29.6212C83.0232 30.4256 82.8232 31.3306 83.1231 32.135C83.623 33.4422 85.3227 34.0455 86.5225 34.3472C88.1221 34.7494 88.3221 33.2411 88.4221 32.0345ZM96.4205 27.4091C96.3205 27.208 96.2205 27.0069 96.2205 26.7052C96.2205 26.5041 96.3205 26.5041 96.3205 26.303C96.3205 26.1019 96.2205 25.9008 96.2205 25.6997C96.1206 25.0964 96.2205 24.3925 96.2205 23.7892C96.3205 22.1803 96.1206 20.672 96.1206 19.0632C93.721 19.7671 91.4215 20.7726 88.922 21.3759C88.0222 21.577 86.8224 21.577 86.1225 22.1803C85.3227 22.7836 85.3227 23.8897 85.6226 24.6941C86.0226 25.6997 86.9224 26.4035 87.7222 27.0069C88.0222 27.208 88.4221 27.5096 88.822 27.3085C89.2219 27.208 89.3219 26.8058 89.6219 26.6046C89.8218 26.4035 89.9218 26.5041 90.2217 26.5041C90.5217 26.5041 90.8216 26.4035 91.1216 26.303C91.6215 26.1019 92.3213 25.8002 92.8212 25.8002C94.2209 25.8002 95.5207 26.5041 96.4205 27.4091ZM88.5221 39.4754C88.622 39.4754 88.722 39.3748 88.822 39.2743C89.022 39.1737 89.2219 39.0732 89.4219 39.0732C89.5219 39.0732 90.1218 38.8721 90.1218 39.0732C90.1218 39.3748 89.3219 39.4754 89.122 39.4754C88.922 39.4754 88.722 39.5759 88.622 39.5759C88.622 39.5759 88.5221 39.6765 88.4221 39.6765C88.1222 39.6765 88.5221 39.4754 88.5221 39.4754ZM90.3217 27.5096C90.1218 27.6102 89.4219 27.9118 89.2219 28.1129C89.1219 28.314 89.2219 28.9174 89.122 29.219C89.022 29.9229 88.822 30.7273 88.822 31.4312C88.722 32.0345 88.822 32.8389 88.4221 33.3417C88.922 33.1406 89.4219 32.8389 90.0218 32.8389C90.5217 32.7384 91.0216 32.9395 91.4215 32.8389C92.1214 32.7384 92.4213 31.8334 92.6213 31.2301C92.8212 30.5262 93.1212 29.7218 93.2211 28.9174C93.4211 28.1129 93.2211 27.4091 92.3213 27.208C91.6215 27.1074 90.9216 27.208 90.3217 27.5096ZM91.2215 33.1406C90.1217 33.04 89.1219 33.3417 88.5221 34.3472C89.4219 34.7494 90.6216 33.6433 91.2215 33.1406ZM89.5219 27.4091C89.7218 27.0069 89.6219 27.3085 89.9218 27.208C90.0218 27.1074 90.1218 27.208 90.1218 27.0069C90.1218 27.0069 89.4219 27.3085 89.5219 27.4091ZM92.1214 26.5041C91.9214 26.5041 91.1216 26.7052 90.5217 26.9063C91.0216 27.0069 91.6215 27.0069 92.1214 26.5041ZM145.711 7.39911C145.711 12.7284 145.711 18.0577 145.711 23.387C145.711 23.9903 145.711 24.5936 145.711 25.2975C145.711 25.5991 145.711 26.0013 145.711 26.303C145.711 27.0069 145.711 27.8113 145.711 28.5151C145.711 29.1185 145.811 29.7218 145.811 30.3251C145.811 36.1571 145.711 41.8886 145.711 47.7207C145.511 47.7207 145.311 47.7207 145.011 47.7207C140.612 47.7207 136.213 47.7207 131.814 47.7207C125.315 47.7207 118.716 47.7207 112.217 47.7207C108.118 47.7207 104.119 47.7207 100.02 47.7207C99.9198 47.7207 99.8198 47.7207 99.7199 47.7207C99.6199 47.7207 99.4199 47.8212 99.3199 47.8212C99.12 47.7207 99.12 47.7207 99.12 47.5196C99.12 47.419 99.22 47.3185 99.22 47.2179C99.22 47.1174 99.12 46.9163 99.12 46.8157C99.02 46.1118 99.22 45.408 99.22 44.6036C99.22 42.9947 99.22 41.3859 99.22 39.6765C99.22 33.5428 99.22 27.3085 99.22 21.1748C99.22 15.8455 99.22 10.4157 99.22 5.0864C99.22 3.87976 99.12 2.67313 99.12 1.4665C99.12 1.2654 99.02 0.662084 99.22 0.460978C99.4199 0.259873 99.9198 0.360427 100.12 0.360427C100.62 0.360427 101.12 0.460978 101.719 0.460978C102.119 0.460978 102.419 0.460978 102.819 0.460978C107.818 0.460978 112.917 0.460978 117.916 0.460978C124.115 0.460978 130.214 0.460978 136.413 0.460978C137.912 0.460978 139.512 0.460978 141.012 0.460978C141.712 0.460978 142.511 0.360427 143.211 0.360427C143.911 0.360427 145.111 0.159319 145.711 0.561529C146.211 0.96374 145.911 2.17037 145.911 2.67314C145.711 4.18142 145.711 5.79027 145.711 7.39911ZM145.511 45.408C145.511 41.9892 145.511 38.5704 145.511 35.1516C145.511 29.5207 145.511 23.9903 145.511 18.3593C145.511 13.935 145.511 9.51071 145.511 5.0864C145.511 4.38253 145.511 3.57811 145.511 2.87424C145.511 2.06982 145.911 0.662084 144.711 0.460978C144.311 0.460978 144.011 0.460978 143.611 0.460978C143.311 0.460978 143.011 0.460978 142.711 0.460978C138.712 0.460978 134.713 0.460978 130.714 0.460978C125.115 0.460978 119.516 0.460978 113.917 0.460978C110.518 0.460978 107.018 0.460978 103.619 0.460978C103.019 0.460978 102.419 0.259873 101.919 0.460978C101.22 0.662084 101.42 1.36595 101.42 1.96927C101.42 2.06982 101.52 2.37148 101.42 2.47203C101.32 2.57258 101.42 2.47203 101.22 2.57258C101.02 2.67313 100.42 2.57258 100.12 2.57258C99.9198 2.57258 99.6199 2.47203 99.4199 2.67314C99.22 2.87424 99.22 3.67866 99.22 3.98032C99.22 4.58363 99.3199 5.18695 99.3199 5.79026C99.3199 6.19247 99.3199 6.59468 99.3199 7.09745C99.3199 12.0245 99.3199 16.9516 99.3199 21.7781C99.3199 25.2975 99.3199 28.9174 99.3199 32.4367C99.7199 32.4367 100.92 32.135 101.32 32.5373C101.619 32.9395 100.82 32.8389 100.62 32.9395C100.32 32.9395 99.5199 32.7384 99.4199 32.9395C99.22 33.1406 99.4199 33.7439 99.4199 33.945C99.4199 34.0455 99.4199 34.2466 99.4199 34.3472C99.4199 38.2687 99.4199 42.2908 99.4199 46.2124C99.4199 47.1174 99.9198 47.1174 100.72 47.2179C101.32 47.2179 101.819 47.2179 102.419 47.2179C102.719 47.2179 103.019 47.2179 103.219 47.2179C104.619 47.2179 106.019 47.2179 107.518 47.2179C112.417 47.2179 117.216 47.2179 122.115 47.2179C126.815 47.2179 131.514 47.2179 136.213 47.2179C137.412 47.2179 138.612 47.2179 139.812 47.2179C140.212 47.2179 140.712 47.2179 141.112 47.2179C142.311 47.3185 143.411 47.419 144.611 47.2179C144.711 47.2179 145.511 47.2179 145.611 47.1174C145.611 47.1174 145.611 46.7152 145.611 46.6146C145.611 46.4135 145.511 45.9107 145.511 45.408ZM99.6199 1.56706C99.6199 2.06982 99.8198 1.96927 100.12 2.27092C100.12 2.17037 100.42 2.37148 100.52 2.27092C100.72 2.17037 100.82 1.96927 100.82 1.76816C100.92 1.2654 100.42 1.16484 100.02 1.06429C100.12 0.762634 100.82 0.86319 101.12 0.86319C100.82 0.662085 100.52 0.460977 100.12 0.561529C99.8198 0.863187 99.6199 1.16484 99.6199 1.56706ZM113.517 31.029C109.318 31.029 105.019 31.029 100.82 31.029C100.82 27.7107 100.82 24.493 100.82 21.1748C100.82 19.2643 100.82 17.4544 100.82 15.5439C100.82 15.2422 100.82 14.84 100.82 14.5383C100.82 13.935 100.62 13.3317 100.72 12.7284C100.92 11.8234 101.819 11.924 102.519 12.0245C103.119 12.0245 103.619 12.0245 104.219 12.0245C104.719 12.0245 105.219 12.1251 105.719 12.1251C106.219 12.1251 106.818 12.0245 107.318 12.0245C107.918 12.0245 108.518 12.1251 109.218 12.1251C109.318 12.1251 109.518 12.1251 109.618 12.1251C109.718 12.1251 109.818 12.3262 109.918 12.3262C110.118 12.3262 110.318 12.1251 110.518 12.1251C110.818 12.1251 111.018 12.1251 111.318 12.2256C111.418 12.2256 111.418 12.3262 111.518 12.3262C111.618 12.3262 111.717 12.2256 111.817 12.2256C112.017 12.2256 112.117 12.2256 112.217 12.2256C112.417 12.2256 112.717 12.1251 112.917 12.1251C113.517 12.0245 114.117 12.2256 114.717 12.1251C114.717 12.9295 114.717 13.7339 114.717 14.6389C114.717 14.84 114.817 15.3428 114.717 15.5439C114.317 15.9461 113.117 15.6444 112.717 15.6444C111.118 15.6444 109.518 15.6444 107.918 15.6444C107.118 15.6444 106.319 15.5439 105.519 15.5439C105.119 15.5439 104.919 15.5439 104.819 15.9461C104.719 16.5494 104.819 17.2533 104.919 17.8566C104.919 18.3593 104.919 18.7615 104.919 19.2643C104.919 19.9682 105.219 19.8676 105.919 19.8676C106.519 19.8676 107.118 19.8676 107.718 19.8676C108.818 19.8676 110.018 19.8676 111.118 19.8676C111.418 19.8676 111.618 19.8676 111.917 19.8676C112.417 19.8676 113.517 19.566 113.917 20.0687C113.917 20.0687 113.917 21.1748 114.017 21.0743C113.917 21.0743 113.917 21.6776 113.917 21.577C113.917 21.9792 114.217 22.5825 113.717 22.7836C113.417 22.8842 113.017 22.7836 112.717 22.7836C112.217 22.7836 111.717 22.7836 111.118 22.7836C109.018 22.7836 107.018 22.7836 104.919 22.7836C104.919 23.5881 104.919 24.493 104.919 25.2975C104.919 25.9008 104.519 27.6102 105.019 27.9118C105.319 28.1129 106.219 28.0124 106.619 28.0124C107.118 28.0124 107.518 27.9118 108.018 27.9118C108.518 27.9118 109.118 28.0124 109.618 28.1129C110.718 28.2135 111.717 28.2135 112.817 28.2135C113.417 28.2135 114.517 27.8113 114.917 28.314C115.117 28.6157 115.017 29.1185 115.017 29.4201C115.017 29.8223 115.117 30.2245 115.117 30.6267C115.017 31.4312 114.317 31.029 113.517 31.029ZM113.417 32.6378C114.817 32.6378 116.217 32.6378 117.616 32.6378C117.616 32.8389 117.616 32.9395 117.516 33.1406C117.216 32.9395 116.717 32.8389 116.417 32.9395C116.317 32.9395 116.317 33.1406 116.117 33.1406C116.017 33.1406 115.817 32.9395 115.817 32.8389C115.617 33.2411 115.317 32.9395 114.917 32.9395C114.417 32.9395 113.917 33.04 113.417 33.04C113.517 32.9395 113.517 32.7384 113.417 32.6378ZM128.414 30.9284C127.814 30.9284 127.214 30.9284 126.515 30.9284C126.315 30.9284 126.015 30.9284 125.815 30.9284C125.415 30.9284 125.415 30.7273 125.415 30.3251C125.315 29.6212 125.415 28.9174 125.415 28.2135C125.415 27.4091 125.415 26.5041 125.415 25.6997C125.415 24.3925 125.715 22.8842 125.315 21.577C124.915 20.4709 123.915 19.7671 122.715 20.1693C121.416 20.5715 120.716 21.6776 120.616 22.9848C120.516 24.3925 120.616 25.9008 120.616 27.3085C120.616 28.1129 120.616 28.8168 120.616 29.5207C120.616 29.8223 120.716 30.5262 120.616 30.7273C120.416 30.9284 119.716 30.9284 119.516 30.9284C118.816 30.9284 118.116 31.029 117.416 30.8279C116.916 30.7273 117.016 30.4256 117.016 29.9229C117.016 27.208 117.016 24.5936 117.016 21.8787C117.016 20.8732 117.016 19.8676 117.016 18.8621C117.016 18.4599 116.916 17.8566 117.116 17.5549C117.316 17.3538 117.516 17.2533 117.816 17.2533C118.016 17.2533 118.116 17.3538 118.216 17.3538C118.416 17.3538 118.516 17.3538 118.616 17.2533C119.016 17.1527 119.916 16.9516 120.316 17.2533C120.816 17.5549 120.816 18.2588 120.516 18.661C121.316 18.1582 122.015 17.5549 122.915 17.2533C123.815 16.9516 124.715 16.9516 125.615 17.0522C127.314 17.2533 128.814 18.3593 129.114 20.1693C129.214 21.1748 129.214 22.1803 129.214 23.0853C129.214 24.2919 129.214 25.398 129.214 26.6046C129.214 27.7107 129.214 28.7162 129.214 29.8223C129.214 30.5262 129.214 30.9284 128.414 30.9284ZM129.614 32.8389C129.414 32.7384 129.214 32.9395 129.014 32.9395C128.714 33.04 128.814 32.9395 128.514 32.9395C128.214 32.8389 128.214 32.8389 127.914 33.1406C127.914 32.5372 128.214 32.5373 128.714 32.5373C129.114 32.5373 129.914 32.4367 130.114 32.9395C130.214 33.04 130.214 33.8444 129.914 33.8444C129.814 33.7439 129.914 32.9395 129.614 32.8389ZM132.513 36.4588C131.914 36.4588 129.614 36.0566 130.214 37.3638C130.114 37.3638 129.914 37.4643 129.814 37.4643C129.814 37.0621 129.614 36.2577 130.114 36.0566C130.414 35.956 131.014 36.0566 131.414 36.0566C131.714 36.0566 132.113 36.0566 132.413 36.0566C132.513 36.0566 133.113 36.0566 133.113 36.2577C133.313 36.5594 132.713 36.4588 132.513 36.4588ZM137.512 35.4533C135.513 35.4533 133.313 34.85 132.013 33.04C131.714 32.6378 130.914 31.2301 131.714 31.1295C132.013 31.1295 132.413 31.2301 132.813 31.3306C133.313 31.3306 133.713 31.3306 134.213 31.3306C134.513 31.3306 135.013 31.2301 135.313 31.3306C135.513 31.4312 135.513 31.6323 135.613 31.8334C135.813 32.135 136.113 32.3361 136.413 32.5373C137.112 32.8389 137.912 32.9395 138.612 32.7384C140.512 32.2356 140.712 30.6268 140.712 28.9174C139.712 29.5207 138.912 30.2245 137.612 30.4256C136.413 30.5262 135.313 30.4256 134.313 29.9229C130.914 28.2135 130.014 23.9903 131.314 20.672C132.013 18.9626 133.413 17.4544 135.213 17.0522C137.112 16.5494 139.012 17.2533 140.612 18.1582C140.712 17.4544 140.812 17.4544 141.512 17.3538C142.211 17.2533 142.911 17.3538 143.611 17.3538C144.411 17.3538 144.611 17.6555 144.511 18.4599C144.411 19.4654 144.411 20.3704 144.311 21.3759C144.311 23.4875 144.311 25.5991 144.311 27.7107C144.311 28.7162 144.511 29.7218 144.411 30.7273C144.311 31.5317 143.911 32.2356 143.511 32.9395C142.311 34.9505 139.812 35.4533 137.512 35.4533ZM140.012 26.0013C141.112 24.1914 141.112 20.4709 138.612 19.8676C136.413 19.3649 134.813 20.8732 134.513 22.9848C134.313 24.7947 134.813 26.4035 136.713 27.1074C137.912 27.6102 139.212 27.1074 140.012 26.0013ZM145.011 36.0566C145.511 36.5594 144.211 36.4588 143.911 36.4588C143.311 36.4588 142.711 36.4588 142.112 36.4588C142.211 36.1571 141.912 36.1571 141.712 36.1571C141.912 35.8555 143.011 35.956 143.311 35.956C143.711 35.956 144.711 35.8555 145.011 36.0566Z" fill="white"/>
</svg>
