<svg width="65" height="39" viewBox="0 0 65 39" fill="none" xmlns="http://www.w3.org/2000/svg">
<path d="M0 34.1377C0 33.7325 0 33.226 0 32.8208C0.100775 32.8208 0.201538 32.8208 0.302313 32.8208C0.403088 33.226 0.403101 33.7325 0.503876 34.1377C0.302326 34.1377 0.100775 34.1377 0 34.1377ZM1.31007 27.5533C1.10851 27.8572 0.907001 28.3636 0.403125 29.3766C0.403125 28.3636 0.403125 27.7559 0.403125 27.2494C0.403125 21.1715 0.403125 15.0935 0.403125 8.9143C0.403125 7.29353 0.201563 5.57145 1.20931 3.95067C1.61242 6.28054 1.2093 8.6104 1.51163 11.3455C1.91473 9.72469 2.21705 8.61041 2.51938 7.39482C3.22481 8.00262 3.52713 8.50912 3.02326 9.5221C2.51938 10.5351 2.21707 11.6494 2.21707 12.8649C2.21707 13.8779 1.91472 14.7896 1.81394 15.8026C1.71317 16.7143 1.7132 17.626 1.41088 18.5377C1.00778 19.8546 1.31007 21.4753 1.31007 22.8935C1.31007 23.7039 1.51163 24.413 1.00775 25.2234C0.705426 25.6286 1.10851 26.439 1.31007 27.5533ZM1.00775 11.852C0.906977 13.1688 0.907001 13.1689 1.41088 13.0676C1.41088 12.9663 1.31008 12.5611 1.00775 11.852ZM4.13182 24.9195C3.93027 24.9195 3.72867 24.9195 3.32557 24.9195C3.52712 23.4 3.32559 21.9818 3.72869 20.4624C4.1318 18.8416 3.82945 17.1195 3.82945 15.3974C3.82945 14.587 4.13181 13.6753 3.42638 12.8649C3.22483 12.6624 3.22483 11.9533 3.42638 11.7507C4.03103 11.0416 3.82946 10.1299 4.03101 9.31949C4.33333 11.0416 4.43415 21.4753 4.13182 24.9195ZM4.23257 25.7299C4.23257 26.7429 4.23257 27.2494 4.23257 27.8571C4.03102 27.9584 3.82949 27.9584 3.62794 27.9584C3.12407 27.452 3.22482 27.0468 4.23257 25.7299ZM4.6357 1.11429C4.6357 1.72208 4.6357 2.32989 4.6357 2.93769C4.53492 2.93769 4.4341 2.93769 4.33332 2.93769C4.33332 2.32989 4.23257 1.72209 4.23257 1.2156C4.43412 1.1143 4.53492 1.11429 4.6357 1.11429ZM5.64345 5.06494C5.64345 7.09091 5.64345 9.21821 5.64345 11.5481C4.33337 9.826 4.83722 8.10392 4.73645 6.48314C4.73645 5.97665 5.0388 5.47015 5.13957 4.96366C5.34112 4.96366 5.54267 4.96364 5.64345 5.06494ZM6.24807 33.0234C5.94575 32.7195 5.84495 32.7195 5.84495 32.6182C5.94572 29.6805 5.44185 26.7429 5.34107 23.8052C5.2403 22.2857 5.64341 20.7663 6.04651 19.1455C6.14729 19.4494 6.24807 19.7533 6.24807 20.0572C6.44962 23.4 6.5504 26.7429 6.75195 30.0857C6.85273 31.2 6.1473 31.9091 6.24807 33.0234ZM5.34107 13.6753C5.34107 13.2701 5.34107 12.7636 5.34107 12.3585C5.44185 12.3585 5.54264 12.3585 5.54264 12.3585C5.64341 12.7636 5.64342 13.1688 5.7442 13.6753C5.64342 13.6753 5.44185 13.6753 5.34107 13.6753ZM5.64345 14.1818C5.64345 15.1948 5.64345 16.1065 5.64345 17.1195C5.54267 17.1195 5.44189 17.1195 5.44189 17.1195C5.44189 16.1065 5.44189 15.1948 5.44189 14.1818C5.44189 14.1818 5.54267 14.1818 5.64345 14.1818ZM5.84495 18.639C5.84495 18.3351 5.84495 18.0312 5.84495 17.626C5.94572 17.626 6.04651 17.626 6.04651 17.626C6.04651 17.9299 6.04651 18.2338 6.04651 18.639C6.04651 18.639 5.94572 18.639 5.84495 18.639ZM6.14732 32.8208C6.6512 32.8208 6.75194 32.8208 7.05426 32.8208C7.35659 33.8338 7.0543 34.9481 7.15508 36.0623C6.95353 36.1636 6.65115 36.1637 6.34882 36.265C6.0465 35.1507 6.34887 33.9351 6.14732 32.8208ZM9.37208 33.3273C9.27131 33.0234 9.06979 32.8208 8.96902 32.5169C8.66669 28.9714 9.67442 25.426 9.06977 21.4753C8.66667 21.5766 8.26359 21.7792 7.96126 21.8805C7.45739 21.1714 7.96128 20.9688 8.6667 20.9688C8.6667 20.2598 8.6667 19.5507 8.6667 18.9429C8.96903 18.639 9.17054 18.4364 9.57364 18.0312C9.77519 18.3351 9.97674 18.5377 10.0775 18.8416C10.1783 19.3481 10.1783 19.7532 10.1783 20.2597C10.1783 20.8675 10.3798 21.6779 10.0775 21.8805C9.27132 22.4883 10.4806 22.6909 10.2791 23.2987C10.0775 23.8052 10.2791 24.413 10.1783 25.0208C10.0776 26.439 9.77523 27.8572 9.67446 29.174C9.57368 30.4909 9.67446 31.9091 9.67446 33.226C9.57368 33.226 9.47286 33.3273 9.37208 33.3273ZM8.06202 18.2338C8.06202 18.9429 8.06202 19.7533 8.06202 20.665C7.25581 19.7533 7.96124 18.9429 8.06202 18.2338ZM8.26358 17.0182C8.26358 14.3844 8.26358 11.6494 8.26358 9.01561C8.46513 8.81301 8.66668 8.61041 8.76745 8.50912C9.06978 8.71171 9.37212 8.91429 9.97677 9.21819C9.37212 9.31949 9.17053 9.4208 8.8682 9.4208C8.76743 9.5221 8.6667 9.72469 8.6667 9.82599C8.76748 10.4338 9.06977 11.0416 9.06977 11.5481C9.06977 12.0546 8.6667 12.6623 8.6667 13.2701C8.56593 14.587 8.6667 15.8026 8.6667 17.1195C8.56593 17.1195 8.36435 17.1195 8.26358 17.0182ZM9.67446 7.80001C9.27135 7.80001 9.06978 7.80001 8.76745 7.80001C8.1628 6.28053 9.47288 4.96364 9.27133 3.54545C9.87598 4.96364 9.47291 6.38183 9.67446 7.80001ZM10.9845 35.6572C10.6822 35.6572 10.4807 35.6572 10.1783 35.6572C10.1783 35.0494 10.1783 34.4416 10.1783 33.8338C10.4807 33.8338 10.6822 33.8338 10.9845 33.8338C10.9845 34.4416 10.9845 35.0494 10.9845 35.6572ZM15.0155 15.2961C14.6124 14.9922 14.5116 14.8909 14.3101 14.6883C14.2093 14.7896 14.1085 14.8909 14.1085 14.9922C14.1085 18.9429 14.1085 22.7922 14.1085 26.9455C13.8062 27.1481 13.4031 27.3507 13 27.6546C13.2016 28.0598 13.3023 28.2624 13.4031 28.5662C12.7984 29.5792 13.2016 30.7948 13.1008 32.1117C13.6047 32.4156 14.0078 32.7195 14.7132 33.1247C14.2093 33.1247 13.8062 33.1247 13.3023 33.1247C13.3023 34.3403 13.3023 35.3532 13.3023 36.4675C13.2016 36.4675 13.1008 36.5688 13 36.5688C12.7985 36.1636 12.5969 35.7585 12.2946 35.252C12.093 34.0364 12.6977 32.5169 11.7907 31.2C11.6899 30.9974 11.6899 30.4909 11.7907 30.2883C12.6977 28.6676 11.9923 26.8442 12.2946 25.0208C12.4961 24.9195 12.7985 24.8182 13.2016 24.7169C12.4962 23.7039 11.9923 22.5896 12.2946 21.0701C12.4961 20.9688 12.8992 20.6649 13.3023 20.4624C12.7985 15.4987 14.0078 10.7377 13.7055 5.97665C13.7055 5.87535 13.8062 5.87534 13.907 5.77404C14.3101 7.09092 15.0155 8.30649 15.1163 9.62338C15.1163 11.5481 15.0155 13.3714 15.0155 15.2961ZM12.3953 0C12.3953 0.506494 12.3953 1.01301 12.3953 1.41821C12.2946 1.41821 12.1938 1.41821 12.1938 1.41821C12.1938 0.911713 12.1938 0.405195 12.1938 0C12.2946 0 12.2946 0 12.3953 0ZM62.6822 12.7636C63.6899 13.1688 63.186 14.0805 62.9845 14.4857C62.4806 15.3974 62.5814 16.2078 62.8837 17.1195C63.0853 17.7273 63.3876 18.7403 63.0853 19.1455C62.3799 20.2598 62.8837 21.374 62.3799 22.9948C62.4806 23.1974 62.6822 23.0961 62.6822 23.0961C62.6822 22.8935 62.5814 22.5896 62.4806 22.387C62.3798 22.6909 62.2791 22.9948 62.3799 22.9948C62.8837 22.5896 63.1861 22.6909 63.5892 22.8935C63.9923 22.6909 64.3953 22.4883 65 22.2857C65 22.8935 65 23.1974 65 23.6026C64.4961 23.8052 63.7907 23.9065 63.4884 24.3117C62.9845 25.0208 62.2791 24.6156 61.7752 25.0208C61.876 25.2234 62.0775 25.5273 62.2791 25.8312C62.0775 26.1351 61.9767 26.439 61.7752 26.7429C62.2791 27.7559 62.2791 27.7559 61.7752 29.9844C61.876 30.187 62.1783 30.3896 62.3799 30.5922C62.5814 30.7948 62.6822 30.8961 62.8837 31.0987C62.3799 32.1117 61.876 33.0234 61.3721 34.0364C63.0853 34.9481 60.6667 36.3662 61.9767 37.4805C61.6744 37.6831 61.3721 37.8857 60.969 38.0883C60.4651 37.8857 59.7597 37.6831 59.0543 37.4805C58.752 36.4675 58.3488 35.3533 57.9457 34.0364C57.2403 34.3403 56.8372 34.5429 56.1318 34.8468C56.031 34.0364 56.031 33.4286 56.031 33.226C55.5272 32.7195 55.1241 32.3143 54.8217 31.9091C54.8217 31.9091 54.7209 31.9091 54.6202 32.0104C54.3178 32.7195 53.7132 33.3273 53.7132 34.0364C53.6124 35.252 53.1085 35.961 52.1008 36.5688C51.7985 36.7714 51.6977 37.1766 51.5969 37.4805C50.1861 37.3792 48.876 37.1766 47.4652 37.0753C47.4652 37.6831 47.3643 38.0883 47.3643 38.3922C46.0543 39.2026 44.9458 37.987 43.7365 38.0883C43.1318 37.4805 42.6279 36.974 42.124 36.4675C42.0232 35.1506 41.5194 33.9351 41.8217 32.7195C42.124 31.4026 41.9225 30.187 42.0233 28.8701C42.124 27.5532 42.0233 26.2364 41.721 24.9195C41.5194 25.7299 41.2171 26.5403 41.0155 27.452C40.814 28.3636 40.9147 29.3766 40.5116 30.187C40.0078 31.0987 40.2093 32.1117 40.0078 33.226C39.6047 32.9221 39.2016 32.8208 38.8993 32.6182C38.5969 33.226 38.2946 33.6312 38.093 34.1377C38.2946 34.5429 38.4961 34.9481 38.7984 35.5559C38.093 35.6571 37.4884 35.6572 36.6822 35.7585C37.0853 34.1377 35.9767 33.1247 35.5736 31.5039C35.0698 33.0234 35.4729 34.3403 35.1706 35.6572C34.8682 35.4546 34.7675 35.252 34.4651 35.1507C34.1628 35.0494 33.8605 35.1507 33.3566 35.1507C33.4574 34.239 32.9535 33.226 33.7597 32.5169C32.7519 31.0987 33.7597 29.3766 33.1551 27.7559C32.8527 27.9585 32.6512 28.161 32.4496 28.4649C32.1473 30.187 32.8527 32.1117 31.6434 33.7325C30.1318 33.5299 30.2326 31.5039 28.7209 31.3013C28.3178 32.1117 28.5194 33.4286 27.2093 33.9351C26.907 34.0364 26.7054 34.5429 26.7054 34.9481C26.6047 36.0623 25.5969 36.7714 25.5969 37.987C25.5969 38.1896 25.093 38.4935 24.6899 39C24.0853 37.987 23.5814 37.1766 23.783 35.961C23.9845 35.7584 24.2868 35.5559 24.6899 35.252C24.4884 34.7455 24.2868 34.3403 23.9845 33.8338C23.0775 34.1377 22.1705 35.0494 21.4651 33.8338C21.2636 32.213 20.9613 30.7948 20.8605 29.2753C20.7597 27.7559 20.8605 26.2364 20.5582 24.7169C20.2558 26.439 20.0543 28.1611 19.752 29.6805C19.1473 30.7948 18.6434 31.7065 18.0388 32.9221C18.0388 32.9221 17.8372 33.0234 17.4341 33.1247C17.4341 34.1377 17.4341 35.252 17.4341 36.8728C16.9302 36.265 16.6279 35.961 16.3256 35.5559C16.5271 35.252 16.7287 34.9481 16.8295 34.8468C16.6279 33.6312 16.5271 32.7195 16.3256 31.7065C16.124 31.7065 15.9225 31.6052 15.721 31.6052C15.6202 31.5039 15.5194 31.3013 15.5194 31.2C15.5194 29.9844 15.3179 28.6675 15.5194 27.5533C16.2248 24.5143 15.8217 21.4753 16.0233 18.4364C16.0233 17.7273 16.4264 16.9169 16.5272 16.2078C16.6279 15.4987 16.8294 14.7896 16.9302 14.1818C16.9302 13.574 17.031 12.8649 17.031 12.1558C17.031 11.3455 17.031 10.5351 17.3333 9.5221C17.4341 9.826 17.5349 10.1299 17.5349 10.4338C17.6357 10.3325 17.8372 10.2312 17.938 10.1299C17.938 11.2442 17.938 12.3585 17.938 13.4727C17.938 14.6883 17.6357 16.0052 18.0388 17.1195C18.4419 18.1325 17.1318 19.1455 18.3411 20.0572C18.4419 20.0572 18.0387 20.6649 17.938 20.9688C17.7364 22.387 18.0388 23.8052 18.7442 25.5273C19.3489 20.3611 20.155 15.6 20.155 10.6364C20.3566 11.2442 20.8605 11.852 20.8605 12.4598C20.8605 13.2701 21.062 14.1818 21.4651 14.6883C22.0698 15.4987 21.8682 16.2078 21.8682 17.0182C21.969 17.8286 21.8682 18.639 21.8682 19.4494C21.8682 20.2598 21.8682 21.0701 21.8682 22.0831C22.2713 21.6779 22.5737 21.4753 22.876 21.1715C22.6744 20.4624 23.2791 19.5506 22.4729 18.7403C21.8682 18.1325 22.876 17.626 22.5737 16.9169C22.3721 16.4104 22.3721 15.7013 22.3721 15.0935C22.3721 14.3844 22.3721 13.7766 22.5737 12.9663C23.0775 11.3455 22.9767 9.52208 22.4729 7.5974C23.0775 7.39481 23.783 7.19223 24.5892 6.98964C24.7907 6.38184 24.9923 5.57143 25.2946 4.15325C25.7985 5.06494 26.1008 5.47015 26.2016 5.97665C26.6047 7.49613 26.907 9.11688 27.6124 10.6364C27.6124 8.91429 27.6124 7.09092 27.6124 5.26754C28.2171 5.47014 28.5194 5.67275 28.9225 5.87534C29.124 7.09093 29.4264 8.40781 29.7287 9.92729C30.1318 9.5221 30.4341 9.31948 30.5349 9.11688C30.6356 8.71169 30.5349 8.30652 30.5349 8.00262C31.3411 7.59743 31.9457 7.29351 32.5504 7.09091C32.9535 7.4961 33.4574 8.00261 33.7597 8.30651C34.5659 8.00261 34.969 7.9013 35.2713 7.69871C35.3721 7.80001 35.4729 7.9013 35.4729 8.1039C35.0698 8.30649 34.5659 8.50912 34.4651 8.50912C34.4651 11.1429 34.4651 13.3715 34.4651 15.6C35.2713 14.7896 35.3721 13.8779 35.3721 12.8649C35.3721 12.1559 35.5737 11.3455 35.6744 10.4338C35.5737 10.3325 35.4729 10.0286 35.2713 9.72468C35.876 8.91429 36.4806 8.20521 37.0853 7.39482C37.8915 8.81301 37.9923 10.5351 38.3954 12.1558C38.5969 12.1558 38.7985 12.1558 39 12.1558C39.3023 10.839 39.5039 9.6234 39.8062 8.40781C40.3101 8.9143 40.9148 9.52209 41.721 10.3325C41.721 10.6364 41.6202 11.4468 41.721 12.2571C41.8217 12.9662 42.0233 13.7766 42.2248 14.587C43.1318 13.0676 43.6356 11.7506 43.6356 10.6364C43.6356 9.11688 43.6356 7.59742 43.6356 5.87534C44.2403 5.87534 44.7442 5.87534 45.4496 5.87534C45.6512 6.17924 45.9535 6.68572 46.2558 7.19221C48.2713 4.45715 48.5737 4.35586 51.093 5.26754C51.8992 6.48313 52 8.4078 54.217 8.2052C54.7209 9.01559 55.1241 9.82597 55.5272 10.6364C55.6279 10.3325 55.7287 10.0286 55.9302 9.4208C56.2326 9.92729 56.4341 10.3325 56.6357 10.7377C56.7364 10.6364 56.938 10.5351 57.0388 10.5351C57.0388 10.1299 56.938 9.82597 56.8372 9.11688C57.1396 8.0026 58.752 9.21819 59.3566 8.30651C59.5582 8.5091 59.8605 8.71171 60.0621 8.9143C59.8605 9.1169 59.7597 9.31948 59.4574 9.62338C60.1628 9.62338 60.6667 9.62338 61.1706 9.62338C61.7752 10.3325 62.3798 10.839 62.9845 11.5481C62.6822 11.6494 62.6822 12.1559 62.6822 12.7636C62.4806 12.7636 62.3799 12.9663 62.1783 13.0676C62.2791 13.1689 62.2791 13.1688 62.3799 13.2701C62.4806 13.0675 62.5814 12.9662 62.6822 12.7636ZM15.0155 9.21819C15.0155 8.81299 15.0155 8.4078 15.0155 7.80001C15.5194 8.7117 15.5194 8.71169 15.0155 9.21819ZM15.0155 33.7325C15.0155 33.4286 15.0155 33.226 15.0155 32.9221C15.1163 32.9221 15.2171 32.9221 15.2171 32.9221C15.3179 33.226 15.3178 33.4286 15.4186 33.7325C15.3178 33.6312 15.2171 33.7325 15.0155 33.7325ZM15.1163 6.88833C15.1163 6.58443 15.1163 6.28054 15.1163 5.87534C15.2171 5.87534 15.3178 5.87534 15.3178 5.87534C15.3178 6.17924 15.3178 6.48314 15.3178 6.88833C15.2171 6.88833 15.2171 6.88833 15.1163 6.88833ZM15.5194 5.47015C15.5194 5.06496 15.5194 4.76105 15.5194 4.65975C15.8217 4.86234 16.124 5.06495 16.4263 5.26754C16.124 5.36884 15.9225 5.36886 15.5194 5.47015ZM17.5349 3.95067C17.5349 3.64678 17.5349 3.34288 17.5349 2.93769C17.6357 2.93769 17.7365 2.93769 17.7365 2.93769C17.7365 3.24158 17.7365 3.54548 17.7365 3.95067C17.7365 3.95067 17.6357 3.95067 17.5349 3.95067ZM21.3644 25.9325C21.4651 25.9325 21.6667 25.9325 21.7675 25.8312C21.6667 25.5273 21.6667 25.3247 21.5659 25.0208C21.4651 25.0208 21.3644 25.0208 21.3644 25.0208C21.3644 25.3247 21.3644 25.6286 21.3644 25.9325ZM26.2016 32.7195C26.2016 32.8208 26.1008 32.8208 26.2016 32.7195C26.2016 32.9221 26.3023 33.1247 26.4031 33.226C26.5039 33.1247 26.5039 33.1247 26.6047 33.0234C26.5039 33.0234 26.3023 32.8208 26.2016 32.7195C26.1008 32.1117 26.1008 31.4026 26 30.7948C25.6977 30.7948 25.4962 30.7948 25.2946 30.8961C25.2946 31.5039 25.2946 32.213 25.2946 32.8208C25.5969 32.8208 25.7984 32.8208 26.2016 32.7195ZM27.814 30.3896C27.9148 30.3896 28.0155 30.3896 28.1163 30.3896C28.1163 29.2753 28.0155 28.1611 28.1163 27.0468C28.2171 25.9325 28.5194 24.7169 28.5194 23.6026C28.6201 19.1455 28.5194 14.6883 28.5194 10.3325C28.217 9.82599 28.0155 9.42079 27.6124 8.813C27.3101 12.2572 27.6124 15.2961 27.1086 18.4364C26.6047 21.6779 27.0077 25.1221 27.0077 28.4649C27.2093 28.9714 27.6124 29.6805 27.814 30.3896ZM29.9302 9.82599C29.8295 9.82599 29.7287 9.82599 29.7287 9.82599C29.7287 10.1299 29.7287 10.4338 29.7287 10.839C29.8295 10.839 29.9302 10.839 29.9302 10.839C29.9302 10.4338 29.9302 10.1299 29.9302 9.82599ZM31.845 7.90132C31.7442 7.90132 31.7442 7.90132 31.6434 7.90132C31.6434 8.10391 31.6434 8.20521 31.6434 8.40781C31.7442 8.40781 31.7442 8.40781 31.845 8.40781C31.845 8.20521 31.845 8.00262 31.845 7.90132ZM32.5504 19.5507C32.6512 19.5507 32.8527 19.5507 32.9535 19.5507C32.9535 18.4364 32.9535 17.3221 32.9535 16.2078C32.9535 15.0935 33.0543 13.9792 32.5504 12.8649C32.5504 15.0935 32.5504 17.3221 32.5504 19.5507ZM35.3721 28.5662C35.3721 28.6675 35.3721 28.6676 35.3721 28.7689C35.5737 28.7689 35.6745 28.7689 35.876 28.7689C35.876 28.6676 35.876 28.6675 35.876 28.5662C35.7752 28.5662 35.5737 28.5662 35.3721 28.5662ZM35.4729 23.9065C35.5737 23.9065 35.7752 23.9065 35.876 23.8052C35.7752 23.5013 35.7752 23.2987 35.6744 22.9948C35.5737 22.9948 35.4729 22.9948 35.4729 22.9948C35.4729 23.4 35.4729 23.7039 35.4729 23.9065ZM36.5814 9.82599C36.6822 9.82599 36.6822 9.82599 36.7829 9.82599C36.7829 9.62339 36.7829 9.52209 36.7829 9.31949C36.6822 9.31949 36.6822 9.31949 36.5814 9.31949C36.5814 9.52209 36.5814 9.62339 36.5814 9.82599ZM38.3954 17.9299C39.1008 18.5377 38.8993 19.1455 38.3954 19.9559C38.0931 20.5636 38.2946 21.5766 38.2946 22.387C38.2946 23.1974 38.2946 24.0078 38.2946 24.8182C38.2946 25.6286 38.2946 26.439 38.2946 27.2494C38.2946 27.9585 38.093 28.6675 38.6977 29.8831C38.7985 27.1481 39.8062 25.2234 39.7055 22.9948C39.7055 20.6649 39.7054 18.4364 40.1085 16.1065C40.5116 13.8779 40.2093 11.6494 40.2093 9.11688C39.7055 9.62338 39.5039 9.92728 39.2016 10.2312C39.5039 12.561 39 15.0935 38.3954 17.9299ZM41.1163 34.8468C41.1163 35.1507 41.1163 35.3533 41.1163 35.6572C41.0155 35.6572 40.9148 35.6572 40.9148 35.6572C40.814 35.3533 40.814 35.1507 40.7132 34.8468C40.9148 34.8468 41.0155 34.8468 41.1163 34.8468ZM47.1628 36.265C47.5659 36.1637 47.7675 36.1636 48.0698 36.0623C47.6667 35.7584 47.3643 35.5558 47.1628 35.4545C47.1628 35.6571 47.1628 35.8598 47.1628 36.265ZM48.876 5.47015C48.7752 5.47015 48.7752 5.47015 48.6744 5.47015C48.6744 5.67275 48.6744 5.77405 48.6744 5.97665C48.7752 5.97665 48.7752 5.97665 48.876 5.97665C48.876 5.77405 48.876 5.57145 48.876 5.47015ZM50.5892 7.39482C50.6899 7.39482 50.7907 7.39482 50.7907 7.39482C50.7907 7.09093 50.7907 6.78703 50.7907 6.38184C50.6899 6.38184 50.5892 6.38184 50.5892 6.38184C50.5892 6.68573 50.5892 7.09093 50.5892 7.39482ZM60.0621 36.6701C59.9613 36.6701 59.9613 36.6701 59.8605 36.6701C59.8605 36.8727 59.8605 36.974 59.8605 37.1766C59.9613 37.1766 59.9613 37.1766 60.0621 37.1766C60.0621 37.0753 60.0621 36.8727 60.0621 36.6701Z" fill="white"/>
</svg>
