<svg width="478" height="26" viewBox="0 0 478 26" fill="none" xmlns="http://www.w3.org/2000/svg">
<path d="M431.196 21.3527C423.629 21.2271 416.062 21.3527 408.495 21.3527C400.928 21.3527 393.361 21.3527 385.794 21.3527C381.701 20.4734 377.483 20.9758 373.389 20.8502C369.296 20.7246 365.078 20.4734 360.984 20.9758C357.015 21.3527 353.045 21.2271 348.952 21.3527C344.982 21.4783 341.012 21.3527 337.043 21.3527C334.934 21.3527 332.949 20.599 330.84 20.8502C328.731 20.9758 326.499 20.8502 324.142 20.8502C324.266 22.6087 323.645 24.3671 325.134 26C324.142 26 323.273 26 322.281 26C322.777 24.3671 322.901 22.6087 321.909 20.8502C321.288 20.8502 320.42 20.8502 319.676 20.8502C293.005 20.8502 266.459 20.8502 239.788 20.8502C238.795 20.8502 237.803 21.3527 236.935 20.4734C235.942 21.4783 234.826 20.8502 233.833 20.8502C232.841 20.9758 231.725 20.8502 230.732 20.8502C229.616 20.8502 228.499 20.8502 227.383 20.8502C226.391 20.8502 225.274 20.8502 224.282 20.8502C223.165 20.8502 222.049 20.8502 220.932 20.8502C219.94 20.8502 218.823 20.8502 217.831 20.8502C216.715 20.8502 215.598 20.8502 214.482 20.8502C213.489 20.8502 212.373 20.8502 211.38 20.8502C210.264 20.8502 209.148 20.8502 208.031 20.8502C207.039 20.8502 205.922 20.9758 204.93 20.8502C197.363 19.971 189.796 20.4734 182.105 20.3478C174.29 20.2222 166.475 20.3478 158.783 20.3478C157.915 20.3478 157.047 19.971 156.302 20.8502C156.178 20.9758 155.806 20.9758 155.558 20.8502C153.821 19.8454 151.961 20.4734 150.224 20.3478C144.766 20.2222 139.308 20.3478 133.725 20.3478C131.493 20.3478 129.26 19.971 127.027 19.8454C124.794 19.7198 122.561 19.5942 120.328 19.8454C114.622 20.599 109.04 20.0966 103.333 20.2222C97.503 20.3478 91.6727 20.2222 85.9664 20.2222C80.2601 20.2222 74.5538 20.599 68.8475 20.0966C61.2805 19.4686 53.7135 19.8454 46.1465 19.7198C38.5794 19.5942 31.0124 19.7198 23.4454 19.7198C15.7543 19.7198 8.18727 19.7198 0.496191 19.7198C0.372141 19.7198 0.248099 19.7198 0 19.5942C0 19.2174 0 18.8406 0 18.2126C0.372149 18.2126 0.868347 18.2126 1.2405 18.2126C25.9264 18.2126 50.4882 18.2126 75.1741 18.2126C81.1284 19.0918 87.0828 18.5894 93.1613 18.715C99.1156 18.8406 105.07 19.0918 111.024 18.5894C119.956 17.9614 128.888 18.4638 137.819 18.2126C143.525 19.2174 149.356 18.5894 155.062 18.715C160.768 18.8406 166.475 18.715 172.181 18.715C174.538 18.715 176.771 17.8358 179.128 18.2126C185.206 19.0918 191.409 18.5894 197.487 18.715C203.689 18.715 209.892 18.3382 216.094 18.8406C221.304 19.2174 226.515 19.0918 231.601 19.2174C236.811 19.343 242.021 19.5942 247.107 19.0918C252.069 18.5894 257.031 18.8406 261.993 18.715C266.955 18.5894 272.041 18.3382 277.003 18.8406C282.461 19.343 287.795 19.0918 293.253 19.2174C298.711 19.343 304.046 19.2174 309.504 19.2174C310.372 19.2174 311.364 19.7198 312.109 18.715C312.977 19.971 313.721 18.715 314.59 18.715C315.582 18.715 316.699 18.715 317.691 18.715C318.683 18.715 319.552 18.715 320.544 18.715C321.537 18.715 322.529 18.5894 323.397 18.715C328.111 19.5942 332.949 19.0918 337.787 19.0918C342.749 19.2174 347.587 19.0918 352.549 19.0918C357.387 19.0918 362.225 19.0918 367.063 19.0918C367.311 19.0918 367.683 19.0918 368.427 19.0918C367.187 17.8357 365.574 17.2077 365.822 15.4493C366.939 14.8213 367.311 15.7005 367.931 16.2029C368.427 16.7053 368.923 17.0821 369.544 17.4589C369.296 17.8357 368.923 18.3382 368.551 18.8406C370.66 19.2174 408.123 19.343 415.318 19.0918C415.69 18.715 414.45 18.4638 415.318 18.087C415.566 17.9613 415.318 17.3333 415.566 16.9565C415.814 16.5797 416.186 16.2029 416.683 15.8261C417.055 15.8261 417.551 15.8261 417.923 15.8261C419.288 15.7005 420.28 16.4541 421.024 17.4589C421.645 18.2126 422.141 18.9662 422.513 19.7198C426.483 19.7198 430.452 19.7198 434.174 19.7198C435.662 17.0821 435.662 14.0676 437.151 11.5556C437.151 11.5556 437.275 11.5556 437.523 11.5556C438.267 13.0628 436.531 14.0676 436.655 15.5749C436.655 16.8309 435.786 18.087 435.414 19.343C435.414 19.343 435.414 19.343 435.29 19.2174C435.166 19.343 435.042 19.4686 434.918 19.5942L435.042 19.7198C435.166 19.5942 435.29 19.4686 435.414 19.343C441.989 20.2222 448.563 19.7198 455.138 19.7198C455.634 19.7198 456.006 19.7198 456.503 19.7198C463.573 19.8454 470.644 19.7198 477.715 19.7198C478.335 20.4734 477.839 21.1014 477.219 21.6039C476.474 21.6039 475.73 21.6039 474.986 21.6039C467.791 21.6039 460.472 21.9807 453.277 21.4783C446.082 21.227 438.639 21.3527 431.196 21.3527ZM23.5694 19.0918C23.4454 18.9662 23.4454 18.9662 23.4454 18.9662C23.4454 19.0918 23.3213 19.2174 23.3213 19.343C23.3213 19.343 23.3213 19.4686 23.4454 19.4686C23.4454 19.2174 23.4454 19.0918 23.5694 19.0918ZM23.3213 19.343C23.3213 19.2174 23.4454 19.0918 23.4454 19.0918C23.4454 19.0918 23.4454 19.2174 23.3213 19.343ZM40.6883 19.2174C40.6883 19.2174 40.6883 19.0918 40.5642 19.0918C40.5642 19.0918 40.5642 18.9662 40.4402 18.9662L40.3161 19.0918C40.3161 19.2174 40.4402 19.343 40.4402 19.343C40.5642 19.343 40.6883 19.2174 40.6883 19.2174ZM40.5642 18.8406L40.4402 18.9662C40.4402 18.9662 40.5642 18.9662 40.5642 18.8406C40.5642 18.8406 40.5642 18.9662 40.6883 18.9662C40.5642 18.9662 40.5642 18.9662 40.5642 18.8406ZM66.1185 1.25604C65.7463 0.753623 65.3741 0.376812 65.126 0C65.7463 0 66.3665 0 66.9868 0C66.7387 0.376812 66.4906 0.753623 66.1185 1.25604ZM86.7107 0.502408C86.7107 0.376804 86.5866 0.251196 86.5866 0.125592C86.7107 0.125592 86.9588 0.125592 87.0828 0.125592C86.9588 0.125592 86.8347 0.2512 86.7107 0.502408ZM90.9284 0C91.5486 0 92.1689 0 92.7891 0C92.9132 2.51208 93.5334 4.39614 94.6499 5.65217C94.4018 5.90338 94.2777 6.15459 93.9056 6.28019C93.6575 6.4058 93.2853 6.28019 93.0372 6.28019C92.665 5.90338 92.2929 5.52657 91.7967 5.02416C91.9207 3.3913 91.5486 1.63285 90.9284 0ZM164.118 4.77295C164.49 5.02416 164.862 5.27536 165.234 5.52656C165.358 8.03864 165.358 8.03865 166.971 9.79711C168.956 9.5459 170.816 9.42029 172.801 9.16909C172.801 9.79711 172.801 10.1739 172.801 10.6763C170.444 10.4251 168.335 11.6812 165.854 11.0531C163.125 8.28986 163.125 8.28986 164.118 4.77295ZM183.717 7.41062C183.593 7.03381 183.593 6.78261 183.469 6.5314C184.214 6.15459 184.958 5.77777 185.95 5.27536C185.702 6.90821 184.462 6.90821 183.717 7.41062ZM185.578 7.28503C185.578 7.41063 185.702 7.53623 185.702 7.53623C185.578 7.66184 185.578 7.66183 185.578 7.66183C185.578 7.66183 185.578 7.53623 185.454 7.53623C185.454 7.53623 185.454 7.41062 185.33 7.41062C185.454 7.41062 185.578 7.28503 185.578 7.28503ZM186.943 8.66666C186.943 8.41545 186.819 8.16426 186.695 7.91305C186.819 7.91305 186.943 7.91305 187.067 7.91305C187.067 8.16426 187.067 8.41545 187.067 8.66666C187.067 8.66666 187.067 8.66666 186.943 8.66666ZM217.459 2.13526C216.715 1.88405 216.342 1.88406 215.97 1.88406C216.467 1.88406 216.963 1.88406 217.335 1.88406C217.335 2.00966 217.459 2.00966 217.459 2.13526ZM217.211 1.88406C216.839 1.88406 216.342 1.88406 215.846 1.88406C216.715 1.50725 216.715 1.50725 217.211 1.88406ZM217.459 2.13526C217.707 2.00966 217.831 2.00965 218.079 2.00965C218.203 2.00965 218.203 2.13527 218.575 2.51208C217.955 2.38647 217.583 2.26087 217.459 2.13526ZM226.142 6.7826C226.391 7.03381 226.887 7.28502 226.887 7.53623C226.887 9.29469 227.631 10.9275 227.879 12.686C227.879 12.8116 227.755 12.9372 227.755 13.0628C226.515 13.1884 226.763 11.9324 226.142 11.4299C226.391 9.92269 224.654 8.41545 226.142 6.7826ZM290.028 12.058L289.904 11.9324C290.028 11.8068 290.152 11.6812 290.276 11.5556C290.276 11.8068 290.152 11.9324 290.028 12.058ZM290.276 11.6812C290.4 11.5556 290.648 11.3043 290.772 11.1787L290.276 11.6812ZM290.648 11.0531C290.896 10.5507 291.268 10.1739 291.641 9.54588C292.013 10.6763 291.393 10.9275 290.648 11.0531ZM298.463 4.77295C298.339 4.77295 298.215 4.77295 298.091 4.77295C298.091 4.52174 298.091 4.27053 298.091 4.01932C298.215 4.01932 298.215 4.01932 298.339 4.01932C298.339 4.27053 298.339 4.52174 298.463 4.77295ZM298.587 0.502408C298.587 0.376804 298.463 0.251196 298.463 0.125592C298.587 0.125592 298.836 0.125592 298.96 0.125592C298.836 0.125592 298.711 0.2512 298.587 0.502408ZM321.288 10.9275C321.785 10.9275 322.157 10.9275 322.529 10.9275C322.777 11.1787 323.149 11.6811 323.521 12.058C322.653 12.1836 321.661 12.3092 321.288 10.9275ZM335.43 4.89854C335.43 4.77294 335.306 4.64733 335.306 4.52173L335.43 4.39614C335.43 4.52174 335.554 4.64734 335.554 4.64734C335.554 4.77294 335.43 4.77294 335.43 4.89854ZM396.835 17.3333C396.835 17.3333 396.835 17.2077 396.711 17.2077L396.835 17.0821C396.835 17.2077 396.959 17.3333 396.959 17.3333C396.835 17.4589 396.835 17.4589 396.835 17.4589C396.959 17.3333 396.959 17.3333 396.835 17.3333ZM396.959 17.4589L397.083 17.3333C397.083 17.3333 396.959 17.3333 396.959 17.4589C396.959 17.4589 396.959 17.3333 396.835 17.3333C396.959 17.3333 396.959 17.3333 396.959 17.4589ZM421.396 19.2174C420.528 18.3382 419.66 17.4589 418.667 16.4541C418.419 16.4541 417.923 16.4541 417.675 16.4541C417.055 16.9565 416.559 17.3333 416.31 17.5845C416.31 18.2126 416.31 18.715 416.31 19.2174C417.923 19.4686 419.536 18.9662 420.9 19.5942C421.148 19.4686 421.272 19.343 421.396 19.2174ZM435.91 19.343C442.485 20.2222 449.06 19.7198 455.634 19.7198C448.935 19.8454 442.361 20.2222 435.91 19.343ZM461.34 5.77777C461.34 5.65216 461.216 5.52657 461.216 5.40097L461.34 5.27536C461.34 5.40096 461.465 5.52656 461.465 5.52656C461.465 5.77777 461.464 5.77777 461.34 5.77777ZM461.216 5.52656L461.34 5.40097C461.34 5.52657 461.465 5.65217 461.465 5.65217C461.465 5.52657 461.34 5.40097 461.34 5.40097C461.34 5.40097 461.216 5.40096 461.216 5.52656Z" fill="white"/>
</svg>
