<svg width="85" height="28" viewBox="0 0 85 28" fill="none" xmlns="http://www.w3.org/2000/svg">
<path d="M12.8546 27.1686C10.8617 27.5619 8.96834 27.6602 6.77607 26.9719C7.77256 26.1851 8.47009 25.5951 9.26728 25.005C8.86869 24.3167 8.47008 23.7266 8.07149 23.0382C8.37043 21.7598 8.07149 20.9731 7.57325 19.8913C7.07501 18.9079 6.67641 17.7278 6.57676 16.6461C6.37747 14.7776 6.57676 12.8108 6.57676 10.9423C4.28485 10.2539 2.09261 11.2373 0 10.1556C0 8.7788 0 7.50036 0 6.12358C3.18875 5.23852 7.07501 5.4352 7.6729 0.813176C9.36692 0.813176 10.9613 0.813176 12.755 0.813176C13.2532 9.56552 12.755 18.2195 12.8546 27.1686ZM10.8617 21.8581C10.1641 22.4482 9.76552 22.7432 9.26728 23.1366C9.66587 23.6283 9.96481 23.825 10.5627 24.415C10.6623 23.4316 10.762 22.8416 10.8617 21.8581ZM17.6377 2.87831C20.1289 0.518129 23.0188 -0.268581 26.3071 0.223124C30.4924 0.81317 33.0832 3.17335 34.279 7.10699C35.973 12.7124 35.8734 18.1212 32.8839 23.2349C29.9941 28.2503 23.1184 29.4304 18.3353 25.8901C16.5416 24.5134 15.3458 22.5465 15.6448 19.793C17.6377 19.793 19.2321 19.793 21.0258 19.793C21.3247 20.2847 21.6237 20.8747 22.0223 21.4648C22.8194 22.6449 24.0152 23.1366 25.5099 22.9399C27.0047 22.7432 27.7022 21.8581 28.2005 20.678C28.4994 19.6946 28.6987 18.6129 28.9976 17.3345C28.0012 17.8262 27.3036 18.1212 26.6061 18.4162C21.0258 20.4814 14.9472 15.9577 15.0469 10.4506C14.9472 7.69703 15.4455 5.04182 17.6377 2.87831ZM24.9121 14.0892C28.3001 13.0075 29.3962 10.0572 27.7022 7.20534C26.4068 5.04184 23.517 4.94349 22.1219 7.10699C20.2286 9.86054 21.4244 12.9091 24.9121 14.0892ZM51.6178 15.8593C51.0199 15.9577 50.6213 16.056 50.2227 16.056C49.9238 15.171 49.7245 14.3842 49.4255 13.5975C49.3259 13.5975 49.1266 13.5975 49.027 13.5975C48.9273 14.1876 48.8276 14.6792 48.728 15.2693C48.6283 15.8593 48.5287 16.5477 48.4291 17.5311C47.1336 19.1046 45.041 19.2029 42.9484 18.8096C37.7667 18.0228 34.7773 13.4008 35.5745 8.18875C36.6706 1.5999 44.4431 -2.13705 50.422 1.30488C52.9132 2.78 54.408 5.04184 55.1055 7.69705C55.6037 9.76221 55.7034 11.9257 55.9027 14.0892C56.0023 15.2693 55.6037 16.1543 54.408 16.6461C53.0129 17.4328 52.3154 16.7444 51.6178 15.8593ZM49.2262 21.4648C50.5217 23.2349 50.9203 24.71 50.422 26.2835C47.3329 28.3486 42.1512 28.447 39.4607 26.4802C37.0691 24.71 35.7737 22.0548 36.4713 19.8913C37.8663 19.8913 39.361 19.6946 40.7561 19.8913C41.2544 19.9897 41.9519 20.5797 42.2508 21.1697C43.7456 23.4316 45.1407 23.7266 47.5323 22.2515C48.0305 21.8581 48.6283 21.6615 49.2262 21.4648ZM49.027 9.86053C49.027 7.40201 47.5322 5.63187 45.4396 5.53353C43.4466 5.43519 41.8523 7.79538 41.7526 9.95888C41.7526 12.3191 43.4467 14.1875 45.5393 14.1875C47.8312 14.0892 49.027 12.6141 49.027 9.86053ZM59.1911 13.6958C59.3904 13.5975 59.5897 13.4008 59.8886 13.2041C55.803 9.76218 56.3013 3.86174 60.8851 1.59989C64.3728 -0.170245 68.1594 -0.268592 71.7468 1.50155C75.1348 3.17334 76.6296 7.10698 75.2345 10.3522C74.8359 11.3356 73.939 12.2207 73.2415 13.2041C74.0387 13.8925 75.0352 14.5809 75.7327 15.5643C78.6225 19.793 76.6296 24.3167 72.7433 26.5785C69.7538 28.2503 66.6647 28.152 63.3763 27.7586C62.6788 27.6603 61.9813 27.7586 61.2837 27.7586C60.3869 26.8735 59.1911 25.9885 58.2943 24.9067C55.5041 21.4648 54.4079 17.2361 59.1911 13.6958ZM66.1664 23.0382C68.7573 23.1366 70.3517 21.8581 70.3517 19.498C70.3517 17.1378 69.0563 15.761 66.5651 15.761C64.0739 15.6626 62.1805 17.1378 62.0809 19.2029C61.8816 21.2681 63.7749 22.9399 66.1664 23.0382ZM63.5756 10.1556C65.9672 11.5323 67.9601 11.434 69.1559 9.95888C70.0527 8.97547 70.0527 7.402 69.1559 6.32025C68.1594 5.04182 66.0668 4.64846 64.4725 5.53353C62.9777 6.61528 62.6788 7.69705 63.5756 10.1556ZM78.3236 21.2681C80.6155 21.2681 82.7081 21.2681 85 21.2681C85 23.3333 85 25.3001 85 27.4636C82.8077 28.0536 80.6155 27.8569 78.3236 27.6603C78.3236 25.4968 78.3236 23.4316 78.3236 21.2681Z" fill="white"/>
</svg>
