<svg width="27" height="101" viewBox="0 0 27 101" fill="none" xmlns="http://www.w3.org/2000/svg">
<path d="M4.40002 77.6693C4.00002 77.6693 4.3 77.3702 4 77.0711C3.9 77.0711 3.7 76.8717 3.5 76.7719C3.4 76.5725 3.30001 76.3731 3.20001 76.1737C3.10001 75.4758 3.4 74.8776 4 74.2794C4.9 73.382 5.89998 72.7838 7.09998 72.385C7.69998 72.1856 8.20001 71.8865 8.70001 71.5874C9.20001 71.2883 9.89999 71.1885 10.3 70.7897C10.4 70.69 10.5 70.7897 10.6 70.7897C10.7 70.5903 10.8 70.4906 11 70.2912C11.1 70.3909 11.1 70.3909 11.2 70.4906C11.2 70.4906 11.2 70.4906 11.3 70.3909C11.2 70.2912 11.2 70.2912 11.1 70.2912C10.5 69.7927 9.79998 69.5933 9.09998 69.3939C7.79998 69.0948 6.69999 68.5962 5.79999 67.6989C5.69999 67.2004 5.99999 66.8016 6.29999 66.5025C7.29999 65.306 7.89998 64.0099 7.59998 62.5143C7.39998 61.2182 7.50002 60.0217 7.40002 58.8253C7.40002 58.6259 7.39999 58.4264 7.29999 58.227C7.09999 57.8282 7.09999 57.4294 7.29999 57.0306C7.39999 56.9309 7.40002 56.7315 7.40002 56.6318C7.50002 55.5351 7.8 54.7374 8.5 53.541C8.9 52.843 9.2 51.9457 9.5 51.1481C9.7 50.6496 9.7 50.0513 10 49.5528C10.4 48.7552 10.1 48.0572 9.79999 47.3593C9.49999 46.5617 9 45.8638 9 45.0661C8.5 44.1688 8.79998 43.2715 9.09998 42.3741C9.19998 41.9753 9.1 41.4768 10 41.3771C9.1 41.078 8.50002 40.8786 7.90002 40.5795C7.90002 40.4798 7.80001 40.2804 7.70001 40.1807C8.10001 39.7818 8.6 39.383 9 38.8845C9.4 38.4857 9.90001 38.1866 10.2 37.6881C10.2 37.389 10.2 37.0898 10.2 36.691C10 36.4916 9.69998 36.2922 9.59998 36.1925C9.49998 35.3949 9.39999 34.8963 9.29999 34.2981C9.19999 33.6999 9.49998 33.1017 9.09998 32.5035C8.99998 32.304 9.09998 31.9052 9.09998 31.6061C9.09998 26.8203 9.09998 22.0346 9.09998 17.2488C9.09998 16.85 9.30002 16.4511 8.90002 16.0523C9.20002 15.7532 9.19998 15.3544 9.09998 15.0553C8.79998 14.3574 8.90002 13.6594 8.90002 12.9615C8.90002 12.5627 9.1 12.1639 9 11.8647C8.8 11.4659 8.90002 11.0671 8.90002 10.6683C8.90002 10.3692 8.80002 9.87069 8.90002 9.67128C9.20002 9.37217 8.69999 9.17275 8.79999 8.87363C8.89999 8.57452 8.79999 8.17571 8.79999 7.8766C8.79999 7.57749 8.79999 7.17867 8.79999 6.87956C8.79999 6.58045 8.79999 6.28134 8.79999 5.98223C8.79999 5.68312 8.79999 5.2843 8.79999 4.88548C8.59999 4.78578 8.39998 4.58638 8.09998 4.48667C8.09998 4.08786 8.09998 3.68905 8.09998 3.58934C8.49998 2.3929 8.89999 1.29616 9.29999 0.0997099C9.79999 1.69497 10.5 2.99111 10.6 4.48667C10.3 4.58638 10 4.68607 9.70001 4.88548C9.70001 8.37512 9.70001 11.7651 9.70001 15.0553C9.90001 15.3544 9.99999 15.7532 10.3 16.2517C9.99999 16.0523 9.90001 15.9526 9.70001 15.8529C9.70001 16.7502 9.70001 17.5479 9.70001 18.2458C9.70001 19.0434 9.80001 19.9408 9.70001 20.7384C9.60001 21.536 10.3 22.234 9.70001 22.9319C10 23.7295 9.90002 24.4275 9.90002 25.2251C9.90002 26.0227 9.90002 26.9201 9.90002 27.7177C9.90002 28.5153 9.90002 29.3129 9.90002 30.1106C10.2 30.5094 10.9 30.5094 10.9 31.1076C11.2 31.1076 11.4 31.1076 11.6 31.1076C11.8 30.8085 11.9 30.6091 12.1 30.4097C12.3 30.5094 12.4 30.6091 12.7 30.7088C12.6 30.0109 12 29.5123 12.3 28.8144C12.6 29.0138 12.8 29.5124 13.3 29.2132C13 28.4156 13.1 28.2162 14 28.1165C14.2 27.618 13.9 26.92 14.2 26.4215C13.9 25.923 14 25.3248 14.1 24.7266C14.1 24.4275 14.1 24.1283 14.1 23.7295C14.1 22.8322 14.1 21.9348 14.1 21.0375C14.1 20.9378 14.2 20.9378 14.3 20.8381C13.9 20.539 14 20.2399 14.3 19.9408C14.2 19.6417 14.1 19.2428 14.1 18.9437C14.1 13.5597 14.1 8.17573 14.1 2.69202C14.1 2.1935 14.2 1.69497 14.3 1.29615C14.4 0.997041 13.9 0.897341 14.2 0.598229C14.3 0.498525 14.3 0.199408 14.4 0C14.6 0 14.8 0 15 0C15 0.398815 15 0.797637 15 1.09675C15 9.07305 15 17.0494 15 25.0257C15 26.0227 14.9 27.0197 15.3 27.9171C15.5 28.0168 15.7 28.1165 16 28.3159C15.9 28.9141 15.9 29.612 15.7 30.1106C15.4 30.8085 15.4 31.5064 15.1 32.1046C14.9 32.5035 14.9 32.6031 14.5 32.8026C14.6 33.3011 14.6 33.7996 14.7 34.2981C15.4 34.7966 15.4 35.4946 15.3 36.2922C15.6 36.7907 15.9 37.2892 16.2 37.7877C15.8 38.386 16 38.9842 15.9 39.4827C15.5 39.8815 15.1 40.2804 14.7 40.6792C15.4 41.078 15.9 41.6762 16.7 41.7759C16.9 41.5765 17.1 41.4768 17.3 41.2774C17.4 41.2774 17.5 41.3771 17.6 41.3771C18.3 42.2744 19 43.2715 19.7 44.1688C20.2 44.8667 20.5 45.5646 21.1 46.2626C21.3 46.5617 21.4 46.9605 21.6 47.1599C22.5 48.157 23.1 49.4531 23.9 50.4501C24.2 50.849 24.4 51.4472 24.6 52.0454C23.9 52.0454 23.4 52.0454 22.9 52.0454C23 52.9427 23.6 53.4413 24 54.0395C24.6 54.8371 24.8 55.8341 24.9 56.7315C24.9 56.8312 24.9 56.9309 24.8 57.0306C24.8 57.1303 24.7 57.1303 24.7 57.1303C24.8 57.3297 24.9 57.5291 25 57.6288C25.7 57.7285 26.3 57.8282 27 57.9279C27 58.1273 27 58.227 27 58.3267C26 58.227 25.2 59.1244 24.4 58.8253C23.7 59.2241 23.2 59.5232 22.7 59.7226C22.1 60.0217 21.6 60.4205 21.3 61.0188C21.1 61.4176 20.9 61.8164 20.7 62.1155C20.9 62.2152 21.1 62.4146 21.4 62.5143C21.3 63.2122 20.4 63.1125 20.2 63.9102C20.2 63.9102 20.2 64.1096 20.2 64.309C21.5 65.8045 23.3 66.8016 24.6 68.3968C24.5 68.4965 24.3 68.6959 24.2 68.7956C23.8 68.7956 23.5 68.7956 23 68.7956C22.9 68.9951 22.7 69.1945 22.5 69.3939C22.5 69.3939 22.5 69.3939 22.5 69.4936C22.5 69.7927 22.4 70.0918 22.5 70.3909C22.5 70.69 22.7 70.8894 22.8 71.1885C22.9 71.4876 22.8 71.8865 22.9 72.1856C22.9 72.385 23 72.6841 23.1 73.0829C22.8 73.4817 23 74.2794 22.4 74.7779C21.9 75.2764 21.5 75.8746 21.1 76.3731C20.1 76.3731 19.3 76.8717 18.4 77.3702C17.5 77.2705 16.6 77.4699 15.7 77.9684C15.6 77.9684 15.5 77.8687 15.4 77.769C15.4 77.8687 15.3 77.9684 15.3 78.0681C14.7 78.2675 14 78.3672 13.4 78.5666C12.8 78.766 12.1 78.766 11.5 79.2645C11 79.6634 10.3 79.6634 9.5 79.8628C9.5 79.8628 9.29998 79.6634 9.09998 79.7631C8.19998 80.0622 7.60002 80.5607 6.90002 81.2586C6.90002 81.3583 6.99998 81.458 7.09998 81.6574C7.09998 81.6574 7.00002 81.7571 6.90002 81.8569C6.90002 82.4551 6.90002 83.0533 6.90002 83.5518C6.90002 84.0503 7.00001 84.6486 7.20001 85.0474C7.40001 85.4462 7.30002 85.845 7.40002 86.3435C6.80002 86.2438 6.30001 86.1441 5.70001 86.0444C5.10001 86.2438 4.70002 86.6426 4.40002 87.3406C4.30002 87.6397 4.30001 88.1382 4.20001 88.6367C4.60001 89.2349 4.10002 90.1323 4.40002 90.7305C4.80002 91.4284 4.29999 92.2261 4.79999 92.924C5.09999 93.5222 5.09999 94.2201 5.29999 94.9181C5.49999 95.616 5.7 96.3139 6 96.9121C6.3 97.6101 6.60002 98.2083 6.90002 99.0059C6.90002 99.2053 6.90002 99.6041 6.90002 100.003C6.50002 100.302 6.10001 100.701 5.70001 101C5.30001 100.801 4.99999 100.801 4.79999 100.302C4.59999 99.9032 3.99998 100.003 3.59998 99.8035C3.39998 99.7038 3.09999 99.8035 2.79999 99.8035C2.59999 99.4047 2.39999 99.0059 2.29999 98.7068C2.19999 97.9092 2.2 97.1115 2 96.4136C1.6 94.7187 1.79999 92.924 1.79999 91.229C1.79999 91.0296 1.69998 90.9299 1.59998 90.8302C1.69998 90.4314 1.79999 90.1323 1.79999 89.7334C1.79999 89.3346 1.79999 88.9358 1.79999 88.4373C1.79999 88.0385 1.70002 87.6397 1.90002 87.3406C2.10002 86.9417 1.69999 86.7423 1.79999 86.3435C1.19999 86.4432 0.6 86.5429 0 86.6426C0 86.3435 0 86.1441 0 85.9447C0 85.845 0.100012 85.6456 0.200012 85.5459C0.500012 84.848 0.7 84.0503 1 83.3524C1.4 82.5548 2 81.8569 2.5 81.0592C2.5 80.8598 2.5 80.6604 2.5 80.3613C2.1 80.3613 1.60001 80.3613 1.20001 80.2616C1.10001 80.0622 1.00002 79.7631 0.900024 79.5637C1.20002 79.0652 1.69998 78.9654 2.09998 78.6663C2.89998 78.8657 3.90002 78.5666 4.40002 77.6693C4.50002 77.6693 4.59998 77.5696 4.59998 77.5696C4.59998 77.5696 4.6 77.5696 4.5 77.4699C4.5 77.5696 4.40002 77.5696 4.40002 77.6693ZM10.7 31.9052C10.8 31.9052 10.8 31.9052 10.9 31.9052C10.9 31.8055 10.8 31.6061 10.8 31.5064H10.7C10.7 31.6061 10.7 31.8055 11.1 31.9052C11 31.9052 11 31.9052 10.9 31.9052C10.9 32.0049 11 32.2043 11 32.304H11.1C11.1 32.2043 11.1 32.0049 10.7 31.9052ZM14 39.9812C13.9 40.0809 13.9 40.1807 13.9 40.1807H14C14 40.081 14 40.0809 14 39.9812ZM14.8 39.8815C14.8 39.7818 14.8 39.7818 14.8 39.6821C14.7 39.6821 14.5 39.7818 14.4 39.7818V39.8815C14.5 39.8815 14.6 39.8815 14.8 39.8815ZM16 49.6525C16 49.7522 16 49.7522 16 49.8519C16.1 49.8519 16.3 49.7522 16.4 49.7522V49.6525C16.2 49.6525 16.1 49.6525 16 49.6525ZM16.6 49.6525V49.7522C16.8 49.7522 16.9 49.7522 17.1 49.7522V49.6525C17 49.6525 16.8 49.6525 16.6 49.6525ZM17.6 50.0513C17.8 50.0513 18 50.0513 18.4 50.0513C18.2 49.7522 18.1 49.5528 17.9 49.3534C17.8 49.6525 17.7 49.8519 17.6 50.0513ZM18.5 49.9516V50.0513C18.7 50.0513 18.8 50.0513 19 50.0513V49.9516C18.8 49.9516 18.6 49.9516 18.5 49.9516Z" fill="white"/>
</svg>
