<svg width="144" height="144" viewBox="0 0 144 144" fill="none" xmlns="http://www.w3.org/2000/svg">
<rect width="144" height="144" fill="#0E0E0E"/>
<path d="M113.581 89.6023C112.271 86.4579 112.402 83.7065 112.14 81.3482C109.52 77.8107 107.293 74.7973 105.59 72.439C106.769 68.3775 106.769 64.1849 108.865 61.8266C111.485 58.6822 108.603 54.2276 112.14 52.3933C110.699 48.0698 109.389 44.2702 107.948 39.8156C107.686 39.5536 106.769 38.6365 105.983 37.8504C99.3015 30.9065 91.1792 27.5 81.6158 27.5C67.2053 27.631 52.6638 27.5 38.7773 27.5C35.7642 29.8583 33.2751 31.9546 30.262 34.3129C30.786 35.099 31.441 36.2782 31.8341 36.8022C31.31 40.0777 30.524 42.698 30.524 45.4494C30.786 51.3452 31.5721 57.11 32.2271 63.0058C32.6201 66.0192 33.1441 68.9016 33.6681 72.177C32.8821 72.57 31.5721 73.0941 30 73.8802C34.0611 79.907 31.31 86.5889 32.2271 93.0088C33.2751 99.4286 35.6332 105.849 32.8821 111.613C34.1921 113.448 35.3712 115.02 36.2882 116.33C41.2664 116.33 45.5896 116.33 49.9127 116.33C54.2359 116.33 58.559 116.33 62.8822 116.33C67.4673 116.33 72.1835 115.937 76.7687 116.461C80.6988 116.854 84.4979 114.103 88.4281 116.199C89.0831 116.592 90.3932 115.675 91.4412 115.282C95.5023 113.317 99.6945 111.482 103.756 109.255C109.52 105.98 115.677 94.843 113.581 89.6023ZM63.9302 57.503C67.7294 57.503 71.6595 57.503 76.2446 57.503C75.0656 59.4683 74.1486 60.7785 73.4936 61.9576C68.9084 63.1368 65.6333 61.5646 62.7512 59.3373C63.1442 58.6822 63.5372 58.1581 63.9302 57.503ZM78.7337 93.6639C74.1486 93.6639 70.0874 93.6639 65.5023 93.6639C64.0612 91.1745 62.8822 89.0783 61.3101 86.4579C62.6202 85.0167 64.1922 83.4445 65.7643 81.7413C72.1835 80.9552 78.3407 81.4792 84.367 85.5408C82.2709 88.4232 80.4368 91.1745 78.7337 93.6639Z" fill="white"/>
</svg>
