<svg width="48" height="48" viewBox="0 0 48 48" fill="none" xmlns="http://www.w3.org/2000/svg">
<rect width="48" height="48" fill="#0E0E0E"/>
<path d="M37.8603 29.8674C37.4236 28.8193 37.4673 27.9022 37.38 27.1161C36.5066 25.9369 35.7643 24.9324 35.1966 24.1463C35.5896 22.7925 35.5896 21.395 36.2883 20.6089C37.1616 19.5607 36.2009 18.0758 37.38 17.4644C36.8996 16.0232 36.463 14.7567 35.9826 13.2719C35.8953 13.1845 35.5896 12.8788 35.3276 12.6168C33.1005 10.3021 30.3931 9.16666 27.2053 9.16666C22.4018 9.21033 17.5546 9.16666 12.9258 9.16666C11.9214 9.95276 11.0917 10.6515 10.0873 11.4376C10.262 11.6997 10.4803 12.0927 10.6114 12.2674C10.4367 13.3592 10.1747 14.2327 10.1747 15.1498C10.262 17.1151 10.524 19.0366 10.7424 21.0019C10.8734 22.0064 11.048 22.9672 11.2227 24.059C10.9607 24.19 10.524 24.3647 10 24.6267C11.3537 26.6357 10.4367 28.863 10.7424 31.0029C11.0917 33.1429 11.8777 35.2828 10.9607 37.2044C11.3974 37.8158 11.7904 38.3399 12.0961 38.7766C13.7555 38.7766 15.1965 38.7766 16.6376 38.7766C18.0786 38.7766 19.5197 38.7766 20.9607 38.7766C22.4891 38.7766 24.0612 38.6456 25.5896 38.8203C26.8996 38.9513 28.166 38.0342 29.476 38.733C29.6944 38.864 30.1311 38.5583 30.4804 38.4272C31.8341 37.7722 33.2315 37.1607 34.5852 36.4183C36.5066 35.3265 38.559 31.6143 37.8603 29.8674ZM21.3101 19.1677C22.5765 19.1677 23.8865 19.1677 25.4149 19.1677C25.0219 19.8228 24.7162 20.2595 24.4979 20.6525C22.9695 21.0456 21.8778 20.5215 20.9171 19.7791C21.0481 19.5607 21.1791 19.386 21.3101 19.1677ZM26.2446 31.2213C24.7162 31.2213 23.3625 31.2213 21.8341 31.2213C21.3537 30.3915 20.9607 29.6927 20.4367 28.8193C20.8734 28.3389 21.3974 27.8148 21.9214 27.2471C24.0612 26.985 26.1136 27.1597 28.1223 28.5136C27.4236 29.4744 26.8123 30.3915 26.2446 31.2213Z" fill="white"/>
</svg>
