<svg width="96" height="96" viewBox="0 0 96 96" fill="none" xmlns="http://www.w3.org/2000/svg">
<rect width="96" height="96" fill="#0E0E0E"/>
<path d="M75.7207 59.7349C74.8473 57.6386 74.9346 55.8044 74.76 54.2321C73.0132 51.8738 71.5285 49.8649 70.3931 48.2927C71.1792 45.585 71.1792 42.7899 72.5766 41.2177C74.3233 39.1214 72.4019 36.1517 74.76 34.9289C73.7993 32.0465 72.9259 29.5135 71.9652 26.5438C71.7905 26.3691 71.1792 25.7577 70.6552 25.2336C66.201 20.6043 60.7861 18.3333 54.4106 18.3333C44.8036 18.4207 35.1092 18.3333 25.8515 18.3333C23.8428 19.9055 22.1834 21.3031 20.1747 22.8753C20.524 23.3993 20.9607 24.1854 21.2227 24.5348C20.8734 26.7185 20.3493 28.4654 20.3493 30.2996C20.524 34.2301 21.048 38.0733 21.4847 42.0038C21.7467 44.0128 22.0961 45.9344 22.4454 48.118C21.9214 48.38 21.048 48.7294 20 49.2535C22.7074 53.2713 20.8734 57.7259 21.4847 62.0058C22.1834 66.2858 23.7555 70.5657 21.9214 74.4088C22.7948 75.6317 23.5808 76.6798 24.1921 77.5533C27.5109 77.5533 30.393 77.5533 33.2751 77.5533C36.1572 77.5533 39.0393 77.5533 41.9214 77.5533C44.9782 77.5533 48.1223 77.2912 51.1791 77.6406C53.7992 77.9026 56.332 76.0684 58.9521 77.4659C59.3887 77.728 60.2621 77.1165 60.9608 76.8545C63.6682 75.5443 66.463 74.3215 69.1704 72.8366C73.0132 70.653 77.118 63.2287 75.7207 59.7349ZM42.6201 38.3353C45.1529 38.3353 47.773 38.3353 50.8298 38.3353C50.0437 39.6455 49.4324 40.519 48.9957 41.3051C45.9389 42.0912 43.7555 41.043 41.8341 39.5582C42.0961 39.1214 42.3581 38.7721 42.6201 38.3353ZM52.4892 62.4426C49.4324 62.4426 46.725 62.4426 43.6682 62.4426C42.7075 60.783 41.9215 59.3855 40.8734 57.6386C41.7468 56.6778 42.7948 55.6297 43.8428 54.4942C48.1223 53.9701 52.2272 54.3195 56.2446 57.0272C54.8473 58.9488 53.6245 60.783 52.4892 62.4426Z" fill="white"/>
</svg>
